<?xml version="1.0" encoding="utf-8"?>
<!-- Generator: Adobe Illustrator 25.4.1, SVG Export Plug-In . SVG Version: 6.00 Build 0)  -->
<svg version="1.1" id="Layer_1" xmlns="http://www.w3.org/2000/svg" xmlns:xlink="http://www.w3.org/1999/xlink" x="0px" y="0px"
	 viewBox="0 0 790.04 285" style="enable-background:new 0 0 790.04 285;" xml:space="preserve">
<style type="text/css">
	.st0{fill:#F4F3EF;}
	.st1{fill:none;stroke:#FF6562;}
	.st2{fill:#808080;}
	.st3{font-family:'Montserrat-Bold';}
	.st4{font-size:9px;}
	.st5{letter-spacing:3;}
	.st6{fill:none;}
	.st7{font-family:'Lora-BoldItalic';}
	.st8{font-size:10px;}
	.st9{letter-spacing:27;}
	.st10{font-family:'Lora-Italic';}
	.st11{letter-spacing:33;}
	.st12{letter-spacing:25;}
	.st13{letter-spacing:18;}
	.st14{letter-spacing:26;}
	.st15{letter-spacing:22;}
	.st16{letter-spacing:20;}
	.st17{letter-spacing:6;}
	.st18{letter-spacing:30;}
	.st19{letter-spacing:23;}
	.st20{letter-spacing:21;}
	.st21{letter-spacing:10;}
</style>
<rect class="st0" width="790.04" height="285"/>
<line class="st1" x1="42.58" y1="30.84" x2="103.51" y2="30.84"/>
<g>
	<text transform="matrix(1 0 0 1 42.5779 47.8299)" class="st2 st3 st4 st5">STRATEGY COMMITTEE MEMBERS</text>
</g>
<g>
	<rect x="62" y="78" class="st6" width="338" height="165"/>
	<text transform="matrix(1 0 0 1 61.9999 85.5496)"><tspan x="0" y="0" class="st2 st7 st8">1.</tspan><tspan x="6.3" y="0" class="st2 st7 st8 st9">	</tspan><tspan x="36" y="0" class="st2 st7 st8">Carley Bruning</tspan><tspan x="106.95" y="0" class="st2 st10 st8">, Thayer County Economic Development Alliance </tspan><tspan x="329.86" y="0" class="st2 st10 st8 st9">	</tspan><tspan x="0" y="16" class="st2 st10 st8 st11">		</tspan><tspan x="72" y="16" class="st2 st10 st8">(TCEDA)</tspan><tspan x="0" y="32" class="st2 st7 st8">2.</tspan><tspan x="7.55" y="32" class="st2 st7 st8 st12">	</tspan><tspan x="36" y="32" class="st2 st7 st8">Marguerite Himmelberg</tspan><tspan x="147.34" y="32" class="st2 st10 st8">, Southeast Community College (SCC)</tspan><tspan x="0" y="48" class="st2 st7 st8">3.</tspan><tspan x="7.79" y="48" class="st2 st7 st8 st12">	</tspan><tspan x="36" y="48" class="st2 st7 st8">Lisa Hurley</tspan><tspan x="90.01" y="48" class="st2 st10 st8">, York County Development Corporation (YCDC)</tspan><tspan x="0" y="64" class="st2 st7 st8">4.</tspan><tspan x="7.66" y="64" class="st2 st7 st8 st12">	</tspan><tspan x="36" y="64" class="st2 st7 st8">Caleb Fjone</tspan><tspan x="88.62" y="64" class="st2 st10 st8">, Ashland Area Economic Development Council </tspan><tspan x="302.62" y="64" class="st2 st10 st8 st13">	</tspan><tspan x="324" y="64" class="st2 st10 st8 st11">	</tspan><tspan x="0" y="80" class="st2 st10 st8 st11">		</tspan><tspan x="72" y="80" class="st2 st10 st8">(AAEDC) </tspan><tspan x="0" y="96" class="st2 st7 st8">5.</tspan><tspan x="7.62" y="96" class="st2 st7 st8 st12">	</tspan><tspan x="36" y="96" class="st2 st7 st8">Dan Mauk</tspan><tspan x="84.12" y="96" class="st2 st10 st8">, Nebraska City Area Economic Development </tspan><tspan x="288.22" y="96" class="st2 st10 st8 st11">	</tspan><tspan x="324" y="96" class="st2 st10 st8 st11">	</tspan><tspan x="0" y="112" class="st2 st10 st8 st11">		</tspan><tspan x="72" y="112" class="st2 st10 st8">Corporation (NCAEDC)</tspan><tspan x="0" y="128" class="st2 st7 st8">6.</tspan><tspan x="7.93" y="128" class="st2 st7 st8 st12">	</tspan><tspan x="36" y="128" class="st2 st7 st8">Brook Aken</tspan><tspan x="87.94" y="128" class="st2 st10 st8">, Omaha Public Power District (OPPD)</tspan><tspan x="0" y="144" class="st2 st7 st8">7.</tspan><tspan x="6.93" y="144" class="st2 st7 st8 st14">	</tspan><tspan x="36" y="144" class="st2 st7 st8">Rick Nelsen</tspan><tspan x="89.44" y="144" class="st2 st10 st8">, Nebraska Public Power District (NPPD)</tspan></text>
</g>
<g>
	<rect x="454" y="78" class="st6" width="281.63" height="172"/>
	<text transform="matrix(1 0 0 1 454 85.5498)"><tspan x="0" y="0" class="st2 st7 st8">8. </tspan><tspan x="10.58" y="0" class="st2 st7 st8 st15">	</tspan><tspan x="36" y="0" class="st2 st7 st8">Rex Nelson</tspan><tspan x="86.73" y="0" class="st2 st10 st8">, University of Nebraska at </tspan><tspan x="210.02" y="0" class="st2 st10 st8 st5">	</tspan><tspan x="216" y="0" class="st2 st10 st8 st11">		</tspan><tspan x="0" y="16" class="st2 st10 st8 st11">		</tspan><tspan x="72" y="16" class="st2 st10 st8">Lincoln-Extension</tspan><tspan x="0" y="32" class="st2 st7 st8">9.</tspan><tspan x="7.94" y="32" class="st2 st7 st8 st12">	</tspan><tspan x="36" y="32" class="st2 st7 st8">Trevor Lee</tspan><tspan x="84.83" y="32" class="st2 st10 st8">, Gage Area Growth Enterprise (NGAGE)</tspan><tspan x="0" y="48" class="st2 st7 st8">10.</tspan><tspan x="12.55" y="48" class="st2 st7 st8 st16">	</tspan><tspan x="36" y="48" class="st2 st7 st8">Jonathan Jank</tspan><tspan x="102.32" y="48" class="st2 st10 st8">, Seward County Chamber and </tspan><tspan x="243.21" y="48" class="st2 st10 st8 st17">	</tspan><tspan x="252" y="48" class="st2 st10 st8"> </tspan><tspan x="254.63" y="48" class="st2 st10 st8 st18">	</tspan><tspan x="0" y="64" class="st2 st10 st8 st11">		</tspan><tspan x="72" y="64" class="st2 st10 st8">Development Partnership (SCCDP)</tspan><tspan x="0" y="80" class="st2 st7 st8">11.</tspan><tspan x="10.27" y="80" class="st2 st7 st8 st19">	</tspan><tspan x="36" y="80" class="st2 st7 st8">Stephanie Fisher</tspan><tspan x="113.09" y="80" class="st2 st10 st8">, City of Waverly</tspan><tspan x="0" y="96" class="st2 st7 st8">12.</tspan><tspan x="11.52" y="96" class="st2 st7 st8 st20">	</tspan><tspan x="36" y="96" class="st2 st7 st8">Renee Dozier</tspan><tspan x="95.98" y="96" class="st2 st10 st8">, Region 5 Systems</tspan><tspan x="0" y="112" class="st2 st7 st8">13.</tspan><tspan x="11.76" y="112" class="st2 st7 st8 st20">	</tspan><tspan x="36" y="112" class="st2 st7 st8">Theresa Klein</tspan><tspan x="99.17" y="112" class="st2 st10 st8">, Wahoo Chamber &amp; Economic </tspan><tspan x="238.55" y="112" class="st2 st10 st8 st21">	</tspan><tspan x="252" y="112" class="st2 st10 st8 st11">	</tspan><tspan x="0" y="128" class="st2 st10 st8 st11">		</tspan><tspan x="72" y="128" class="st2 st10 st8">Development</tspan><tspan x="0" y="144" class="st2 st7 st8">14.</tspan><tspan x="11.63" y="144" class="st2 st7 st8 st20">	</tspan><tspan x="36" y="144" class="st2 st7 st8">Lucas Froeschl</tspan><tspan x="103.29" y="144" class="st2 st10 st8">,</tspan><tspan x="105.66" y="144" class="st2 st10 st8">	</tspan><tspan x="108" y="144" class="st2 st10 st8">Falls City Economic Development and </tspan><tspan x="281.51" y="144" class="st2 st10 st8 st5">	</tspan><tspan x="0" y="160" class="st2 st10 st8 st11">		</tspan><tspan x="72" y="160" class="st2 st10 st8">Growth Enterprise (EDGE)</tspan></text>
</g>
</svg>
