<svg id="Layer_1" data-name="Layer 1" xmlns="http://www.w3.org/2000/svg" viewBox="0 0 889.72 298"><defs><style>.cls-1,.cls-14{fill:#f4f3ef;}.cls-2,.cls-4,.cls-9{fill:#f47e4d;}.cls-3,.cls-6{fill:none;}.cls-3,.cls-4,.cls-6,.cls-9{stroke:#054972;}.cls-3,.cls-9{stroke-linecap:round;stroke-linejoin:round;}.cls-4{stroke-miterlimit:10;}.cls-5{font-size:8px;font-family:Montserrat-Bold, Montserrat;font-weight:700;letter-spacing:0.39em;}.cls-12,.cls-5,.cls-7{fill:#054972;}.cls-7,.cls-8{font-size:10px;font-family:Lora-Italic, Lora;font-style:italic;letter-spacing:0.03em;}.cls-11,.cls-8{fill:#ef3751;}.cls-10{fill:#0b9899;}.cls-13{fill:#be2702;}.cls-14{font-size:12px;font-family:Montserrat-SemiBold, Montserrat;font-weight:600;}.cls-15{letter-spacing:-0.02em;}.cls-16{letter-spacing:-0.01em;}.cls-17{letter-spacing:0em;}.cls-18{letter-spacing:-0.01em;}.cls-19{letter-spacing:0.01em;}</style></defs><rect class="cls-1" width="889.72" height="298"/><line class="cls-2" x1="207.96" y1="62.46" x2="341.74" y2="62.46"/><line class="cls-3" x1="207.96" y1="62.46" x2="341.74" y2="62.46"/><circle class="cls-4" cx="341.72" cy="62.46" r="2.86"/><text class="cls-5" transform="translate(698.77 64.2)">PRIORITIES</text><line class="cls-6" x1="698.77" y1="47.7" x2="757.93" y2="47.7"/><text class="cls-7" transform="translate(369.16 54.82)">Increase regional growth and, resilience that enhances <tspan x="0" y="11">our natural, built, and community systems throughout </tspan><tspan x="0" y="22">the southeast Nebraska region.</tspan></text><text class="cls-8" transform="translate(746.29 99.28)">Local Business</text><text class="cls-8" transform="translate(746.29 128.46)">Infrastructure <tspan x="0" y="10">Development</tspan></text><text class="cls-8" transform="translate(746.29 160.02)">Housing Access and <tspan x="0" y="10">Affordability</tspan></text><text class="cls-7" transform="translate(746.29 195.11)">Regional Engagement</text><text class="cls-7" transform="translate(746.29 227.78)">Quality of Life <tspan x="0" y="10">Enhancement</tspan></text><line class="cls-2" x1="306.64" y1="253.24" x2="341.72" y2="253.24"/><line class="cls-3" x1="306.64" y1="253.24" x2="341.72" y2="253.24"/><circle class="cls-9" cx="341.72" cy="253.24" r="2.86"/><text class="cls-7" transform="translate(746.29 260.45)">Disaster Planning and <tspan x="0" y="10">Resilience</tspan></text><text class="cls-7" transform="translate(369.16 114.47)">The CEDS stakeholders and public input resolved on five <tspan x="0" y="11">goals that will drive the region to a more resilient </tspan><tspan x="0" y="22">economy.</tspan></text><text class="cls-7" transform="translate(369.16 174.62)">The priorities were primarily informed by the CEDS <tspan x="0" y="11">Stakeholder and input from members of the public. A </tspan><tspan x="0" y="22">total of six priorities were identified for the 2021-2025 </tspan><tspan x="0" y="33">CEDS.</tspan></text><text class="cls-7" transform="translate(369.16 245.59)">An action plan that outlines a framework for the <tspan x="0" y="11">addressing priorities utilizing Specific, Measurable, </tspan><tspan x="0" y="22">Attainable, Reachable, and Timely (SMART) strategies.</tspan></text><line class="cls-2" x1="272.72" y1="187.91" x2="341.72" y2="187.91"/><line class="cls-3" x1="272.72" y1="187.91" x2="341.72" y2="187.91"/><circle class="cls-9" cx="341.72" cy="187.91" r="2.86"/><polygon class="cls-10" points="52.31 277.75 326.55 277.75 291.33 220.56 87.53 220.56 52.31 277.75"/><polygon class="cls-11" points="189.43 26.96 153.05 86.03 225.8 86.03 189.43 26.96"/><polygon class="cls-12" points="225.8 95.4 153.05 95.4 120.14 148.84 258.71 148.84 225.8 95.4"/><polygon class="cls-2" points="120.14 158.22 87.53 211.19 291.33 211.19 258.71 158.22 120.14 158.22"/><polygon class="cls-13" points="153.05 86.03 171.77 95.4 225.8 95.4 208.22 86.03 153.05 86.03"/><polygon class="cls-13" points="120.13 148.84 155.78 158.22 258.73 158.22 225.24 148.84 120.13 148.84"/><polygon class="cls-13" points="87.72 211.19 139.95 220.56 290.73 220.56 241.68 211.19 87.72 211.19"/><text class="cls-14" transform="translate(164.31 77.97)">1 <tspan class="cls-15" x="7.88" y="0">V</tspan><tspan x="16.45" y="0">ISION</tspan></text><text class="cls-14" transform="translate(161.31 138.5)">5 G<tspan class="cls-16" x="19.58" y="0">O</tspan><tspan x="29.57" y="0">A</tspan><tspan class="cls-17" x="38.56" y="0">L</tspan><tspan x="45.68" y="0">S</tspan></text><text class="cls-14" transform="translate(145.72 203.44)">6 <tspan class="cls-16" x="10.84" y="0">P</tspan><tspan x="19.43" y="0">RIORITIES</tspan></text><text class="cls-14" transform="translate(143.69 271.18)"><tspan class="cls-16">A</tspan><tspan class="cls-18" x="8.87" y="0">C</tspan><tspan x="17.5" y="0">TION </tspan><tspan class="cls-16" x="51.68" y="0">P</tspan><tspan class="cls-19" x="60.27" y="0">L</tspan><tspan x="67.52" y="0">AN</tspan></text><g id="Artwork_99" data-name="Artwork 99"><path class="cls-11" d="M724,105.68h-5.68a4.53,4.53,0,0,1-3.33-1.44,4,4,0,0,1-1.08-3.11l.8-9.55a.74.74,0,0,1,.74-.68h11.42a.74.74,0,0,1,.74.68l.81,9.55a4.09,4.09,0,0,1-1.08,3.11A4.56,4.56,0,0,1,724,105.68Zm-7.87-13.29-.74,8.86a2.53,2.53,0,0,0,.69,2,3,3,0,0,0,2.24,1H724a3,3,0,0,0,2.24-1,2.57,2.57,0,0,0,.7-2l-.75-8.86Z"/><path class="cls-11" d="M723.58,93.48a.74.74,0,0,1-.74-.74V90.65a1.67,1.67,0,0,0-3.33,0v2.09a.75.75,0,0,1-.75.74.74.74,0,0,1-.74-.74V90.65a3.15,3.15,0,0,1,6.3,0v2.09A.74.74,0,0,1,723.58,93.48Z"/><path class="cls-11" d="M721.17,92.48"/><path class="cls-11" d="M721.17,94.41"/></g><path class="cls-11" d="M728.63,128.76a.71.71,0,0,1-.53-.22,9.81,9.81,0,0,0-13.86-.07.74.74,0,0,1-1-1.06,11.27,11.27,0,0,1,15.95.09.74.74,0,0,1,0,1.05A.77.77,0,0,1,728.63,128.76Z"/><path class="cls-11" d="M731,126.62a.77.77,0,0,1-.53-.22,13.07,13.07,0,0,0-9.28-3.91h-.07a13,13,0,0,0-9.25,3.81.74.74,0,1,1-1-1,14.54,14.54,0,0,1,10.3-4.24h.08a14.53,14.53,0,0,1,10.32,4.34.74.74,0,0,1,0,1.05A.76.76,0,0,1,731,126.62Z"/><path class="cls-11" d="M726.45,131a.74.74,0,0,1-.52-.22,6.74,6.74,0,0,0-9.52,0,.73.73,0,0,1-1,0,.74.74,0,0,1,0-1,8.17,8.17,0,0,1,5.77-2.37h.05a8.13,8.13,0,0,1,5.79,2.43.75.75,0,0,1-.53,1.27Z"/><path class="cls-11" d="M724.13,133.1a.73.73,0,0,1-.53-.22,3.46,3.46,0,0,0-2.43-1h0a3.4,3.4,0,0,0-2.42,1,.75.75,0,0,1-1-1.06,4.89,4.89,0,0,1,3.47-1.42h0a4.82,4.82,0,0,1,3.47,1.46.74.74,0,0,1,0,1A.75.75,0,0,1,724.13,133.1Z"/><circle class="cls-11" cx="721.17" cy="134.63" r="1.55"/><g id="Artwork_102" data-name="Artwork 102"><path class="cls-11" d="M720.15,168.29H715a.74.74,0,0,1-.74-.74v-6a.74.74,0,1,1,1.48,0v5.23h4.45a.74.74,0,1,1,0,1.48Z"/><path class="cls-11" d="M727.38,168.29h-4a.74.74,0,0,1-.74-.72l-.06-2a.72.72,0,0,1,.71-.76h0a.73.73,0,0,1,.74.72l0,1.24h2.58v-5.23a.75.75,0,0,1,.74-.75.76.76,0,0,1,.75.75v6A.75.75,0,0,1,727.38,168.29Z"/><path class="cls-11" d="M721.17,160.09"/><path class="cls-11" d="M721.17,160.09"/><path class="cls-11" d="M729.44,161.32a.74.74,0,0,1-.52-.22L722.77,155a2.21,2.21,0,0,0-1.6-.66,2.25,2.25,0,0,0-1.6.66l-6.15,6.15a.74.74,0,0,1-1-1l6.15-6.15a3.74,3.74,0,0,1,5.3,0l6.15,6.15a.74.74,0,0,1,0,1A.79.79,0,0,1,729.44,161.32Z"/></g><g id="Artwork_104" data-name="Artwork 104"><path class="cls-12" d="M722,196.81a3.78,3.78,0,1,1,3.77-3.78A3.78,3.78,0,0,1,722,196.81Zm0-6.07a2.29,2.29,0,1,0,2.29,2.29A2.3,2.3,0,0,0,722,190.74Z"/><path class="cls-12" d="M715.37,191.73a2.84,2.84,0,1,1,2.84-2.84A2.84,2.84,0,0,1,715.37,191.73Zm0-4.44a1.6,1.6,0,1,0,1.6,1.6A1.6,1.6,0,0,0,715.37,187.29Z"/><path class="cls-12" d="M727.27,200.05a2.54,2.54,0,1,1,2.54-2.54A2.54,2.54,0,0,1,727.27,200.05Zm0-3.84a1.3,1.3,0,1,0,1.3,1.3A1.3,1.3,0,0,0,727.27,196.21Z"/><path class="cls-12" d="M726.19,188.69a2.32,2.32,0,0,1-.89-.18,2.27,2.27,0,0,1-1.22-1.25,2.3,2.3,0,0,1,1.26-3,2.28,2.28,0,0,1,1.71,4.23A2.35,2.35,0,0,1,726.19,188.69Zm0-3.33a1.1,1.1,0,0,0-.4.08,1,1,0,0,0-.57.56,1.06,1.06,0,0,0,0,.8,1,1,0,0,0,.56.57,1.06,1.06,0,0,0,.8,0,1,1,0,0,0,.57-.56,1.06,1.06,0,0,0,0-.8,1,1,0,0,0-.56-.56A1,1,0,0,0,726.2,185.36Z"/><path class="cls-12" d="M716.83,200.88a2.4,2.4,0,1,1,2.4-2.4A2.4,2.4,0,0,1,716.83,200.88Zm0-3.57a1.17,1.17,0,1,0,1.17,1.17A1.17,1.17,0,0,0,716.83,197.31Z"/><path class="cls-12" d="M725.51,196.81a.62.62,0,0,1-.44-.18l-1.2-1.22a.62.62,0,0,1,0-.88.61.61,0,0,1,.87,0l1.2,1.22a.62.62,0,0,1-.44,1.05Z"/><path class="cls-12" d="M718.21,197.7a.66.66,0,0,1-.44-.17.64.64,0,0,1,0-.88l1.76-1.78a.62.62,0,1,1,.88.86l-1.75,1.79A.62.62,0,0,1,718.21,197.7Z"/><path class="cls-12" d="M723.62,190.78a.69.69,0,0,1-.36-.11.62.62,0,0,1-.14-.87l1.33-1.87a.63.63,0,0,1,.87-.14.62.62,0,0,1,.14.86l-1.33,1.87A.62.62,0,0,1,723.62,190.78Z"/><path class="cls-12" d="M719.3,192.22a.55.55,0,0,1-.32-.1l-2.2-1.35a.62.62,0,0,1,.65-1.06l2.2,1.36a.62.62,0,0,1-.33,1.15Z"/></g><g id="Artwork_105" data-name="Artwork 105"><path class="cls-12" d="M718.79,232.12a.74.74,0,0,1-.7-.49l-2.36-6.45-.65,2.14a.74.74,0,0,1-.71.53h-2.31a.76.76,0,0,1-.75-.75.75.75,0,0,1,.75-.74h1.76l1.13-3.74a.74.74,0,0,1,1.41,0l2.36,6.45,3.54-11.7a.74.74,0,0,1,1.41,0l2.07,5.66h4.55a.74.74,0,0,1,0,1.48h-5.07a.72.72,0,0,1-.69-.48L723,219.89l-3.54,11.7a.74.74,0,0,1-.69.53Z"/></g><path class="cls-12" d="M729.45,264.33H712.9a.76.76,0,0,1-.65-.38.75.75,0,0,1,0-.74l8.28-14.33a.74.74,0,0,1,.64-.37.73.73,0,0,1,.64.37l8.28,14.33a.75.75,0,0,1-.64,1.12Zm-15.27-1.49h14l-7-12.11Z"/><path class="cls-12" d="M721.17,259.57l.44-4.59a.44.44,0,0,0-.44-.47h0a.44.44,0,0,0-.44.47Z"/><path class="cls-12" d="M721.17,259.82a.24.24,0,0,1-.24-.23l-.45-4.58h0a.72.72,0,0,1,.19-.52.68.68,0,0,1,.5-.22.69.69,0,0,1,.69.74h0l-.44,4.58A.25.25,0,0,1,721.17,259.82ZM721,255l.19,2,.2-2a.2.2,0,0,0-.06-.14.17.17,0,0,0-.14-.06.2.2,0,0,0-.14.06A.16.16,0,0,0,721,255Z"/><line class="cls-3" x1="235.16" y1="122.12" x2="341.72" y2="122.12"/><circle class="cls-9" cx="341.72" cy="122.12" r="2.86"/></svg>