<svg id="Layer_1" data-name="Layer 1" xmlns="http://www.w3.org/2000/svg" viewBox="0 0 794.01 612.03"><defs><style>.cls-1{fill:#f3f3ef;}.cls-12,.cls-13,.cls-17,.cls-18,.cls-2,.cls-6,.cls-7,.cls-8{fill:none;}.cls-12,.cls-2,.cls-6{stroke:#f47e4d;}.cls-12,.cls-2{stroke-width:2px;}.cls-3,.cls-4,.cls-5{font-size:10px;}.cls-10,.cls-11,.cls-14,.cls-15,.cls-3,.cls-4,.cls-5,.cls-9{fill:#084872;}.cls-14,.cls-15,.cls-3,.cls-5{font-family:Montserrat-Bold, Montserrat;font-weight:700;}.cls-3{letter-spacing:0.39em;}.cls-4{font-family:Lora-Italic, Lora;font-style:italic;}.cls-5{letter-spacing:0.39em;}.cls-13,.cls-17,.cls-18,.cls-6,.cls-7,.cls-8{stroke-linecap:round;}.cls-6,.cls-7{stroke-width:3px;}.cls-13,.cls-7{stroke:#084872;}.cls-13,.cls-17,.cls-18,.cls-7,.cls-8{stroke-linejoin:round;}.cls-17,.cls-18,.cls-8{stroke:#10999a;}.cls-8{stroke-width:6px;}.cls-9{font-size:10.71px;}.cls-10,.cls-9{font-family:Montserrat-Regular, Montserrat;}.cls-10,.cls-14,.cls-15{font-size:7px;}.cls-10{letter-spacing:0.01em;}.cls-11{font-size:24px;font-family:Lato-Light, Lato;font-weight:300;}.cls-12{stroke-miterlimit:10;}.cls-13{stroke-width:4px;}.cls-14{letter-spacing:0.39em;}.cls-15{letter-spacing:0.39em;}.cls-16,.cls-18{opacity:0.7;}.cls-18{fill-rule:evenodd;}</style></defs><rect class="cls-1" width="794.01" height="612.03"/><line class="cls-2" x1="559.85" y1="174.19" x2="646.25" y2="174.19"/><text class="cls-3" transform="translate(559.85 198.28)">POPULATION TREND</text><text class="cls-4" transform="translate(559.85 220.7)">The SENDD region shows a decline in <tspan x="0" y="12">population growth from 2010 to 2050</tspan></text><line class="cls-2" x1="68.85" y1="45.19" x2="155.25" y2="45.19"/><text class="cls-5" transform="translate(68.85 69.28)">2019 AVERAGE MEDIAN AGE</text><polyline class="cls-6" points="70.92 305.86 154.04 341.75 237.16 370.2 320.28 398.37 403.4 424.05 486.52 439.79 569.64 446.69 652.77 442 735.89 437.03"/><polyline class="cls-7" points="70.92 427.36 154.04 391.46 237.16 363.02 320.28 334.85 403.4 309.17 486.52 293.43 569.64 286.52 652.77 291.22 735.89 296.19"/><polyline class="cls-8" points="88.02 225.42 165.89 241.71 243.77 258 321.64 277.06 399.51 300.25 477.39 325.94 555.26 356.59 633.14 393.59 711.01 434.19"/><line class="cls-8" x1="149.4" y1="444.43" x2="183.53" y2="444.43"/><line class="cls-6" x1="149.4" y1="462.28" x2="183.53" y2="462.28"/><line class="cls-7" x1="149.4" y1="480.12" x2="183.53" y2="480.12"/><text class="cls-9" transform="translate(148.84 523.54)">2015</text><text class="cls-9" transform="translate(64.46 524.06)">2010</text><text class="cls-9" transform="translate(479.99 524.06)">2035</text><text class="cls-9" transform="translate(563.09 524.06)">2040</text><text class="cls-9" transform="translate(656.26 524.36)">2045</text><text class="cls-9" transform="translate(730.05 524.36)">2050</text><text class="cls-9" transform="translate(238.49 522.18)">2020</text><text class="cls-9" transform="translate(316.38 522.18)">2025</text><text class="cls-9" transform="translate(394.24 522.18)">2030</text><text class="cls-9" transform="translate(201.09 448.06)">Total Population</text><text class="cls-9" transform="translate(39.15 228.95)">159,513</text><text class="cls-9" transform="translate(714.55 426.06)">133,290</text><text class="cls-9" transform="translate(740.44 300.74)">53%</text><text class="cls-9" transform="translate(745.6 440.38)">47%</text><text class="cls-9" transform="translate(47.29 434.19)">47%</text><text class="cls-9" transform="translate(43.2 311.11)">53%</text><text class="cls-9" transform="translate(201.09 464.22)">% of Population under 45</text><text class="cls-9" transform="translate(201.14 481.09)">% of Population of 45 and Older</text><text class="cls-10" transform="translate(147 564.1)">Source: December 2015 Nebraska County Projections, Center for Public Affairs Research, UNO, 2021 U.S Census<tspan x="0" y="8.4">* Does not include Lancaster County</tspan></text><text class="cls-11" transform="translate(234.16 132.2)">44.6</text><circle class="cls-12" cx="257.87" cy="125.12" r="31.03"/><path class="cls-13" d="M257.87,156.9a31,31,0,0,1-4.46-61.74" transform="translate(0 -0.75)"/><text class="cls-11" transform="translate(325.8 132.2)">36.8</text><circle class="cls-12" cx="349.51" cy="125.12" r="31.03"/><path class="cls-13" d="M349.51,156.9a31,31,0,0,1-27.81-44.8" transform="translate(0 -0.75)"/><text class="cls-11" transform="translate(415.67 132.2)">37.9</text><circle class="cls-12" cx="439.38" cy="125.12" r="31.03"/><path class="cls-13" d="M439.38,156.9A31,31,0,0,1,417,104.4" transform="translate(0 -0.75)"/><text class="cls-14" transform="translate(237.92 207.69)">SENDD*</text><text class="cls-14" transform="translate(318.09 207.69)">NEBRASKA</text><text class="cls-15" transform="translate(429.42 207.69)">U.S</text><g class="cls-16"><g id="state_outline" data-name="state outline"><path id="Nebraska" class="cls-17" d="M328.75,168.16h.16l.41,0,.53,0h.55l.3,0h.11l.29,0h.42l.38,0h.45l.27,0h1.5l.55,0h0l1.32,0v0h.6l1.4,0h.56l1,0h.36l2.11,0,2.24,0h7.05l1.81,0h1.73v0l0,0h0l0,0,0,.05v.05l0,0,0,0h0l0,0,0,0,0,0h0v0h0l0,0h.18l0,0h.06l0,0,0,0h0v0h0l0,0,0,0,0,0h.07l.05,0,.06,0h0l.15.05h0l.07,0h.11l0,0,0,0h0l.06,0h.06l0,0h.2v0l.1.13.07,0,.09.09.13.09.05.09.1,0h.11l.1,0h0l.09,0,.07,0,.05,0,0,0,0,0,.05,0,0,0,.09-.14,0,0,0,0v-.19l0,0,.06,0,.09,0h0l0,0,0,0,.09.11h.12l0,0,0,0,0,0,0,0,0,0h.11l.05,0v.07l0,0,0,0h.09l0,0v0l0-.05v0l0-.08h0l0,0h.09v.1h.09l.09,0,.1,0h0l0,0,0,0h0l.14,0h.05v.08h.06l0,0,0,0h.07l0,0,0,0,0,0,0,0h.18v0h.11l0,0h.1l0,0h.05l.05.05.11,0,.09,0,.14,0v.12l0,.12.05,0h.13l.07,0h0l0,0h0v.11H362l0,0,0,0h0l0,0v0h0v.06h0v.05h0l0,0h.1l0,0h.35l0,0h0l.05.05,0,0h.08l0,0,0,0h0v0h0v0h0v0h.05l0,0h.48l0,.05h0l0,.06v0h0v0h0v.06h0v.08l0,0,0,0h0l.05,0h0l0,0,0,0h0l0,0h0l0,0,0,0,0,0h0l0,0h0v0h0v0h0v.05h0v.05h0v0l0,0h0l0,0H364l0,0h0l0,0h.18l0,0,0,0h0v0l0,0,0,0h0l0,0h.25l.07,0h.16l0,0,0,0,0,0v.22l0,0,0,0,0,0h0l-.07.1v.1l.05.12,0,.07v.07l.05.09.13.07,0,0h0v.07l0,.11.05.08h0l.07,0,.05.06v.12l0,.05-.06.09-.1,0h0v.07l0,0h0v0h0v0h0v0h0v0h0v0l0,0,.07,0,0,0v.07l0,0,.09,0,.05,0v0l0,0,0,.07,0,.07,0,.08v.14l0,.05v0h0v0l.06,0,.1,0,0,0h0l0,0v0h0v0h0l0,0-.05,0v.08l0,0h.05l.05-.08,0,0H366l0,0h0v.14h.19l0,0,0,0v.33l0,0h-.07v0l0,0v0l0,0v.14h0l0,0,0,0h0l0,0h0v.2h0l0,0,0,0h.1l0,0V176l0,.07,0,.05,0,0,0,0,0,0v.11h.1l0,0,0,0v.07h-.19l0,0h0v.07h0v0l0,0,0,0,0,0,0,0,0,0,0,0V177l0,0,0,0v.13l0,0,0,0,.05,0,.05,0,0,0v0h0v0h0l0,0v.18l0,0,0,0,0,0h.17l0,0v0l0,0v-.11l0,0H367l0,0,0,0v0l0,0v.14h0l0,0,0,0h0v.09h.23l0,0h.17l0,0v0l0,0,0,0v0h0l0,0v.18h0v.13l0,0v0l0,0v.05h0l0,0h0l0,0h0l0,0h0v.09l0,0h0l0,0,0,0h.21l0,0v.15l0,0,0,0-.1.05h0v-.08l0,0v-.05h-.11v.16l0,.08v.08l0,0v.14l0,.05,0,0v.11l0,0h.34l0,0,0,0v.07h-.16v0h0v.12l0,0v0l0,0,0,0v.29l0,0v0h0l0,0h0v0l0,0,0,0h0l.06.06v.09l0,0,0,.07v0l0,0v0h0l0,0h.1l0,0v.36l0,.05,0,0,0,0,0,0,0,0v.14h0l0,0H368v.12l0,0,0,0v.1l0,0v.16l0,0v0h0v.06l0,0-.13.07-.05.06,0,.1v.07l0,0,.12.05,0,0,.05.16.1.05.13,0,.1.09,0,0,0,.11.09.08v0l0,.08-.06,0,0,.05v0l.06.13v0l0,.08v0l0,0h.22l0,0h0l.05-.05v-.18l0,0h.08l.05.08,0,0,0,0V184l0,0-.18.09,0,0v.2l.08,0,0,0,0,0,0,0v0l0,0v.07l0,.06,0,.05.08.14,0,.13.07.08,0,.08v0l0,0-.11.06,0,0v0l0,0h0l.13-.05h0l.06,0,.08.06h.1l0,0,0,0,0,.1v0h0l.05,0,.11.05h.16l.06,0,0,.06v.1L370,186v.06l0,0,.1.1.09,0,0,0v.1l0,0,0,0h.11l0,0v.13l0,0h0v.16l0,0h0V187l0,0,0,0,0,0h.11l.05,0h.11l.07.06.1,0,0,0v.05h-.15l-.5,0h-.05l-.47,0-1.18.05-1,.06h-.05l-1.12,0-1.11,0h0l-1.67.06-.55,0h-.41l-1.64,0h-.18l-2.2.05h-1l-1.21,0-1.13,0-1,0h-.14l-1.34,0h-5.88l-2.42,0h-.36l-1.19,0-1.47,0h-2.77l-.92,0,.05-2.21v-.58l0-1.66v-.32l0-1.62-2.76-.08h-.16l-1.61-.05h-.07l-1.86-.07-.92,0-2.32-.09v-.14l.11-2.38.05-1.09,0-.85h0l.09-1.91v0l0-.54.16-3.36.1-2.06,0-.43Z" transform="translate(0 -0.75)"/></g></g><g class="cls-16"><path class="cls-17" d="M458.87,167.1l-.09-.19v-.11l-.16,0-.17-.06v-.2l-.47-1-.34-.18-.38.32-.1,0-.09-.17-.12.05-.17.86.06.28.05.57-.14.44.1.07-.11.21-.13,0h0l.67,1.59-.67-1.59-.07.08-.07,0,0,.31h0l-.06,0-.26.09-.25.1-.58.21h0l.21.49.07.46.09.15-.09-.15-.07-.46-.21-.49,0,0-1,.32-.19.21-.22.42v.1l-.29.43.1,0v0l.06,0,.06.33-.21.27-.62.37-.11-.05-.46.07-.43.26,0,.13.06,0h.06v.05l0,0-.09.41-.33.4h0l-.08.06-.12.09-.23.23,0,0-.17.1-.36.28-.23.28-.18,0L450,174l-.19-.11-.56-.06v0l.16-.3v-.25l.17-.44.13.08,0-.1v-.37l-.13-.23-.18-.5-.17-.18-.08,0-.3.21,0,0-.16.3-.15,0-.05-.31.07,0,.13-.31v-.55l-.21-.47-.46-.08-.05-.07-.43-.12-.2.24,0,.21-.15.19,0,.29-.14.1v-.37L447,171l-.16.24-.1.08.05.26-.06.27,0,.33,0,.16.33.64.05.25-.05.46-.22.51,0,0-.12.1-.18.08h-.07l-.09,0,0,0,.32,2.3h0l-.32-2.3-.05,0-.12-.28-.1-.1,0-.27h0l0-.07v-.22l-.13-.23,0-.3.06-.32,0-.26.11-.31,0-.05v-.29l.06-.22-.07-.07-.14,0-.07.2-.18.1.06-.25.16-.21v-.09h0l.18-.53.22-.15.17-.19,0,.17.17-.27L447,170l0-.07.42.05.16.09.08-.21.08.05.32-.05-.08-.14-.14-.08,0-.3-.29.16-.26,0-.08-.2,0-.06-.35.17h-.23l-.41.25-.05.09-.25-.06-.16.07-.32-.27-.5-.16v0l-.05,0-.14-.05v-.08l-.46.43-.25.07-.37.27h0l0,0-.23,0-.08,0,0-.34-.38.2-.47.07h0l.37-.38.41-.53.16-.11.28-.14.3-.22-.2,0-.12-.09-.44.06-.07-.08-.4.16-.33-.14-.09-.1-.25,0-.18-.09.06-.07-.22-.07h-.19l-.32.14-.06-.1-.49-.07-.17-.42,0-.12-.21-.06v.36l-.57,0-.7,0H439l.1.33.19,1.2.1.47,0,.42.11.26,0,.21,0,.07h0l-.19.31.12.21.24,1.64v0l-.24-1.64-.12-.21.19-.31h0l0-.07,0-.21-.11-.26,0-.42-.1-.47-.19-1.2-.1-.33h-.1l-1.41,0h-1.83l-1,0h-.14l-1.55-.1-1.13-.11-1.12-.13-.69-.1-1.11-.17-.56-.09-1.24-.24-.13,0h0l-.41-.08-.14,0-.06,0h-.07l-1.09-.26-1-.24-1.07-.3-.33-.08.08.41-.07.13-.13-.07,0,.11h0l0,0,.09.44-.13.18-.06.18v.17l-.27.19h0v0l-.08-.05-.11.06.1-.14v0h0l.07-.1-.05.18.12-.12h.09l0-.23h.06l.13-.28,0,0,0,0v0h0l-.12.16h-.1l.11-.13.11,0,0,0,0-.22-.13,0-.07-.11-.08,0-.43-.19-.37-.29-.11.28v.12l.08.22-.05.69,0,.11.21,0-.21.15.12.06-.09.29,0-.23-.08.27.1.13h.12l.14.09.07.13h.07l0,0-.24-.12-.14,0-.09,0-.1.4-.06.11-.29.7-.09.39h0l-.27.64-.18.28-.07,0-.16.33,0,.34-.1.31.06.28h0l.74.22-.74-.22v0l0,.46-.2.54-.32.41v.21l.16.28.08.37-.12.31,0,.3-.05.13.19.41.12.16v.45l.29.28.17-.28.13.1.12,0-.07.06-.05,0-.13,0v.23l.05.3-.14-.13-.08-.18,0,.25.07.5.26.32-.18.22,0,.29.19.29.33.89.1.06,0,.62.05.08.7.25.21.23.08.15.2.11.23,0,.09.26.19.09.28.33.26.44,0,.4.14.19,1.91.18h.17l.08-.21-.08.21h-.17l-.09.19.33.21.64.35,2,1,1.66.21h0l.64.06.06-.32.12-.1,1.31.12h0l.5.51.29.34.39.28.27.5.1.52.22.14.17.19.25.09.36.23.16.06.23-.22.07-.24.11-.23.37-.14.14.07.4,0,.37.23.25,0-.07.14.15.09.13.16,0,.17.09.12.21.5.2.17.16.26.2.21.09,0,.08.54.21.12v.17l.06,0,.38.47.19,0,.25.15h.37l.27.14.32-.07-.14-.13-.13-.39,0-.34-.08-.12,0-.22h-.09l-.13-.22.15.16.17-.06.09-.25-.19-.25.28,0,.14-.2,0-.07.11-.15,0,.13.13-.1L440,188l.17.09.22-.12-.21-.22.13.05h.24l.32-.07.35-.24.22-.17,0-.13.13-.14-.07-.22,0-.14.23-.11,0,.25h.14l-.15.13.62-.33h.1l.06-.3h0l.07-.17,0-.53,0-.22,0,.22,0,.53-.07.17h0l0,.12-.08.11.58-.06.45.13.32,0,.16-.12-.08-.12.29-.09v.1l.15,0,.13.19.1,0,.28.2-.17.06.4.11h.15l.09-.1.19-.11.13.2.1-.18,0-.28.25.1,0,.08.3,0,.15.12,0,.1.21-.2-.08-.1-.35-.09-.13-.07v-.14l.15,0,.11-.23-.15-.2-.07.19-.19,0,.13-.21-.08,0-.21.14-.29,0-.09-.06.14-.24h.16l.27.09.19,0h0l.18-.2.36-.08.34,0,.05-.07h0l-.21-1.24.21,1.24h0l.21,0,.05-.41.09.23.16.15.29-.17,0,.16.15-.06.16-.15h.28l.32-.11.22,0-.05.08.4.13.35.17.08.19.25-.06.61-.49h.22l.92.69.19,0,.19.26,0,.42-.06.26,0,.13.16.33-.08-.26h.21l0,.18-.11.29.39.53h.14l-.12-.17.15,0,.09-.05,0,.3.2.15.14.37.18.11.23.06.33.41h0l.12.06h0l0,0-.22,0,.1.11.37-.12.18-.1.15-.51h0v0h0l0-.06-.08-.92,0-.09-.45-.75-.38-.54-.22-.44.19.15,0,0,.08.38.21.3-.2-.4v-.18l-.61-.73-.14-.23-.19-.39-.13-.33-.1-.11,0-.15h0l0-.5.06-.11,0-.2.06-.19.1-.11-.07-.07.16-.2h0l.05-.21-.08-.21.2.15.11-.09-.19-.15.24,0,.36-.31,0-.08.22-.17,0-.08.16-.11v-.23l.26-.48.17-.22h0l.48-.2v-.17h0V180l.18-.32.18-.18.39-.25.05-.1.1.05.05-.31-.05.11-.2.07h-.19l.23-.17-.07-.07.08-.17-.44-.07,0,0,.38-.07.12.06.15,0,.13-.09.09-.18.09,0,0-.25-.11-.11-.1.1,0,.25L456,178l-.06,0-.46.19.2-.2v-.08l.22-.05.06-.16.14.09-.15-.23-.11-.09-1.87.53-1.19.3-1.2.23h0l1.2-.23,1.19-.3,1.87-.53v0h0l0,0h.08v0h0v0l0,0h0l0-.16h0l.07.14h0l.26.44.2.2-.44-.65h0l0,0-.19-.3-.24,0-.11.09-.1-.09-.35-.12h-.24l.47,0,.26.18.07-.12-.21-.26h.15l-.08-.22h-.18l-.36-.29-.14-.07h.05l.09.07.48.24,0-.22,0-.07-.31-.12-.28,0-.14-.12-.11.07,0-.21.28.18H455l.19.09-.08-.22-.25-.09-.06-.19.16.21.12,0-.11-.11-.09-.34,0-.19-.1-.21.1-.08.08-.27,0,.4.08.13.07-.15,0,.26-.08.19.23.08-.19.07.1.19.17.06.09-.17v.23h.16l.1.11h0l-.11.69,0,.12.07-.29.12-.38.05-.25h0l.12-.36v0l0-.09h0v0l-.12-.3-.54-.52,0-.26,0,.22.55.18v.22l.13-.18,0-.26.13-.08-.05-.2.09-.22v-.5l0-.17H456l0-.16,0-.05,0,.05,0-.07,0-.34,0,.15.1,0,.05-.21h0l.27-.26.14-.2,0,.06.68-.31h0v-.11l0-.1-.14-.41.14.41,0,.1v.11h0l.22-.18,0-.32.09,0h0l0,0v.07l0,.09,0,.07,0-.05.22-.27.18.06,0-.09.3-.16-.12-.25,0,.16-.15.12h-.18l-.34-.37-.16-.23.16-.16h-.16l-.07-.16h0V170h0v0h0l0,0v-.26l.08-.1,0-.24,0,0,.08-.25L458,169v0l.08,0,.18-.22.06-.37.29,0,0-.1h0v0h0v-.06l.36-.14,0-.21.08,0,.21-.17h0l0,0,.1-.25-.24-.24Z" transform="translate(0 -0.75)"/><path class="cls-17" d="M426.31,189.86l-.55-.53-.3-.21-.23.22h-.13l-.32-.21h-.3l-.44-2.77-.08-.13-.17-.11-.27,0-.21,0-.26-.1-.27,0-.07-.13-.22,0,0-.08-.1.11,0-.21-.19.16-.11,0-.27.16-.06,0-.3.34-.32.07,0,.17.14.19.26.25,0,.1.2.08-.11,0-.12-.09.06.14-.08.05-.27-.24-.21,0-.36.13.17.18,0,.12.11.13.36.14.25-.13,0,.09-.07.3h-.21l-.25.11,0-.08-.13.05-.06.14-.21.16v.24l.08,0-.06.2.28.24.17-.08,0,.3.05.07.21.05.08.08.19,0,.09.09.19,0-.09.12-.07.24-.57.37-.07.08-.11,0-.17,0-.25.16.39-.11.05.08.5-.16,0,.07.19-.2L422,190l0,0,.36-.28-.09-.11.12-.2.32-.38L423,189l.08.05-.3.09-.08.31v.17h.11l.49-.3,0-.06h0l0-.05,0-.18.15,0,.1-.07.31.19,0,0,.7.09.16,0,.05.07.6.29.11-.06v-.35l.08.15.39.29,0,.12.34.19.09.24.08-.19.18.34.11-.19-.09-.24Zm-5.48-1.75h0Zm.45,2.11h0Zm2-1.13v0l0,0Z" transform="translate(0 -0.75)"/></g><polygon class="cls-18" points="272.93 188.73 272.9 188.68 272.89 188.66 272.85 188.62 272.82 188.59 272.79 188.59 272.75 188.58 272.69 188.56 272.65 188.54 272.63 188.52 272.6 188.5 272.56 188.46 272.54 188.42 272.5 188.38 272.48 188.35 272.46 188.34 272.42 188.33 272.39 188.31 272.35 188.3 272.33 188.3 272.29 188.3 272.27 188.31 272.25 188.31 272.21 188.33 272.17 188.34 272.16 188.34 272.13 188.35 272.12 188.35 272.1 188.37 272.08 188.37 272.06 188.37 272.05 188.38 272.04 188.38 272.03 188.38 272.01 188.38 272 188.38 271.99 188.38 271.96 188.38 271.93 188.38 271.92 188.38 271.88 188.37 271.86 188.35 271.83 188.34 271.8 188.33 271.78 188.3 271.75 188.29 271.72 188.26 271.71 188.25 271.69 188.22 271.67 188.2 271.66 188.17 271.65 188.16 271.63 188.13 271.61 188.06 271.61 188.04 271.59 188.01 271.59 187.97 271.58 187.95 271.58 187.92 271.58 187.9 271.58 187.88 271.58 187.84 271.58 187.82 271.59 187.79 271.61 187.76 271.63 187.72 271.67 187.69 271.71 187.65 271.71 187.63 271.72 187.62 271.72 187.59 271.74 187.54 271.72 187.49 271.71 187.45 271.71 187.41 271.7 187.37 271.71 187.32 271.72 187.27 271.75 187.24 271.78 187.2 271.83 187.18 271.84 187.16 271.87 187.14 271.89 187.1 271.91 187.04 271.91 187.02 271.92 187.02 271.91 186.99 271.91 186.97 271.91 186.94 271.91 186.91 271.89 186.89 271.88 186.85 271.87 186.84 271.84 186.81 271.83 186.8 271.79 186.77 271.78 186.76 271.76 186.76 271.74 186.74 271.7 186.74 271.65 186.74 271.59 186.73 271.54 186.72 271.53 186.7 271.5 186.68 271.48 186.65 271.45 186.6 271.44 186.57 271.44 186.55 271.42 186.52 271.42 186.49 271.42 186.43 271.42 186.39 271.41 186.34 271.38 186.3 271.36 186.26 271.33 186.23 271.31 186.22 271.27 186.19 271.24 186.18 271.18 186.17 271.12 186.14 271.06 186.1 270.99 186.02 270.98 186.01 270.95 185.98 270.93 185.94 270.91 185.93 270.89 185.89 270.87 185.87 270.86 185.84 270.85 185.83 270.85 185.8 270.83 185.79 270.83 185.76 270.83 185.72 270.83 185.68 270.83 185.64 270.83 185.63 270.85 185.59 270.86 185.55 270.89 185.5 270.91 185.46 270.94 185.42 270.95 185.4 270.96 185.37 270.98 185.33 270.98 185.32 270.98 185.3 270.98 185.28 270.98 185.24 270.98 185.2 270.98 185.17 270.98 185.15 270.96 185.09 270.95 185.07 270.91 185.01 270.9 184.99 270.87 184.95 270.85 184.92 270.8 184.88 270.76 184.87 270.7 184.86 270.64 184.86 270.58 184.86 270.53 184.87 270.43 184.86 270.36 184.84 270.34 184.83 270.21 184.74 270.1 184.68 270 184.66 269.98 184.66 269.97 184.64 269.96 184.62 269.94 184.57 269.94 184.52 269.96 184.47 269.98 184.4 270 184.36 270.01 184.31 270.01 184.28 270 184.24 269.98 184.2 269.96 184.16 269.92 184.13 269.88 184.1 269.85 184.09 269.84 184.09 269.8 184.07 269.77 184.07 269.72 184.07 269.67 184.06 269.66 184.06 269.64 184.06 269.6 184.05 269.58 184.03 269.54 184.01 269.51 183.98 269.5 183.97 269.49 183.96 269.46 183.93 269.45 183.92 269.43 183.9 269.41 183.89 269.38 183.88 269.36 183.86 269.33 183.85 269.3 183.84 269.29 183.84 269.26 183.84 269.24 183.84 269.21 183.84 269.2 183.85 269.17 183.85 269.14 183.86 269.12 183.88 269.07 183.9 268.99 183.94 268.91 183.97 268.88 183.97 268.84 183.97 268.81 183.96 268.77 183.94 268.75 183.92 268.74 183.89 268.73 183.86 268.73 183.85 268.73 183.81 268.74 183.76 268.77 183.73 268.78 183.71 268.81 183.68 268.84 183.65 268.88 183.64 268.94 183.63 268.96 183.61 269.01 183.6 269.04 183.59 269.07 183.56 269.09 183.55 269.12 183.5 269.12 183.51 269.13 183.48 269.13 183.47 269.14 183.46 269.14 183.42 269.14 183.39 269.14 183.35 269.13 183.33 269.13 183.3 269.12 183.27 269.12 183.26 269.11 183.25 269.11 183.24 269.09 183.24 269.09 183.22 269.08 183.21 269.07 183.18 269.05 183.17 269.05 183.16 269.04 183.16 269.03 183.14 269.03 183.13 269.01 183.12 269 183.12 268.99 183.1 268.98 183.09 268.96 183.06 268.95 183.05 268.94 183.03 268.92 183.01 268.91 182.96 268.91 182.95 268.91 182.93 268.91 182.92 268.91 182.89 268.91 182.87 268.91 182.85 268.91 182.83 268.91 182.82 268.91 182.76 268.9 182.69 268.86 182.61 268.86 182.59 268.84 182.57 268.82 182.54 268.79 182.49 268.78 182.46 268.77 182.42 268.71 182.33 268.69 182.28 268.67 182.23 268.69 182.21 268.69 182.17 268.7 182.13 268.7 182.12 268.71 182.1 268.71 182.08 268.74 182.04 268.74 182.03 268.74 182 268.75 181.98 268.75 181.97 268.75 181.94 268.75 181.91 268.74 181.89 268.74 181.87 268.74 181.86 268.73 181.83 268.73 181.82 268.71 181.79 268.7 181.77 268.69 181.74 268.66 181.72 268.63 181.68 268.62 181.65 268.61 181.63 268.6 181.61 268.58 181.61 268.58 181.6 268.56 181.57 268.54 181.56 268.52 181.55 268.49 181.52 268.45 181.49 268.4 181.47 268.37 181.44 268.36 181.44 268.33 181.4 268.3 181.38 268.28 181.34 268.25 181.27 268.25 181.25 268.25 181.22 268.25 181.18 268.27 181.17 268.27 181.15 268.27 181.14 268.27 181.13 268.27 181.11 268.27 181.1 268.28 181.07 268.28 181.05 268.28 181.02 268.28 181 268.28 180.97 268.28 180.96 268.27 180.93 268.27 180.89 268.25 180.88 268.25 180.87 268.24 180.87 268.24 180.85 268.23 180.84 268.22 180.81 268.22 180.8 268.23 180.8 268.24 180.8 268.24 180.79 268.27 180.79 268.28 180.77 268.3 180.77 268.31 180.76 268.32 180.76 268.33 180.75 268.35 180.75 268.36 180.73 268.37 180.73 268.39 180.73 268.4 180.72 268.41 180.72 268.43 180.72 268.43 180.71 268.44 180.71 268.45 180.71 268.48 180.69 268.5 180.68 268.54 180.67 268.56 180.67 268.56 180.66 268.57 180.66 268.58 180.66 268.6 180.66 268.6 180.64 268.62 180.64 268.67 180.62 268.69 180.59 268.7 180.56 268.71 180.55 268.74 180.53 268.74 180.51 268.74 180.5 268.75 180.46 268.75 180.45 268.77 180.41 268.77 180.39 268.77 180.38 268.77 180.35 268.77 180.34 268.78 180.33 268.78 180.28 268.78 180.26 268.78 180.25 268.78 180.24 268.77 180.24 268.77 180.22 268.77 180.21 268.75 180.2 268.74 180.17 268.74 180.15 268.71 180.13 268.69 180.11 268.66 180.09 268.65 180.04 268.63 180.03 268.62 179.99 268.61 179.96 268.6 179.95 268.54 179.9 268.52 179.9 268.5 179.9 268.46 179.9 268.44 179.9 268.44 179.91 268.41 179.91 268.39 179.92 268.37 179.92 268.33 179.95 268.31 179.96 268.3 179.97 268.28 179.99 268.28 180 268.28 180.03 268.28 180.08 268.27 180.13 268.25 180.17 268.25 180.19 268.25 180.2 268.24 180.22 268.24 180.24 268.24 180.25 268.24 180.26 268.24 180.28 268.24 180.29 268.25 180.3 268.25 180.32 268.27 180.35 268.27 180.37 268.27 180.38 268.27 180.39 268.25 180.42 268.24 180.43 268.24 180.45 268.23 180.45 268.23 180.46 268.22 180.46 268.2 180.47 268.19 180.49 268.18 180.49 268.18 180.5 268.16 180.5 268.16 180.51 268.15 180.51 268.14 180.53 268.12 180.54 268.11 180.54 268.11 180.53 268.1 180.51 268.08 180.5 268.06 180.47 268.05 180.46 268.03 180.45 268.01 180.45 267.98 180.45 267.94 180.45 267.93 180.45 267.92 180.45 267.9 180.46 267.89 180.46 267.88 180.47 267.85 180.49 267.82 180.5 267.8 180.5 267.78 180.51 267.77 180.51 267.76 180.51 267.72 180.51 267.69 180.51 267.67 180.51 267.64 180.5 267.63 180.5 267.61 180.5 267.59 180.5 267.56 180.49 267.54 180.47 267.47 180.43 267.42 180.39 267.39 180.35 267.39 180.3 267.4 180.25 267.42 180.21 267.44 180.16 267.46 180.12 267.46 180.08 267.46 180.05 267.46 180.04 267.44 179.99 267.43 179.97 267.42 179.95 267.4 179.92 267.39 179.91 267.37 179.86 267.37 179.84 267.34 179.79 267.34 179.78 267.34 179.77 267.33 179.73 267.34 179.65 267.35 179.62 267.39 179.57 267.43 179.54 267.44 179.53 267.51 179.48 267.55 179.44 267.57 179.41 267.6 179.37 267.61 179.36 267.61 179.35 267.63 179.32 267.63 179.31 267.63 179.28 267.63 179.24 267.63 179.22 267.61 179.19 267.61 179.18 267.6 179.16 267.59 179.14 267.57 179.14 267.55 179.11 267.52 179.09 267.48 179.06 267.44 179.03 267.42 179.01 267.39 178.97 267.38 178.94 267.38 178.91 267.38 178.9 267.38 178.89 267.38 178.86 267.38 178.85 267.38 178.84 267.38 178.82 267.38 178.8 267.38 178.75 267.37 178.73 267.37 178.71 267.37 178.69 267.37 178.68 267.37 178.67 267.34 178.63 267.33 178.6 267.33 178.59 267.3 178.55 267.27 178.51 267.26 178.5 267.26 178.48 267.23 178.46 267.21 178.43 267.18 178.4 267.18 178.39 267.17 178.38 267.14 178.37 267.1 178.33 267.08 178.31 267.05 178.3 267.04 178.3 267 178.29 266.97 178.27 266.96 178.27 266.95 178.27 266.92 178.27 266.88 178.26 266.87 178.26 266.86 178.26 266.83 178.26 266.81 178.26 266.8 178.26 266.78 178.25 266.76 178.25 266.75 178.23 266.72 178.23 266.72 178.22 266.71 178.22 266.68 178.19 266.66 178.19 266.66 178.18 266.63 178.17 266.61 178.16 266.59 178.14 266.59 178.13 266.58 178.13 266.57 178.12 266.55 178.1 266.53 178.09 266.51 178.08 266.5 178.05 266.49 178.04 266.49 178.03 266.48 178.01 266.48 178 266.48 177.99 266.46 177.96 266.46 177.95 266.46 177.93 266.46 177.92 266.46 177.91 266.46 177.89 266.46 177.87 266.46 177.85 266.45 177.84 266.45 177.83 266.45 177.81 266.44 177.78 266.44 177.76 266.42 177.75 266.42 177.72 266.41 177.71 266.4 177.68 266.37 177.65 266.34 177.62 266.33 177.61 266.32 177.59 266.31 177.58 266.29 177.58 266.28 177.57 266.26 177.57 266.24 177.54 266.21 177.53 266.19 177.53 266.19 177.51 266.16 177.51 266.15 177.51 266.12 177.49 266.11 177.49 266.06 177.46 266.03 177.44 266 177.38 265.99 177.33 265.98 177.31 265.96 177.21 265.96 177.19 265.96 177.15 265.99 177.04 266.03 176.96 266.04 176.93 266.04 176.91 266.08 176.87 266.11 176.85 266.12 176.83 266.13 176.82 266.15 176.81 266.16 176.79 266.17 176.78 266.19 176.77 266.2 176.77 266.21 176.75 266.24 176.74 266.25 176.73 266.26 176.73 266.28 176.72 266.31 176.72 266.32 176.7 266.34 176.69 266.36 176.69 266.38 176.68 266.41 176.66 266.42 176.66 266.44 176.65 266.45 176.64 266.46 176.62 266.49 176.61 266.5 176.6 266.51 176.59 266.53 176.57 266.54 176.54 266.55 176.53 266.57 176.52 266.58 176.51 266.59 176.48 266.59 176.45 266.61 176.44 266.61 176.41 266.61 176.4 266.61 176.39 266.59 176.39 266.4 176.39 266.38 176.39 266.37 176.39 266.32 176.39 266.24 176.39 266.23 176.39 266.17 176.39 266.15 176.39 266.12 176.39 266.11 176.39 266.03 176.39 266.02 176.39 266.02 176.38 265.99 176.38 265.98 176.38 265.96 176.38 265.95 176.38 265.93 176.38 265.93 176.39 265.91 176.39 265.81 176.39 265.77 176.39 265.75 176.39 265.73 176.39 265.69 176.38 265.64 176.39 265.62 176.39 265.6 176.38 265.58 176.39 265.57 176.39 265.56 176.39 265.55 176.39 265.52 176.39 265.47 176.39 265.44 176.39 265.42 176.39 265.39 176.39 265.38 176.39 265.35 176.39 265.34 176.39 265.32 176.39 265.31 176.39 265.28 176.39 265.24 176.39 265.15 176.39 265.13 176.39 265.1 176.39 265.05 176.39 265.01 176.39 264.97 176.39 264.94 176.39 264.92 176.39 264.89 176.39 264.87 176.39 264.84 176.39 264.82 176.39 264.81 176.39 264.8 176.39 264.79 176.39 264.76 176.39 264.73 176.39 264.72 176.39 264.71 176.39 264.68 176.39 264.67 176.39 264.65 176.39 264.64 176.39 264.58 176.39 264.56 176.39 264.55 176.39 264.54 176.39 264.52 176.39 264.51 176.39 264.5 176.39 264.47 176.39 264.46 176.39 264.45 176.39 264.41 176.39 264.39 176.39 264.38 176.39 264.29 176.39 264 176.39 263.94 176.39 263.87 176.39 263.86 176.39 263.84 176.39 263.8 176.39 263.79 176.39 263.78 176.39 263.76 176.39 263.75 176.39 263.74 176.39 263.71 176.39 263.7 176.39 263.66 176.39 263.65 176.39 263.63 176.39 263.61 176.39 263.6 176.39 263.57 176.39 263.56 176.39 263.54 176.39 263.53 176.39 263.5 176.39 263.49 176.39 263.48 176.39 263.45 176.39 263.44 176.39 263.4 176.39 263.38 176.39 263.37 176.39 263.35 176.39 263.33 176.39 263.32 176.39 263.31 176.39 263.29 176.39 263.28 176.39 263.27 176.39 263.25 176.39 263.24 176.39 263.23 176.39 263.21 176.39 263.2 176.39 262.98 176.39 262.97 176.39 262.93 176.39 262.91 176.39 262.88 176.39 262.84 176.39 262.8 176.39 262.77 176.39 262.76 176.39 262.74 176.39 262.72 176.39 262.7 176.39 262.69 176.39 262.57 176.39 262.56 176.39 262.52 176.39 262.51 176.39 262.48 176.39 262.47 176.39 262.46 176.39 262.44 176.39 262.43 176.39 262.42 176.39 262.36 176.39 262.34 176.39 262.32 176.39 262.3 176.39 262.29 176.39 262.26 176.39 262.25 176.39 262.23 176.39 262.22 176.39 262.21 176.39 262.18 176.39 262.15 176.39 262.13 176.39 262.12 176.39 262.1 176.39 262.09 176.39 262.08 176.39 262.05 176.39 262.01 176.39 262 176.39 261.99 176.39 261.96 176.39 261.92 176.39 261.85 176.39 261.84 176.39 261.83 176.39 261.81 176.39 261.79 176.39 261.74 176.39 261.72 176.39 261.67 176.39 261.66 176.39 261.62 176.39 261.53 176.39 261.51 176.39 261.38 176.39 261.33 176.39 261.3 176.39 261.28 176.39 261.24 176.39 261.23 176.39 261.19 176.39 261.17 176.39 261.16 176.39 261.08 176.39 261.07 176.39 261.04 176.39 260.94 176.39 260.91 176.39 260.86 176.39 260.85 176.39 260.83 176.39 260.82 176.39 260.7 176.39 260.69 176.39 260.68 176.39 260.66 176.39 260.65 176.39 260.64 176.39 260.57 176.39 260.55 176.39 260.53 176.38 260.52 176.38 260.49 176.38 260.44 176.38 260.41 176.38 260.4 176.38 260.39 176.38 260.36 176.38 260.33 176.38 260.32 176.38 260.31 176.38 260.3 176.38 260.27 176.38 260.23 176.38 260.22 176.38 260.2 176.38 260.19 176.38 260.18 176.38 260.17 176.38 260.14 176.38 260.13 176.38 260.11 176.38 260.1 176.38 260.09 176.38 260.07 176.38 260.06 176.38 260.05 176.38 260.03 176.38 260.02 176.38 260.01 176.38 260 176.38 259.98 176.38 259.97 176.38 259.96 176.38 259.93 176.38 259.92 176.38 259.9 176.38 259.88 176.38 259.86 176.38 259.84 176.38 259.82 176.38 259.81 176.38 259.77 176.38 259.76 176.38 259.75 176.38 259.73 176.38 259.71 176.38 259.69 176.38 259.68 176.38 259.67 176.38 259.65 176.38 259.64 176.38 259.62 176.38 259.6 176.38 259.59 176.38 259.55 176.38 259.54 176.38 259.52 176.38 259.51 176.38 259.5 176.38 259.47 176.38 259.46 176.38 259.44 176.38 259.43 176.38 259.42 176.38 259.41 176.38 259.39 176.38 259.38 176.38 259.35 176.38 259.34 176.38 259.3 176.38 259.29 176.38 259.27 176.38 259.26 176.38 259.25 176.38 259.24 176.38 259.22 176.38 259.14 176.38 259.14 176.35 259.14 176.34 259.14 176.32 259.14 176.26 259.14 176.24 259.14 176.22 259.14 176.21 259.14 176.19 259.14 176.17 259.14 176.15 259.14 176.14 259.14 176.13 259.14 176.11 259.14 176.09 259.14 175.92 259.14 175.9 259.14 175.85 259.14 175.84 259.14 175.8 259.14 175.76 259.14 175.75 259.14 175.71 259.14 175.68 259.14 175.56 259.14 175.45 259.14 175.41 259.14 175.39 259.14 175.38 259.14 175.34 259.14 175.33 259.14 175.31 259.14 175.22 259.14 175.21 259.14 175.17 259.14 175.05 259.14 175.04 259.14 175.03 259.14 175.01 259.14 174.99 259.14 174.97 259.14 174.92 259.14 174.91 259.14 174.88 259.14 174.87 259.14 174.76 259.14 174.75 259.14 174.65 259.14 174.63 259.14 174.62 259.14 174.59 259.14 174.58 259.14 174.57 259.14 174.53 259.14 174.52 259.14 174.48 259.14 174.45 259.14 174.43 259.14 174.41 259.16 174.37 259.16 174.36 259.16 174.33 259.16 174.31 259.16 174.29 259.16 174.27 259.16 174.25 259.16 174.24 259.16 174.2 259.16 174.19 259.16 174.18 259.16 174.08 259.16 174.07 259.16 174.04 259.16 174.03 259.16 173.95 259.16 173.9 259.16 173.85 259.16 173.84 259.16 173.82 259.16 173.81 259.16 173.8 259.16 173.78 259.16 173.73 259.16 173.65 259.16 173.64 259.16 173.61 259.16 173.59 259.16 173.57 259.16 173.5 259.16 173.46 259.16 173.43 259.16 173.42 259.16 173.39 259.16 173.36 259.16 173.35 259.16 173.32 259.16 173.3 259.16 173.23 259.16 173.18 259.16 173.14 259.16 173 259.16 172.99 259.16 172.97 259.16 172.93 259.16 172.92 259.16 172.76 259.16 172.71 259.16 172.7 259.16 172.68 259.18 172.68 259.25 172.68 259.27 172.68 259.3 172.68 259.33 172.7 259.39 172.7 259.44 172.7 259.46 172.7 259.52 172.7 259.54 172.7 259.55 172.7 259.62 172.7 259.63 172.7 259.68 172.7 259.84 172.7 259.93 172.7 259.94 172.7 260.05 172.71 260.06 172.71 260.07 172.71 260.18 172.71 260.19 172.71 260.2 172.71 260.23 172.71 260.24 172.71 260.26 172.71 260.27 172.71 260.28 172.71 260.37 172.71 260.44 172.71 260.45 172.71 260.5 172.71 260.5 172.68 260.5 172.67 260.5 172.62 260.5 172.59 260.5 172.58 260.5 172.57 260.5 172.55 260.5 172.51 260.5 172.5 260.5 172.49 260.52 172.47 260.52 172.37 260.52 172.36 260.52 172.33 260.52 172.32 260.52 172.3 260.52 172.26 260.52 172.24 260.53 172.24 260.56 172.24 260.65 172.24 260.66 172.24 260.7 172.24 260.71 172.24 260.79 172.24 260.82 172.24 260.83 172.24 260.85 172.24 260.87 172.24 260.86 172.21 260.86 172.2 260.85 172.19 260.83 172.16 260.83 172.13 260.82 172.11 260.82 172.09 260.82 172.07 260.81 172.06 260.81 172.04 260.81 172.03 260.81 172.02 260.79 172 260.79 171.99 260.79 171.98 260.78 171.98 260.78 171.96 260.78 171.95 260.77 171.94 260.75 171.91 260.75 171.9 260.74 171.88 260.74 171.87 260.73 171.86 260.73 171.85 260.71 171.83 260.7 171.81 260.69 171.79 260.69 171.78 260.68 171.77 260.66 171.74 260.65 171.73 260.65 171.72 260.64 171.69 260.64 171.68 260.64 171.65 260.62 171.64 260.62 171.62 260.64 171.61 260.64 171.6 260.64 171.58 260.64 171.57 260.64 171.56 260.64 171.54 260.64 171.53 260.64 171.52 260.64 171.5 260.64 171.49 260.65 171.48 260.65 171.47 260.66 171.45 260.66 171.44 260.68 171.43 260.68 171.41 260.69 171.4 260.69 171.39 260.71 171.36 260.73 171.35 260.74 171.35 260.74 171.34 260.75 171.34 260.77 171.32 260.78 171.31 260.79 171.3 260.81 171.28 260.82 171.27 260.85 171.27 260.85 171.26 260.86 171.26 260.87 171.24 260.88 171.23 260.9 171.23 260.91 171.22 260.91 171.2 260.92 171.19 260.94 171.18 260.95 171.16 260.95 171.15 260.96 171.15 260.96 171.14 260.96 171.13 260.98 171.13 260.96 171.11 260.96 171.1 260.95 171.1 260.95 171.09 260.95 171.07 260.95 171.06 260.95 171.05 260.94 171.03 260.94 171.02 260.92 171.01 260.92 171 260.91 171 260.91 170.98 260.91 170.97 260.91 170.96 260.9 170.96 260.9 170.94 260.88 170.93 260.88 170.92 260.87 170.9 260.87 170.89 260.87 170.88 260.87 170.86 260.86 170.85 260.87 170.85 260.87 170.84 260.87 170.82 260.87 170.81 260.87 170.8 260.87 170.78 260.87 170.77 260.87 170.76 260.88 170.76 260.88 170.75 260.9 170.73 260.9 170.72 260.9 170.71 260.91 170.69 260.91 170.68 260.91 170.67 260.91 170.65 260.91 170.64 260.91 170.63 260.91 170.62 260.91 170.6 260.91 170.59 260.91 170.58 260.9 170.58 260.9 170.56 260.9 170.55 260.9 170.54 260.88 170.54 260.88 170.52 260.88 170.51 260.88 170.5 260.88 170.48 260.87 170.48 260.87 170.47 260.87 170.46 260.87 170.44 260.87 170.43 260.86 170.41 260.86 170.38 260.85 170.3 260.85 170.29 260.85 170.28 260.85 170.25 260.85 170.24 260.85 170.22 260.85 170.21 260.85 170.18 260.85 170.17 260.85 170.16 260.85 170.14 260.85 170.13 260.83 170.1 260.83 170.09 260.83 170.08 260.83 170.05 260.82 170.04 260.82 170.03 260.82 170.01 260.82 170 260.81 170 260.78 169.93 260.77 169.92 260.75 169.91 260.75 169.9 260.74 169.87 260.73 169.86 260.71 169.84 260.71 169.83 260.69 169.83 260.69 169.82 260.68 169.8 260.66 169.8 260.65 169.79 260.64 169.79 260.61 169.78 260.6 169.76 260.58 169.76 260.57 169.75 260.56 169.75 260.55 169.74 260.53 169.72 260.52 169.71 260.5 169.71 260.49 169.7 260.48 169.69 260.48 169.67 260.47 169.67 260.47 169.66 260.45 169.65 260.44 169.61 260.44 169.59 260.44 169.58 260.43 169.57 260.43 169.56 260.41 169.53 260.4 169.53 260.4 169.51 260.39 169.49 260.39 169.48 260.39 169.46 260.37 169.46 260.37 169.45 260.37 169.44 260.37 169.42 260.37 169.41 260.36 169.38 260.36 169.37 260.36 169.36 260.36 169.33 260.35 169.31 260.35 169.29 260.35 169.28 260.33 169.27 260.33 169.24 260.33 169.23 260.33 169.21 260.33 169.2 260.35 169.19 260.35 169.18 260.35 169.16 260.36 169.16 260.36 169.15 260.37 169.12 260.39 169.1 260.39 169.08 260.4 169.08 260.41 169.06 260.41 169.04 260.41 169.03 260.43 168.99 260.47 168.95 260.49 168.91 260.49 168.9 260.5 168.89 260.52 168.86 260.52 168.85 260.52 168.84 260.52 168.81 260.52 168.79 260.52 168.78 260.52 168.77 260.5 168.74 260.45 168.61 260.44 168.59 260.41 168.55 260.4 168.49 260.36 168.44 260.35 168.42 260.33 168.4 260.32 168.38 260.32 168.36 260.31 168.35 260.3 168.34 260.28 168.32 260.27 168.31 260.26 168.3 260.26 168.28 260.24 168.28 260.24 168.27 260.23 168.26 260.22 168.26 260.22 168.25 260.19 168.21 260.18 168.21 260.17 168.19 260.15 168.19 260.15 168.18 260.14 168.18 260.13 168.17 260.11 168.17 260.1 168.17 260.1 168.15 260.09 168.15 260.07 168.15 260.06 168.15 260.06 168.14 260.05 168.14 260.02 168.12 260 168.09 259.98 168.07 259.97 168.06 259.96 168.05 259.94 168.04 259.93 168.04 259.9 168.01 259.89 168.01 259.88 168 259.86 167.97 259.84 167.96 259.84 167.94 259.82 167.93 259.82 167.92 259.82 167.91 259.82 167.89 259.82 167.88 259.81 167.87 259.82 167.87 259.82 167.85 259.84 167.85 259.84 167.84 259.84 167.83 259.84 167.81 259.85 167.79 259.85 167.77 259.85 167.75 259.85 167.74 259.85 167.72 259.85 167.71 259.85 167.68 259.85 167.64 259.85 167.62 259.85 167.6 259.84 167.58 259.84 167.56 259.84 167.55 259.84 167.54 259.82 167.53 259.81 167.49 259.81 167.47 259.8 167.45 259.8 167.43 259.8 167.42 259.79 167.42 259.79 167.41 259.79 167.4 259.79 167.38 259.79 167.37 259.77 167.34 259.77 167.33 259.76 167.32 259.76 167.29 259.75 167.29 259.75 167.28 259.75 167.26 259.73 167.26 259.73 167.24 259.72 167.22 259.71 167.2 259.69 167.19 259.69 167.17 259.68 167.17 259.68 167.16 259.67 167.15 259.65 167.15 259.65 167.13 259.64 167.13 259.63 167.13 259.62 167.12 259.59 167.12 259.58 167.11 259.56 167.11 259.55 167.09 259.52 167.09 259.5 167.08 259.48 167.08 259.47 167.07 259.44 167.05 259.43 167.04 259.41 167.03 259.41 167.01 259.39 167.01 259.37 167 259.35 166.99 259.34 166.99 259.33 166.98 259.31 166.96 259.3 166.95 259.29 166.95 259.29 166.94 259.27 166.94 259.26 166.92 259.25 166.92 259.24 166.91 259.24 166.9 259.22 166.88 259.22 166.87 259.21 166.87 259.21 166.86 259.2 166.84 259.18 166.84 259.18 166.83 259.18 166.82 259.17 166.81 259.16 166.79 259.16 166.78 259.14 166.77 259.13 166.74 259.12 166.74 259.12 166.73 259.12 166.71 259.11 166.7 259.09 166.7 259.08 166.7 259.06 166.7 259.04 166.7 259.03 166.7 259.01 166.7 258.99 166.7 258.96 166.7 258.95 166.7 258.93 166.7 258.92 166.7 258.91 166.7 258.89 166.7 258.89 166.69 258.88 166.69 258.88 166.68 258.87 166.68 258.87 166.66 258.87 166.65 258.86 166.63 258.84 166.65 258.84 166.66 258.83 166.68 258.82 166.69 258.8 166.69 258.78 166.68 258.76 166.66 258.75 166.66 258.74 166.65 258.73 166.65 258.71 166.65 258.7 166.63 258.69 166.61 258.69 166.6 258.67 166.6 258.67 166.58 258.67 166.57 258.66 166.56 258.66 166.54 258.66 166.53 258.65 166.53 258.65 166.52 258.63 166.52 258.63 166.5 258.61 166.49 258.59 166.49 258.58 166.49 258.57 166.48 258.56 166.48 258.54 166.47 258.53 166.47 258.52 166.45 258.52 166.44 258.5 166.44 258.49 166.43 258.48 166.41 258.46 166.41 258.45 166.4 258.44 166.39 258.42 166.37 258.41 166.37 258.41 166.36 258.4 166.36 258.4 166.35 258.38 166.35 258.38 166.33 258.37 166.33 258.36 166.32 258.33 166.31 258.31 166.29 258.29 166.28 258.28 166.27 258.25 166.24 258.24 166.24 258.24 166.23 258.23 166.23 258.21 166.23 258.2 166.23 258.2 166.22 258.19 166.22 258.18 166.22 258.18 166.2 258.12 166.16 258.11 166.15 258.1 166.14 258.08 166.14 258.07 166.13 258.07 166.11 258.06 166.11 258.04 166.11 258.04 166.1 258.03 166.1 258.02 166.1 258 166.09 257.97 166.07 257.95 166.06 257.94 166.06 257.93 166.06 257.91 166.06 257.9 166.06 257.87 166.05 257.86 166.05 257.85 166.05 257.83 166.05 257.82 166.05 257.81 166.05 257.8 166.05 257.78 166.05 257.74 166.05 257.73 166.05 257.72 166.05 257.69 166.05 257.68 166.05 257.67 166.05 257.65 166.05 257.64 166.05 257.63 166.05 257.61 166.03 257.6 166.05 257.59 166.05 257.57 166.05 257.56 166.03 257.55 166.03 257.53 166.03 257.53 166.05 257.52 166.05 257.52 166.06 257.51 166.06 257.49 166.06 257.48 166.06 257.47 166.06 257.45 166.06 257.45 166.05 257.44 166.05 257.43 166.05 257.4 166.03 257.38 166.03 257.3 166.03 257.22 166.03 257.21 166.03 257.19 166.03 257.18 166.03 257.18 166.02 257.17 166.02 257.17 166.01 257.15 166.01 257.14 166.01 257.13 166.01 257.12 166.01 257.1 166.01 257.09 166.02 257.08 166.02 257.06 166.02 257.05 166.02 257.05 166.03 257.04 166.03 257.04 166.05 257.02 166.05 257.01 166.05 257.01 166.06 257 166.06 256.98 166.06 256.98 166.07 256.97 166.07 256.97 166.09 256.96 166.09 256.96 166.1 256.94 166.1 256.93 166.1 256.93 166.11 256.92 166.11 256.92 166.13 256.9 166.13 256.89 166.13 256.88 166.13 256.87 166.13 256.87 166.14 256.85 166.14 256.84 166.14 256.83 166.14 256.81 166.14 256.81 166.15 256.8 166.15 256.79 166.15 256.77 166.15 256.76 166.15 256.76 166.16 256.75 166.16 256.74 166.16 256.72 166.16 256.71 166.16 256.7 166.16 256.68 166.16 256.67 166.16 256.64 166.16 256.63 166.16 256.62 166.16 256.6 166.16 256.59 166.16 256.58 166.16 256.56 166.16 256.55 166.16 256.54 166.16 256.53 166.16 256.51 166.16 256.51 166.18 256.5 166.18 256.5 166.16 256.49 166.16 256.47 166.16 256.46 166.16 256.46 166.15 256.45 166.15 256.45 166.14 256.43 166.14 256.42 166.14 256.42 166.13 256.41 166.13 256.41 166.11 256.39 166.11 256.38 166.11 256.38 166.1 256.37 166.1 256.37 166.11 256.36 166.11 256.34 166.11 256.33 166.11 256.33 166.1 256.32 166.1 256.3 166.1 256.29 166.09 256.28 166.07 256.26 166.07 256.26 166.06 256.25 166.06 256.25 166.05 256.24 166.05 256.24 166.03 256.23 166.03 256.23 166.02 256.21 166.02 256.21 166.01 256.2 166.01 256.2 165.99 256.19 165.99 256.19 165.98 256.17 165.98 256.16 165.98 256.16 165.97 256.15 165.97 256.15 165.96 256.13 165.96 256.12 165.94 256.11 165.93 256.09 165.91 256.08 165.9 256.07 165.89 256.07 165.88 256.05 165.88 256.05 165.86 256.04 165.86 256.03 165.85 256.01 165.85 256 165.85 256 165.84 255.99 165.84 255.98 165.84 255.98 165.82 255.96 165.82 255.95 165.82 255.94 165.82 255.94 165.81 255.92 165.81 255.91 165.81 255.9 165.8 255.88 165.8 255.87 165.8 255.87 165.78 255.86 165.78 255.84 165.78 255.83 165.78 255.82 165.78 255.81 165.78 255.79 165.78 255.78 165.78 255.77 165.78 255.75 165.78 255.74 165.78 255.73 165.78 255.71 165.78 255.7 165.78 255.69 165.78 255.68 165.78 255.66 165.78 255.65 165.78 255.64 165.78 255.62 165.78 255.61 165.78 255.6 165.78 255.58 165.78 255.57 165.78 255.57 165.77 255.56 165.77 255.54 165.77 255.54 165.78 255.53 165.78 255.52 165.78 255.5 165.8 255.49 165.8 255.48 165.8 255.47 165.8 255.47 165.81 255.45 165.81 255.44 165.81 255.44 165.82 255.43 165.82 255.41 165.84 255.4 165.84 255.39 165.84 255.39 165.85 255.37 165.85 255.37 165.86 255.36 165.86 255.35 165.86 255.33 165.86 255.32 165.86 255.31 165.86 255.31 165.88 255.29 165.88 255.29 165.86 255.28 165.86 255.27 165.86 255.26 165.86 255.24 165.88 255.23 165.88 255.22 165.89 255.2 165.89 255.19 165.9 255.18 165.9 255.16 165.91 255.15 165.91 255.13 165.93 255.11 165.93 255.1 165.94 255.09 165.94 255.07 165.94 255.06 165.94 255.05 165.94 255.03 165.93 255.02 165.93 255.01 165.93 254.99 165.93 254.99 165.91 254.98 165.91 254.97 165.91 254.96 165.9 254.94 165.9 254.93 165.89 254.91 165.89 254.91 165.88 254.9 165.88 254.89 165.88 254.88 165.88 254.88 165.86 254.86 165.86 254.85 165.86 254.85 165.85 254.85 165.84 254.84 165.84 254.82 165.84 254.81 165.84 254.8 165.84 254.78 165.84 254.77 165.84 254.77 165.85 254.76 165.85 254.75 165.85 254.73 165.85 254.72 165.85 254.71 165.84 254.69 165.84 254.69 165.85 254.68 165.85 254.67 165.85 254.65 165.85 254.61 165.85 254.6 165.84 254.59 165.84 254.59 165.82 254.57 165.81 254.56 165.8 254.55 165.8 254.54 165.78 254.52 165.78 254.51 165.78 254.5 165.78 254.5 165.77 254.48 165.77 254.46 165.77 254.44 165.77 254.43 165.77 254.42 165.77 254.39 165.77 254.37 165.76 254.35 165.76 254.34 165.75 254.33 165.75 254.31 165.75 254.3 165.75 254.29 165.75 254.29 165.73 254.27 165.73 254.26 165.73 254.26 165.72 254.25 165.72 254.24 165.72 254.22 165.72 254.21 165.72 254.2 165.72 254.2 165.71 254.18 165.71 254.18 165.72 254.17 165.72 254.16 165.72 254.14 165.72 254.13 165.72 254.12 165.72 254.1 165.72 254.1 165.71 254 165.71 254 165.69 254 165.68 254 165.67 253.99 165.67 253.97 165.67 253.92 165.67 253.91 165.67 253.83 165.67 253.82 165.67 253.79 165.67 253.75 165.68 253.74 165.69 253.72 165.71 253.69 165.72 253.65 165.73 253.59 165.76 253.58 165.77 253.55 165.78 253.54 165.8 253.53 165.81 253.49 165.82 253.42 165.86 253.34 165.89 253.32 165.89 253.31 165.89 253.27 165.91 253.25 165.93 253.21 165.96 253.2 165.96 253.16 165.99 253.15 166.01 253.12 166.02 253.11 166.03 253.1 166.05 253.08 166.06 253.06 166.07 253.03 166.1 253 166.11 252.98 166.13 252.98 166.15 252.95 166.16 252.95 166.19 252.94 166.19 252.91 166.22 252.9 166.23 252.83 166.26 252.82 166.28 252.77 166.29 252.73 166.31 252.72 166.32 252.7 166.32 252.69 166.32 252.66 166.33 252.64 166.33 252.61 166.33 252.59 166.33 252.56 166.33 252.53 166.33 252.51 166.33 252.47 166.33 252.45 166.33 252.43 166.33 252.36 166.35 252.22 166.33 252.19 166.36 252.18 166.36 252.17 166.37 252.14 166.39 252.11 166.4 252.09 166.41 252.07 166.43 252.07 166.44 252.06 166.44 252.03 166.45 252.01 166.47 251.98 166.49 251.94 166.52 251.93 166.53 251.92 166.53 251.89 166.58 251.88 166.58 251.85 166.6 251.84 166.61 251.84 166.62 251.83 166.62 251.81 166.63 251.81 166.65 251.79 166.65 251.76 166.66 251.75 166.66 251.73 166.68 251.72 166.68 251.69 166.69 251.68 166.7 251.67 166.7 251.64 166.71 251.63 166.73 251.58 166.73 251.56 166.73 251.56 166.71 251.54 166.71 251.53 166.71 251.51 166.71 251.49 166.71 251.46 166.73 251.42 166.73 251.39 166.74 251.35 166.75 251.34 166.75 251.3 166.78 251.26 166.79 251.24 166.79 251.24 166.81 251.21 166.81 251.2 166.81 251.17 166.81 251.15 166.81 251.12 166.81 251.07 166.81 251 166.82 250.99 166.82 250.97 166.83 250.81 166.88 250.78 166.88 250.75 166.87 250.73 166.87 250.71 166.86 250.69 166.86 250.61 166.79 250.56 166.75 250.53 166.74 250.49 166.74 250.47 166.74 250.45 166.74 250.36 166.75 250.35 166.75 250.27 166.77 250.22 166.78 250.18 166.78 250.11 166.78 250.05 166.77 249.94 166.77 249.91 166.77 249.9 166.77 249.89 166.75 249.88 166.75 249.85 166.74 249.82 166.74 249.81 166.73 249.8 166.73 249.78 166.71 249.77 166.7 249.77 166.69 249.75 166.68 249.72 166.65 249.69 166.62 249.68 166.61 249.67 166.6 249.67 166.58 249.65 166.57 249.63 166.56 249.61 166.54 249.59 166.53 249.57 166.52 249.55 166.52 249.53 166.5 249.51 166.5 249.5 166.49 249.48 166.49 249.46 166.49 249.44 166.49 249.38 166.49 249.33 166.49 249.3 166.49 249.29 166.49 249.26 166.49 249.23 166.5 249.21 166.5 249.19 166.5 249.19 166.52 249.17 166.53 249.13 166.54 249.12 166.54 249.06 166.56 249.06 166.57 249.04 166.57 249.03 166.58 249 166.6 248.99 166.6 248.99 166.61 248.97 166.61 248.96 166.61 248.95 166.61 248.92 166.62 248.92 166.63 248.91 166.63 248.89 166.63 248.88 166.63 248.87 166.63 248.85 166.63 248.84 166.63 248.83 166.62 248.81 166.62 248.8 166.62 248.79 166.61 248.78 166.61 248.76 166.6 248.75 166.6 248.74 166.6 248.72 166.58 248.71 166.57 248.7 166.57 248.68 166.57 248.67 166.56 248.66 166.56 248.65 166.56 248.63 166.56 248.63 166.54 248.62 166.54 248.59 166.53 248.58 166.53 248.57 166.53 248.55 166.53 248.55 166.54 248.54 166.54 248.54 166.56 248.53 166.56 248.51 166.57 248.5 166.57 248.49 166.57 248.46 166.57 248.45 166.57 248.45 166.58 248.41 166.58 248.38 166.6 248.36 166.6 248.34 166.6 248.34 166.61 248.33 166.62 248.33 166.63 248.32 166.65 248.31 166.65 248.29 166.68 248.26 166.69 248.25 166.7 248.24 166.71 248.21 166.73 248.2 166.73 248.19 166.73 248.17 166.74 248.15 166.74 248.13 166.74 248.12 166.75 248.11 166.75 248.08 166.77 248.06 166.77 248.02 166.78 247.98 166.79 247.96 166.79 247.95 166.79 247.95 166.81 247.93 166.81 247.9 166.82 247.89 166.82 247.87 166.83 247.87 166.84 247.85 166.86 247.82 166.86 247.81 166.86 247.78 166.86 247.75 166.87 247.74 166.87 247.73 166.88 247.7 166.9 247.69 166.91 247.66 166.92 247.65 166.92 247.65 166.94 247.62 166.95 247.61 166.95 247.61 166.96 247.59 166.98 247.56 166.98 247.53 166.99 247.52 166.99 247.48 166.99 247.47 166.99 247.45 166.99 247.44 166.99 247.43 167 247.41 167 247.4 167 247.39 167 247.35 167.01 247.34 167.01 247.32 167.01 247.3 167.01 247.28 167.03 247.27 167.03 247.26 167.03 247.24 167.01 247.22 167.03 247.21 167.03 247.18 167.03 247.15 167.03 247.13 167.03 247.1 167.01 247.09 167.01 247.06 167.01 247.05 167.01 247.02 167.01 247.01 167.01 246.98 167.03 246.97 167.03 246.94 167.03 246.89 167.04 246.88 167.04 246.87 167.04 246.84 167.04 246.82 167.04 246.8 167.05 246.79 167.07 246.77 167.07 246.75 167.07 246.73 167.07 246.72 167.07 246.71 167.08 246.69 167.08 246.68 167.09 246.67 167.12 246.66 167.12 246.66 167.13 246.63 167.13 246.6 167.16 246.59 167.17 246.58 167.17 246.58 167.19 246.54 167.2 246.52 167.21 246.5 167.22 246.49 167.22 246.47 167.24 246.45 167.26 246.43 167.28 246.42 167.28 246.39 167.29 246.38 167.3 246.37 167.32 246.33 167.34 246.31 167.35 246.29 167.37 246.26 167.38 246.25 167.4 246.24 167.4 246.21 167.42 246.18 167.43 246.16 167.45 246.13 167.46 246.1 167.46 246.09 167.47 246.08 167.47 246.04 167.49 246.03 167.49 246.01 167.49 246 167.5 245.99 167.5 245.97 167.5 245.96 167.5 245.95 167.5 245.94 167.5 245.92 167.5 245.91 167.5 245.88 167.5 245.87 167.5 245.86 167.5 245.84 167.5 245.83 167.5 245.83 167.51 245.83 167.54 245.83 167.56 245.83 167.58 245.83 167.59 245.83 167.67 245.83 167.76 245.82 167.77 245.8 167.77 245.79 167.79 245.78 167.8 245.76 167.8 245.75 167.81 245.74 167.83 245.73 167.83 245.71 167.83 245.7 167.83 245.69 167.81 245.67 167.81 245.66 167.81 245.66 167.83 245.65 167.84 245.59 167.85 245.57 167.87 245.48 167.91 245.46 167.91 245.44 167.92 245.4 167.93 245.37 167.93 245.36 167.93 245.35 167.93 245.33 167.93 245.32 167.93 245.31 167.93 245.31 167.92 245.31 167.89 245.29 167.88 245.27 167.89 245.22 167.91 245.2 167.91 245.18 167.92 245.16 167.93 245.15 167.93 245.14 167.93 245.11 167.94 245.11 167.96 245.12 167.98 245.14 168 245.11 168.01 245.08 168.05 245.03 168.1 245.02 168.07 245.01 168.07 245.01 168.06 244.99 168.06 244.99 168.05 244.98 168.06 244.97 168.07 244.94 168.09 244.93 168.1 244.91 168.12 244.9 168.12 244.89 168.13 244.88 168.13 244.86 168.14 244.85 168.15 244.84 168.15 244.82 168.17 244.82 168.18 244.81 168.18 244.81 168.19 244.8 168.21 244.78 168.21 244.78 168.22 244.76 168.23 244.74 168.25 244.73 168.26 244.72 168.27 244.69 168.3 244.68 168.31 244.66 168.32 244.65 168.34 244.64 168.36 244.63 168.38 244.6 168.39 244.57 168.42 244.56 168.43 244.55 168.46 244.52 168.48 244.51 168.49 244.48 168.52 244.47 168.53 244.46 168.55 244.44 168.56 244.43 168.57 244.42 168.57 244.42 168.59 244.4 168.6 244.35 168.64 244.34 168.65 244.31 168.66 244.3 168.68 244.29 168.68 244.27 168.69 244.26 168.7 244.25 168.72 244.23 168.72 244.22 168.73 244.21 168.73 244.21 168.74 244.18 168.76 244.17 168.76 244.17 168.77 244.16 168.78 244.14 168.78 244.13 168.79 244.12 168.81 244.1 168.81 244.08 168.81 244.06 168.81 244.05 168.82 244.04 168.82 244.01 168.85 244 168.87 243.98 168.89 243.98 168.9 243.94 168.93 243.93 168.94 243.88 168.98 243.85 169 243.85 169.02 243.83 169.03 243.8 169.07 243.8 169.08 243.75 169.14 243.75 169.16 243.74 169.18 243.72 169.19 243.71 169.2 243.7 169.23 243.68 169.25 243.67 169.28 243.66 169.29 243.64 169.32 243.63 169.32 243.63 169.33 243.62 169.34 243.62 169.36 243.58 169.41 243.57 169.42 243.55 169.44 243.55 169.45 243.54 169.46 243.53 169.49 243.47 169.53 243.45 169.56 243.42 169.57 243.41 169.58 243.4 169.59 243.37 169.62 243.36 169.62 243.36 169.63 243.37 169.65 243.38 169.66 243.38 169.67 243.41 169.69 243.4 169.7 243.38 169.7 243.38 169.71 243.37 169.71 243.36 169.71 243.36 169.72 243.34 169.74 243.33 169.75 243.32 169.76 243.3 169.79 243.29 169.79 243.29 169.8 243.28 169.8 243.28 169.82 243.21 169.86 243.17 169.9 243.16 169.9 243.15 169.91 243.13 169.92 243.13 169.93 243.12 169.93 243.11 169.93 243.07 169.96 243.07 169.99 243.07 170.01 243.07 170.03 243.07 170.08 243.07 170.17 243.07 170.2 243.07 170.21 243.07 170.25 243.07 170.29 243.07 170.3 243.07 170.35 243.07 170.39 243.07 170.41 243.06 170.56 243.06 170.63 243.06 170.64 243.06 170.65 243.06 170.67 243.06 170.68 243.06 170.81 243.06 170.85 243.06 170.86 243.06 170.88 243.06 170.89 243.06 171.03 243.06 171.07 243.06 171.09 243.06 171.1 243.06 171.15 243.06 171.23 243.06 171.26 243.06 171.32 243.06 171.37 243.06 171.39 243.04 171.4 243.04 171.41 243.04 171.43 243.04 171.45 243.04 171.47 243.04 171.49 243.04 171.5 243.04 171.52 243.04 171.53 243.04 171.54 243.04 171.56 243.04 171.58 243.04 171.64 243.04 171.66 243.04 171.69 243.04 171.72 243.04 171.78 243.04 171.81 243.04 171.82 243.04 171.86 243.04 171.87 243.04 171.88 243.04 171.9 243.04 171.95 243.04 171.99 243.04 172 243.06 172 243.06 172.03 243.06 172.07 243.06 172.11 243.06 172.15 243.06 172.21 243.06 172.24 243.06 172.25 243.06 172.26 243.06 172.28 243.06 172.29 243.06 172.3 243.06 172.32 243.06 172.34 243.06 172.4 243.06 172.44 243.04 172.47 243.04 172.49 243.04 172.58 243.04 172.62 243.04 172.7 243.04 172.72 243.04 172.75 243.04 172.8 243.04 172.81 243.04 172.85 243.04 172.88 243.04 172.93 243.04 172.99 243.04 173 243.04 173.02 243.04 173.06 243.04 173.09 243.03 173.17 243.03 173.23 243.03 173.27 243.03 173.31 243.03 173.34 243.03 173.35 243.03 173.39 243.03 173.42 243.03 173.46 243.03 173.48 243.03 173.5 243.03 173.53 243.03 173.56 243.03 173.6 243.03 173.63 243.03 173.64 243.03 173.68 243.03 173.71 243.03 173.72 243.03 173.85 243.02 173.93 243.02 174.02 243.02 174.04 243.02 174.06 243.02 174.07 243.02 174.08 243.02 174.16 243.02 174.19 243.02 174.2 243.02 174.23 243.02 174.27 243.02 174.31 243.02 174.33 243.02 174.37 243.02 174.45 243.02 174.48 243.02 174.52 243.02 174.54 243 174.58 243 174.59 243 174.62 243 174.63 243 174.66 243 174.7 243 174.74 243 174.78 243 174.84 243 174.86 243 174.9 243 174.97 243 175 243 175.01 243 175.05 243 175.09 243 175.12 243 175.13 243 175.24 243 175.26 243 175.29 243 175.33 243 175.34 243 175.35 243 175.37 243 175.38 242.99 175.45 242.99 175.46 242.99 175.47 242.99 175.54 242.99 175.55 242.99 175.56 242.99 175.58 242.99 175.59 242.99 175.6 242.99 175.64 242.99 175.68 242.99 175.69 242.99 175.71 242.99 175.72 242.99 175.79 242.99 175.8 242.99 175.81 242.99 175.85 242.99 175.89 242.99 175.92 242.99 175.93 242.99 175.96 242.99 176.05 242.99 176.09 242.98 176.13 242.98 176.15 242.98 176.21 242.98 176.22 242.98 176.24 242.98 176.28 242.98 176.31 242.98 176.34 242.98 176.39 242.98 176.41 242.98 176.45 242.98 176.49 242.98 176.51 242.98 176.57 242.98 176.61 242.98 176.65 242.98 176.66 242.98 176.68 242.98 176.69 242.98 176.73 242.96 176.79 242.96 176.81 242.96 176.82 242.96 176.85 242.96 176.87 242.96 176.91 242.96 176.95 242.96 176.99 242.96 177 242.96 177.02 242.96 177.03 242.96 177.04 242.96 177.06 242.96 177.07 242.96 177.08 242.96 177.15 242.96 177.19 242.96 177.23 242.96 177.24 242.96 177.29 242.96 177.31 242.96 177.34 242.96 177.38 242.96 177.46 242.96 177.47 242.96 177.51 242.95 177.53 242.96 177.53 242.96 177.54 242.96 177.57 242.96 177.61 242.96 177.62 242.96 177.63 242.96 177.65 242.96 177.66 242.96 177.72 242.96 177.74 242.96 177.75 242.96 177.76 242.96 177.78 242.96 177.81 242.96 177.88 242.96 177.91 242.96 177.92 242.96 177.96 242.96 177.99 242.96 178 242.96 178.01 242.96 178.05 242.96 178.08 242.96 178.14 242.96 178.16 242.96 178.17 242.95 178.19 242.95 178.22 242.95 178.23 242.95 178.25 242.95 178.27 242.95 178.29 242.95 178.3 242.95 178.35 242.95 178.37 242.95 178.39 242.95 178.4 242.95 178.42 242.95 178.43 242.95 178.44 242.95 178.46 242.95 178.47 242.95 178.48 242.95 178.5 242.95 178.51 242.95 178.52 242.95 178.53 242.95 178.55 242.95 178.56 242.95 178.6 242.95 178.64 242.95 178.68 242.95 178.69 242.95 178.72 242.95 178.73 242.95 178.75 242.95 178.76 242.95 178.81 242.95 178.82 242.95 178.84 242.95 178.86 242.95 178.88 242.95 178.91 242.94 178.95 242.94 178.97 242.94 178.99 242.94 179.02 242.94 179.03 242.94 179.05 242.94 179.06 242.94 179.1 242.94 179.11 242.94 179.14 242.94 179.16 242.94 179.18 242.94 179.22 242.94 179.23 242.94 179.27 242.94 179.28 242.94 179.32 242.94 179.35 242.94 179.36 242.94 179.37 242.94 179.39 242.94 179.4 242.94 179.41 242.94 179.44 242.94 179.45 242.94 179.48 242.94 179.49 242.94 179.5 242.94 179.53 242.94 179.56 242.94 179.57 242.94 179.6 242.94 179.61 242.94 179.62 242.92 179.71 242.92 179.74 242.92 179.78 242.92 179.79 242.92 179.82 242.92 179.83 242.92 179.86 242.92 179.88 242.92 179.9 242.92 179.95 242.92 179.96 242.92 179.97 242.92 180 242.92 180.05 242.92 180.07 242.92 180.08 242.92 180.09 242.92 180.12 242.92 180.13 242.92 180.16 242.92 180.19 242.92 180.2 242.92 180.22 242.92 180.24 242.92 180.26 242.92 180.29 242.92 180.33 242.91 180.41 242.91 180.45 242.91 180.49 242.91 180.51 242.91 180.53 242.91 180.56 242.91 180.6 242.91 180.62 242.91 180.63 242.91 180.67 242.91 180.68 242.91 180.75 242.91 180.76 242.91 180.79 242.91 180.8 242.91 180.81 242.91 180.84 242.91 180.88 242.91 180.91 242.91 180.94 242.91 180.98 242.9 181.1 242.9 181.11 242.9 181.15 242.9 181.17 242.9 181.19 242.9 181.21 242.9 181.22 242.9 181.23 242.9 181.26 242.9 181.27 242.9 181.28 242.9 181.31 242.9 181.38 242.9 181.43 242.9 181.44 242.9 181.45 242.9 181.52 242.9 181.53 242.9 181.55 242.9 181.56 242.9 181.6 242.9 181.61 242.9 181.64 242.9 181.68 242.9 181.7 242.9 181.74 242.9 181.78 242.9 181.79 242.9 181.81 242.9 181.85 242.9 181.86 242.88 181.9 242.88 181.91 242.88 181.93 242.88 181.97 242.88 181.99 242.88 182 242.88 182.04 242.88 182.07 242.88 182.11 242.88 182.12 242.88 182.13 242.88 182.15 242.88 182.17 242.88 182.24 242.88 182.28 242.88 182.29 242.88 182.31 242.88 182.32 242.88 182.36 242.88 182.37 242.88 182.4 242.88 182.42 242.88 182.44 242.88 182.46 242.88 182.49 242.88 182.5 242.88 182.53 242.88 182.55 242.88 182.59 242.87 182.59 242.87 182.63 242.87 182.66 242.87 182.69 242.87 182.74 242.87 182.78 242.87 182.83 242.87 182.84 242.87 182.85 242.87 182.87 242.87 182.88 242.87 182.91 242.87 182.95 242.87 182.96 242.87 183.01 242.87 183.05 242.88 183.05 242.9 183.05 242.91 183.06 242.91 183.08 242.91 183.1 242.91 183.12 242.91 183.13 242.91 183.14 242.91 183.16 242.91 183.2 242.91 183.21 242.91 183.22 242.91 183.26 242.91 183.27 242.91 183.3 242.91 183.31 242.91 183.33 242.91 183.34 242.9 183.37 242.9 183.41 242.9 183.44 242.9 183.48 242.9 183.51 242.9 183.55 242.9 183.56 242.9 183.59 242.9 183.6 242.9 183.61 242.9 183.63 242.9 183.64 242.9 183.68 242.9 183.71 242.9 183.72 242.9 183.75 242.9 183.78 242.9 183.82 242.9 183.85 242.9 183.88 242.9 183.9 242.9 183.97 242.9 183.98 242.9 184.01 242.9 184.02 242.9 184.03 242.88 184.11 242.88 184.13 242.88 184.15 242.88 184.2 242.88 184.26 242.88 184.27 242.88 184.28 242.88 184.29 242.88 184.32 242.88 184.33 242.88 184.36 242.88 184.37 242.88 184.44 242.88 184.45 242.88 184.48 242.88 184.5 242.88 184.54 242.88 184.58 242.88 184.6 242.88 184.62 242.88 184.66 242.88 184.68 242.88 184.71 242.87 184.74 242.87 184.77 242.87 184.81 242.87 184.82 242.87 184.83 242.87 184.84 242.87 184.87 242.87 184.92 242.87 184.94 242.87 184.95 242.87 184.96 242.87 184.99 242.87 185 242.87 185.01 242.87 185.03 242.87 185.05 242.87 185.07 242.87 185.09 242.87 185.12 242.87 185.15 242.87 185.17 242.87 185.21 242.87 185.22 242.87 185.25 242.87 185.28 242.87 185.3 242.87 185.33 242.87 185.37 242.87 185.4 242.86 185.42 242.86 185.43 242.86 185.45 242.86 185.49 242.86 185.51 242.86 185.54 242.86 185.56 242.86 185.59 242.86 185.63 242.86 185.66 242.86 185.68 242.86 185.71 242.86 185.75 242.86 185.77 242.86 185.79 242.86 185.81 242.86 185.83 242.86 185.91 242.86 185.92 242.86 185.93 242.86 185.94 242.86 185.97 242.86 186.01 242.86 186.02 242.85 186.05 242.85 186.08 242.85 186.12 242.85 186.13 242.85 186.15 242.85 186.17 242.85 186.22 242.85 186.23 242.85 186.28 242.85 186.31 242.85 186.34 242.85 186.35 242.85 186.38 242.85 186.4 242.85 186.43 242.85 186.46 242.85 186.48 242.85 186.52 242.85 186.53 242.85 186.59 242.85 186.61 242.85 186.63 242.85 186.66 242.85 186.7 242.83 186.73 242.83 186.74 242.83 186.76 242.83 186.78 242.83 186.81 242.83 186.82 242.83 186.84 242.83 186.85 242.83 186.87 242.83 186.89 242.83 186.93 242.83 186.95 242.83 186.97 242.83 186.98 242.83 186.99 242.83 187.1 242.83 187.11 242.83 187.12 242.83 187.14 242.83 187.15 242.83 187.18 242.83 187.2 242.83 187.21 242.83 187.24 242.83 187.28 242.83 187.31 242.82 187.32 242.82 187.33 242.82 187.37 242.82 187.44 242.82 187.49 242.82 187.52 242.82 187.53 242.82 187.54 242.82 187.56 242.82 187.57 242.82 187.58 242.82 187.61 242.82 187.62 242.82 187.65 242.82 187.66 242.82 187.67 242.82 187.69 242.82 187.72 242.82 187.74 242.82 187.75 242.82 187.78 242.82 187.79 242.82 187.8 242.82 187.83 242.82 187.84 242.82 187.86 242.82 187.88 242.82 187.9 242.82 187.92 242.82 187.94 242.81 187.94 242.81 187.95 242.81 187.97 242.81 187.99 242.81 188 242.81 188.01 242.81 188.03 242.81 188.04 242.81 188.09 242.81 188.12 242.81 188.13 242.81 188.14 242.81 188.17 242.81 188.18 242.81 188.2 242.81 188.24 242.81 188.29 242.81 188.3 242.81 188.33 242.81 188.34 242.81 188.37 242.81 188.38 242.81 188.39 242.79 188.41 242.79 188.43 242.79 188.44 242.79 188.48 242.79 188.5 242.79 188.51 242.79 188.59 242.82 188.59 242.87 188.59 242.9 188.59 242.95 188.59 242.98 188.59 243 188.6 243.02 188.6 243.04 188.6 243.16 188.6 243.25 188.6 243.26 188.6 243.3 188.6 243.32 188.6 243.34 188.6 243.36 188.6 243.37 188.6 243.38 188.6 243.4 188.6 243.41 188.6 243.42 188.6 243.44 188.6 243.45 188.6 243.47 188.6 243.49 188.6 243.5 188.6 243.57 188.6 243.62 188.6 243.66 188.6 243.68 188.6 243.7 188.6 243.71 188.6 243.72 188.6 243.74 188.6 243.76 188.62 243.79 188.62 243.8 188.62 243.83 188.62 243.88 188.62 243.89 188.62 243.93 188.62 243.94 188.62 244.01 188.62 244.16 188.62 244.17 188.62 244.25 188.62 244.32 188.62 244.34 188.62 244.38 188.62 244.4 188.62 244.44 188.62 244.46 188.62 244.51 188.63 244.52 188.63 244.57 188.63 244.6 188.63 244.63 188.63 244.69 188.63 244.73 188.63 244.76 188.63 244.8 188.63 244.84 188.63 244.85 188.63 244.86 188.63 244.89 188.63 244.9 188.63 244.91 188.63 244.94 188.63 245.01 188.63 245.06 188.63 245.07 188.63 245.08 188.63 245.11 188.63 245.16 188.63 245.18 188.63 245.19 188.64 245.22 188.64 245.23 188.64 245.24 188.64 245.28 188.64 245.29 188.64 245.31 188.64 245.32 188.64 245.36 188.64 245.37 188.64 245.41 188.64 245.42 188.64 245.49 188.64 245.5 188.64 245.53 188.64 245.54 188.64 245.56 188.64 245.57 188.64 245.58 188.64 245.62 188.64 245.63 188.64 245.71 188.64 245.73 188.64 245.74 188.64 245.75 188.64 245.79 188.64 245.84 188.64 245.86 188.64 245.9 188.64 245.94 188.66 245.96 188.66 245.97 188.66 245.99 188.66 246.01 188.66 246.04 188.66 246.07 188.66 246.08 188.66 246.18 188.66 246.2 188.66 246.29 188.66 246.31 188.66 246.42 188.66 246.45 188.66 246.46 188.66 246.49 188.66 246.5 188.66 246.51 188.66 246.52 188.66 246.54 188.66 246.55 188.66 246.56 188.66 246.58 188.66 246.59 188.66 246.6 188.66 246.64 188.66 246.66 188.66 246.67 188.66 246.69 188.67 246.76 188.67 246.8 188.67 246.87 188.67 246.88 188.67 246.9 188.67 246.98 188.67 247.09 188.67 247.1 188.67 247.11 188.67 247.15 188.67 247.18 188.67 247.19 188.67 247.21 188.67 247.22 188.67 247.24 188.67 247.27 188.67 247.3 188.67 247.31 188.67 247.39 188.67 247.4 188.67 247.41 188.67 247.43 188.67 247.54 188.67 247.57 188.68 247.62 188.68 247.64 188.68 247.65 188.68 247.66 188.68 247.68 188.68 247.7 188.68 247.73 188.68 247.77 188.68 247.81 188.68 247.82 188.68 247.85 188.68 247.86 188.68 247.89 188.68 247.9 188.68 247.99 188.68 248.03 188.68 248.06 188.68 248.08 188.68 248.11 188.68 248.12 188.68 248.19 188.68 248.2 188.68 248.21 188.68 248.23 188.68 248.29 188.68 248.31 188.68 248.33 188.68 248.44 188.69 248.44 188.68 248.45 188.68 248.46 188.68 248.49 188.68 248.5 188.69 248.51 188.69 248.54 188.69 248.58 188.69 248.61 188.69 248.63 188.69 248.66 188.69 248.67 188.69 248.72 188.69 248.74 188.69 248.75 188.69 248.76 188.69 248.8 188.69 248.84 188.69 248.85 188.69 248.88 188.69 248.91 188.69 248.92 188.69 248.95 188.69 248.97 188.69 248.99 188.69 249 188.69 249.03 188.69 249.05 188.69 249.08 188.69 249.09 188.69 249.12 188.69 249.13 188.69 249.14 188.69 249.16 188.69 249.18 188.69 249.19 188.69 249.22 188.69 249.27 188.69 249.3 188.69 249.33 188.69 249.34 188.69 249.35 188.69 249.38 188.71 249.42 188.71 249.43 188.71 249.44 188.71 249.46 188.71 249.51 188.71 249.52 188.71 249.55 188.71 249.57 188.71 249.64 188.71 249.71 188.71 249.8 188.72 249.85 188.72 249.94 188.72 249.99 188.72 250.05 188.72 250.2 188.72 250.22 188.71 250.22 188.72 250.23 188.72 250.24 188.72 250.25 188.72 250.27 188.72 250.31 188.72 250.35 188.72 250.4 188.72 250.41 188.72 250.43 188.72 250.44 188.72 250.47 188.72 250.54 188.72 250.58 188.72 250.66 188.72 250.67 188.72 250.71 188.72 250.81 188.72 250.9 188.72 250.92 188.72 250.94 188.73 250.95 188.73 250.95 188.72 250.97 188.72 250.99 188.72 251.04 188.72 251.05 188.72 251.13 188.72 251.15 188.72 251.16 188.72 251.17 188.72 251.22 188.73 251.35 188.73 251.38 188.73 251.39 188.73 251.45 188.73 251.46 188.73 251.47 188.73 251.55 188.73 251.59 188.73 251.6 188.73 251.66 188.73 251.67 188.73 251.93 188.75 252.05 188.75 252.06 188.75 252.07 188.75 252.17 188.75 252.18 188.75 252.22 188.75 252.27 188.75 252.28 188.75 252.3 188.75 252.4 188.75 252.41 188.75 252.47 188.75 252.49 188.75 252.51 188.75 252.52 188.75 252.53 188.75 252.57 188.75 252.59 188.75 252.61 188.75 252.64 188.75 252.65 188.75 252.66 188.75 252.69 188.75 252.72 188.75 252.73 188.75 252.75 188.75 252.77 188.75 252.81 188.75 252.83 188.75 252.85 188.75 252.9 188.75 252.91 188.75 252.95 188.75 252.97 188.75 252.99 188.75 253.03 188.75 253.07 188.75 253.08 188.75 253.1 188.75 253.11 188.75 253.12 188.75 253.13 188.75 253.16 188.75 253.17 188.75 253.2 188.75 253.29 188.76 253.31 188.76 253.37 188.76 253.4 188.76 253.41 188.76 253.42 188.76 253.44 188.76 253.45 188.76 253.47 188.76 253.5 188.76 253.53 188.76 253.55 188.76 253.57 188.76 253.61 188.76 253.62 188.76 253.63 188.76 253.65 188.76 253.66 188.76 253.69 188.76 253.7 188.76 253.75 188.76 253.78 188.76 253.82 188.76 253.84 188.76 253.85 188.76 253.88 188.76 253.89 188.76 254.05 188.76 254.08 188.76 254.1 188.76 254.12 188.76 254.13 188.76 254.14 188.76 254.16 188.76 254.17 188.76 254.18 188.76 254.2 188.76 254.21 188.76 254.24 188.76 254.26 188.76 254.29 188.76 254.3 188.76 254.31 188.76 254.33 188.76 254.34 188.76 254.35 188.76 254.38 188.76 254.44 188.76 254.5 188.76 254.52 188.76 254.54 188.76 254.55 188.76 254.56 188.76 254.59 188.76 254.75 188.77 254.78 188.77 254.81 188.77 254.84 188.77 254.89 188.77 254.9 188.77 254.93 188.77 254.96 188.77 254.97 188.77 254.98 188.77 255.01 188.77 255.03 188.77 255.05 188.77 255.09 188.77 255.11 188.77 255.13 188.77 255.15 188.77 255.16 188.77 255.18 188.77 255.19 188.77 255.2 188.77 255.23 188.77 255.43 188.77 255.45 188.77 255.47 188.77 255.53 188.77 255.54 188.77 255.56 188.77 255.57 188.77 255.58 188.77 255.6 188.77 255.64 188.77 255.65 188.77 255.66 188.77 255.68 188.77 255.69 188.77 255.7 188.77 255.74 188.77 255.78 188.77 255.83 188.77 255.86 188.77 255.87 188.77 255.88 188.77 255.9 188.77 255.91 188.77 255.92 188.77 255.94 188.77 255.95 188.77 255.96 188.77 255.98 188.77 256 188.77 256.01 188.77 256.03 188.77 256.07 188.77 256.08 188.77 256.09 188.77 256.12 188.77 256.13 188.77 256.16 188.77 256.16 188.78 256.17 188.78 256.23 188.78 256.26 188.78 256.3 188.78 256.32 188.78 256.33 188.78 256.36 188.78 256.37 188.78 256.39 188.78 256.45 188.78 256.46 188.78 256.47 188.78 256.5 188.78 256.51 188.78 256.53 188.78 256.55 188.78 256.58 188.78 256.59 188.78 256.62 188.78 256.66 188.78 256.68 188.78 256.7 188.78 256.71 188.78 256.72 188.78 256.76 188.78 256.79 188.78 256.81 188.78 256.83 188.78 256.84 188.78 256.87 188.78 256.88 188.78 256.9 188.78 256.93 188.78 256.98 188.78 257 188.78 257.04 188.78 257.05 188.78 257.08 188.78 257.1 188.78 257.12 188.78 257.14 188.78 257.17 188.78 257.18 188.78 257.19 188.78 257.19 188.8 257.21 188.8 257.22 188.8 257.23 188.8 257.26 188.8 257.27 188.8 257.29 188.8 257.31 188.8 257.32 188.8 257.32 188.78 257.34 188.78 257.36 188.78 257.39 188.78 257.39 188.8 257.43 188.8 257.48 188.8 257.49 188.8 257.52 188.8 257.57 188.8 257.59 188.8 257.61 188.8 257.67 188.8 257.68 188.8 257.7 188.8 257.72 188.8 257.73 188.8 257.8 188.8 257.81 188.8 257.87 188.8 257.93 188.8 257.94 188.8 257.95 188.8 257.99 188.8 258.02 188.8 258.06 188.8 258.1 188.8 258.11 188.8 258.12 188.8 258.14 188.8 258.16 188.8 258.18 188.8 258.21 188.8 258.25 188.8 258.27 188.8 258.28 188.8 258.29 188.8 258.32 188.8 258.33 188.8 258.35 188.8 258.4 188.8 258.41 188.8 258.45 188.8 258.46 188.8 258.49 188.8 258.5 188.8 258.53 188.8 258.56 188.8 258.57 188.8 258.58 188.8 258.62 188.8 258.63 188.8 258.65 188.8 258.67 188.8 258.69 188.8 258.7 188.8 258.76 188.8 258.78 188.8 258.79 188.8 258.8 188.8 258.82 188.8 258.84 188.8 258.86 188.8 258.87 188.8 258.92 188.8 258.95 188.8 258.96 188.8 258.97 188.8 259 188.8 259.01 188.8 259.03 188.8 259.04 188.8 259.05 188.8 259.08 188.8 259.11 188.8 259.12 188.8 259.13 188.8 259.21 188.8 259.24 188.8 259.25 188.8 259.26 188.81 259.29 188.81 259.3 188.81 259.31 188.81 259.35 188.81 259.38 188.81 259.42 188.81 259.44 188.81 259.46 188.81 259.5 188.81 259.52 188.81 259.54 188.81 259.55 188.81 259.56 188.81 259.58 188.81 259.59 188.81 259.6 188.81 259.62 188.81 259.64 188.81 259.65 188.81 259.68 188.81 259.69 188.81 259.71 188.81 259.72 188.81 259.75 188.81 259.76 188.81 259.77 188.81 259.79 188.81 259.82 188.81 259.85 188.81 259.86 188.81 259.88 188.81 259.89 188.81 259.98 188.81 260.02 188.81 260.03 188.81 260.05 188.81 260.1 188.81 260.13 188.81 260.14 188.81 260.17 188.81 260.18 188.81 260.2 188.81 260.22 188.81 260.31 188.81 260.32 188.81 260.36 188.81 260.37 188.81 260.39 188.81 260.4 188.81 260.41 188.81 260.43 188.81 260.44 188.81 260.47 188.81 260.49 188.81 260.5 188.81 260.53 188.81 260.55 188.81 260.56 188.81 260.57 188.81 260.58 188.81 260.64 188.81 260.65 188.81 260.66 188.81 260.68 188.81 260.69 188.81 260.7 188.81 260.71 188.81 260.77 188.81 260.78 188.81 260.79 188.81 260.85 188.81 260.86 188.81 260.87 188.81 260.9 188.81 260.91 188.81 260.92 188.81 260.94 188.81 260.96 188.81 260.98 188.81 260.99 188.81 261.02 188.82 261.02 188.81 261.03 188.81 261.04 188.81 261.06 188.81 261.07 188.81 261.08 188.81 261.09 188.81 261.16 188.81 261.2 188.81 261.28 188.81 261.3 188.81 261.32 188.81 261.33 188.81 261.34 188.81 261.36 188.81 261.37 188.81 261.4 188.81 261.41 188.81 261.47 188.81 261.5 188.81 261.51 188.81 261.53 188.81 261.54 188.81 261.55 188.81 261.57 188.81 261.61 188.81 261.62 188.81 261.66 188.81 261.68 188.81 261.68 188.82 261.7 188.82 261.71 188.82 261.72 188.82 261.72 188.81 261.74 188.81 261.75 188.81 261.77 188.81 261.79 188.81 261.8 188.81 261.81 188.81 261.83 188.81 261.84 188.81 261.85 188.81 261.88 188.81 261.91 188.81 261.96 188.81 262 188.81 262.01 188.81 262.02 188.81 262.04 188.81 262.05 188.81 262.06 188.81 262.08 188.81 262.1 188.81 262.22 188.81 262.25 188.81 262.3 188.81 262.32 188.82 262.35 188.82 262.36 188.82 262.38 188.82 262.39 188.82 262.42 188.82 262.43 188.82 262.46 188.82 262.48 188.82 262.5 188.82 262.51 188.82 262.52 188.82 262.53 188.82 262.55 188.82 262.57 188.82 262.6 188.82 262.61 188.82 262.64 188.82 262.65 188.82 262.67 188.82 262.68 188.82 262.69 188.82 262.7 188.82 262.72 188.82 262.74 188.82 262.76 188.82 262.77 188.82 262.78 188.82 262.8 188.82 262.88 188.82 263.12 188.82 263.14 188.82 263.16 188.82 263.19 188.82 263.21 188.82 263.31 188.82 263.32 188.82 263.33 188.82 263.38 188.82 263.41 188.82 263.45 188.82 263.49 188.82 263.57 188.82 263.61 188.82 263.63 188.82 263.65 188.82 263.66 188.82 263.79 188.82 263.91 188.82 263.92 188.82 263.95 188.82 264.03 188.82 264.04 188.82 264.05 188.82 264.12 188.82 264.16 188.82 264.17 188.82 264.2 188.82 264.34 188.82 264.35 188.82 264.37 188.82 264.41 188.82 264.45 188.82 264.47 188.82 264.51 188.82 264.54 188.82 264.55 188.82 264.56 188.82 264.62 188.82 264.65 188.82 264.68 188.82 264.69 188.82 264.75 188.82 264.85 188.82 264.92 188.82 264.93 188.82 264.94 188.82 264.97 188.82 264.98 188.82 265 188.82 265.01 188.82 265.04 188.82 265.05 188.82 265.06 188.82 265.07 188.82 265.11 188.82 265.13 188.82 265.14 188.82 265.15 188.82 265.19 188.82 265.2 188.82 265.26 188.82 265.28 188.82 265.32 188.82 265.34 188.82 265.35 188.82 265.36 188.82 265.39 188.82 265.42 188.82 265.44 188.82 265.45 188.82 265.48 188.82 265.49 188.82 265.51 188.82 265.73 188.82 265.82 188.82 265.87 188.82 265.99 188.82 266.03 188.82 266.04 188.82 266.06 188.82 266.13 188.82 266.23 188.82 266.32 188.82 266.37 188.82 266.5 188.82 266.51 188.82 266.54 188.82 266.55 188.82 266.58 188.82 266.59 188.82 266.61 188.82 266.62 188.82 266.63 188.82 266.64 188.82 266.66 188.82 266.67 188.82 266.68 188.82 266.7 188.82 266.71 188.82 266.72 188.82 266.74 188.82 266.78 188.82 266.79 188.82 266.81 188.82 266.83 188.82 266.87 188.82 266.89 188.82 266.91 188.82 266.92 188.82 266.96 188.82 266.97 188.82 266.99 188.82 267 188.82 267.01 188.82 267.04 188.82 267.06 188.82 267.08 188.82 267.09 188.82 267.12 188.82 267.14 188.82 267.18 188.82 267.22 188.82 267.23 188.82 267.25 188.82 267.31 188.82 267.34 188.82 267.37 188.82 267.38 188.82 267.42 188.82 267.44 188.82 267.47 188.82 267.51 188.82 267.56 188.82 267.64 188.82 267.65 188.82 267.68 188.82 267.72 188.82 267.73 188.82 267.82 188.82 267.84 188.82 267.85 188.82 267.86 188.82 267.88 188.82 267.89 188.82 267.9 188.82 267.92 188.82 267.93 188.82 267.94 188.82 267.97 188.82 267.99 188.82 268.01 188.82 268.05 188.82 268.06 188.82 268.07 188.82 268.08 188.82 268.11 188.82 268.12 188.82 268.14 188.82 268.2 188.82 268.22 188.82 268.23 188.82 268.32 188.82 268.33 188.82 268.36 188.82 268.37 188.82 268.43 188.82 268.45 188.82 268.46 188.82 268.48 188.82 268.49 188.82 268.5 188.82 268.52 188.82 268.53 188.82 268.54 188.82 268.56 188.82 268.57 188.82 268.58 188.82 268.61 188.82 268.67 188.82 268.69 188.82 268.71 188.82 268.74 188.82 268.75 188.82 268.77 188.82 268.84 188.82 268.86 188.82 268.87 188.82 268.88 188.82 268.9 188.82 268.94 188.82 268.96 188.82 268.98 188.82 268.99 188.82 269 188.82 269.01 188.82 269.04 188.82 269.05 188.82 269.07 188.82 269.11 188.82 269.12 188.82 269.13 188.82 269.14 188.82 269.16 188.82 269.19 188.82 269.2 188.82 269.22 188.82 269.26 188.82 269.36 188.82 269.39 188.82 269.42 188.82 269.43 188.82 269.45 188.82 269.46 188.82 269.49 188.82 269.51 188.82 269.63 188.82 269.64 188.82 269.66 188.82 269.67 188.82 269.74 188.82 269.77 188.82 269.81 188.82 269.84 188.82 269.84 188.81 269.85 188.81 269.87 188.81 269.89 188.81 269.9 188.81 269.93 188.81 269.94 188.81 269.96 188.81 270 188.81 270.01 188.81 270.04 188.81 270.09 188.81 270.1 188.81 270.11 188.81 270.13 188.81 270.14 188.81 270.14 188.82 270.15 188.82 270.15 188.81 270.17 188.81 270.19 188.81 270.21 188.81 270.25 188.81 270.3 188.81 270.31 188.81 270.32 188.81 270.34 188.81 270.36 188.81 270.38 188.81 270.39 188.81 270.42 188.81 270.45 188.81 270.48 188.81 270.51 188.81 270.53 188.81 270.56 188.81 270.57 188.81 270.58 188.81 270.63 188.81 270.66 188.81 270.68 188.81 270.72 188.81 270.74 188.81 270.76 188.81 270.77 188.81 270.78 188.81 270.8 188.81 270.83 188.81 270.85 188.81 270.87 188.81 270.89 188.81 270.91 188.81 270.96 188.81 270.99 188.81 271 188.81 271.03 188.81 271.04 188.81 271.06 188.81 271.07 188.81 271.08 188.81 271.1 188.81 271.16 188.81 271.18 188.81 271.19 188.81 271.21 188.81 271.25 188.81 271.35 188.81 271.38 188.81 271.4 188.81 271.41 188.81 271.42 188.81 271.44 188.81 271.49 188.81 271.5 188.81 271.51 188.81 271.53 188.81 271.54 188.81 271.57 188.81 271.58 188.81 271.59 188.81 271.63 188.81 271.65 188.81 271.66 188.81 271.69 188.81 271.71 188.81 271.74 188.81 271.75 188.81 271.76 188.81 271.78 188.81 271.84 188.81 271.86 188.81 271.87 188.81 271.88 188.81 271.91 188.81 271.92 188.81 271.93 188.81 272.05 188.81 272.13 188.81 272.14 188.81 272.17 188.81 272.18 188.81 272.2 188.81 272.22 188.81 272.25 188.81 272.27 188.81 272.29 188.81 272.3 188.81 272.31 188.81 272.33 188.81 272.35 188.81 272.4 188.81 272.43 188.81 272.44 188.81 272.47 188.81 272.5 188.81 272.56 188.81 272.57 188.81 272.64 188.81 272.65 188.81 272.67 188.81 272.68 188.81 272.69 188.81 272.72 188.81 272.73 188.81 272.76 188.8 272.77 188.8 272.8 188.8 272.89 188.8 272.92 188.8 272.93 188.8 272.94 188.8 272.94 188.77 272.94 188.76 272.93 188.73"/></svg>