<svg id="Layer_1" data-name="Layer 1" xmlns="http://www.w3.org/2000/svg" viewBox="0 0 792.2 650"><defs><style>.cls-1,.cls-8{fill:#f4f3ef;}.cls-2,.cls-5{fill:none;stroke:#054972;}.cls-2{stroke-miterlimit:10;stroke-width:0.5px;}.cls-3{font-size:10px;font-family:Lora-Italic, Lora;font-style:italic;}.cls-3,.cls-4,.cls-6{fill:#054972;}.cls-4{font-size:9px;font-family:Montserrat-Bold, Montserrat;font-weight:700;letter-spacing:0.4em;}.cls-5{stroke-width:2px;}.cls-7{fill:#f47e4d;}.cls-8{font-size:13px;font-family:Montserrat-Regular, Montserrat;letter-spacing:0.03em;}.cls-9{fill:#0b9899;}.cls-10{fill:#ef3751;}</style></defs><rect class="cls-1" width="792.2" height="650"/><line class="cls-2" x1="224.27" y1="139" x2="224.27" y2="571"/><line class="cls-2" x1="563.27" y1="124" x2="563.27" y2="570"/><line class="cls-2" x1="394.27" y1="124" x2="394.27" y2="570"/><text class="cls-3" transform="translate(54.3 155.45)">Strong programs for housing OORs <tspan x="0" y="12">and for community development </tspan><tspan x="0" y="24">(public works and downtown </tspan><tspan x="0" y="36">revitalization)</tspan><tspan x="0" y="60">Presence of NIFA resources </tspan><tspan x="0" y="84">Elected officials are deeply </tspan><tspan x="0" y="96">connected to their towns or cities</tspan><tspan x="0" y="120">Successful residential Tax </tspan><tspan x="0" y="132">Increment Financing (TIF)</tspan><tspan x="0" y="156">Generational wealth and </tspan><tspan x="0" y="168">generational health</tspan><tspan x="0" y="192">Economic developers in the region </tspan><tspan x="0" y="204">are very engaged</tspan><tspan x="0" y="228">Good hospitals and healthcare</tspan><tspan x="0" y="252">Southeast Nebraskan’s passion and </tspan><tspan x="0" y="264">dedication to their community</tspan><tspan x="0" y="288">Connecting roads</tspan><tspan x="0" y="312">Communities’ response to disasters</tspan><tspan x="0" y="336">Partnerships with state and </tspan><tspan x="0" y="348">regional utility companies</tspan></text><text class="cls-3" transform="translate(231.3 155.45)">Neglect of housing programs at <tspan x="0" y="12">county level</tspan><tspan x="0" y="36">Slow population growth or </tspan><tspan x="0" y="48">difficulty recruiting workforce and </tspan><tspan x="0" y="60">qualified leadership</tspan><tspan x="0" y="84">Aging infrastructure (i.e. bridges, </tspan><tspan x="0" y="96">streets, water treatment plants, </tspan><tspan x="0" y="108">etc.)</tspan><tspan x="0" y="132">Access to funding</tspan><tspan x="0" y="156">Fluctuating utility costs</tspan><tspan x="0" y="180">Lodging (lack of hotels throughout </tspan><tspan x="0" y="192">the region to complement tourist </tspan><tspan x="0" y="204">attractions)</tspan><tspan x="0" y="228">Lack of direct collaboration </tspan><tspan x="0" y="240">between local EDO agencies and </tspan><tspan x="0" y="252">CVB agencies</tspan></text><text class="cls-3" transform="translate(397.3 155.45)">Stronger communication with <tspan x="0" y="12">Education Service Units (ESU) to </tspan><tspan x="0" y="24">promote workforce development </tspan><tspan x="0" y="36">and include younger workforce in </tspan><tspan x="0" y="48">BRE opportunities</tspan><tspan x="0" y="72">Education to employers and </tspan><tspan x="0" y="84">engagement as the “first line” of </tspan><tspan x="0" y="96">interaction with potential </tspan><tspan x="0" y="108">workforce about housing incentives </tspan><tspan x="0" y="120">and BRE initiatives</tspan><tspan x="0" y="144">Education/outreach to county </tspan><tspan x="0" y="156">commissioners about the </tspan><tspan x="0" y="168">importance of BRE, housing, and </tspan><tspan x="0" y="180">workforce initiatives as regional </tspan><tspan x="0" y="192">human infrastructure</tspan><tspan x="0" y="216">Increase number of internships and </tspan><tspan x="0" y="228">apprenticeships with local </tspan><tspan x="0" y="240">employers</tspan><tspan x="0" y="264">Extending highways to larger </tspan><tspan x="0" y="276">corridors (interstates, larger </tspan><tspan x="0" y="288">communities, out of state)</tspan><tspan x="0" y="312">Subsidizing costs of rising utility </tspan><tspan x="0" y="324">prices (incentives to keep costs </tspan><tspan x="0" y="336">affordable)</tspan><tspan x="0" y="360">Strengthening partnerships </tspan><tspan x="0" y="372">between local EDO’s and CVB’s </tspan><tspan x="0" y="396">Identify additional sites for wind </tspan><tspan x="0" y="408">and solar farms</tspan></text><text class="cls-3" transform="translate(567.3 155.45)">Aging population and workforce<tspan x="0" y="24">Loss of younger populations to </tspan><tspan x="0" y="36">larger cities/other areas of the </tspan><tspan x="0" y="48">Mid-west</tspan><tspan x="0" y="72">Real and perceived lack of diversity </tspan><tspan x="0" y="84">and/or inclusivity</tspan><tspan x="0" y="108">Wages and lack of sufficient </tspan><tspan x="0" y="120">benefits for employees </tspan><tspan x="0" y="132">(rigid/inflexible hiring practices)</tspan><tspan x="0" y="156">Pandemic</tspan><tspan x="0" y="180">Income limits to access federal and </tspan><tspan x="0" y="192">state</tspan><tspan x="0" y="216">Funding for infrastructure and </tspan><tspan x="0" y="228">disaster relief</tspan></text><text class="cls-4" transform="translate(50.99 75.56)">SWOT ANALYSIS</text><line class="cls-5" x1="50.99" y1="51.47" x2="137.39" y2="51.47"/><text class="cls-3" transform="translate(51.34 100.69)">The Strengths, Weaknesses, Opportunities, and Threats (SWOT) analysis from the second CEDS focus group workshop is summarized in this table.</text><rect class="cls-6" x="53.68" y="118" width="169.98" height="21"/><rect class="cls-7" x="224.05" y="117.84" width="169.98" height="21"/><text class="cls-8" transform="translate(228.71 134.54) scale(1 1.11)">Weaknesses </text><text class="cls-8" transform="translate(62.71 134.54) scale(1 1.11)">Strengths</text><rect class="cls-9" x="394.03" y="117.84" width="169.98" height="21"/><rect class="cls-10" x="563.31" y="117.84" width="169.98" height="21"/><text class="cls-8" transform="translate(401.71 134.54) scale(1 1.11)">Opportunities</text><text class="cls-8" transform="translate(574.71 134.54) scale(1 1.11)">Threats</text></svg>