<svg id="Layer_1" data-name="Layer 1" xmlns="http://www.w3.org/2000/svg" width="792" height="650" viewBox="0 0 792 650">
  <defs>
    <style>
      .cls-1, .cls-8 {
        fill: #f4f3ef;
      }

      .cls-2, .cls-5 {
        font-size: 10px;
        font-family: Lora-Italic, Lora;
        font-style: italic;
      }

      .cls-2 {
        fill: #888;
      }

      .cls-3 {
        font-size: 9px;
        fill: #3d3d3d;
        font-family: Montserrat-Bold, Montserrat;
        font-weight: 700;
        letter-spacing: 0.4em;
      }

      .cls-4, .cls-9 {
        fill: none;
      }

      .cls-4 {
        stroke: #64acdf;
        stroke-width: 2px;
      }

      .cls-5 {
        fill: #565656;
      }

      .cls-6 {
        fill: #64acdf;
      }

      .cls-7 {
        fill: #fbb03b;
      }

      .cls-8 {
        font-size: 13px;
        font-family: Montserrat-Regular, Montserrat;
        letter-spacing: 0.03em;
      }

      .cls-9 {
        stroke: #999;
        stroke-miterlimit: 10;
        stroke-width: 0.5px;
      }

      .cls-10 {
        fill: #80aa53;
      }

      .cls-11 {
        fill: #ff6562;
      }
    </style>
  </defs>
  <rect class="cls-1" width="792" height="650"/>
  <text class="cls-2" transform="translate(54 155)">Strong programs for housing OORs <tspan x="0" y="12">and for community development </tspan><tspan x="0" y="24">(public works and downtown </tspan><tspan x="0" y="36">revitalization)</tspan><tspan x="0" y="60">Presence of NIFA resources </tspan><tspan x="0" y="72">Elected officials are deeply </tspan><tspan x="0" y="84">connected to their towns or cities</tspan><tspan x="0" y="108">Successful residential Tax </tspan><tspan x="0" y="120">Increment Financing (TIF)</tspan><tspan x="0" y="144">Generational wealth and </tspan><tspan x="0" y="156">generational health</tspan><tspan x="0" y="180">Economic developers in the region </tspan><tspan x="0" y="192">are very engaged</tspan><tspan x="0" y="216">Good hospitals and healthcare</tspan><tspan x="0" y="240">Southeast Nebraskan’s passion and </tspan><tspan x="0" y="252">dedication to their community</tspan><tspan x="0" y="276">Connecting roads</tspan><tspan x="0" y="300">Communities’ response to disasters</tspan><tspan x="0" y="312">Partnerships with state and </tspan><tspan x="0" y="324">regional utility companies</tspan></text>
  <text class="cls-2" transform="translate(231 155)">Neglect of housing programs at <tspan x="0" y="12">county level</tspan><tspan x="0" y="36">Slow population growth or </tspan><tspan x="0" y="48">difficulty recruiting workforce and </tspan><tspan x="0" y="60">qualified leadership</tspan><tspan x="0" y="84">Aging infrastructure (i.e. bridges, </tspan><tspan x="0" y="96">streets, water treatment plants, </tspan><tspan x="0" y="108">etc.)</tspan><tspan x="0" y="132">Access to funding</tspan><tspan x="0" y="156">Fluctuating utility costs</tspan><tspan x="0" y="180">Lodging (lack of hotels throughout </tspan><tspan x="0" y="192">the region to complement tourist </tspan><tspan x="0" y="204">attractions)</tspan><tspan x="0" y="228">Lack of direct collaboration </tspan><tspan x="0" y="240">between local EDO agencies and </tspan><tspan x="0" y="252">CVB agencies</tspan></text>
  <text class="cls-2" transform="translate(397 155)">Stronger communication with <tspan x="0" y="12">Education Service Units (ESU) to </tspan><tspan x="0" y="24">promote workforce development </tspan><tspan x="0" y="36">and include younger workforce in </tspan><tspan x="0" y="48">BRE opportunities</tspan><tspan x="0" y="72">Education to employers and </tspan><tspan x="0" y="84">engagement as the “first line” of </tspan><tspan x="0" y="96">interaction with potential </tspan><tspan x="0" y="108">workforce about housing incentives </tspan><tspan x="0" y="120">and BRE initiatives</tspan><tspan x="0" y="144">Education/outreach to county </tspan><tspan x="0" y="156">commissioners about the </tspan><tspan x="0" y="168">importance of BRE, housing, and </tspan><tspan x="0" y="180">workforce initiatives as regional </tspan><tspan x="0" y="192">human infrastructure</tspan><tspan x="0" y="216">Increase number of internships and </tspan><tspan x="0" y="228">apprenticeships with local </tspan><tspan x="0" y="240">employers</tspan><tspan x="0" y="264">Extending highways to larger </tspan><tspan x="0" y="276">corridors (interstates, larger </tspan><tspan x="0" y="288">communities, out of state)</tspan><tspan x="0" y="312">Subsidizing costs of raising utility </tspan><tspan x="0" y="324">prices (incentives to keep costs </tspan><tspan x="0" y="336">affordable)</tspan><tspan x="0" y="360">Strengthening partnerships </tspan><tspan x="0" y="372">between local EDO’s and CVB’s </tspan><tspan x="0" y="396">Identify additional sites for wind </tspan><tspan x="0" y="408">and solar farms</tspan></text>
  <text class="cls-2" transform="translate(567 155)">Strong programs for housing OORs <tspan x="0" y="12">and for community development </tspan><tspan x="0" y="24">(public works and downtown </tspan><tspan x="0" y="36">revitalization)</tspan><tspan x="0" y="60">Presence of NIFA resources </tspan><tspan x="0" y="72">Elected officials are deeply </tspan><tspan x="0" y="84">connected to their towns or cities</tspan><tspan x="0" y="108">Successful residential Tax </tspan><tspan x="0" y="120">Increment Financing (TIF)</tspan><tspan x="0" y="144">Generational wealth and </tspan><tspan x="0" y="156">generational health</tspan><tspan x="0" y="180">Economic developers in the region </tspan><tspan x="0" y="192">are very engaged</tspan><tspan x="0" y="216">Good hospitals and healthcare</tspan><tspan x="0" y="240">Southeast Nebraskan’s passion and </tspan><tspan x="0" y="252">dedication to their community</tspan><tspan x="0" y="276">Connecting roads</tspan><tspan x="0" y="300">Communities’ response to disasters</tspan><tspan x="0" y="312">Partnerships with state and </tspan><tspan x="0" y="324">regional utility companies</tspan></text>
  <text class="cls-3" transform="translate(51 76)">SWOT ANALYSIS</text>
  <line class="cls-4" x1="51" y1="51" x2="137" y2="51"/>
  <text class="cls-5" transform="translate(51 101)">The Strengths, Weaknesses, Opportunities, and Threats (SWOT) analysis from the second CEDS focus group workshop is summarized in this table.</text>
  <rect class="cls-6" x="54" y="118" width="170" height="21"/>
  <rect class="cls-7" x="224" y="118" width="170" height="21"/>
  <text class="cls-8" transform="translate(229 135) scale(1 1.11)">Weaknesses </text>
  <text class="cls-8" transform="translate(63 135) scale(1 1.11)">Strengths</text>
  <line class="cls-9" x1="224" y1="139" x2="224" y2="571"/>
  <rect class="cls-10" x="394" y="118" width="170" height="21"/>
  <rect class="cls-11" x="563" y="118" width="170" height="21"/>
  <line class="cls-9" x1="563" y1="124" x2="563" y2="570"/>
  <line class="cls-9" x1="394" y1="124" x2="394" y2="570"/>
  <text class="cls-8" transform="translate(402 135) scale(1 1.11)">Opportunities</text>
  <text class="cls-8" transform="translate(575 135) scale(1 1.11)">Threats</text>
</svg>
