<svg id="Layer_1" data-name="Layer 1" xmlns="http://www.w3.org/2000/svg" viewBox="0 0 533.93 508.34"><defs><style>.cls-1{fill:#f4f3ef;}.cls-2{font-size:16px;font-family:Montserrat-SemiBold, Montserrat;font-weight:600;letter-spacing:0.1em;}.cls-2,.cls-4{fill:#054972;}.cls-3{fill:none;stroke:#054972;stroke-miterlimit:10;stroke-width:0.5px;}.cls-4{font-size:28px;font-family:Lora-Italic, Lora;font-style:italic;letter-spacing:0.02em;}.cls-5{letter-spacing:0.01em;}.cls-6{letter-spacing:0.02em;}.cls-7{letter-spacing:0.01em;}.cls-8{letter-spacing:0.02em;}.cls-9{letter-spacing:0.02em;}</style></defs><rect class="cls-1" width="533.93" height="508.34"/><text class="cls-2" transform="translate(109.31 106.23)">ECONOMIC VISION FOR SENDD</text><line class="cls-3" x1="168.3" y1="166.79" x2="359.14" y2="166.79"/><line class="cls-3" x1="168.3" y1="383.97" x2="359.14" y2="383.97"/><text class="cls-4" transform="translate(67.79 217.18) rotate(1)">I<tspan x="9.78" y="-0.24">n</tspan><tspan x="27.46" y="-0.51">c</tspan><tspan x="41.16" y="-0.75">r</tspan><tspan x="54.35" y="-0.98">e</tspan><tspan x="68.17" y="-1.24">a</tspan><tspan x="83.97" y="-1.49">s</tspan><tspan x="96.41" y="-1.72">e</tspan><tspan x="110.22" y="-1.91"> </tspan><tspan x="118.04" y="-2.09">r</tspan><tspan x="131.24" y="-2.33">e</tspan><tspan x="145.05" y="-2.58">g</tspan><tspan x="160.01" y="-2.79">i</tspan><tspan x="169.54" y="-3.01">o</tspan><tspan x="184.58" y="-3.29">n</tspan><tspan x="202.26" y="-3.58">a</tspan><tspan x="218.06" y="-3.79">l</tspan><tspan x="226.44" y="-3.94"> </tspan><tspan x="234.26" y="-4.13">g</tspan><tspan x="249.22" y="-4.38">r</tspan><tspan x="262.42" y="-4.63">o</tspan><tspan x="277.46" y="-4.96">w</tspan><tspan x="300.34" y="-5.25">t</tspan><tspan x="310.99" y="-5.49">h</tspan><tspan x="327.46" y="-5.7"> </tspan><tspan x="335.28" y="-5.91">a</tspan><tspan x="351.08" y="-6.2">n</tspan><tspan x="368.76" y="-6.49">d</tspan><tspan x="384.76" y="-6.69">,</tspan><tspan class="cls-5" x="391.85" y="-6.82"> </tspan><tspan class="cls-6"><tspan x="11.7" y="33.37">r</tspan><tspan x="24.9" y="33.14">e</tspan><tspan x="38.71" y="32.91">s</tspan><tspan x="51.15" y="32.71">i</tspan><tspan x="60.68" y="32.56">l</tspan><tspan x="69.07" y="32.4">i</tspan><tspan x="78.59" y="32.2">e</tspan><tspan x="92.41" y="31.92">n</tspan><tspan x="110.08" y="31.65">c</tspan><tspan x="123.78" y="31.41">e</tspan><tspan x="137.59" y="31.22"> </tspan><tspan x="145.41" y="31.06">t</tspan><tspan x="156.06" y="30.82">h</tspan><tspan x="172.54" y="30.54">a</tspan><tspan x="188.34" y="30.31">t</tspan><tspan x="198.99" y="30.15"> </tspan><tspan x="206.81" y="29.96">e</tspan><tspan x="220.62" y="29.69">n</tspan><tspan x="238.29" y="29.39">h</tspan><tspan x="254.77" y="29.11">a</tspan><tspan x="270.57" y="28.81">n</tspan><tspan x="288.24" y="28.54">c</tspan><tspan x="301.94" y="28.3">e</tspan><tspan x="315.75" y="28.07">s</tspan><tspan x="328.19" y="27.89"> </tspan><tspan x="336.01" y="27.69">o</tspan><tspan x="351.06" y="27.41">u</tspan><tspan x="368.12" y="27.15">r</tspan><tspan class="cls-7" x="381.32" y="26.97"> </tspan></tspan><tspan class="cls-8"><tspan x="-3.72" y="67.21">n</tspan><tspan x="13.96" y="66.91">a</tspan><tspan x="29.76" y="66.68">t</tspan><tspan x="40.41" y="66.44">u</tspan><tspan x="57.47" y="66.18">r</tspan><tspan x="70.66" y="65.92">a</tspan><tspan x="86.46" y="65.71">l</tspan><tspan x="94.84" y="65.58">,</tspan><tspan x="101.94" y="65.45"> </tspan><tspan x="109.76" y="65.25">b</tspan><tspan x="124.52" y="64.97">u</tspan><tspan x="141.58" y="64.74">i</tspan><tspan x="151.11" y="64.58">l</tspan><tspan x="159.49" y="64.42">t</tspan><tspan x="170.15" y="64.26">,</tspan><tspan x="177.24" y="64.13"> </tspan><tspan x="185.06" y="63.93">a</tspan><tspan x="200.86" y="63.64">n</tspan><tspan x="218.53" y="63.34">d</tspan><tspan x="234.53" y="63.14">,</tspan><tspan x="241.63" y="63.01"> </tspan><tspan x="249.45" y="62.82">c</tspan><tspan x="263.15" y="62.57">o</tspan><tspan x="278.19" y="62.22">m</tspan><tspan x="303.17" y="61.79">m</tspan><tspan x="328.15" y="61.42">u</tspan><tspan x="345.21" y="61.12">n</tspan><tspan x="362.89" y="60.88">i</tspan><tspan x="372.42" y="60.7">t</tspan><tspan x="383.06" y="60.48">y</tspan><tspan class="cls-5" x="397.91" y="60.28"> </tspan></tspan><tspan class="cls-9"><tspan x="45.29" y="100">s</tspan><tspan x="57.73" y="99.76">y</tspan><tspan x="72.57" y="99.53">s</tspan><tspan x="85.01" y="99.32">t</tspan><tspan x="95.67" y="99.11">e</tspan><tspan x="109.48" y="98.77">m</tspan><tspan x="134.46" y="98.45">s</tspan><tspan x="146.9" y="98.27"> </tspan><tspan x="154.72" y="98.11">t</tspan><tspan x="165.37" y="97.87">h</tspan><tspan x="181.84" y="97.61">r</tspan><tspan x="195.04" y="97.37">o</tspan><tspan x="210.08" y="97.09">u</tspan><tspan x="227.14" y="96.81">g</tspan><tspan x="242.1" y="96.53">h</tspan><tspan x="258.57" y="96.26">o</tspan><tspan x="273.62" y="95.98">u</tspan><tspan x="290.68" y="95.73">t</tspan><tspan x="301.33" y="95.57"> </tspan><tspan x="309.15" y="95.41">t</tspan><tspan x="319.8" y="95.17">h</tspan><tspan x="336.27" y="94.91">e</tspan><tspan class="cls-5" x="350.08" y="94.72"> </tspan></tspan><tspan class="cls-6"><tspan x="21.37" y="134.02">s</tspan><tspan x="33.81" y="133.78">o</tspan><tspan x="48.85" y="133.5">u</tspan><tspan x="65.91" y="133.26">t</tspan><tspan x="76.56" y="133.03">h</tspan><tspan x="93.04" y="132.76">e</tspan><tspan x="106.85" y="132.5">a</tspan><tspan x="122.65" y="132.26">s</tspan><tspan x="135.09" y="132.05">t</tspan><tspan x="145.74" y="131.89"> </tspan><tspan x="153.56" y="131.64">N</tspan><tspan x="175.35" y="131.32">e</tspan><tspan x="189.16" y="131.08">b</tspan><tspan x="203.92" y="130.83">r</tspan><tspan x="217.12" y="130.58">a</tspan><tspan x="232.92" y="130.33">s</tspan><tspan x="245.36" y="130.09">k</tspan><tspan x="260.38" y="129.82">a</tspan><tspan x="276.18" y="129.62"> </tspan><tspan x="284" y="129.43">r</tspan><tspan x="297.19" y="129.2">e</tspan><tspan x="311.01" y="128.95">g</tspan><tspan x="325.97" y="128.73">i</tspan><tspan x="335.49" y="128.52">o</tspan><tspan x="350.54" y="128.23">n</tspan><tspan x="368.22" y="128.02">.</tspan></tspan></text></svg>