<svg id="Layer_1" data-name="Layer 1" xmlns="http://www.w3.org/2000/svg" viewBox="0 0 804 293"><defs><style>.cls-1{fill:#f4f3ef;}.cls-2{fill:none;stroke:#ef3d56;}.cls-3{font-size:9px;font-family:Montserrat-Bold, Montserrat;letter-spacing:0.39em;}.cls-3,.cls-4{fill:#084872;font-weight:700;}.cls-4{font-size:10px;font-family:Lora-BoldItalic, Lora;font-style:italic;}.cls-5{letter-spacing:2.71em;}.cls-12,.cls-13,.cls-15,.cls-19,.cls-23,.cls-24,.cls-28,.cls-30,.cls-31,.cls-6,.cls-7{font-family:Lora-Italic, Lora;font-weight:400;}.cls-7{letter-spacing:2.75em;}.cls-13,.cls-8{letter-spacing:3.34em;}.cls-9{letter-spacing:2.58em;}.cls-10{letter-spacing:2.56em;}.cls-11{letter-spacing:2.57em;}.cls-12{letter-spacing:1.88em;}.cls-14{letter-spacing:2.58em;}.cls-15{letter-spacing:3.32em;}.cls-16{letter-spacing:2.54em;}.cls-17{letter-spacing:2.64em;}.cls-18{letter-spacing:2.28em;}.cls-19{letter-spacing:0.33em;}.cls-20{letter-spacing:2.54em;}.cls-21{letter-spacing:0em;}.cls-22{letter-spacing:2.08em;}.cls-23{letter-spacing:0.62em;}.cls-24{letter-spacing:3.07em;}.cls-25{letter-spacing:2.31em;}.cls-26{letter-spacing:2.19em;}.cls-27{letter-spacing:2.16em;}.cls-28{letter-spacing:0.05em;}.cls-29{letter-spacing:2.17em;}.cls-30{letter-spacing:-0.03em;}.cls-31{letter-spacing:0.39em;}</style></defs><rect class="cls-1" width="804" height="293"/><line class="cls-2" x1="42.58" y1="38.84" x2="103.51" y2="38.84"/><text class="cls-3" transform="translate(42.58 55.83)">STRATEGY COMMITTEE MEMBERS</text><text class="cls-4" transform="translate(62 93.55)">1.<tspan class="cls-5" x="6.3" y="0">	</tspan><tspan x="36" y="0">Carley Bruning</tspan><tspan class="cls-6" x="106.95" y="0">, Thayer County Economic Development Alliance </tspan><tspan class="cls-7" x="329.86" y="0">	</tspan><tspan class="cls-6"><tspan class="cls-8" x="0" y="16" xml:space="preserve">			</tspan><tspan x="108" y="16">(TCEDA)</tspan></tspan><tspan x="0" y="32">2.</tspan><tspan class="cls-9" x="7.55" y="32">	</tspan><tspan x="36" y="32">Marguerite Himmelberg</tspan><tspan class="cls-6" x="147.34" y="32">, Southeast Community College (SCC)</tspan><tspan x="0" y="48">3.</tspan><tspan class="cls-10" x="7.79" y="48">	</tspan><tspan x="36" y="48">Lisa Hurley</tspan><tspan class="cls-6" x="90.01" y="48">, York County Development Corporation (YCDC)</tspan><tspan x="0" y="64">4.</tspan><tspan class="cls-11" x="7.66" y="64">	</tspan><tspan x="36" y="64">Caleb Fjone</tspan><tspan class="cls-6" x="88.62" y="64">, Ashland Area Economic Development Council </tspan><tspan class="cls-12" x="302.62" y="64">	</tspan><tspan class="cls-13" x="324" y="64">	</tspan><tspan class="cls-6"><tspan class="cls-8" x="0" y="80" xml:space="preserve">			</tspan><tspan x="108" y="80">(AAEDC) </tspan></tspan><tspan x="0" y="96">5.</tspan><tspan class="cls-14" x="7.62" y="96">	</tspan><tspan x="36" y="96">Dan Mauk</tspan><tspan class="cls-6" x="84.12" y="96">, Nebraska City Area Economic Development </tspan><tspan class="cls-15" x="288.22" y="96">	</tspan><tspan class="cls-13" x="324" y="96">	</tspan><tspan class="cls-6"><tspan class="cls-8" x="0" y="112" xml:space="preserve">			</tspan><tspan x="108" y="112">Corporation (NCAEDC)</tspan></tspan><tspan x="0" y="128">6.</tspan><tspan class="cls-16" x="7.93" y="128">	</tspan><tspan x="36" y="128">Brook Aken</tspan><tspan class="cls-6" x="87.94" y="128">, Omaha Public Power District (OPPD)</tspan><tspan x="0" y="144">7.</tspan><tspan class="cls-17" x="6.93" y="144">	</tspan><tspan x="36" y="144">Rick Nelsen</tspan><tspan class="cls-6" x="89.44" y="144">, Nebraska Public Power District (NPPD)</tspan></text><text class="cls-4" transform="translate(454 93.55)">8. <tspan class="cls-18" x="10.58" y="0">	</tspan><tspan x="36" y="0">Rex Nelson</tspan><tspan class="cls-6" x="86.73" y="0">, University of Nebraska at </tspan><tspan class="cls-19" x="210.02" y="0">	</tspan><tspan class="cls-13" x="216" y="0" xml:space="preserve">		</tspan><tspan class="cls-6"><tspan class="cls-8" x="0" y="16" xml:space="preserve">			</tspan><tspan x="108" y="16">Lincoln-Extension</tspan></tspan><tspan x="0" y="32">9.</tspan><tspan class="cls-20" x="7.94" y="32">	</tspan><tspan class="cls-21" x="36" y="32">Trevor Lee</tspan><tspan class="cls-6" x="84.83" y="32">, Gage Area Growth Enterprise (NGAGE)</tspan><tspan x="0" y="48">10.</tspan><tspan class="cls-22" x="12.55" y="48">	</tspan><tspan x="36" y="48">Jonathan Jank</tspan><tspan class="cls-6" x="102.32" y="48">, Seward County Chamber and </tspan><tspan class="cls-23" x="243.21" y="48">	</tspan><tspan class="cls-6" x="252" y="48"> </tspan><tspan class="cls-24" x="254.63" y="48">	</tspan><tspan class="cls-6"><tspan class="cls-8" x="0" y="64" xml:space="preserve">			</tspan><tspan x="108" y="64">Development Partnership (SCCDP)</tspan></tspan><tspan x="0" y="80">11.</tspan><tspan class="cls-25" x="10.27" y="80">	</tspan><tspan x="36" y="80">Stephanie Fisher</tspan><tspan class="cls-6" x="113.09" y="80">, City of Waverly</tspan><tspan x="0" y="96">12.</tspan><tspan class="cls-26" x="11.52" y="96">	</tspan><tspan x="36" y="96">Renee Dozier</tspan><tspan class="cls-6" x="95.98" y="96">, Region 5 Systems</tspan><tspan x="0" y="112">13.</tspan><tspan class="cls-27" x="11.76" y="112">	</tspan><tspan x="36" y="112">Theresa Klein</tspan><tspan class="cls-6" x="99.17" y="112">, Wahoo Chamber and Economic </tspan><tspan class="cls-28" x="248.9" y="112">	</tspan><tspan class="cls-13" x="252" y="112">	</tspan><tspan class="cls-6"><tspan class="cls-8" x="0" y="128" xml:space="preserve">			</tspan><tspan x="108" y="128">Development</tspan></tspan><tspan x="0" y="144">14.</tspan><tspan class="cls-29" x="11.63" y="144">	</tspan><tspan x="36" y="144">Lucas Froeschl</tspan><tspan class="cls-6" x="103.29" y="144">,</tspan><tspan class="cls-30" x="105.66" y="144">	</tspan><tspan class="cls-6" x="108" y="144">Falls City Economic Development and </tspan><tspan class="cls-31" x="281.51" y="144">	</tspan><tspan class="cls-6"><tspan class="cls-8" x="0" y="160" xml:space="preserve">			</tspan><tspan x="108" y="160">Growth Enterprise (EDGE)</tspan></tspan></text></svg>