<?xml version="1.0" encoding="utf-8"?>
<!-- Generator: Adobe Illustrator 25.4.1, SVG Export Plug-In . SVG Version: 6.00 Build 0)  -->
<svg version="1.1" id="Layer_1" xmlns="http://www.w3.org/2000/svg" xmlns:xlink="http://www.w3.org/1999/xlink" x="0px" y="0px"
	 viewBox="0 0 793.99 612.54" style="enable-background:new 0 0 793.99 612.54;" xml:space="preserve">
<style type="text/css">
	.st0{fill:#F4F3EF;}
	.st1{display:none;fill:#F4F3EF;}
	.st2{fill:none;stroke:#FAB15F;stroke-width:2;}
	.st3{fill:#808080;}
	.st4{font-family:'Montserrat-Bold';}
	.st5{font-size:10px;}
	.st6{letter-spacing:3;}
	.st7{fill:none;}
	.st8{font-family:'Lora-Italic';}
	.st9{fill:none;stroke:#F2A76A;stroke-width:3;stroke-linecap:round;}
	.st10{opacity:0.7;fill:none;stroke:#80AA53;stroke-width:3;stroke-linecap:round;stroke-linejoin:round;stroke-miterlimit:10;}
	.st11{opacity:0.79;fill:none;stroke:#64ACDF;stroke-width:6;stroke-linecap:round;stroke-linejoin:round;stroke-miterlimit:10;}
	.st12{fill:none;stroke:#64ACDF;stroke-width:6;stroke-linecap:round;stroke-linejoin:round;stroke-miterlimit:10;}
	.st13{font-family:'Montserrat-Regular';}
	.st14{font-size:10.7133px;}
	.st15{font-size:7px;}
	.st16{display:none;fill:none;stroke:#52A7AB;stroke-width:3;stroke-linecap:round;stroke-linejoin:round;stroke-miterlimit:10;}
	.st17{font-family:'Lato-Light';}
	.st18{font-size:24px;}
	.st19{fill:none;stroke:#CCCCCC;stroke-width:2;stroke-miterlimit:10;}
	.st20{fill:none;stroke:#FCB416;stroke-width:4;stroke-linecap:round;stroke-linejoin:round;stroke-miterlimit:10;}
	.st21{fill:#999999;}
	.st22{letter-spacing:2;}
	.st23{opacity:0.7;}
	.st24{fill:none;stroke:#80AA53;stroke-linecap:round;stroke-linejoin:round;stroke-miterlimit:10;}
	
		.st25{opacity:0.7;fill-rule:evenodd;clip-rule:evenodd;fill:none;stroke:#80AA53;stroke-linecap:round;stroke-linejoin:round;stroke-miterlimit:10;}
</style>
<rect x="39" y="35.75" class="st0" width="733" height="546"/>
<rect x="12" y="6" class="st1" width="838.99" height="504.54"/>
<g>
	<line class="st2" x1="559.85" y1="174.94" x2="646.25" y2="174.94"/>
	<text transform="matrix(1 0 0 1 559.8504 199.0284)" class="st3 st4 st5 st6">POPULATION TREND</text>
	<g>
		<rect x="559.85" y="213.9" class="st7" width="185.85" height="28.56"/>
		<text transform="matrix(1 0 0 1 559.8504 221.4516)"><tspan x="0" y="0" class="st3 st8 st5">The SENDD region shows a decline in </tspan><tspan x="0" y="12" class="st3 st8 st5">population growth from 2010 to 2050</tspan></text>
	</g>
</g>
<line class="st2" x1="68.85" y1="45.94" x2="155.25" y2="45.94"/>
<text transform="matrix(1 0 0 1 68.8504 70.0284)" class="st3 st4 st5 st6">2019 AVERAGE MEDIAN AGE</text>
<polyline class="st9" points="70.92,306.6 154.04,342.5 237.16,370.95 320.28,399.11 403.4,424.8 486.52,440.54 569.65,447.44 
	652.77,442.75 735.89,437.78 "/>
<polyline class="st10" points="70.92,428.11 154.04,392.21 237.16,363.77 320.28,335.6 403.4,309.92 486.52,294.18 569.65,287.27 
	652.77,291.97 735.89,296.94 "/>
<polyline class="st11" points="88.02,226.17 165.89,242.46 243.77,258.75 321.64,277.81 399.51,301 477.39,326.68 555.26,357.34 
	633.14,394.34 711.01,434.93 "/>
<line class="st12" x1="149.4" y1="445.18" x2="183.53" y2="445.18"/>
<line class="st9" x1="149.4" y1="463.03" x2="183.53" y2="463.03"/>
<line class="st10" x1="149.4" y1="480.87" x2="183.53" y2="480.87"/>
<g>
	<text transform="matrix(1 0 0 1 148.8418 524.2881)" class="st3 st13 st14">2015</text>
</g>
<g>
	<text transform="matrix(1 0 0 1 64.4556 524.8057)" class="st3 st13 st14">2010</text>
</g>
<g>
	<text transform="matrix(1 0 0 1 479.9912 524.8057)" class="st3 st13 st14">2035</text>
</g>
<g>
	<text transform="matrix(1 0 0 1 563.0889 524.8057)" class="st3 st13 st14">2040</text>
</g>
<g>
	<text transform="matrix(1 0 0 1 656.2559 525.1104)" class="st3 st13 st14">2045</text>
</g>
<g>
	<text transform="matrix(1 0 0 1 730.0547 525.1104)" class="st3 st13 st14">2050</text>
</g>
<g>
	<text transform="matrix(1 0 0 1 238.4946 522.9268)" class="st3 st13 st14">2020</text>
</g>
<g>
	<text transform="matrix(1 0 0 1 316.377 522.9268)" class="st3 st13 st14">2025</text>
</g>
<g>
	<text transform="matrix(1 0 0 1 394.2407 522.9268)" class="st3 st13 st14">2030</text>
</g>
<g>
	<text transform="matrix(1 0 0 1 201.0864 448.8105)" class="st3 st13 st14">Total Population</text>
</g>
<g>
	<text transform="matrix(1 0 0 1 39.1548 229.6958)" class="st3 st13 st14">159,513</text>
</g>
<g>
	<text transform="matrix(1 0 0 1 714.5537 426.8076)" class="st3 st13 st14">133,290</text>
</g>
<g>
	<text transform="matrix(1 0 0 1 740.4385 301.4937)" class="st3 st13 st14">53%</text>
</g>
<g>
	<text transform="matrix(1 0 0 1 745.6025 441.1338)" class="st3 st13 st14">47%</text>
</g>
<g>
	<text transform="matrix(1 0 0 1 47.291 434.9346)" class="st3 st13 st14">47%</text>
</g>
<g>
	<text transform="matrix(1 0 0 1 43.2012 311.8555)" class="st3 st13 st14">53%</text>
</g>
<g>
	<text transform="matrix(1 0 0 1 201.0864 464.9736)" class="st3 st13 st14">% of Population under 45</text>
</g>
<g>
	<text transform="matrix(1 0 0 1 201.1357 481.8428)" class="st3 st13 st14">% of Population of 45 and Older</text>
</g>
<g>
	<rect x="147" y="559.65" class="st7" width="554" height="30.1"/>
	<text transform="matrix(1 0 0 1 147 564.8467)"><tspan x="0" y="0" class="st3 st13 st15">Source: December 2015 Nebraska County Projections, Center for Public Affairs Research, UNO, 2021 U.S Census</tspan><tspan x="0" y="8.4" class="st3 st13 st15">* Does not include Lancaster County</tspan></text>
</g>
<polyline class="st16" points="631.66,199.23 717.01,162.37 802.35,133.16 887.7,104.24 973.04,77.87 1058.39,61.71 1143.73,54.62 
	1229.08,59.44 1314.43,64.55 "/>
<g>
	<text transform="matrix(1 0 0 1 234.1563 132.9508)" class="st3 st17 st18">44.6</text>
</g>
<g>
	<circle class="st19" cx="257.87" cy="125.87" r="31.03"/>
</g>
<g>
	<path class="st20" d="M257.87,156.9c-17.14,0-31.03-13.89-31.03-31.03c0-15.62,11.55-28.55,26.57-30.71"/>
</g>
<g>
	<text transform="matrix(1 0 0 1 325.7982 132.9505)" class="st3 st17 st18">36.8</text>
</g>
<circle class="st19" cx="349.51" cy="125.87" r="31.03"/>
<path class="st20" d="M349.51,156.9c-17.14,0-31.03-13.89-31.03-31.03c0-4.95,1.16-9.62,3.22-13.77"/>
<g>
	<text transform="matrix(1 0 0 1 415.6671 132.9503)" class="st3 st17 st18">37.9</text>
</g>
<circle class="st19" cx="439.38" cy="125.87" r="31.03"/>
<path class="st20" d="M439.38,156.9c-17.14,0-31.03-13.89-31.03-31.03c0-8.33,3.28-15.9,8.63-21.47"/>
<text transform="matrix(1 0 0 1 237.9215 208.4435)" class="st21 st4 st15 st22">SENDD*</text>
<text transform="matrix(1 0 0 1 318.0905 208.4435)" class="st21 st4 st15 st22">NEBRASKA</text>
<text transform="matrix(1 0 0 1 429.4176 208.4435)" class="st21 st4 st15 st22">U.S</text>
<g class="st23">
	<g id="state_outline">
		<path id="Nebraska" class="st24" d="M328.75,168.16l0.16,0.01l0.41,0.02l0.53,0.03l0.11,0.01l0.09,0l0.18,0.01l0.04,0l0.04,0
			l0.09,0l0.3,0.01l0.06,0l0.03,0l0.02,0l0.3,0.01l0.09,0l0.12,0.01l0.04,0l0.15,0.01l0.02,0l0.38,0.01l0.27,0.01l0.09,0l0.09,0
			l0.27,0.01h0l0.18,0l0.09,0l0.2,0.01l0.1,0l0.26,0.01l0.25,0.01l0.01,0l0.41,0.01l0.55,0.02h0.01l1.33,0.03v0.02l0.36,0.01
			l0.24,0.01l1.4,0.04l0.39,0.01l0.17,0.01l1,0.03l0.35,0.01l2.11,0.04l2.24,0.03l0.37,0l1.31,0l0.92,0v-0.01l0.93,0l1.63,0l0.02,0
			l0.54-0.01l1.32,0l1.81-0.03l0.84-0.01l0.69-0.01l0.07,0l0.11,0h0.02l0.01,0.02l0.02,0.04l0.01,0.01l0.02,0.04l0.03,0.05
			l0.01,0.03l0.01,0.03l0.02,0.04l0.01,0.02l0.01,0.01l0.02,0.05l0.01,0.01l0.02,0.02l0,0l0.02,0.01l0,0.01l0.02,0.01l0.02,0.01
			l0.01,0l0.02,0.01l0.01,0l0.03,0.01l0.01,0l0.01,0l0.02,0l0.03,0.01l0.02,0l0.02,0l0.02,0.01l0.02,0.01l0.02,0.01l0.02,0.01
			l0.03,0.02l0.02,0.02l0.02,0.02l0.01,0.02l0.01,0.01l0.02,0.04l0.04,0.04l0.03,0.01l0.02,0.01l0.05,0.02l0.05,0.02l0.07,0.02v0
			l0.14,0.05l0.01,0l0.08,0.02l0.01,0l0.03,0.01l0.01,0l0.02,0.01l0.02,0.01l0.01,0.01l0.04,0.03l0.04,0.02l0.01,0.01l0.05,0.04
			l0.01,0.01l0.02,0.01l0.03,0.01l0,0l0.03,0.01l0.04,0.01l0.03,0.01l0.01,0l0.02,0.01l0,0l0.02,0l0.01,0l0.03,0l0.01,0l0.02,0
			l0.01,0l-0.01-0.02l0.1,0.13l0.07,0.04l0.09,0.09l0.13,0.09l0.05,0.09l0.1,0.04l0.1,0.01l0.1-0.02l0.01-0.01l0.09-0.02l0.07-0.03
			l0.06-0.03l0.04-0.02l0.03-0.03l0.05-0.04l0.02-0.03l0.09-0.14l0.02-0.04l0.03-0.04l0.02-0.06l0-0.04l0.01-0.02v-0.02l-0.01-0.02
			l0-0.03l0.02-0.02l0.07-0.04l0.08-0.02l0.04,0l0.01,0l0.04,0.03l0.04,0.04l0.09,0.11l0.02,0.01l0.03,0.01l0.04,0l0.03-0.01
			l0.03-0.01l0.03-0.02l0.03-0.03l0.04-0.05l0.03-0.04l0.02-0.01h0.03l0.04,0.01l0.02,0.01l0.04,0.03l0.02,0.02l0.01,0.02l0.01,0.03
			l0.02,0.03l0.03,0.03l0.02,0.01l0.02,0l0.02,0l0.02-0.01l0.03-0.02l0.02-0.02l0.03-0.05l0.01-0.02l0.04-0.07l0.02-0.02l0.03-0.02
			l0.05-0.01l0.03,0l0.01,0.01l0.01,0.02l0,0.02l0,0.03l0,0.02l0.01,0.02l0.01,0.01l0.02,0.01l0.02,0l0.03,0l0.1-0.01l0.1-0.02
			l0.02-0.01l0.04-0.03l0.03-0.04l0.02-0.01l0.13-0.04l0.03-0.01l0.02,0l0.01,0l0.01,0.02v0.04l0,0.02l0.01,0.01l0.04,0l0.02,0
			l0.02,0.01l0.02,0.02l0.02,0.01l0.03,0l0.03-0.01l0.05-0.03l0.02-0.03l0.03-0.03l0.03-0.02l0.03-0.01l0.03,0l0.03,0.01l0.07,0l0,0
			l0.03-0.01l0.01-0.02l0.01-0.02l0.01-0.01l0.06-0.01l0.04,0.01l0.05,0.02l0.04,0.01l0.05-0.01l0.01,0l0.03,0.02l0.02,0l0.02,0l0,0
			l0.06,0.05l0.11,0.02l0.09-0.02l0.14,0.05l0.01,0.02l0,0.1l0.04,0.12l0.05,0.02l0.13,0.01l0.06,0.02l0,0l0.03,0.01l0,0l0.02,0.01
			l0,0l0.01,0.01l0.01,0.02l0.01,0.01l0.01,0.05l0.01,0.02l0,0.01l0.01,0.01l0.02,0l0.02,0l0.03,0.01l0.02,0.01l0.03,0.01l0.01,0
			l0.02,0l0.04,0.01l0.01,0l0.06,0.01l0.05,0l0.01,0l0.02,0l0.03,0l0.03,0l0.03,0l0.05,0l0.02,0l0.01,0l0.03,0l0.03,0.01l0.01,0
			h0.02l0.01-0.01l0.01,0l0.02,0l0.02-0.01l0.02,0l0.02,0l0.01,0l0.04,0.02l0.02,0.02l0,0l0.02,0.03l0.01,0.02l0,0.02l0.01,0.01
			l0,0.02l0,0.01l-0.01,0.02l0,0l0,0.03l0,0.02l0,0.01l0.03,0.02l0.01,0.01l0.04,0l0.02-0.01l0.02-0.01l0.03-0.04l0.01-0.01
			l0.01-0.01l0.02-0.01l0.02-0.01l0,0l0.02,0l0.07,0l0.01,0l0.02,0l0.04,0.01l0.03,0.01l0.01,0l0.02,0.01l0.04,0.01l0.03,0.01
			l0.03,0.02l0.02,0.01l0.06,0.04l0.04,0.02l0.01,0l0.03,0l0.02,0l0.02,0.01l0.02,0.02l0.02,0.03l0,0.01l0,0.03v0l0,0.03l0,0.01
			v0.01l0,0.03l0,0.02l0.02,0.01l0,0l0.02,0.02l0.02,0.02l0.03,0.01l0.03,0.01h0.01l0.03,0l0.02,0l0,0l0.08-0.02l0.01,0l0.01,0
			l0.03-0.01l0.01,0h0.04l0.01,0h0.01l0.02,0l0.02,0h0.02l0.02,0.01l0.02,0.01l0.02,0.01l0.03,0.01l0.01,0.01l0.01,0.01l0.03,0.05
			l0,0l-0.04,0.07l-0.01,0.02l-0.01,0.01l-0.01,0.02l0,0l-0.01,0.02l-0.01,0.02l-0.01,0.02l0,0.01l-0.01,0.05l0,0.02l0.02,0.03
			l0.04,0.05l0.01,0.01l0.05,0.04l0.02,0.02l0.01,0l0.04,0.02l0.03,0.02l0.01,0.01l0.03,0.02l0.02,0.01l0.02,0.02l0.03,0.03
			l0.04,0.04l0.01,0.01l0.01,0.01l0.02,0.01l0.02,0.02l0.01,0.01l0.01,0.02l0,0l0.01,0.02l0.01,0.02l0,0.01l0.01,0.02l0,0.03l0,0.01
			l0,0.01l0,0.03l-0.01,0.02l0,0.01l0,0.01l0,0.01l0,0.02l0.03,0.03l0,0l0.03,0.01l0.02,0.01l0.02,0l0.01,0l0.01-0.01l0.02-0.01
			l0.02-0.01l0.01-0.01l0.03-0.03l0,0l0.03-0.02l0.03-0.02l0.01,0l0.01,0l0.02-0.01l0.01,0l0.02,0l0.01,0l0.04,0.01l0.01,0
			l0.02,0.01l0.02,0.02l0.02,0.02l0.03,0.04l0.01,0.01l0.01,0.02l0.02,0.03l0.02,0.03l0.01,0.01l0.01,0.01l0.02,0.02l0.02,0.01
			l0.02,0.01l0,0h0.05l0.01,0l0.03-0.01l0.02-0.01l0,0l0.02-0.01l0.03-0.01l0.03-0.01l0.01,0l0.07-0.01l0.06-0.01l0.05,0.01
			l0.04,0.01l0.04,0.02l0.03,0.03l0.02,0.04l0.01,0.05l0,0.07l0,0.05l0,0.04l-0.01,0.04l-0.02,0.03l-0.02,0.03l-0.01,0.01
			l-0.07,0.09l0,0.11l0.04,0.12l-0.04,0.07l-0.01,0.07l0.05,0.09l0.12,0.07l0.05,0.04l0,0.01l0.01,0.02l0.01,0.05l0.02,0.11
			l0.05,0.08l0.02,0.02l0.07,0.04l0.04,0.06l0.02,0.07l0,0.05l0.03,0.05l-0.06,0.1l-0.1,0.02l0,0l0,0.02l0,0.02l0.01,0.02l0.01,0.03
			l0.02,0.04l0,0.02l0,0.01l0,0.01l0,0.02l0,0.01l0,0.03v0.01l0.01,0.02l0.01,0.02l0,0l0.01,0.02l0.04,0.05l0.07,0.04l0.04,0.04
			l0.01,0.04l0.01,0.03l0.04,0.04l0.09,0.02l0.05,0.02l0.01,0.01l0.03,0.03l0.01,0.07l-0.01,0.07l-0.03,0.08l-0.01,0.08l0.01,0.06
			l0.02,0.05l0.01,0.02l0,0.01l0.01,0.02l0.06,0.03l0.09-0.02l0.02,0.02l0.01,0l0.04,0.02l0,0.02l0.01,0.02l0,0.02l0,0.01
			l-0.03,0.04l-0.04,0.03l-0.01,0.06l0,0.02l0.02,0.03l0.06,0.01l0.04-0.08l0.04-0.02l0.07,0l0.02,0.01l0.01,0l0,0.01l0,0.03l0,0.02
			l0,0.02v0.02l0.01,0.03l0.01,0.02l0.01,0.01l0.02,0.01l0.02,0h0.02l0.02-0.01l0.02,0l0.02,0l0.03,0.01l0.02,0l0.02,0.02l0.02,0.03
			l0,0.02l-0.01,0.03l-0.01,0.02l-0.01,0.02l-0.01,0.02l0,0.02l0,0.02l0.01,0.02l0.01,0.03l0.01,0.02l0.01,0.02v0.03l-0.01,0.03
			l-0.01,0.02l-0.01,0.01l-0.02,0.02l-0.02,0.01l-0.02,0.01l-0.01,0.01l-0.01,0.01l0,0.02l0,0.02l0.02,0.02l0.02,0.02l0.03,0.03
			l0.01,0.02l0.01,0.03l0,0.03l0.01,0.03l0.02,0.03l0.02,0.02l0.01,0.01l0.03,0.02l0.03,0.02l0.03,0.01l0.02,0.02l0.01,0.01
			l0.01,0.02l0.01,0.03l0,0.02l0,0.03l0,0.04l0,0.03l0.01,0.02l0.01,0.02l0.01,0.02l0.02,0.02l0.02,0.02l0.01,0.01l0.02,0l0.02,0.01
			l0.02,0l0.02,0.01l0.01,0.01l0.02,0.03l0.01,0.03v0.03l-0.01,0.04l-0.02,0.04l-0.04,0.07l-0.03,0.06l-0.02,0.04l-0.02,0.04
			l-0.02,0.03l-0.01,0.03l0,0.03l0,0.03l0.01,0.02l0.02,0.02l0.02,0.01l0.04,0.01l0.02,0.01l0.02,0.01l0.02,0.02l0.01,0.03l0,0.03
			l0,0.02l-0.01,0.01l-0.02,0.01l-0.03,0.01l-0.03,0l-0.03,0.01l-0.02,0l-0.02,0l-0.02,0.01l-0.02,0.01l-0.02,0.02l0,0.01l0,0.02
			l0,0.04l0,0.01l0.01,0.03l0.02,0.02l0.02,0.02l0.03,0.03l0.03,0.02l0.02,0.03l0.01,0.03l0.01,0.03l0,0.04l-0.01,0.03l-0.01,0.03
			l-0.01,0.03l-0.02,0.02l-0.02,0.03l-0.01,0.03l-0.01,0.03l0,0.02l0.01,0.02l0.01,0.02l0.03,0.03l0.02,0.01l0.05,0.03l0.05,0.02
			l0.02,0.02l0.01,0.03l0,0.01l-0.01,0.02l-0.01,0.01l-0.02,0.01l-0.01,0.01l-0.02,0.02l-0.01,0.02l-0.01,0.02l0,0.02l0,0.03v0.02
			l0.01,0.03l0.01,0.03l0.03,0.04l0.02,0.02l0.02,0.02l0.02,0.01h0.03l0.01,0l0,0l0.03,0.01l0.02,0l0.02,0l0.04-0.01l0.02-0.01
			l0.01-0.02l0.01-0.03l0-0.02l0-0.03l0.01-0.03l0.01-0.03l0.03-0.02l0.04-0.01l0.02,0.01l0.03,0.03l0.02,0.03l0.02,0.04l0.02,0.04
			l0.01,0.03l0.01,0.04l-0.01,0.03l-0.01,0.02l-0.02,0.02l-0.02,0.02l-0.02,0.01l-0.02,0.02l-0.01,0.01l-0.01,0.01l-0.01,0.02
			l0,0.02l0.01,0.03l0.01,0.02l0.02,0.01l0.02,0.01l0.03,0.01l0.03,0l0.03,0.01l0.02,0.01l0.02,0.01l0.02,0.02l0.02,0.01l0.03,0.02
			l0.03,0l0.02-0.01l0.02-0.01l0.02,0h0.03l0.02,0l0.02,0.01l0.02,0.01l0.01,0.02l0.02,0.02l0.01,0.03l0,0.03l-0.01,0.02l-0.01,0.01
			l-0.02,0.02l-0.01,0.02l-0.01,0.03l0,0.03l0.01,0.02l0.01,0.04l0.01,0.04l0,0.02l-0.01,0.02l-0.01,0.02l-0.01,0.02l-0.01,0.02
			v0.02l0.01,0.02l0.02,0.03l0.01,0.02l0.02,0.03l0,0.03l-0.01,0.02l-0.01,0.01l-0.02,0.02l-0.02,0.02l-0.02,0.01l-0.02,0.02
			l-0.02,0.01l-0.01,0.01l-0.01,0.02l0,0.02l0.01,0.03l0.01,0.02l0.03,0.02l0.01,0.01l0.04,0.03l0.04,0.02l0.05,0.01l0.03,0l0.03,0
			l0.03-0.01l0.03,0l0.03,0.01l0,0l0.02,0.01l0.03,0.03l0.01,0.03l0.01,0.02l0,0.06l-0.01,0.04l-0.02,0.03l-0.04,0.03l-0.09,0.05
			l-0.01,0l-0.01-0.01l-0.01-0.05l0.01-0.03l0.02-0.04l0-0.03l-0.01-0.02l-0.02-0.01h-0.04l-0.04,0.02l-0.01,0.03l0,0.05l0.02,0.07
			l0.02,0.08l0.01,0.02l0.01,0.02l0.01,0.02l0.01,0.02l0.01,0.03l0.01,0.03l0,0.03l0,0.04l0,0.02l-0.02,0.03l-0.03,0.04l-0.02,0.04
			l-0.01,0.02l0,0.03l0,0.03l0.01,0.02l0.02,0.03h0l0.02,0.01l0.02,0.01l0.03,0l0.03,0l0.04-0.01l0.03,0l0.02,0l0.01,0h0.05l0.03,0
			l0.04,0.01l0.03,0.02l0.01,0.02l0.01,0.02l0.01,0.03l-0.01,0.02l-0.01,0.01l-0.02,0.01l-0.02,0l-0.02-0.01l-0.02-0.01l-0.03,0h0
			l-0.01,0l-0.01,0.01l-0.02,0.02l-0.01,0.02l0,0.01l-0.01,0.02v0.03l0.01,0.03l0.02,0.03l0.01,0.03l0.01,0.03l0.02,0.03l0.01,0.03
			l0,0.02l0,0.03l0,0.03l0.01,0.04l0.01,0.03l0.01,0.03l0.01,0.03l0,0.02l-0.01,0.03l-0.01,0.02l-0.02,0.03l-0.02,0.02l-0.01,0.02
			l-0.02,0.02l-0.01,0.02l0,0.02l0.02,0.04l0.03,0.03l0,0l0.06,0.06l0.01,0.04v0.05l-0.02,0.04l-0.02,0.07l0.01,0.03l0.01,0.03
			l0.01,0.01l0,0.01l0.02,0.01l0.02,0.01l0.02,0.01l0.03,0.01l0.03,0.01l0.01,0.01l0.02,0.02l0.01,0.02l0.01,0.03l0,0.03v0.03
			l-0.01,0.03l-0.01,0.02l-0.01,0.03L368,181.3l0,0.03l0,0.03l0.01,0.04l0.01,0.04l0.03,0.06l0.03,0.03l0.03,0.03l0.03,0.03
			l0.02,0.02l0.01,0.02v0.06l-0.01,0.04l-0.02,0.02l-0.01,0.02l-0.02,0.01l-0.03,0l-0.03,0.01l-0.02,0.01l-0.01,0.01l-0.01,0.02
			l-0.01,0.02l-0.01,0.03l0.01,0.02l0.01,0.02l0.02,0.03l0.02,0.03l0,0.03l0.01,0.05l-0.01,0.03l-0.02,0.03l0,0.03l0,0.02l0.01,0.03
			l0.01,0.03l0.01,0.02l0.02,0.03l0.01,0.03l0.01,0.02l0,0.01l-0.02,0.06l-0.03,0.04l-0.13,0.08l-0.05,0.06l-0.03,0.1l0.01,0.07
			l0.02,0.05l0.12,0.05l0.04,0.03l0.05,0.16l0.1,0.06l0.13,0.02l0.1,0.09l0.02,0.05l0.02,0.12l0.09,0.07l0.01,0.03l-0.02,0.07
			l-0.06,0.05l-0.04,0.05l0,0.03l0.06,0.12l0,0.03l-0.02,0.08l0.01,0.03l0.03,0.02l0.05,0.01l0.06,0l0.05-0.01l0.02-0.01l0.04,0
			l0.02,0.02l0.01,0.01l0.05-0.05l0.01-0.18l0.03-0.02l0.07-0.02l0.05,0.08l0.03,0.02l0.02,0.05l-0.01,0.09l-0.03,0.04l-0.18,0.09
			l0.02,0.03l0.01,0.03l0,0.03l0,0.05l0,0.05l0.01,0.03l0.07,0.05l0.03,0.02l0.04,0.04l0.02,0.03l0.01,0.03l0.01,0.03l0,0.02l0,0.03
			l-0.01,0.02l-0.02,0.06l0.01,0.05l0.08,0.14l0.02,0.13l0.07,0.08l0.03,0.08l-0.01,0.04l-0.02,0.02l-0.11,0.06l-0.02,0.05l0,0.03
			l0.03,0.02l0.03,0.01l0.13-0.06l0.04,0l0.06,0.02l0.08,0.06l0.1,0.01l0.05,0.04l0.01,0.03l-0.02,0.1l0,0.03l0.01,0.02l0.01,0.01
			l0.05,0.02l0.11,0.05l0.16-0.01l0.07,0.04l0.03,0.05l0.01,0.04l0,0.07l-0.05,0.11l0,0.05l0.02,0.04l0.1,0.1l0.09,0.03l0.04,0.04
			l0.01,0.1l0.03,0.04l0.04,0.03l0.04,0l0.02,0l0.02,0l0.03,0.01l0.01,0.02l0.01,0.02l0.01,0.02l0,0.03l0,0.02l-0.01,0.02
			l-0.02,0.02l-0.03,0.02l-0.01,0.01l-0.01,0.02l-0.01,0.02l0,0.02l0.01,0.03l0.01,0.02l0,0.02l-0.01,0.02l-0.02,0.02l-0.02,0.02
			l-0.01,0.02l-0.01,0.03l0.01,0.04l0.01,0.03l0.02,0.04l0.02,0.03l0.04,0.03l0.04,0.01l0.03,0.01l0.04,0l0.05-0.02l0.04-0.02
			l0.07,0.01l0.07,0.06l0.11,0.04l0.03,0.03l0.01,0.04l-0.16,0l-0.49,0.02l-0.06,0l-0.47,0.02l-1.18,0.06l-1.05,0.05l-0.05,0
			l-1.12,0.05l-1.11,0.04l-0.02,0l-1.67,0.07l-0.55,0.02l-0.41,0.01l-1.64,0.05l-0.17,0l-0.01,0l-2.2,0.06l-0.02,0l-0.53,0.01
			l-0.31,0.01l-0.18,0l-1.21,0.02l-1.13,0.02l-0.96,0.02l-0.14,0l-1.33,0.02l-0.33,0l-0.55,0h-0.1l-0.41,0l-1.69,0.01h-0.01l-1.81,0
			l-0.9,0h-0.08l-2.42-0.02l-0.27,0l-0.08,0l-0.01,0l-1.19-0.01l-1.47-0.02l-0.12,0l-0.23,0l-0.2,0l-0.66-0.01l-0.38-0.01
			l-0.77-0.01l-0.41-0.01l-0.92-0.02l0.05-2.21l0.01-0.58l0.04-1.65l0.01-0.33l0.04-1.62l-2.76-0.08l-0.16-0.01l-1.61-0.05l-0.07,0
			l-1.87-0.07l-0.92-0.04l-2.32-0.09l0.01-0.14l0.11-2.38l0.05-1.09l0.04-0.85l0-0.02l0.09-1.9l0-0.03l0.03-0.55l0.16-3.36l0.1-2.05
			L328.75,168.16L328.75,168.16z"/>
	</g>
</g>
<g class="st23">
	<path class="st24" d="M458.87,167.1l-0.09-0.19v-0.11l-0.15,0.05l-0.17-0.06v-0.19l-0.47-1.01l-0.34-0.18l-0.38,0.32l-0.1-0.02
		l-0.09-0.16l-0.12,0.05l-0.17,0.86l0.06,0.28l0.05,0.57l-0.14,0.44l0.09,0.07l-0.11,0.21l-0.12-0.02l-0.01,0.01l0.68,1.59
		l-0.68-1.59l-0.06,0.07l-0.07-0.01l-0.04,0.31v0l-0.06,0.02l-0.26,0.09l-0.25,0.1l-0.58,0.21l-0.03,0.01l0.21,0.49l0.07,0.46
		l0.1,0.15l-0.1-0.15l-0.07-0.46l-0.21-0.49l-0.03,0.01l-0.98,0.33l-0.2,0.21l-0.22,0.42l0.01,0.09l-0.29,0.44l0.1,0.04l0.01-0.02
		l0,0.02l0.06,0.02l0.05,0.33l-0.21,0.27l-0.62,0.37l-0.12-0.05l-0.46,0.07l-0.42,0.26l0.02,0.14l0.06,0.05l-0.01-0.01l0.07,0.01h0
		l-0.01,0.05l0.04,0.03l-0.08,0.41l-0.34,0.39l0,0l-0.08,0.06l-0.13,0.09l-0.23,0.23l-0.03,0.02l-0.17,0.11l-0.36,0.28l-0.23,0.28
		l-0.18,0.03l-0.34,0.19l-0.19-0.11l-0.56-0.07l0-0.01l0.15-0.3l-0.01-0.25l0.17-0.43l0.14,0.08l0.05-0.1l-0.01-0.37l-0.13-0.23
		l-0.19-0.49l-0.16-0.18l-0.08-0.02l-0.3,0.21l0.03,0.04l-0.16,0.3l-0.15-0.03l-0.05-0.31l0.07-0.02l0.14-0.31l0.01-0.55l-0.21-0.47
		l-0.47-0.08L448,170.2l-0.43-0.13l-0.2,0.24l0.02,0.21l-0.15,0.19l0.03,0.29l-0.14,0.1v-0.36l-0.13,0.28l-0.15,0.24l-0.1,0.08
		l0.05,0.26l-0.07,0.27l0.04,0.33l-0.05,0.16l0.34,0.64l0.04,0.25l-0.04,0.46l-0.22,0.51l-0.03,0.02l-0.12,0.1l-0.18,0.08l-0.07,0
		l-0.08-0.04l-0.03-0.03l0.33,2.3l0,0l-0.33-2.3l-0.05-0.05l-0.12-0.28l-0.1-0.1l-0.04-0.27v-0.01l-0.02-0.07v-0.22l-0.13-0.23
		l-0.03-0.29l0.06-0.33l-0.03-0.25l0.11-0.31l-0.04-0.05l0.01-0.29l0.06-0.22l-0.07-0.07l-0.14,0.05l-0.07,0.2l-0.18,0.1l0.06-0.25
		l0.16-0.21l0.01-0.09l0,0v0l0.18-0.53l0.22-0.15l0.17-0.19l0.03,0.17l0.17-0.27l0.42-0.16l0.03-0.07l0.42,0.05l0.16,0.08l0.08-0.21
		l0.07,0.05l0.33-0.05l-0.08-0.13l-0.14-0.08l0.03-0.3l-0.28,0.16l-0.26-0.03l-0.08-0.2l0.03-0.07l-0.35,0.17l-0.23,0.01l-0.41,0.25
		l-0.05,0.09l-0.25-0.06l-0.16,0.07l-0.32-0.28l-0.51-0.15l-0.01,0.03l-0.05-0.05l-0.14-0.04l-0.01-0.08l-0.45,0.43l-0.26,0.07
		l-0.36,0.28l-0.01,0.01l-0.01,0.01l-0.24-0.03l-0.08,0.05l0.03-0.34l-0.38,0.2l-0.47,0.07l0-0.01l0,0l0.36-0.38l0.42-0.53
		l0.16-0.11l0.28-0.14l0.29-0.22l-0.2,0.04l-0.12-0.09l-0.45,0.06l-0.07-0.08l-0.4,0.16l-0.32-0.14l-0.09-0.11l-0.26,0.02
		l-0.17-0.09l0.06-0.07l-0.22-0.07h-0.2l-0.31,0.14l-0.06-0.09l-0.49-0.07l-0.17-0.42l-0.02-0.13l-0.21-0.06l0.02,0.36l-0.57,0.04
		l-0.7,0.03l-0.05,0l0.09,0.33l0.2,1.2l0.09,0.48l0.03,0.42l0.11,0.25l0.02,0.21l0.02,0.07l0,0.01l-0.19,0.31l0.12,0.21l0.23,1.64
		l0.01,0.21l-0.01-0.21l-0.23-1.64l-0.12-0.21l0.19-0.31l0-0.01l-0.02-0.07l-0.02-0.21l-0.11-0.25l-0.03-0.42l-0.09-0.48l-0.2-1.2
		l-0.09-0.33h-0.1l-1.41,0.03l-0.99,0l-0.85-0.02l-0.99-0.04l-0.05,0l0,0l-0.09,0l-1.55-0.1l-1.13-0.11l-1.12-0.13l-0.7-0.09
		l-1.11-0.17l-0.56-0.09l-1.24-0.24l-0.13-0.03h0l-0.42-0.08l-0.14-0.03l-0.06-0.01l-0.07-0.01l-1.09-0.26l-0.95-0.24l-1.08-0.3
		l-0.32-0.08l0.07,0.41l-0.07,0.13l-0.13-0.07l0.02,0.1l0.02,0l-0.02,0.02l0.09,0.44l-0.13,0.19l-0.06,0.17v0.18l-0.28,0.19
		l-0.03-0.02l-0.01,0.01l0-0.02l-0.08-0.05l-0.11,0.06l0.11-0.14v-0.03l0.02,0.01l0.08-0.1l-0.05,0.18l0.12-0.13l0.09,0.02
		l-0.03-0.23l0.06,0.01l0.13-0.28l-0.04-0.04l-0.03,0.03l0,0.02l-0.02,0.01l-0.12,0.15l-0.11,0l0.12-0.13l0.11-0.03l0.02-0.02
		l-0.04-0.22l-0.13-0.03l-0.07-0.11l-0.08,0.04l-0.43-0.19l-0.38-0.29l-0.1,0.28l-0.01,0.12l0.08,0.21l-0.05,0.7l-0.04,0.11
		l0.21,0.02l-0.21,0.15l0.11,0.06l-0.09,0.3l-0.04-0.23l-0.08,0.27l0.11,0.13l0.12-0.01l0.14,0.08l0.07,0.14h0.08l-0.01,0
		l-0.03,0.02l-0.23-0.12l-0.14,0.04l-0.09-0.05l-0.1,0.4l-0.07,0.11l-0.29,0.7l-0.08,0.39l-0.05,0l-0.27,0.64l-0.18,0.28l-0.07,0.05
		l-0.17,0.33l-0.03,0.35l-0.1,0.31l0.06,0.28v0l0.74,0.22l-0.74-0.22v0.02l-0.04,0.46l-0.2,0.55l-0.33,0.41l-0.01,0.21l0.16,0.28
		l0.08,0.37l-0.11,0.3l0.02,0.3l-0.06,0.13l0.19,0.42l0.12,0.16l-0.01,0.45l0.29,0.28l0.17-0.28l0.13,0.1l0.12-0.02l-0.07,0.07
		l-0.05-0.04l-0.13,0.02l0,0.24l0.05,0.3l-0.14-0.14l-0.08-0.18l-0.02,0.25l0.07,0.5l0.26,0.32l-0.17,0.22l0.03,0.28l0.19,0.29
		l0.33,0.9l0.1,0.06l-0.03,0.62l0.05,0.07l0.7,0.25l0.21,0.23l0.07,0.15l0.21,0.12l0.22,0.04l0.09,0.26l0.19,0.09l0.28,0.33
		l0.26,0.43l-0.02,0.4l0.14,0.19l1.91,0.19l0.17-0.01l0.07-0.21l-0.07,0.21l-0.17,0.01l-0.1,0.18l0.34,0.21l0.63,0.35l1.96,1.04
		l1.66,0.21h0.02v0l0.02,0l0.64,0.06l0.06-0.33l0.12-0.09l1.31,0.12h0.01l0,0l0.5,0.5l0.29,0.34l0.38,0.28l0.27,0.49l0.1,0.52
		l0.22,0.14l0.17,0.19l0.25,0.09l0.36,0.23l0.16,0.06l0.22-0.22l0.07-0.24l0.12-0.23l0.36-0.14l0.14,0.07l0.41,0.03l0.37,0.23
		l0.25,0.05l-0.07,0.13l0.14,0.09l0.14,0.16l0.03,0.17l0.09,0.12l0.21,0.49l0.21,0.17l0.16,0.26l0.2,0.21l0.09,0.03l0.07,0.53
		l0.22,0.12l0.01,0.17l0.06-0.01l0.38,0.47l0.19,0.04l0.24,0.14h0.37l0.27,0.15l0.32-0.07l-0.14-0.14l-0.13-0.39l-0.05-0.34
		l-0.07-0.11l0.03-0.23l-0.1-0.01l-0.13-0.21l0.15,0.16l0.17-0.06l0.09-0.25l-0.19-0.25l0.28,0.03l0.13-0.2l-0.02-0.07l0.12-0.15
		l-0.03,0.14l0.13-0.1l-0.05-0.18l0.17,0.09l0.21-0.12l-0.21-0.22l0.13,0.05l0.24,0.01l0.32-0.07l0.35-0.24l0.21-0.18l0.03-0.13
		l0.13-0.14l-0.07-0.22l0.01-0.14l0.23-0.1l-0.02,0.25h0.14l-0.15,0.13l0.62-0.33l0.1,0l0.07-0.3h0.02l0.07-0.17l0.03-0.53
		l0.04-0.21l-0.04,0.21l-0.03,0.53l-0.07,0.17h0.01l0.01,0.12l-0.08,0.11l0.58-0.07l0.45,0.13l0.32,0.04l0.16-0.12l-0.09-0.12
		l0.3-0.09l-0.01,0.1l0.15-0.04l0.13,0.2l0.11-0.04l0.28,0.19l-0.17,0.06l0.4,0.12h0.15l0.09-0.11l0.19-0.1l0.14,0.2l0.09-0.18
		l-0.03-0.28l0.25,0.1l0.03,0.08l0.3,0.04l0.15,0.12l-0.02,0.1l0.21-0.2l-0.08-0.1l-0.35-0.09l-0.13-0.07l0-0.14l0.14,0.02
		l0.11-0.23l-0.14-0.2l-0.08,0.19l-0.18-0.03l0.13-0.21l-0.08-0.02l-0.21,0.14l-0.29,0.02l-0.08-0.07l0.14-0.24l0.16,0l0.27,0.09
		l0.2,0.02l0,0l0,0h0l0,0v0l0.17-0.2l0.36-0.08l0.34,0.04l0.05-0.07v0l-0.2-1.23l0.2,1.23l0.02,0l0.21,0.04l0.06-0.42l0.09,0.23
		l0.16,0.14l0.29-0.17l-0.04,0.16l0.15-0.07l0.16-0.14l0.28-0.01l0.32-0.12l0.22,0.03l-0.05,0.08l0.4,0.14l0.35,0.17l0.08,0.19
		l0.26-0.06l0.61-0.49l0.22,0.01l0.92,0.69l0.19-0.04l0.2,0.26l0.04,0.42l-0.06,0.26l0.03,0.13l0.16,0.33l-0.07-0.26l0.21,0
		l0.02,0.19l-0.11,0.29l0.39,0.53l0.14,0l-0.12-0.16l0.15,0.02l0.09-0.06l-0.04,0.3l0.2,0.16l0.14,0.36l0.18,0.11l0.23,0.06
		l0.32,0.41h0.02l-0.01,0l0.11,0.06l0,0v0l0.05,0.02l-0.22,0.01l0.1,0.12l0.37-0.12l0.18-0.1l0.15-0.51l-0.01-0.01l0.01-0.02
		l0.01,0.01l0.02-0.06l-0.08-0.92l-0.02-0.09l-0.45-0.75l-0.38-0.54l-0.21-0.44l0.18,0.15l0.04-0.03l0.08,0.39l0.21,0.29l-0.2-0.39
		l0.01-0.19l-0.6-0.73l-0.14-0.23l-0.19-0.39l-0.13-0.33l-0.1-0.12l-0.02-0.15l0,0h0l-0.03-0.5l0.06-0.11l-0.03-0.2l0.07-0.19
		l0.1-0.11l-0.07-0.07l0.16-0.2h0l0.05-0.21L453,182.3l0.2,0.15l0.11-0.09l-0.19-0.16l0.23-0.01l0.36-0.31l-0.04-0.08l0.22-0.17
		l-0.02-0.08l0.16-0.1l0.01-0.24l0.26-0.48l0.17-0.22l0.02-0.01l0.02-0.01l0.48-0.2l0-0.17l0-0.01l0-0.01l0-0.06l0.17-0.31
		l0.19-0.18l0.39-0.26l0.05-0.09l0.1,0.05l0.05-0.31l-0.06,0.11l-0.2,0.07l-0.19,0l0.23-0.17l-0.07-0.07l0.08-0.17l-0.44-0.07
		l-0.02-0.02l0.37-0.07l0.12,0.06l0.15-0.01l0.13-0.09l0.09-0.18l0.08-0.02l-0.01-0.26l-0.11-0.1l-0.11,0.1l0.02,0.25l-0.08-0.3
		l-0.06-0.01l-0.46,0.19l0.21-0.2l0.01-0.08l0.21-0.05l0.06-0.16l0.14,0.08l-0.15-0.23l-0.11-0.09l-1.87,0.53l-1.19,0.3l-1.2,0.22
		l0,0l1.2-0.22l1.19-0.3l1.87-0.53l-0.01-0.02l0-0.01l0.03,0.03l0.01,0h0.08l-0.01-0.03l-0.01,0l0.01,0l-0.01-0.02l-0.02,0.03v0.01
		l-0.01,0l0,0l0,0l-0.03-0.16l0.02,0l0.07,0.14h0l0.26,0.43l0.2,0.2l-0.44-0.64l-0.01,0l0.01,0l-0.02-0.04l-0.19-0.29l-0.24,0.04
		l-0.11,0.09l-0.1-0.09l-0.35-0.12l-0.24-0.01l0.47-0.04l0.26,0.18l0.07-0.12l-0.21-0.27l0.15,0.01l-0.08-0.21l-0.19,0.01
		l-0.36-0.29l-0.14-0.07h0.06l0.09,0.07l0.48,0.24l-0.04-0.21l0.04-0.07l-0.32-0.12l-0.28-0.02l-0.14-0.12l-0.11,0.07l-0.03-0.21
		l0.27,0.18l0.29,0.01l0.19,0.09l-0.08-0.22l-0.25-0.08l-0.06-0.19l0.15,0.21l0.13,0.02l-0.11-0.11l-0.09-0.33l0.02-0.19l-0.1-0.21
		l0.1-0.08l0.07-0.27l-0.03,0.4l0.08,0.14l0.07-0.16l0.04,0.26l-0.08,0.19l0.23,0.08l-0.2,0.07l0.1,0.19l0.17,0.06l0.09-0.16
		l-0.01,0.23l0.16,0l0.1,0.12h0l0.01,0l-0.11,0.7l0.04,0.11l0.07-0.29l0.12-0.38l0.06-0.25v0l0-0.01l0.12-0.36v-0.01l-0.02-0.09v0
		l0-0.01h0.01l0.01,0l0.01,0.03v-0.03l-0.01-0.02l-0.11-0.3l-0.55-0.52l0.02-0.26l0.02,0.22l0.55,0.19l0,0.21l0.13-0.18l0.02-0.26
		l0.13-0.09l-0.05-0.19l0.1-0.23v-0.5l-0.03-0.16l-0.22,0l0.04-0.15l0.04-0.05l-0.04,0.05l0.02-0.07l0.03-0.35l0.03,0.15l0.09-0.02
		l0.05-0.21v0l0.27-0.26l0.14-0.2l0.03,0.06l0.68-0.3l0.01-0.01l0-0.11l-0.03-0.1l-0.14-0.41l0.14,0.41l0.03,0.1l0,0.11l0.01-0.01
		l0.22-0.18l-0.04-0.32l0.09-0.02l0,0l0.03-0.02l0.01-0.07l0,0.11v0.03l0.03,0.08l0.04,0.07l0.03-0.06l0.22-0.27l0.18,0.06
		l0.04-0.09l0.3-0.16l-0.13-0.25l0.03,0.16l-0.15,0.12l-0.17,0.01l-0.35-0.37l-0.15-0.23l0.15-0.16l-0.16-0.01l-0.07-0.15l0-0.01
		v-0.07l0.01-0.12l-0.03,0.01l0-0.03v0l0.05-0.01l0.01-0.27l0.07-0.09l0.05-0.25l-0.04-0.04l0.08-0.24l0.19-0.09
		c0-0.02,0-0.06,0-0.06l0,0.03V169l0.08-0.04l0.18-0.21l0.07-0.37l0.28-0.02l-0.02-0.1l-0.01,0v-0.03l0.01,0.01l-0.01-0.06
		l0.35-0.14l0.02-0.21l0.08,0.02l0.2-0.17l0-0.01l0,0l0.02-0.02l0.1-0.25l-0.24-0.24L458.87,167.1z"/>
	<path class="st24" d="M426.31,189.86l-0.55-0.53l-0.3-0.22l-0.23,0.22h-0.14l-0.31-0.21l-0.31-0.01l-0.44-2.77l-0.07-0.13
		l-0.18-0.11l-0.27,0.05l-0.21-0.04l-0.26-0.1l-0.28,0.02l-0.07-0.13l-0.22-0.03l-0.04-0.08l-0.1,0.11l-0.03-0.21l-0.19,0.16
		l-0.12-0.03l-0.27,0.15l-0.05-0.03l-0.31,0.35l-0.31,0.07l0.03,0.17l0.14,0.19l0.26,0.25l-0.04,0.1l0.2,0.08l-0.1,0.02l-0.13-0.1
		l0.07,0.14l-0.08,0.05l-0.27-0.24l-0.21,0.04l-0.36,0.14l0.16,0.18l-0.02,0.11l0.11,0.13l0.35,0.14l0.26-0.13l0.04,0.1l-0.07,0.29
		h-0.21l-0.25,0.11l-0.01-0.08l-0.13,0.05l-0.06,0.14l-0.21,0.16v0.24l0.08,0.04l-0.07,0.2l0.28,0.24l0.18-0.07l-0.04,0.3l0.05,0.07
		l0.21,0.05l0.08,0.09l0.19,0.01l0.09,0.09l0.19-0.06l-0.09,0.12l-0.07,0.25l-0.57,0.37l-0.07,0.07l-0.11-0.04l-0.17,0.04
		l-0.25,0.16l0.39-0.11l0.06,0.08l0.5-0.16l0.01,0.07l0.2-0.2l0.41-0.28l0.03,0.02l0.36-0.28l-0.09-0.11l0.12-0.2l0.32-0.38
		l0.24-0.05l0.07,0.05l-0.29,0.08l-0.08,0.31l0.01,0.17l0.1-0.01l0.49-0.3l0.02-0.05l0,0l0-0.01l0,0l0.02-0.05l-0.04-0.17l0.15,0.04
		l0.11-0.07l0.31,0.19l-0.02,0.05l0.7,0.09l0.16-0.05l0.05,0.07l0.61,0.29l0.1-0.06l0.01-0.35l0.08,0.16l0.39,0.28l0.03,0.12
		l0.34,0.19l0.09,0.25l0.08-0.19l0.17,0.34l0.12-0.19l-0.09-0.24L426.31,189.86z M420.83,188.11L420.83,188.11l0.02,0L420.83,188.11
		z M421.28,190.22L421.28,190.22L421.28,190.22L421.28,190.22z M423.3,189.09l0.01,0.03l-0.02-0.02L423.3,189.09z"/>
</g>
<polygon class="st25" points="272.93,189.48 272.9,189.43 272.89,189.4 272.85,189.36 272.82,189.34 272.79,189.34 272.75,189.33 
	272.69,189.31 272.65,189.29 272.63,189.27 272.6,189.25 272.56,189.21 272.54,189.17 272.5,189.13 272.48,189.1 272.46,189.09 
	272.42,189.08 272.39,189.06 272.35,189.05 272.33,189.05 272.29,189.05 272.27,189.06 272.25,189.06 272.21,189.08 272.17,189.09 
	272.16,189.09 272.13,189.1 272.12,189.1 272.1,189.12 272.08,189.12 272.07,189.12 272.05,189.13 272.04,189.13 272.03,189.13 
	272.01,189.13 272,189.13 271.99,189.13 271.96,189.13 271.93,189.13 271.92,189.13 271.88,189.12 271.86,189.1 271.83,189.09 
	271.8,189.08 271.78,189.05 271.75,189.04 271.72,189.01 271.71,189 271.69,188.97 271.67,188.95 271.66,188.92 271.65,188.91 
	271.63,188.88 271.61,188.81 271.61,188.79 271.59,188.76 271.59,188.72 271.58,188.7 271.58,188.67 271.58,188.64 271.58,188.63 
	271.58,188.59 271.58,188.57 271.59,188.54 271.61,188.51 271.63,188.47 271.67,188.44 271.71,188.4 271.71,188.38 271.72,188.37 
	271.72,188.34 271.74,188.29 271.72,188.24 271.71,188.2 271.71,188.16 271.7,188.12 271.71,188.07 271.72,188.02 271.75,187.99 
	271.78,187.95 271.83,187.92 271.84,187.91 271.87,187.89 271.89,187.85 271.91,187.79 271.91,187.77 271.92,187.77 271.91,187.74 
	271.91,187.72 271.91,187.69 271.91,187.66 271.89,187.64 271.88,187.6 271.87,187.58 271.84,187.56 271.83,187.54 271.79,187.52 
	271.78,187.51 271.76,187.51 271.74,187.49 271.7,187.49 271.65,187.49 271.59,187.48 271.54,187.47 271.53,187.45 271.5,187.43 
	271.48,187.4 271.45,187.35 271.44,187.32 271.44,187.3 271.42,187.27 271.42,187.24 271.42,187.18 271.42,187.14 271.41,187.09 
	271.38,187.05 271.36,187.01 271.33,186.98 271.31,186.97 271.27,186.94 271.24,186.93 271.17,186.92 271.12,186.89 271.06,186.85 
	270.99,186.77 270.98,186.76 270.95,186.73 270.93,186.69 270.91,186.68 270.89,186.64 270.87,186.62 270.86,186.59 270.85,186.58 
	270.85,186.55 270.83,186.54 270.83,186.51 270.83,186.47 270.83,186.43 270.83,186.39 270.83,186.38 270.85,186.34 270.86,186.3 
	270.89,186.25 270.91,186.21 270.94,186.17 270.95,186.14 270.97,186.12 270.98,186.08 270.98,186.07 270.98,186.05 270.98,186.03 
	270.98,185.99 270.98,185.95 270.98,185.92 270.98,185.9 270.97,185.84 270.95,185.82 270.91,185.76 270.9,185.74 270.87,185.7 
	270.85,185.67 270.8,185.63 270.76,185.62 270.7,185.61 270.64,185.61 270.59,185.61 270.53,185.62 270.43,185.61 270.36,185.59 
	270.34,185.58 270.21,185.49 270.1,185.42 270,185.41 269.98,185.41 269.97,185.38 269.96,185.37 269.94,185.32 269.94,185.27 
	269.96,185.21 269.98,185.15 270,185.11 270.01,185.06 270.01,185.03 270,184.99 269.98,184.95 269.96,184.91 269.92,184.87 
	269.88,184.85 269.85,184.83 269.84,184.83 269.8,184.82 269.77,184.82 269.72,184.82 269.67,184.81 269.66,184.81 269.64,184.81 
	269.6,184.8 269.58,184.78 269.54,184.76 269.51,184.73 269.5,184.72 269.49,184.7 269.46,184.68 269.45,184.66 269.43,184.65 
	269.41,184.64 269.38,184.63 269.36,184.61 269.33,184.6 269.3,184.59 269.29,184.59 269.26,184.59 269.24,184.59 269.21,184.59 
	269.2,184.6 269.17,184.6 269.15,184.61 269.12,184.63 269.07,184.65 268.99,184.69 268.91,184.72 268.88,184.72 268.84,184.72 
	268.81,184.7 268.77,184.69 268.75,184.66 268.74,184.64 268.73,184.61 268.73,184.6 268.73,184.56 268.74,184.51 268.77,184.48 
	268.78,184.46 268.81,184.43 268.84,184.4 268.88,184.39 268.94,184.38 268.96,184.36 269.01,184.35 269.04,184.34 269.07,184.31 
	269.09,184.3 269.12,184.25 269.12,184.26 269.13,184.23 269.13,184.22 269.15,184.21 269.15,184.17 269.15,184.14 269.15,184.1 
	269.13,184.08 269.13,184.05 269.12,184.02 269.12,184.01 269.11,184 269.11,183.98 269.09,183.98 269.09,183.97 269.08,183.96 
	269.07,183.93 269.05,183.92 269.05,183.91 269.04,183.91 269.03,183.89 269.03,183.88 269.01,183.87 269,183.87 268.99,183.85 
	268.98,183.84 268.96,183.81 268.95,183.8 268.94,183.77 268.92,183.76 268.91,183.71 268.91,183.7 268.91,183.68 268.91,183.67 
	268.91,183.64 268.91,183.62 268.91,183.6 268.91,183.58 268.91,183.57 268.91,183.51 268.9,183.43 268.86,183.36 268.86,183.34 
	268.84,183.32 268.82,183.29 268.79,183.24 268.78,183.21 268.77,183.17 268.71,183.08 268.69,183.03 268.67,182.98 268.69,182.96 
	268.69,182.92 268.7,182.88 268.7,182.87 268.71,182.85 268.71,182.83 268.74,182.79 268.74,182.78 268.74,182.75 268.75,182.73 
	268.75,182.71 268.75,182.69 268.75,182.66 268.74,182.64 268.74,182.62 268.74,182.61 268.73,182.58 268.73,182.57 268.71,182.54 
	268.7,182.52 268.69,182.49 268.66,182.47 268.64,182.43 268.62,182.4 268.61,182.37 268.6,182.36 268.58,182.36 268.58,182.35 
	268.56,182.32 268.54,182.31 268.52,182.3 268.49,182.27 268.45,182.24 268.4,182.22 268.37,182.19 268.36,182.19 268.33,182.15 
	268.29,182.13 268.28,182.09 268.26,182.02 268.26,181.99 268.26,181.97 268.26,181.93 268.27,181.92 268.27,181.9 268.27,181.89 
	268.27,181.88 268.27,181.86 268.27,181.85 268.28,181.82 268.28,181.8 268.28,181.77 268.28,181.75 268.28,181.72 268.28,181.71 
	268.27,181.68 268.27,181.64 268.26,181.63 268.26,181.61 268.24,181.61 268.24,181.6 268.23,181.59 268.22,181.56 268.22,181.55 
	268.23,181.55 268.24,181.55 268.24,181.54 268.27,181.54 268.28,181.52 268.29,181.52 268.31,181.51 268.32,181.51 268.33,181.5 
	268.35,181.5 268.36,181.48 268.37,181.48 268.39,181.48 268.4,181.47 268.41,181.47 268.43,181.47 268.43,181.46 268.44,181.46 
	268.45,181.46 268.48,181.44 268.5,181.43 268.54,181.42 268.56,181.42 268.56,181.41 268.57,181.41 268.58,181.41 268.6,181.41 
	268.6,181.39 268.62,181.39 268.67,181.37 268.69,181.34 268.7,181.31 268.71,181.3 268.74,181.27 268.74,181.26 268.74,181.25 
	268.75,181.21 268.75,181.2 268.77,181.16 268.77,181.14 268.77,181.13 268.77,181.1 268.77,181.09 268.78,181.08 268.78,181.03 
	268.78,181.01 268.78,181 268.78,180.99 268.77,180.99 268.77,180.97 268.77,180.96 268.75,180.95 268.74,180.92 268.74,180.89 
	268.71,180.88 268.69,180.86 268.66,180.84 268.65,180.79 268.64,180.78 268.62,180.74 268.61,180.71 268.6,180.7 268.54,180.65 
	268.52,180.65 268.5,180.65 268.46,180.65 268.44,180.65 268.44,180.66 268.41,180.66 268.39,180.67 268.37,180.67 268.33,180.7 
	268.31,180.71 268.29,180.72 268.28,180.74 268.28,180.75 268.28,180.78 268.28,180.83 268.27,180.88 268.26,180.92 268.26,180.93 
	268.26,180.95 268.24,180.97 268.24,180.99 268.24,181 268.24,181.01 268.24,181.03 268.24,181.04 268.26,181.05 268.26,181.06 
	268.27,181.1 268.27,181.12 268.27,181.13 268.27,181.14 268.26,181.17 268.24,181.18 268.24,181.2 268.23,181.2 268.23,181.21 
	268.22,181.21 268.2,181.22 268.19,181.23 268.18,181.23 268.18,181.25 268.16,181.25 268.16,181.26 268.15,181.26 268.14,181.27 
	268.12,181.29 268.11,181.29 268.11,181.27 268.1,181.26 268.09,181.25 268.06,181.22 268.05,181.21 268.03,181.2 268.01,181.2 
	267.98,181.2 267.94,181.2 267.93,181.2 267.92,181.2 267.9,181.21 267.89,181.21 267.88,181.22 267.85,181.23 267.82,181.25 
	267.8,181.25 267.78,181.26 267.77,181.26 267.76,181.26 267.72,181.26 267.69,181.26 267.67,181.26 267.64,181.25 267.63,181.25 
	267.61,181.25 267.59,181.25 267.56,181.23 267.54,181.22 267.47,181.18 267.42,181.14 267.39,181.1 267.39,181.05 267.4,181 
	267.42,180.96 267.44,180.91 267.46,180.87 267.46,180.83 267.46,180.8 267.46,180.79 267.44,180.74 267.43,180.72 267.42,180.7 
	267.4,180.67 267.39,180.66 267.37,180.61 267.37,180.59 267.34,180.54 267.34,180.53 267.34,180.51 267.33,180.48 267.34,180.4 
	267.35,180.37 267.39,180.32 267.43,180.29 267.44,180.28 267.51,180.23 267.55,180.19 267.57,180.16 267.6,180.12 267.61,180.11 
	267.61,180.1 267.63,180.07 267.63,180.06 267.63,180.03 267.63,179.99 267.63,179.97 267.61,179.94 267.61,179.93 267.6,179.91 
	267.59,179.89 267.57,179.89 267.55,179.86 267.52,179.83 267.48,179.81 267.44,179.78 267.42,179.76 267.39,179.72 267.38,179.69 
	267.38,179.66 267.38,179.65 267.38,179.64 267.38,179.61 267.38,179.6 267.38,179.59 267.38,179.57 267.38,179.55 267.38,179.49 
	267.37,179.48 267.37,179.45 267.37,179.44 267.37,179.43 267.37,179.42 267.34,179.38 267.33,179.35 267.33,179.34 267.3,179.3 
	267.27,179.26 267.26,179.25 267.26,179.23 267.23,179.21 267.21,179.18 267.18,179.15 267.18,179.14 267.17,179.13 267.14,179.11 
	267.1,179.07 267.08,179.06 267.05,179.05 267.04,179.05 267,179.04 266.97,179.02 266.96,179.02 266.95,179.02 266.92,179.02 
	266.88,179.01 266.87,179.01 266.85,179.01 266.83,179.01 266.82,179.01 266.8,179.01 266.78,179 266.76,179 266.75,178.98 
	266.72,178.98 266.72,178.97 266.71,178.97 266.68,178.94 266.66,178.94 266.66,178.93 266.63,178.92 266.61,178.9 266.59,178.89 
	266.59,178.88 266.58,178.88 266.57,178.87 266.55,178.85 266.53,178.84 266.51,178.83 266.5,178.8 266.49,178.79 266.49,178.77 
	266.48,178.76 266.48,178.75 266.48,178.73 266.46,178.71 266.46,178.7 266.46,178.68 266.46,178.67 266.46,178.66 266.46,178.64 
	266.46,178.62 266.46,178.6 266.45,178.59 266.45,178.58 266.45,178.56 266.44,178.53 266.44,178.51 266.42,178.5 266.42,178.47 
	266.41,178.46 266.4,178.43 266.37,178.39 266.34,178.37 266.33,178.35 266.32,178.34 266.3,178.33 266.29,178.33 266.28,178.32 
	266.27,178.32 266.24,178.29 266.21,178.28 266.19,178.28 266.19,178.26 266.16,178.26 266.15,178.26 266.12,178.24 266.11,178.24 
	266.06,178.21 266.03,178.18 266,178.13 265.99,178.08 265.98,178.05 265.96,177.96 265.96,177.94 265.96,177.9 265.99,177.79 
	266.03,177.71 266.04,177.67 266.04,177.66 266.08,177.62 266.11,177.6 266.12,177.58 266.13,177.57 266.15,177.56 266.16,177.54 
	266.17,177.53 266.19,177.52 266.2,177.52 266.21,177.5 266.24,177.49 266.25,177.48 266.27,177.48 266.28,177.46 266.3,177.46 
	266.32,177.45 266.34,177.44 266.36,177.44 266.38,177.43 266.41,177.41 266.42,177.41 266.44,177.4 266.45,177.39 266.46,177.37 
	266.49,177.36 266.5,177.35 266.51,177.33 266.53,177.32 266.54,177.29 266.55,177.28 266.57,177.27 266.58,177.26 266.59,177.23 
	266.59,177.2 266.61,177.19 266.61,177.16 266.61,177.15 266.61,177.14 266.59,177.14 266.4,177.14 266.38,177.14 266.37,177.14 
	266.32,177.14 266.24,177.14 266.23,177.14 266.17,177.14 266.15,177.14 266.12,177.14 266.11,177.14 266.03,177.14 266.02,177.14 
	266.02,177.12 265.99,177.12 265.98,177.12 265.96,177.12 265.95,177.12 265.93,177.12 265.93,177.14 265.91,177.14 265.81,177.14 
	265.77,177.14 265.76,177.14 265.73,177.14 265.69,177.12 265.64,177.14 265.62,177.14 265.6,177.12 265.58,177.14 265.57,177.14 
	265.56,177.14 265.55,177.14 265.52,177.14 265.47,177.14 265.44,177.14 265.41,177.14 265.39,177.14 265.38,177.14 265.35,177.14 
	265.34,177.14 265.32,177.14 265.31,177.14 265.28,177.14 265.24,177.14 265.15,177.14 265.13,177.14 265.1,177.14 265.05,177.14 
	265.01,177.14 264.97,177.14 264.94,177.14 264.92,177.14 264.89,177.14 264.86,177.14 264.84,177.14 264.83,177.14 264.81,177.14 
	264.8,177.14 264.79,177.14 264.76,177.14 264.73,177.14 264.72,177.14 264.71,177.14 264.68,177.14 264.67,177.14 264.66,177.14 
	264.64,177.14 264.58,177.14 264.56,177.14 264.55,177.14 264.54,177.14 264.52,177.14 264.51,177.14 264.5,177.14 264.47,177.14 
	264.46,177.14 264.45,177.14 264.41,177.14 264.39,177.14 264.38,177.14 264.29,177.14 264,177.14 263.94,177.14 263.87,177.14 
	263.86,177.14 263.84,177.14 263.8,177.14 263.79,177.14 263.78,177.14 263.77,177.14 263.75,177.14 263.74,177.14 263.71,177.14 
	263.7,177.14 263.66,177.14 263.65,177.14 263.63,177.14 263.61,177.14 263.6,177.14 263.57,177.14 263.56,177.14 263.54,177.14 
	263.53,177.14 263.5,177.14 263.49,177.14 263.48,177.14 263.45,177.14 263.44,177.14 263.4,177.14 263.39,177.14 263.37,177.14 
	263.35,177.14 263.33,177.14 263.32,177.14 263.31,177.14 263.29,177.14 263.28,177.14 263.27,177.14 263.25,177.14 263.24,177.14 
	263.23,177.14 263.22,177.14 263.2,177.14 262.98,177.14 262.97,177.14 262.93,177.14 262.91,177.14 262.88,177.14 262.84,177.14 
	262.8,177.14 262.77,177.14 262.76,177.14 262.74,177.14 262.72,177.14 262.7,177.14 262.69,177.14 262.57,177.14 262.56,177.14 
	262.52,177.14 262.51,177.14 262.48,177.14 262.47,177.14 262.46,177.14 262.44,177.14 262.43,177.14 262.42,177.14 262.36,177.14 
	262.34,177.14 262.33,177.14 262.3,177.14 262.29,177.14 262.26,177.14 262.25,177.14 262.23,177.14 262.22,177.14 262.21,177.14 
	262.18,177.14 262.16,177.14 262.13,177.14 262.12,177.14 262.1,177.14 262.09,177.14 262.08,177.14 262.05,177.14 262.01,177.14 
	262,177.14 261.98,177.14 261.96,177.14 261.92,177.14 261.85,177.14 261.84,177.14 261.83,177.14 261.81,177.14 261.79,177.14 
	261.74,177.14 261.72,177.14 261.67,177.14 261.66,177.14 261.62,177.14 261.53,177.14 261.51,177.14 261.38,177.14 261.33,177.14 
	261.3,177.14 261.28,177.14 261.24,177.14 261.23,177.14 261.19,177.14 261.17,177.14 261.16,177.14 261.08,177.14 261.07,177.14 
	261.04,177.14 260.94,177.14 260.91,177.14 260.86,177.14 260.85,177.14 260.83,177.14 260.82,177.14 260.7,177.14 260.69,177.14 
	260.68,177.14 260.66,177.14 260.65,177.14 260.64,177.14 260.57,177.14 260.54,177.14 260.53,177.12 260.52,177.12 260.49,177.12 
	260.44,177.12 260.41,177.12 260.4,177.12 260.39,177.12 260.36,177.12 260.34,177.12 260.32,177.12 260.31,177.12 260.3,177.12 
	260.27,177.12 260.23,177.12 260.22,177.12 260.2,177.12 260.19,177.12 260.18,177.12 260.17,177.12 260.14,177.12 260.13,177.12 
	260.11,177.12 260.1,177.12 260.09,177.12 260.07,177.12 260.06,177.12 260.05,177.12 260.03,177.12 260.02,177.12 260.01,177.12 
	260,177.12 259.98,177.12 259.97,177.12 259.96,177.12 259.93,177.12 259.92,177.12 259.9,177.12 259.88,177.12 259.86,177.12 
	259.84,177.12 259.82,177.12 259.81,177.12 259.77,177.12 259.76,177.12 259.75,177.12 259.73,177.12 259.71,177.12 259.69,177.12 
	259.68,177.12 259.67,177.12 259.65,177.12 259.64,177.12 259.62,177.12 259.6,177.12 259.59,177.12 259.55,177.12 259.54,177.12 
	259.52,177.12 259.51,177.12 259.5,177.12 259.47,177.12 259.46,177.12 259.45,177.12 259.43,177.12 259.42,177.12 259.41,177.12 
	259.39,177.12 259.38,177.12 259.35,177.12 259.34,177.12 259.3,177.12 259.29,177.12 259.28,177.12 259.26,177.12 259.25,177.12 
	259.24,177.12 259.22,177.12 259.14,177.12 259.14,177.1 259.14,177.09 259.14,177.07 259.14,177.01 259.14,176.99 259.14,176.97 
	259.14,176.95 259.14,176.94 259.14,176.91 259.14,176.9 259.14,176.89 259.14,176.88 259.14,176.86 259.14,176.84 259.14,176.67 
	259.14,176.65 259.14,176.6 259.14,176.59 259.14,176.55 259.14,176.51 259.14,176.5 259.14,176.46 259.14,176.43 259.14,176.31 
	259.14,176.19 259.14,176.16 259.14,176.14 259.14,176.13 259.14,176.09 259.14,176.08 259.14,176.06 259.14,175.97 259.14,175.96 
	259.14,175.92 259.14,175.8 259.14,175.79 259.14,175.78 259.14,175.76 259.14,175.74 259.14,175.72 259.14,175.67 259.14,175.66 
	259.14,175.63 259.14,175.62 259.14,175.51 259.14,175.5 259.14,175.4 259.14,175.38 259.14,175.37 259.14,175.34 259.14,175.33 
	259.14,175.32 259.14,175.28 259.14,175.27 259.14,175.23 259.14,175.2 259.14,175.17 259.14,175.16 259.16,175.12 259.16,175.11 
	259.16,175.08 259.16,175.06 259.16,175.04 259.16,175.02 259.16,175 259.16,174.99 259.16,174.95 259.16,174.94 259.16,174.93 
	259.16,174.83 259.16,174.82 259.16,174.79 259.16,174.78 259.16,174.7 259.16,174.65 259.16,174.6 259.16,174.58 259.16,174.57 
	259.16,174.56 259.16,174.55 259.16,174.53 259.16,174.48 259.16,174.4 259.16,174.39 259.16,174.36 259.16,174.34 259.16,174.32 
	259.16,174.24 259.16,174.21 259.16,174.18 259.16,174.17 259.16,174.14 259.16,174.11 259.16,174.1 259.16,174.07 259.16,174.05 
	259.16,173.98 259.16,173.93 259.16,173.89 259.16,173.75 259.16,173.73 259.16,173.72 259.16,173.68 259.16,173.67 259.16,173.51 
	259.16,173.46 259.16,173.45 259.16,173.43 259.18,173.43 259.25,173.43 259.28,173.43 259.3,173.43 259.33,173.45 259.39,173.45 
	259.45,173.45 259.46,173.45 259.52,173.45 259.54,173.45 259.55,173.45 259.62,173.45 259.63,173.45 259.68,173.45 259.84,173.45 
	259.93,173.45 259.94,173.45 260.05,173.46 260.06,173.46 260.07,173.46 260.18,173.46 260.19,173.46 260.2,173.46 260.23,173.46 
	260.24,173.46 260.26,173.46 260.27,173.46 260.28,173.46 260.37,173.46 260.44,173.46 260.45,173.46 260.51,173.46 260.51,173.43 
	260.51,173.42 260.51,173.37 260.51,173.34 260.51,173.33 260.51,173.31 260.51,173.3 260.51,173.26 260.51,173.25 260.51,173.24 
	260.52,173.22 260.52,173.12 260.52,173.11 260.52,173.08 260.52,173.07 260.52,173.05 260.52,173.01 260.52,172.99 260.53,172.99 
	260.56,172.99 260.65,172.99 260.66,172.99 260.7,172.99 260.72,172.99 260.79,172.99 260.82,172.99 260.83,172.99 260.85,172.99 
	260.87,172.99 260.86,172.96 260.86,172.95 260.85,172.94 260.83,172.91 260.83,172.88 260.82,172.86 260.82,172.84 260.82,172.82 
	260.81,172.8 260.81,172.79 260.81,172.78 260.81,172.77 260.79,172.75 260.79,172.74 260.79,172.73 260.78,172.73 260.78,172.71 
	260.78,172.7 260.77,172.69 260.75,172.66 260.75,172.65 260.74,172.63 260.74,172.62 260.73,172.61 260.73,172.59 260.72,172.58 
	260.7,172.56 260.69,172.54 260.69,172.53 260.68,172.52 260.66,172.49 260.65,172.48 260.65,172.46 260.64,172.44 260.64,172.42 
	260.64,172.4 260.62,172.39 260.62,172.37 260.64,172.36 260.64,172.35 260.64,172.33 260.64,172.32 260.64,172.31 260.64,172.29 
	260.64,172.28 260.64,172.27 260.64,172.25 260.64,172.24 260.65,172.23 260.65,172.22 260.66,172.2 260.66,172.19 260.68,172.18 
	260.68,172.16 260.69,172.15 260.69,172.14 260.72,172.11 260.73,172.1 260.74,172.1 260.74,172.08 260.75,172.08 260.77,172.07 
	260.78,172.06 260.79,172.05 260.81,172.03 260.82,172.02 260.85,172.02 260.85,172.01 260.86,172.01 260.87,171.99 260.89,171.98 
	260.9,171.98 260.91,171.97 260.91,171.95 260.92,171.94 260.94,171.93 260.95,171.91 260.95,171.9 260.96,171.9 260.96,171.89 
	260.96,171.87 260.98,171.87 260.96,171.86 260.96,171.85 260.95,171.85 260.95,171.84 260.95,171.82 260.95,171.81 260.95,171.8 
	260.94,171.78 260.94,171.77 260.92,171.76 260.92,171.74 260.91,171.74 260.91,171.73 260.91,171.72 260.91,171.7 260.9,171.7 
	260.9,171.69 260.89,171.68 260.89,171.67 260.87,171.65 260.87,171.64 260.87,171.63 260.87,171.61 260.86,171.6 260.87,171.6 
	260.87,171.59 260.87,171.57 260.87,171.56 260.87,171.55 260.87,171.53 260.87,171.52 260.87,171.51 260.89,171.51 260.89,171.5 
	260.9,171.48 260.9,171.47 260.9,171.46 260.91,171.44 260.91,171.43 260.91,171.42 260.91,171.4 260.91,171.39 260.91,171.38 
	260.91,171.36 260.91,171.35 260.91,171.34 260.91,171.33 260.9,171.33 260.9,171.31 260.9,171.3 260.9,171.29 260.89,171.29 
	260.89,171.27 260.89,171.26 260.89,171.25 260.89,171.23 260.87,171.23 260.87,171.22 260.87,171.21 260.87,171.19 260.87,171.18 
	260.86,171.15 260.86,171.13 260.85,171.05 260.85,171.04 260.85,171.02 260.85,171 260.85,170.98 260.85,170.97 260.85,170.96 
	260.85,170.93 260.85,170.92 260.85,170.91 260.85,170.89 260.85,170.88 260.83,170.85 260.83,170.84 260.83,170.83 260.83,170.8 
	260.82,170.79 260.82,170.78 260.82,170.76 260.82,170.75 260.81,170.75 260.78,170.68 260.77,170.67 260.75,170.66 260.75,170.64 
	260.74,170.62 260.73,170.61 260.72,170.59 260.72,170.58 260.69,170.58 260.69,170.57 260.68,170.55 260.66,170.55 260.65,170.54 
	260.64,170.54 260.61,170.53 260.6,170.51 260.58,170.51 260.57,170.5 260.56,170.5 260.54,170.49 260.53,170.47 260.52,170.46 
	260.51,170.46 260.49,170.45 260.48,170.43 260.48,170.42 260.47,170.42 260.47,170.41 260.45,170.4 260.44,170.36 260.44,170.34 
	260.44,170.33 260.43,170.32 260.43,170.3 260.41,170.28 260.4,170.28 260.4,170.26 260.39,170.24 260.39,170.23 260.39,170.21 
	260.37,170.21 260.37,170.2 260.37,170.19 260.37,170.17 260.37,170.16 260.36,170.13 260.36,170.12 260.36,170.11 260.36,170.08 
	260.35,170.06 260.35,170.04 260.35,170.03 260.34,170.02 260.34,169.99 260.34,169.98 260.34,169.96 260.34,169.95 260.35,169.94 
	260.35,169.92 260.35,169.91 260.36,169.91 260.36,169.9 260.37,169.87 260.39,169.85 260.39,169.83 260.4,169.83 260.41,169.81 
	260.41,169.79 260.41,169.78 260.43,169.74 260.47,169.7 260.49,169.66 260.49,169.65 260.51,169.64 260.52,169.61 260.52,169.6 
	260.52,169.58 260.52,169.56 260.52,169.54 260.52,169.53 260.52,169.52 260.51,169.49 260.45,169.36 260.44,169.34 260.41,169.3 
	260.4,169.24 260.36,169.19 260.35,169.16 260.34,169.15 260.32,169.13 260.32,169.11 260.31,169.1 260.3,169.09 260.28,169.07 
	260.27,169.06 260.26,169.05 260.26,169.03 260.24,169.03 260.24,169.02 260.23,169.01 260.22,169.01 260.22,168.99 260.19,168.96 
	260.18,168.96 260.17,168.94 260.15,168.94 260.15,168.93 260.14,168.93 260.13,168.92 260.11,168.92 260.1,168.92 260.1,168.9 
	260.09,168.9 260.07,168.9 260.06,168.9 260.06,168.89 260.05,168.89 260.02,168.86 260,168.84 259.98,168.82 259.97,168.81 
	259.96,168.8 259.94,168.79 259.93,168.79 259.9,168.76 259.89,168.76 259.88,168.75 259.86,168.72 259.84,168.71 259.84,168.69 
	259.82,168.68 259.82,168.67 259.82,168.65 259.82,168.64 259.82,168.63 259.81,168.62 259.82,168.62 259.82,168.6 259.84,168.6 
	259.84,168.59 259.84,168.58 259.84,168.56 259.85,168.54 259.85,168.52 259.85,168.5 259.85,168.48 259.85,168.47 259.85,168.46 
	259.85,168.43 259.85,168.39 259.85,168.37 259.85,168.35 259.84,168.33 259.84,168.31 259.84,168.3 259.84,168.29 259.82,168.27 
	259.81,168.24 259.81,168.22 259.8,168.2 259.8,168.18 259.8,168.17 259.79,168.17 259.79,168.16 259.79,168.14 259.79,168.13 
	259.79,168.12 259.77,168.09 259.77,168.08 259.76,168.07 259.76,168.04 259.75,168.04 259.75,168.03 259.75,168.01 259.73,168.01 
	259.73,167.99 259.72,167.97 259.71,167.95 259.69,167.93 259.69,167.92 259.68,167.92 259.68,167.91 259.67,167.9 259.65,167.9 
	259.65,167.88 259.64,167.88 259.63,167.88 259.62,167.87 259.59,167.87 259.58,167.86 259.56,167.86 259.55,167.84 259.52,167.84 
	259.5,167.83 259.48,167.83 259.47,167.82 259.45,167.8 259.43,167.79 259.41,167.78 259.41,167.76 259.39,167.76 259.37,167.75 
	259.35,167.74 259.34,167.74 259.33,167.72 259.31,167.71 259.3,167.7 259.29,167.7 259.29,167.69 259.28,167.69 259.26,167.67 
	259.25,167.67 259.24,167.66 259.24,167.65 259.22,167.63 259.22,167.62 259.21,167.62 259.21,167.61 259.2,167.59 259.18,167.59 
	259.18,167.58 259.18,167.57 259.17,167.55 259.16,167.54 259.16,167.53 259.14,167.52 259.13,167.49 259.12,167.49 259.12,167.48 
	259.12,167.46 259.1,167.45 259.09,167.45 259.08,167.45 259.07,167.45 259.04,167.45 259.03,167.45 259.01,167.45 258.99,167.45 
	258.96,167.45 258.95,167.45 258.93,167.45 258.92,167.45 258.91,167.45 258.9,167.45 258.9,167.44 258.88,167.44 258.88,167.42 
	258.87,167.42 258.87,167.41 258.87,167.4 258.86,167.38 258.84,167.4 258.84,167.41 258.83,167.42 258.82,167.44 258.8,167.44 
	258.78,167.42 258.76,167.41 258.75,167.41 258.74,167.4 258.73,167.4 258.71,167.4 258.7,167.38 258.69,167.36 258.69,167.35 
	258.67,167.35 258.67,167.33 258.67,167.32 258.66,167.31 258.66,167.29 258.66,167.28 258.65,167.28 258.65,167.27 258.63,167.27 
	258.63,167.25 258.61,167.24 258.59,167.24 258.58,167.24 258.57,167.23 258.56,167.23 258.54,167.21 258.53,167.21 258.52,167.2 
	258.52,167.19 258.5,167.19 258.49,167.18 258.48,167.16 258.46,167.16 258.45,167.15 258.44,167.14 258.42,167.12 258.41,167.12 
	258.41,167.11 258.4,167.11 258.4,167.1 258.38,167.1 258.38,167.08 258.37,167.08 258.36,167.07 258.33,167.06 258.31,167.04 
	258.29,167.03 258.28,167.02 258.25,166.99 258.24,166.99 258.24,166.98 258.23,166.98 258.21,166.98 258.2,166.98 258.2,166.97 
	258.19,166.97 258.18,166.97 258.18,166.95 258.12,166.91 258.11,166.9 258.1,166.89 258.08,166.89 258.07,166.87 258.07,166.86 
	258.06,166.86 258.04,166.86 258.04,166.85 258.03,166.85 258.02,166.85 258.01,166.83 257.97,166.82 257.95,166.81 257.94,166.81 
	257.93,166.81 257.91,166.81 257.9,166.81 257.87,166.8 257.86,166.8 257.85,166.8 257.84,166.8 257.82,166.8 257.81,166.8 
	257.8,166.8 257.78,166.8 257.74,166.8 257.73,166.8 257.72,166.8 257.69,166.8 257.68,166.8 257.66,166.8 257.65,166.8 
	257.64,166.8 257.63,166.8 257.61,166.78 257.6,166.8 257.59,166.8 257.57,166.8 257.56,166.78 257.55,166.78 257.53,166.78 
	257.53,166.8 257.52,166.8 257.52,166.81 257.51,166.81 257.49,166.81 257.48,166.81 257.47,166.81 257.46,166.81 257.46,166.8 
	257.44,166.8 257.43,166.8 257.4,166.78 257.38,166.78 257.3,166.78 257.22,166.78 257.21,166.78 257.19,166.78 257.18,166.78 
	257.18,166.77 257.17,166.77 257.17,166.76 257.15,166.76 257.14,166.76 257.13,166.76 257.12,166.76 257.1,166.76 257.09,166.77 
	257.08,166.77 257.06,166.77 257.05,166.77 257.05,166.78 257.04,166.78 257.04,166.8 257.02,166.8 257.01,166.8 257.01,166.81 
	257,166.81 256.98,166.81 256.98,166.82 256.97,166.82 256.97,166.83 256.96,166.83 256.96,166.85 256.94,166.85 256.93,166.85 
	256.93,166.86 256.92,166.86 256.92,166.87 256.91,166.87 256.89,166.87 256.88,166.87 256.87,166.87 256.87,166.89 256.85,166.89 
	256.84,166.89 256.83,166.89 256.81,166.89 256.81,166.9 256.8,166.9 256.79,166.9 256.77,166.9 256.76,166.9 256.76,166.91 
	256.75,166.91 256.74,166.91 256.72,166.91 256.71,166.91 256.7,166.91 256.68,166.91 256.67,166.91 256.64,166.91 256.63,166.91 
	256.62,166.91 256.6,166.91 256.59,166.91 256.58,166.91 256.57,166.91 256.55,166.91 256.54,166.91 256.53,166.91 256.51,166.91 
	256.51,166.93 256.5,166.93 256.5,166.91 256.49,166.91 256.47,166.91 256.46,166.91 256.46,166.9 256.45,166.9 256.45,166.89 
	256.43,166.89 256.42,166.89 256.42,166.87 256.41,166.87 256.41,166.86 256.4,166.86 256.38,166.86 256.38,166.85 256.37,166.85 
	256.37,166.86 256.36,166.86 256.34,166.86 256.33,166.86 256.33,166.85 256.32,166.85 256.3,166.85 256.29,166.83 256.28,166.82 
	256.26,166.82 256.26,166.81 256.25,166.81 256.25,166.8 256.24,166.8 256.24,166.78 256.22,166.78 256.22,166.77 256.21,166.77 
	256.21,166.76 256.2,166.76 256.2,166.74 256.19,166.74 256.19,166.73 256.17,166.73 256.16,166.73 256.16,166.72 256.15,166.72 
	256.15,166.7 256.13,166.7 256.12,166.69 256.11,166.68 256.09,166.66 256.08,166.65 256.07,166.64 256.07,166.63 256.05,166.63 
	256.05,166.61 256.04,166.61 256.03,166.6 256.02,166.6 256,166.6 256,166.59 255.99,166.59 255.98,166.59 255.98,166.57 
	255.96,166.57 255.95,166.57 255.94,166.57 255.94,166.56 255.92,166.56 255.91,166.56 255.9,166.55 255.88,166.55 255.87,166.55 
	255.87,166.53 255.86,166.53 255.85,166.53 255.83,166.53 255.82,166.53 255.81,166.53 255.79,166.53 255.78,166.53 255.77,166.53 
	255.75,166.53 255.74,166.53 255.73,166.53 255.71,166.53 255.7,166.53 255.69,166.53 255.68,166.53 255.66,166.53 255.65,166.53 
	255.64,166.53 255.62,166.53 255.61,166.53 255.6,166.53 255.58,166.53 255.57,166.53 255.57,166.52 255.56,166.52 255.54,166.52 
	255.54,166.53 255.53,166.53 255.52,166.53 255.5,166.55 255.49,166.55 255.48,166.55 255.47,166.55 255.47,166.56 255.45,166.56 
	255.44,166.56 255.44,166.57 255.43,166.57 255.41,166.59 255.4,166.59 255.39,166.59 255.39,166.6 255.37,166.6 255.37,166.61 
	255.36,166.61 255.35,166.61 255.33,166.61 255.32,166.61 255.31,166.61 255.31,166.63 255.3,166.63 255.3,166.61 255.28,166.61 
	255.27,166.61 255.26,166.61 255.24,166.63 255.23,166.63 255.22,166.64 255.2,166.64 255.19,166.65 255.18,166.65 255.16,166.66 
	255.15,166.66 255.13,166.68 255.11,166.68 255.1,166.69 255.09,166.69 255.07,166.69 255.06,166.69 255.05,166.69 255.03,166.68 
	255.02,166.68 255.01,166.68 254.99,166.68 254.99,166.66 254.98,166.66 254.97,166.66 254.96,166.65 254.94,166.65 254.93,166.64 
	254.92,166.64 254.92,166.63 254.9,166.63 254.89,166.63 254.88,166.63 254.88,166.61 254.86,166.61 254.85,166.61 254.85,166.6 
	254.85,166.59 254.84,166.59 254.82,166.59 254.81,166.59 254.8,166.59 254.78,166.59 254.77,166.59 254.77,166.6 254.76,166.6 
	254.75,166.6 254.73,166.6 254.72,166.6 254.71,166.59 254.69,166.59 254.69,166.6 254.68,166.6 254.67,166.6 254.65,166.6 
	254.61,166.6 254.6,166.59 254.59,166.59 254.59,166.57 254.58,166.56 254.56,166.55 254.55,166.55 254.54,166.53 254.52,166.53 
	254.51,166.53 254.5,166.53 254.5,166.52 254.48,166.52 254.46,166.52 254.44,166.52 254.43,166.52 254.42,166.52 254.39,166.52 
	254.37,166.51 254.35,166.51 254.34,166.49 254.33,166.49 254.31,166.49 254.3,166.49 254.29,166.49 254.29,166.48 254.27,166.48 
	254.26,166.48 254.26,166.47 254.25,166.47 254.24,166.47 254.22,166.47 254.21,166.47 254.2,166.47 254.2,166.46 254.18,166.46 
	254.18,166.47 254.17,166.47 254.16,166.47 254.14,166.47 254.13,166.47 254.12,166.47 254.1,166.47 254.1,166.46 254,166.46 
	254,166.44 254,166.43 254,166.42 253.99,166.42 253.97,166.42 253.92,166.42 253.91,166.42 253.83,166.42 253.82,166.42 
	253.79,166.42 253.75,166.43 253.74,166.44 253.72,166.46 253.69,166.47 253.65,166.48 253.59,166.51 253.58,166.52 253.55,166.53 
	253.54,166.55 253.53,166.56 253.49,166.57 253.42,166.61 253.34,166.64 253.32,166.64 253.31,166.64 253.27,166.66 253.25,166.68 
	253.21,166.7 253.2,166.7 253.16,166.74 253.15,166.76 253.12,166.77 253.11,166.78 253.1,166.8 253.08,166.81 253.06,166.82 
	253.03,166.85 253,166.86 252.98,166.87 252.98,166.9 252.95,166.91 252.95,166.94 252.94,166.94 252.91,166.97 252.9,166.98 
	252.83,167 252.82,167.03 252.77,167.04 252.73,167.06 252.72,167.07 252.7,167.07 252.69,167.07 252.66,167.08 252.64,167.08 
	252.61,167.08 252.59,167.08 252.56,167.08 252.53,167.08 252.51,167.08 252.47,167.08 252.45,167.08 252.43,167.08 252.36,167.1 
	252.22,167.08 252.19,167.11 252.18,167.11 252.17,167.12 252.14,167.14 252.11,167.15 252.09,167.16 252.08,167.18 252.08,167.19 
	252.06,167.19 252.04,167.2 252.01,167.21 251.98,167.24 251.94,167.27 251.93,167.28 251.92,167.28 251.89,167.33 251.88,167.33 
	251.85,167.35 251.84,167.36 251.84,167.37 251.83,167.37 251.81,167.38 251.81,167.4 251.79,167.4 251.76,167.41 251.75,167.41 
	251.73,167.42 251.72,167.42 251.7,167.44 251.68,167.45 251.67,167.45 251.64,167.46 251.63,167.48 251.58,167.48 251.56,167.48 
	251.56,167.46 251.54,167.46 251.53,167.46 251.51,167.46 251.49,167.46 251.46,167.48 251.42,167.48 251.39,167.49 251.36,167.5 
	251.34,167.5 251.3,167.53 251.26,167.54 251.24,167.54 251.24,167.55 251.21,167.55 251.2,167.55 251.17,167.55 251.15,167.55 
	251.12,167.55 251.07,167.55 251,167.57 250.99,167.57 250.98,167.58 250.81,167.63 250.78,167.63 250.75,167.62 250.73,167.62 
	250.71,167.61 250.69,167.61 250.61,167.54 250.56,167.5 250.53,167.49 250.49,167.49 250.46,167.49 250.45,167.49 250.36,167.5 
	250.35,167.5 250.27,167.52 250.22,167.53 250.18,167.53 250.11,167.53 250.05,167.52 249.94,167.52 249.91,167.52 249.9,167.52 
	249.89,167.5 249.88,167.5 249.85,167.49 249.82,167.49 249.81,167.48 249.8,167.48 249.78,167.46 249.77,167.45 249.77,167.44 
	249.74,167.42 249.72,167.4 249.69,167.37 249.68,167.36 249.67,167.35 249.67,167.33 249.65,167.32 249.63,167.31 249.61,167.29 
	249.59,167.28 249.57,167.27 249.55,167.27 249.54,167.25 249.51,167.25 249.5,167.24 249.48,167.24 249.46,167.24 249.44,167.24 
	249.38,167.24 249.33,167.24 249.3,167.24 249.29,167.24 249.26,167.24 249.23,167.25 249.21,167.25 249.19,167.25 249.19,167.27 
	249.17,167.28 249.13,167.29 249.12,167.29 249.06,167.31 249.06,167.32 249.04,167.32 249.02,167.33 249,167.35 248.99,167.35 
	248.99,167.36 248.97,167.36 248.96,167.36 248.95,167.36 248.92,167.37 248.92,167.38 248.91,167.38 248.89,167.38 248.88,167.38 
	248.87,167.38 248.85,167.38 248.84,167.38 248.83,167.37 248.82,167.37 248.8,167.37 248.79,167.36 248.78,167.36 248.76,167.35 
	248.75,167.35 248.74,167.35 248.72,167.33 248.71,167.32 248.7,167.32 248.68,167.32 248.67,167.31 248.66,167.31 248.65,167.31 
	248.63,167.31 248.63,167.29 248.62,167.29 248.59,167.28 248.58,167.28 248.57,167.28 248.55,167.28 248.55,167.29 248.54,167.29 
	248.54,167.31 248.53,167.31 248.51,167.32 248.5,167.32 248.49,167.32 248.46,167.32 248.45,167.32 248.45,167.33 248.41,167.33 
	248.38,167.35 248.36,167.35 248.34,167.35 248.34,167.36 248.33,167.37 248.33,167.38 248.32,167.4 248.3,167.4 248.29,167.42 
	248.27,167.44 248.25,167.45 248.24,167.46 248.21,167.48 248.2,167.48 248.19,167.48 248.17,167.49 248.15,167.49 248.13,167.49 
	248.12,167.5 248.11,167.5 248.08,167.52 248.06,167.52 248.02,167.53 247.98,167.54 247.96,167.54 247.95,167.54 247.95,167.55 
	247.93,167.55 247.9,167.57 247.89,167.57 247.87,167.58 247.87,167.59 247.85,167.61 247.82,167.61 247.81,167.61 247.78,167.61 
	247.75,167.62 247.74,167.62 247.73,167.63 247.7,167.65 247.69,167.66 247.66,167.67 247.65,167.67 247.65,167.69 247.62,167.7 
	247.61,167.7 247.61,167.71 247.58,167.72 247.56,167.72 247.53,167.74 247.52,167.74 247.48,167.74 247.47,167.74 247.45,167.74 
	247.44,167.74 247.43,167.75 247.41,167.75 247.4,167.75 247.39,167.75 247.35,167.76 247.34,167.76 247.32,167.76 247.3,167.76 
	247.28,167.78 247.27,167.78 247.26,167.78 247.24,167.76 247.22,167.78 247.21,167.78 247.18,167.78 247.15,167.78 247.13,167.78 
	247.1,167.76 247.09,167.76 247.06,167.76 247.05,167.76 247.02,167.76 247.01,167.76 246.98,167.78 246.97,167.78 246.94,167.78 
	246.89,167.79 246.88,167.79 246.86,167.79 246.84,167.79 246.83,167.79 246.8,167.8 246.79,167.82 246.77,167.82 246.75,167.82 
	246.73,167.82 246.72,167.82 246.71,167.83 246.69,167.83 246.68,167.84 246.67,167.87 246.66,167.87 246.66,167.88 246.63,167.88 
	246.6,167.91 246.59,167.92 246.58,167.92 246.58,167.93 246.54,167.95 246.52,167.96 246.5,167.97 246.49,167.97 246.47,167.99 
	246.45,168.01 246.43,168.03 246.42,168.03 246.39,168.04 246.38,168.05 246.37,168.07 246.33,168.09 246.31,168.1 246.29,168.12 
	246.26,168.13 246.25,168.14 246.24,168.14 246.21,168.17 246.18,168.18 246.16,168.2 246.13,168.21 246.11,168.21 246.09,168.22 
	246.08,168.22 246.04,168.24 246.03,168.24 246.01,168.24 246,168.25 245.99,168.25 245.97,168.25 245.96,168.25 245.95,168.25 
	245.94,168.25 245.92,168.25 245.91,168.25 245.88,168.25 245.87,168.25 245.86,168.25 245.84,168.25 245.83,168.25 245.83,168.26 
	245.83,168.29 245.83,168.31 245.83,168.33 245.83,168.34 245.83,168.42 245.83,168.51 245.82,168.52 245.8,168.52 245.79,168.54 
	245.78,168.55 245.77,168.55 245.75,168.56 245.74,168.58 245.73,168.58 245.71,168.58 245.7,168.58 245.69,168.56 245.67,168.56 
	245.66,168.56 245.66,168.58 245.65,168.59 245.59,168.6 245.57,168.62 245.48,168.65 245.46,168.65 245.44,168.67 245.4,168.68 
	245.37,168.68 245.36,168.68 245.35,168.68 245.33,168.68 245.32,168.68 245.31,168.68 245.31,168.67 245.31,168.64 245.29,168.63 
	245.27,168.64 245.22,168.65 245.2,168.65 245.18,168.67 245.16,168.68 245.15,168.68 245.14,168.68 245.11,168.69 245.11,168.71 
	245.12,168.73 245.14,168.75 245.11,168.76 245.08,168.8 245.03,168.85 245.02,168.82 245.01,168.82 245.01,168.81 244.99,168.81 
	244.99,168.8 244.98,168.81 244.97,168.82 244.94,168.84 244.93,168.85 244.91,168.86 244.9,168.86 244.89,168.88 244.87,168.88 
	244.86,168.89 244.85,168.9 244.84,168.9 244.82,168.92 244.82,168.93 244.81,168.93 244.81,168.94 244.8,168.96 244.78,168.96 
	244.78,168.97 244.76,168.98 244.74,168.99 244.73,169.01 244.72,169.02 244.69,169.05 244.68,169.06 244.67,169.07 244.65,169.09 
	244.64,169.11 244.63,169.13 244.6,169.14 244.57,169.16 244.56,169.18 244.55,169.2 244.52,169.23 244.51,169.24 244.48,169.27 
	244.47,169.28 244.46,169.3 244.44,169.31 244.43,169.32 244.42,169.32 244.42,169.34 244.4,169.35 244.35,169.39 244.34,169.4 
	244.31,169.41 244.3,169.43 244.29,169.43 244.27,169.44 244.26,169.45 244.25,169.47 244.23,169.47 244.22,169.48 244.21,169.48 
	244.21,169.49 244.18,169.51 244.17,169.51 244.17,169.52 244.15,169.53 244.14,169.53 244.13,169.54 244.12,169.56 244.1,169.56 
	244.08,169.56 244.06,169.56 244.05,169.57 244.04,169.57 244.01,169.6 244,169.62 243.98,169.64 243.98,169.65 243.95,169.68 
	243.93,169.69 243.88,169.73 243.85,169.75 243.85,169.77 243.83,169.78 243.8,169.82 243.8,169.83 243.75,169.88 243.75,169.91 
	243.74,169.92 243.72,169.94 243.71,169.95 243.7,169.98 243.68,170 243.67,170.03 243.66,170.04 243.64,170.07 243.63,170.07 
	243.63,170.08 243.62,170.09 243.62,170.11 243.58,170.16 243.57,170.17 243.55,170.19 243.55,170.2 243.54,170.21 243.53,170.24 
	243.47,170.28 243.45,170.3 243.42,170.32 243.41,170.33 243.4,170.34 243.37,170.37 243.36,170.37 243.36,170.38 243.37,170.4 
	243.38,170.41 243.38,170.42 243.41,170.43 243.4,170.45 243.38,170.45 243.38,170.46 243.37,170.46 243.36,170.46 243.36,170.47 
	243.34,170.49 243.33,170.5 243.32,170.51 243.3,170.54 243.29,170.54 243.29,170.55 243.28,170.55 243.28,170.57 243.21,170.61 
	243.17,170.64 243.16,170.64 243.15,170.66 243.13,170.67 243.13,170.68 243.12,170.68 243.11,170.68 243.07,170.71 243.07,170.74 
	243.07,170.76 243.07,170.78 243.07,170.83 243.07,170.92 243.07,170.95 243.07,170.96 243.07,171 243.07,171.04 243.07,171.05 
	243.07,171.1 243.07,171.14 243.07,171.15 243.06,171.31 243.06,171.38 243.06,171.39 243.06,171.4 243.06,171.42 243.06,171.43 
	243.06,171.56 243.06,171.6 243.06,171.61 243.06,171.63 243.06,171.64 243.06,171.78 243.06,171.82 243.06,171.84 243.06,171.85 
	243.06,171.9 243.06,171.98 243.06,172.01 243.06,172.07 243.06,172.12 243.06,172.14 243.04,172.15 243.04,172.16 243.04,172.18 
	243.04,172.2 243.04,172.22 243.04,172.24 243.04,172.25 243.04,172.27 243.04,172.28 243.04,172.29 243.04,172.31 243.04,172.33 
	243.04,172.39 243.04,172.41 243.04,172.44 243.04,172.46 243.04,172.53 243.04,172.56 243.04,172.57 243.04,172.61 243.04,172.62 
	243.04,172.63 243.04,172.65 243.04,172.7 243.04,172.74 243.04,172.75 243.06,172.75 243.06,172.78 243.06,172.82 243.06,172.86 
	243.06,172.9 243.06,172.96 243.06,172.99 243.06,173 243.06,173.01 243.06,173.03 243.06,173.04 243.06,173.05 243.06,173.07 
	243.06,173.09 243.06,173.14 243.06,173.18 243.04,173.22 243.04,173.24 243.04,173.33 243.04,173.37 243.04,173.45 243.04,173.47 
	243.04,173.5 243.04,173.55 243.04,173.56 243.04,173.6 243.04,173.63 243.04,173.68 243.04,173.73 243.04,173.75 243.04,173.77 
	243.04,173.81 243.04,173.84 243.03,173.92 243.03,173.98 243.03,174.02 243.03,174.06 243.03,174.09 243.03,174.1 243.03,174.14 
	243.03,174.17 243.03,174.21 243.03,174.23 243.03,174.24 243.03,174.28 243.03,174.31 243.03,174.35 243.03,174.38 243.03,174.39 
	243.03,174.43 243.03,174.45 243.03,174.47 243.03,174.6 243.02,174.68 243.02,174.77 243.02,174.79 243.02,174.81 243.02,174.82 
	243.02,174.83 243.02,174.91 243.02,174.94 243.02,174.95 243.02,174.98 243.02,175.02 243.02,175.06 243.02,175.08 243.02,175.12 
	243.02,175.2 243.02,175.23 243.02,175.27 243.02,175.29 243,175.33 243,175.34 243,175.37 243,175.38 243,175.41 243,175.45 
	243,175.49 243,175.53 243,175.59 243,175.61 243,175.65 243,175.72 243,175.75 243,175.76 243,175.8 243,175.84 243,175.87 
	243,175.88 243,175.99 243,176.01 243,176.04 243,176.08 243,176.09 243,176.1 243,176.12 243,176.13 242.99,176.19 242.99,176.21 
	242.99,176.22 242.99,176.29 242.99,176.3 242.99,176.31 242.99,176.33 242.99,176.34 242.99,176.35 242.99,176.39 242.99,176.43 
	242.99,176.44 242.99,176.46 242.99,176.47 242.99,176.54 242.99,176.55 242.99,176.56 242.99,176.6 242.99,176.64 242.99,176.67 
	242.99,176.68 242.99,176.71 242.99,176.8 242.99,176.84 242.98,176.88 242.98,176.9 242.98,176.95 242.98,176.97 242.98,176.99 
	242.98,177.03 242.98,177.06 242.98,177.09 242.98,177.14 242.98,177.16 242.98,177.2 242.98,177.24 242.98,177.26 242.98,177.32 
	242.98,177.36 242.98,177.4 242.98,177.41 242.98,177.43 242.98,177.44 242.98,177.48 242.96,177.54 242.96,177.56 242.96,177.57 
	242.96,177.6 242.96,177.62 242.96,177.66 242.96,177.7 242.96,177.74 242.96,177.75 242.96,177.77 242.96,177.78 242.96,177.79 
	242.96,177.81 242.96,177.82 242.96,177.83 242.96,177.9 242.96,177.94 242.96,177.98 242.96,177.99 242.96,178.04 242.96,178.05 
	242.96,178.09 242.96,178.13 242.96,178.21 242.96,178.22 242.96,178.26 242.95,178.28 242.96,178.28 242.96,178.29 242.96,178.32 
	242.96,178.35 242.96,178.37 242.96,178.38 242.96,178.39 242.96,178.41 242.96,178.47 242.96,178.49 242.96,178.5 242.96,178.51 
	242.96,178.53 242.96,178.56 242.96,178.63 242.96,178.66 242.96,178.67 242.96,178.71 242.96,178.73 242.96,178.75 242.96,178.76 
	242.96,178.8 242.96,178.83 242.96,178.89 242.96,178.9 242.96,178.92 242.95,178.94 242.95,178.97 242.95,178.98 242.95,179 
	242.95,179.02 242.95,179.04 242.95,179.05 242.95,179.1 242.95,179.11 242.95,179.14 242.95,179.15 242.95,179.17 242.95,179.18 
	242.95,179.19 242.95,179.21 242.95,179.22 242.95,179.23 242.95,179.25 242.95,179.26 242.95,179.27 242.95,179.28 242.95,179.3 
	242.95,179.31 242.95,179.35 242.95,179.39 242.95,179.43 242.95,179.44 242.95,179.47 242.95,179.48 242.95,179.49 242.95,179.51 
	242.95,179.56 242.95,179.57 242.95,179.59 242.95,179.61 242.95,179.62 242.95,179.66 242.94,179.7 242.94,179.72 242.94,179.74 
	242.94,179.77 242.94,179.78 242.94,179.79 242.94,179.81 242.94,179.85 242.94,179.86 242.94,179.89 242.94,179.91 242.94,179.93 
	242.94,179.97 242.94,179.98 242.94,180.02 242.94,180.03 242.94,180.07 242.94,180.1 242.94,180.11 242.94,180.12 242.94,180.14 
	242.94,180.15 242.94,180.16 242.94,180.19 242.94,180.2 242.94,180.23 242.94,180.24 242.94,180.25 242.94,180.28 242.94,180.31 
	242.94,180.32 242.94,180.34 242.94,180.36 242.94,180.37 242.92,180.46 242.92,180.49 242.92,180.53 242.92,180.54 242.92,180.57 
	242.92,180.58 242.92,180.61 242.92,180.63 242.92,180.65 242.92,180.7 242.92,180.71 242.92,180.72 242.92,180.75 242.92,180.8 
	242.92,180.82 242.92,180.83 242.92,180.84 242.92,180.87 242.92,180.88 242.92,180.91 242.92,180.93 242.92,180.95 242.92,180.97 
	242.92,180.99 242.92,181.01 242.92,181.04 242.92,181.08 242.91,181.16 242.91,181.2 242.91,181.23 242.91,181.26 242.91,181.27 
	242.91,181.31 242.91,181.35 242.91,181.37 242.91,181.38 242.91,181.42 242.91,181.43 242.91,181.5 242.91,181.51 242.91,181.54 
	242.91,181.55 242.91,181.56 242.91,181.59 242.91,181.63 242.91,181.65 242.91,181.69 242.91,181.73 242.9,181.85 242.9,181.86 
	242.9,181.9 242.9,181.92 242.9,181.94 242.9,181.95 242.9,181.97 242.9,181.98 242.9,182.01 242.9,182.02 242.9,182.03 
	242.9,182.06 242.9,182.13 242.9,182.18 242.9,182.19 242.9,182.2 242.9,182.27 242.9,182.28 242.9,182.3 242.9,182.31 
	242.9,182.35 242.9,182.36 242.9,182.39 242.9,182.43 242.9,182.45 242.9,182.49 242.9,182.53 242.9,182.54 242.9,182.56 
	242.9,182.6 242.9,182.61 242.89,182.65 242.89,182.66 242.89,182.67 242.89,182.71 242.89,182.74 242.89,182.75 242.89,182.79 
	242.89,182.82 242.89,182.86 242.89,182.87 242.89,182.88 242.89,182.9 242.89,182.92 242.89,182.99 242.89,183.03 242.89,183.04 
	242.89,183.05 242.89,183.07 242.89,183.11 242.89,183.12 242.89,183.15 242.89,183.17 242.89,183.19 242.89,183.21 242.89,183.24 
	242.89,183.25 242.89,183.28 242.89,183.3 242.89,183.34 242.87,183.34 242.87,183.38 242.87,183.41 242.87,183.43 242.87,183.49 
	242.87,183.53 242.87,183.58 242.87,183.59 242.87,183.6 242.87,183.62 242.87,183.63 242.87,183.66 242.87,183.7 242.87,183.71 
	242.87,183.76 242.87,183.8 242.89,183.8 242.9,183.8 242.91,183.81 242.91,183.83 242.91,183.85 242.91,183.87 242.91,183.88 
	242.91,183.89 242.91,183.91 242.91,183.94 242.91,183.96 242.91,183.97 242.91,184.01 242.91,184.02 242.91,184.05 242.91,184.06 
	242.91,184.08 242.91,184.09 242.9,184.11 242.9,184.15 242.9,184.19 242.9,184.23 242.9,184.26 242.9,184.3 242.9,184.31 
	242.9,184.34 242.9,184.35 242.9,184.36 242.9,184.38 242.9,184.39 242.9,184.43 242.9,184.46 242.9,184.47 242.9,184.49 
	242.9,184.53 242.9,184.57 242.9,184.6 242.9,184.63 242.9,184.65 242.9,184.72 242.9,184.73 242.9,184.76 242.9,184.77 
	242.9,184.78 242.89,184.86 242.89,184.87 242.89,184.9 242.89,184.95 242.89,185.01 242.89,185.02 242.89,185.03 242.89,185.04 
	242.89,185.07 242.89,185.08 242.89,185.11 242.89,185.12 242.89,185.19 242.89,185.2 242.89,185.23 242.89,185.25 242.89,185.29 
	242.89,185.33 242.89,185.35 242.89,185.37 242.89,185.41 242.89,185.42 242.89,185.46 242.87,185.49 242.87,185.52 242.87,185.55 
	242.87,185.57 242.87,185.58 242.87,185.59 242.87,185.62 242.87,185.67 242.87,185.69 242.87,185.7 242.87,185.71 242.87,185.74 
	242.87,185.75 242.87,185.76 242.87,185.78 242.87,185.8 242.87,185.82 242.87,185.84 242.87,185.87 242.87,185.9 242.87,185.92 
	242.87,185.96 242.87,185.97 242.87,186 242.87,186.03 242.87,186.05 242.87,186.08 242.87,186.12 242.87,186.14 242.86,186.17 
	242.86,186.18 242.86,186.2 242.86,186.24 242.86,186.26 242.86,186.29 242.86,186.31 242.86,186.34 242.86,186.38 242.86,186.41 
	242.86,186.43 242.86,186.46 242.86,186.5 242.86,186.52 242.86,186.54 242.86,186.56 242.86,186.58 242.86,186.65 242.86,186.67 
	242.86,186.68 242.86,186.69 242.86,186.72 242.86,186.76 242.86,186.77 242.85,186.8 242.85,186.82 242.85,186.86 242.85,186.88 
	242.85,186.9 242.85,186.92 242.85,186.97 242.85,186.98 242.85,187.03 242.85,187.06 242.85,187.09 242.85,187.1 242.85,187.13 
	242.85,187.15 242.85,187.18 242.85,187.2 242.85,187.23 242.85,187.27 242.85,187.28 242.85,187.34 242.85,187.36 242.85,187.37 
	242.85,187.41 242.85,187.45 242.83,187.48 242.83,187.49 242.83,187.51 242.83,187.53 242.83,187.56 242.83,187.57 242.83,187.58 
	242.83,187.6 242.83,187.62 242.83,187.64 242.83,187.68 242.83,187.7 242.83,187.72 242.83,187.73 242.83,187.74 242.83,187.85 
	242.83,187.86 242.83,187.87 242.83,187.89 242.83,187.9 242.83,187.92 242.83,187.95 242.83,187.96 242.83,187.99 242.83,188.03 
	242.83,188.06 242.82,188.07 242.82,188.08 242.82,188.12 242.82,188.19 242.82,188.24 242.82,188.26 242.82,188.28 242.82,188.29 
	242.82,188.3 242.82,188.32 242.82,188.33 242.82,188.36 242.82,188.37 242.82,188.4 242.82,188.41 242.82,188.42 242.82,188.44 
	242.82,188.47 242.82,188.49 242.82,188.5 242.82,188.53 242.82,188.54 242.82,188.55 242.82,188.58 242.82,188.59 242.82,188.61 
	242.82,188.63 242.82,188.64 242.82,188.67 242.82,188.68 242.81,188.68 242.81,188.7 242.81,188.72 242.81,188.74 242.81,188.75 
	242.81,188.76 242.81,188.78 242.81,188.79 242.81,188.84 242.81,188.87 242.81,188.88 242.81,188.89 242.81,188.92 242.81,188.93 
	242.81,188.95 242.81,188.98 242.81,189.04 242.81,189.05 242.81,189.08 242.81,189.09 242.81,189.12 242.81,189.13 242.81,189.14 
	242.79,189.16 242.79,189.18 242.79,189.19 242.79,189.23 242.79,189.25 242.79,189.26 242.79,189.34 242.82,189.34 242.87,189.34 
	242.9,189.34 242.95,189.34 242.98,189.34 243,189.35 243.02,189.35 243.04,189.35 243.16,189.35 243.25,189.35 243.26,189.35 
	243.3,189.35 243.32,189.35 243.34,189.35 243.36,189.35 243.37,189.35 243.38,189.35 243.4,189.35 243.41,189.35 243.42,189.35 
	243.43,189.35 243.45,189.35 243.47,189.35 243.49,189.35 243.5,189.35 243.57,189.35 243.62,189.35 243.66,189.35 243.68,189.35 
	243.7,189.35 243.71,189.35 243.72,189.35 243.74,189.35 243.76,189.36 243.79,189.36 243.8,189.36 243.83,189.36 243.88,189.36 
	243.89,189.36 243.93,189.36 243.95,189.36 244.01,189.36 244.15,189.36 244.17,189.36 244.25,189.36 244.33,189.36 244.34,189.36 
	244.38,189.36 244.4,189.36 244.44,189.36 244.46,189.36 244.51,189.38 244.52,189.38 244.57,189.38 244.6,189.38 244.63,189.38 
	244.69,189.38 244.73,189.38 244.76,189.38 244.8,189.38 244.84,189.38 244.85,189.38 244.86,189.38 244.89,189.38 244.9,189.38 
	244.91,189.38 244.94,189.38 245.01,189.38 245.06,189.38 245.07,189.38 245.08,189.38 245.11,189.38 245.16,189.38 245.18,189.38 
	245.19,189.39 245.22,189.39 245.23,189.39 245.24,189.39 245.28,189.39 245.29,189.39 245.31,189.39 245.32,189.39 245.36,189.39 
	245.37,189.39 245.41,189.39 245.42,189.39 245.49,189.39 245.5,189.39 245.53,189.39 245.54,189.39 245.56,189.39 245.57,189.39 
	245.58,189.39 245.62,189.39 245.63,189.39 245.71,189.39 245.73,189.39 245.74,189.39 245.75,189.39 245.79,189.39 245.84,189.39 
	245.86,189.39 245.9,189.39 245.94,189.4 245.96,189.4 245.97,189.4 245.99,189.4 246.01,189.4 246.04,189.4 246.07,189.4 
	246.08,189.4 246.18,189.4 246.2,189.4 246.29,189.4 246.31,189.4 246.42,189.4 246.45,189.4 246.46,189.4 246.49,189.4 
	246.5,189.4 246.51,189.4 246.52,189.4 246.54,189.4 246.55,189.4 246.56,189.4 246.58,189.4 246.59,189.4 246.6,189.4 
	246.64,189.4 246.66,189.4 246.67,189.4 246.69,189.42 246.76,189.42 246.8,189.42 246.86,189.42 246.88,189.42 246.9,189.42 
	246.98,189.42 247.09,189.42 247.1,189.42 247.11,189.42 247.15,189.42 247.18,189.42 247.19,189.42 247.21,189.42 247.22,189.42 
	247.24,189.42 247.27,189.42 247.3,189.42 247.31,189.42 247.39,189.42 247.4,189.42 247.41,189.42 247.43,189.42 247.55,189.42 
	247.57,189.43 247.62,189.43 247.64,189.43 247.65,189.43 247.66,189.43 247.68,189.43 247.7,189.43 247.73,189.43 247.77,189.43 
	247.81,189.43 247.82,189.43 247.85,189.43 247.86,189.43 247.89,189.43 247.9,189.43 247.99,189.43 248.03,189.43 248.06,189.43 
	248.08,189.43 248.11,189.43 248.12,189.43 248.19,189.43 248.2,189.43 248.21,189.43 248.23,189.43 248.29,189.43 248.3,189.43 
	248.33,189.43 248.44,189.44 248.44,189.43 248.45,189.43 248.46,189.43 248.49,189.43 248.5,189.44 248.51,189.44 248.54,189.44 
	248.58,189.44 248.61,189.44 248.63,189.44 248.66,189.44 248.67,189.44 248.72,189.44 248.74,189.44 248.75,189.44 248.76,189.44 
	248.8,189.44 248.84,189.44 248.85,189.44 248.88,189.44 248.91,189.44 248.92,189.44 248.95,189.44 248.97,189.44 248.99,189.44 
	249,189.44 249.02,189.44 249.05,189.44 249.08,189.44 249.09,189.44 249.12,189.44 249.13,189.44 249.14,189.44 249.16,189.44 
	249.18,189.44 249.19,189.44 249.22,189.44 249.27,189.44 249.3,189.44 249.33,189.44 249.34,189.44 249.35,189.44 249.38,189.46 
	249.42,189.46 249.43,189.46 249.44,189.46 249.46,189.46 249.51,189.46 249.52,189.46 249.55,189.46 249.57,189.46 249.64,189.46 
	249.71,189.46 249.8,189.47 249.85,189.47 249.94,189.47 249.99,189.47 250.05,189.47 250.2,189.47 250.22,189.46 250.22,189.47 
	250.23,189.47 250.24,189.47 250.26,189.47 250.27,189.47 250.31,189.47 250.35,189.47 250.4,189.47 250.41,189.47 250.43,189.47 
	250.44,189.47 250.46,189.47 250.54,189.47 250.58,189.47 250.66,189.47 250.67,189.47 250.71,189.47 250.81,189.47 250.9,189.47 
	250.92,189.47 250.94,189.48 250.95,189.48 250.95,189.47 250.98,189.47 250.99,189.47 251.04,189.47 251.05,189.47 251.13,189.47 
	251.15,189.47 251.16,189.47 251.17,189.47 251.22,189.48 251.36,189.48 251.38,189.48 251.39,189.48 251.45,189.48 251.46,189.48 
	251.47,189.48 251.55,189.48 251.59,189.48 251.6,189.48 251.66,189.48 251.67,189.48 251.93,189.5 252.05,189.5 252.06,189.5 
	252.08,189.5 252.17,189.5 252.18,189.5 252.22,189.5 252.27,189.5 252.28,189.5 252.3,189.5 252.4,189.5 252.42,189.5 
	252.47,189.5 252.49,189.5 252.51,189.5 252.52,189.5 252.53,189.5 252.57,189.5 252.59,189.5 252.61,189.5 252.64,189.5 
	252.65,189.5 252.66,189.5 252.69,189.5 252.72,189.5 252.73,189.5 252.76,189.5 252.77,189.5 252.81,189.5 252.83,189.5 
	252.85,189.5 252.9,189.5 252.91,189.5 252.95,189.5 252.97,189.5 252.99,189.5 253.03,189.5 253.07,189.5 253.08,189.5 
	253.1,189.5 253.11,189.5 253.12,189.5 253.14,189.5 253.16,189.5 253.17,189.5 253.2,189.5 253.29,189.51 253.31,189.51 
	253.37,189.51 253.4,189.51 253.41,189.51 253.42,189.51 253.44,189.51 253.45,189.51 253.48,189.51 253.5,189.51 253.53,189.51 
	253.55,189.51 253.57,189.51 253.61,189.51 253.62,189.51 253.63,189.51 253.65,189.51 253.66,189.51 253.69,189.51 253.7,189.51 
	253.75,189.51 253.78,189.51 253.82,189.51 253.84,189.51 253.86,189.51 253.88,189.51 253.89,189.51 254.05,189.51 254.08,189.51 
	254.1,189.51 254.12,189.51 254.13,189.51 254.14,189.51 254.16,189.51 254.17,189.51 254.18,189.51 254.2,189.51 254.21,189.51 
	254.24,189.51 254.26,189.51 254.29,189.51 254.3,189.51 254.31,189.51 254.33,189.51 254.34,189.51 254.35,189.51 254.38,189.51 
	254.44,189.51 254.5,189.51 254.52,189.51 254.54,189.51 254.55,189.51 254.56,189.51 254.59,189.51 254.75,189.52 254.78,189.52 
	254.81,189.52 254.84,189.52 254.89,189.52 254.9,189.52 254.93,189.52 254.96,189.52 254.97,189.52 254.98,189.52 255.01,189.52 
	255.03,189.52 255.05,189.52 255.09,189.52 255.11,189.52 255.13,189.52 255.15,189.52 255.16,189.52 255.18,189.52 255.19,189.52 
	255.2,189.52 255.23,189.52 255.43,189.52 255.45,189.52 255.47,189.52 255.53,189.52 255.54,189.52 255.56,189.52 255.57,189.52 
	255.58,189.52 255.6,189.52 255.64,189.52 255.65,189.52 255.66,189.52 255.68,189.52 255.69,189.52 255.7,189.52 255.74,189.52 
	255.78,189.52 255.83,189.52 255.86,189.52 255.87,189.52 255.88,189.52 255.9,189.52 255.91,189.52 255.92,189.52 255.94,189.52 
	255.95,189.52 255.96,189.52 255.98,189.52 256,189.52 256.02,189.52 256.03,189.52 256.07,189.52 256.08,189.52 256.09,189.52 
	256.12,189.52 256.13,189.52 256.16,189.52 256.16,189.53 256.17,189.53 256.22,189.53 256.26,189.53 256.3,189.53 256.32,189.53 
	256.33,189.53 256.36,189.53 256.37,189.53 256.4,189.53 256.45,189.53 256.46,189.53 256.47,189.53 256.5,189.53 256.51,189.53 
	256.53,189.53 256.55,189.53 256.58,189.53 256.59,189.53 256.62,189.53 256.66,189.53 256.68,189.53 256.7,189.53 256.71,189.53 
	256.72,189.53 256.76,189.53 256.79,189.53 256.81,189.53 256.83,189.53 256.84,189.53 256.87,189.53 256.88,189.53 256.91,189.53 
	256.93,189.53 256.98,189.53 257,189.53 257.04,189.53 257.05,189.53 257.08,189.53 257.1,189.53 257.12,189.53 257.14,189.53 
	257.17,189.53 257.18,189.53 257.19,189.53 257.19,189.55 257.21,189.55 257.22,189.55 257.23,189.55 257.26,189.55 257.27,189.55 
	257.29,189.55 257.31,189.55 257.32,189.55 257.32,189.53 257.34,189.53 257.36,189.53 257.39,189.53 257.39,189.55 257.43,189.55 
	257.48,189.55 257.49,189.55 257.52,189.55 257.57,189.55 257.59,189.55 257.61,189.55 257.66,189.55 257.68,189.55 257.7,189.55 
	257.72,189.55 257.73,189.55 257.8,189.55 257.81,189.55 257.87,189.55 257.93,189.55 257.94,189.55 257.95,189.55 257.99,189.55 
	258.02,189.55 258.06,189.55 258.1,189.55 258.11,189.55 258.12,189.55 258.14,189.55 258.16,189.55 258.18,189.55 258.21,189.55 
	258.25,189.55 258.27,189.55 258.28,189.55 258.29,189.55 258.32,189.55 258.33,189.55 258.35,189.55 258.4,189.55 258.41,189.55 
	258.45,189.55 258.46,189.55 258.49,189.55 258.5,189.55 258.53,189.55 258.56,189.55 258.57,189.55 258.58,189.55 258.62,189.55 
	258.63,189.55 258.65,189.55 258.67,189.55 258.69,189.55 258.7,189.55 258.76,189.55 258.78,189.55 258.79,189.55 258.8,189.55 
	258.82,189.55 258.84,189.55 258.86,189.55 258.87,189.55 258.92,189.55 258.95,189.55 258.96,189.55 258.97,189.55 259,189.55 
	259.01,189.55 259.03,189.55 259.04,189.55 259.05,189.55 259.08,189.55 259.1,189.55 259.12,189.55 259.13,189.55 259.21,189.55 
	259.24,189.55 259.25,189.55 259.26,189.56 259.29,189.56 259.3,189.56 259.31,189.56 259.35,189.56 259.38,189.56 259.42,189.56 
	259.45,189.56 259.46,189.56 259.5,189.56 259.52,189.56 259.54,189.56 259.55,189.56 259.56,189.56 259.58,189.56 259.59,189.56 
	259.6,189.56 259.62,189.56 259.64,189.56 259.65,189.56 259.68,189.56 259.69,189.56 259.71,189.56 259.72,189.56 259.75,189.56 
	259.76,189.56 259.77,189.56 259.79,189.56 259.82,189.56 259.85,189.56 259.86,189.56 259.88,189.56 259.89,189.56 259.98,189.56 
	260.02,189.56 260.03,189.56 260.05,189.56 260.1,189.56 260.13,189.56 260.14,189.56 260.17,189.56 260.18,189.56 260.2,189.56 
	260.22,189.56 260.31,189.56 260.32,189.56 260.36,189.56 260.37,189.56 260.39,189.56 260.4,189.56 260.41,189.56 260.43,189.56 
	260.44,189.56 260.47,189.56 260.49,189.56 260.51,189.56 260.53,189.56 260.54,189.56 260.56,189.56 260.57,189.56 260.58,189.56 
	260.64,189.56 260.65,189.56 260.66,189.56 260.68,189.56 260.69,189.56 260.7,189.56 260.72,189.56 260.77,189.56 260.78,189.56 
	260.79,189.56 260.85,189.56 260.86,189.56 260.87,189.56 260.9,189.56 260.91,189.56 260.92,189.56 260.94,189.56 260.96,189.56 
	260.98,189.56 260.99,189.56 261.02,189.57 261.02,189.56 261.03,189.56 261.04,189.56 261.06,189.56 261.07,189.56 261.08,189.56 
	261.09,189.56 261.16,189.56 261.2,189.56 261.28,189.56 261.3,189.56 261.32,189.56 261.33,189.56 261.34,189.56 261.36,189.56 
	261.37,189.56 261.4,189.56 261.41,189.56 261.47,189.56 261.5,189.56 261.51,189.56 261.53,189.56 261.54,189.56 261.55,189.56 
	261.57,189.56 261.61,189.56 261.62,189.56 261.66,189.56 261.68,189.56 261.68,189.57 261.7,189.57 261.71,189.57 261.72,189.57 
	261.72,189.56 261.74,189.56 261.75,189.56 261.78,189.56 261.79,189.56 261.8,189.56 261.81,189.56 261.83,189.56 261.84,189.56 
	261.85,189.56 261.88,189.56 261.91,189.56 261.96,189.56 262,189.56 262.01,189.56 262.02,189.56 262.04,189.56 262.05,189.56 
	262.06,189.56 262.08,189.56 262.1,189.56 262.22,189.56 262.25,189.56 262.3,189.56 262.33,189.57 262.35,189.57 262.36,189.57 
	262.38,189.57 262.39,189.57 262.42,189.57 262.43,189.57 262.46,189.57 262.48,189.57 262.5,189.57 262.51,189.57 262.52,189.57 
	262.53,189.57 262.55,189.57 262.57,189.57 262.6,189.57 262.61,189.57 262.64,189.57 262.65,189.57 262.67,189.57 262.68,189.57 
	262.69,189.57 262.7,189.57 262.72,189.57 262.74,189.57 262.76,189.57 262.77,189.57 262.78,189.57 262.8,189.57 262.88,189.57 
	263.12,189.57 263.14,189.57 263.16,189.57 263.19,189.57 263.22,189.57 263.31,189.57 263.32,189.57 263.33,189.57 263.39,189.57 
	263.41,189.57 263.45,189.57 263.49,189.57 263.57,189.57 263.61,189.57 263.63,189.57 263.65,189.57 263.66,189.57 263.79,189.57 
	263.91,189.57 263.92,189.57 263.95,189.57 264.03,189.57 264.04,189.57 264.05,189.57 264.12,189.57 264.16,189.57 264.17,189.57 
	264.2,189.57 264.34,189.57 264.35,189.57 264.37,189.57 264.41,189.57 264.45,189.57 264.47,189.57 264.51,189.57 264.54,189.57 
	264.55,189.57 264.56,189.57 264.62,189.57 264.66,189.57 264.68,189.57 264.69,189.57 264.75,189.57 264.85,189.57 264.92,189.57 
	264.93,189.57 264.94,189.57 264.97,189.57 264.98,189.57 265,189.57 265.01,189.57 265.04,189.57 265.05,189.57 265.06,189.57 
	265.07,189.57 265.11,189.57 265.13,189.57 265.14,189.57 265.15,189.57 265.19,189.57 265.21,189.57 265.26,189.57 265.28,189.57 
	265.32,189.57 265.34,189.57 265.35,189.57 265.36,189.57 265.39,189.57 265.41,189.57 265.44,189.57 265.45,189.57 265.48,189.57 
	265.49,189.57 265.51,189.57 265.73,189.57 265.82,189.57 265.87,189.57 265.99,189.57 266.03,189.57 266.04,189.57 266.06,189.57 
	266.13,189.57 266.23,189.57 266.32,189.57 266.37,189.57 266.5,189.57 266.51,189.57 266.54,189.57 266.55,189.57 266.58,189.57 
	266.59,189.57 266.61,189.57 266.62,189.57 266.63,189.57 266.65,189.57 266.66,189.57 266.67,189.57 266.68,189.57 266.7,189.57 
	266.71,189.57 266.72,189.57 266.74,189.57 266.78,189.57 266.79,189.57 266.82,189.57 266.83,189.57 266.87,189.57 266.89,189.57 
	266.91,189.57 266.92,189.57 266.96,189.57 266.97,189.57 266.99,189.57 267,189.57 267.01,189.57 267.04,189.57 267.06,189.57 
	267.08,189.57 267.09,189.57 267.12,189.57 267.14,189.57 267.18,189.57 267.22,189.57 267.23,189.57 267.25,189.57 267.31,189.57 
	267.34,189.57 267.37,189.57 267.38,189.57 267.42,189.57 267.44,189.57 267.47,189.57 267.51,189.57 267.56,189.57 267.64,189.57 
	267.65,189.57 267.68,189.57 267.72,189.57 267.73,189.57 267.82,189.57 267.84,189.57 267.85,189.57 267.86,189.57 267.88,189.57 
	267.89,189.57 267.9,189.57 267.92,189.57 267.93,189.57 267.94,189.57 267.97,189.57 267.99,189.57 268.01,189.57 268.05,189.57 
	268.06,189.57 268.07,189.57 268.09,189.57 268.11,189.57 268.12,189.57 268.14,189.57 268.2,189.57 268.22,189.57 268.23,189.57 
	268.32,189.57 268.33,189.57 268.36,189.57 268.37,189.57 268.43,189.57 268.45,189.57 268.46,189.57 268.48,189.57 268.49,189.57 
	268.5,189.57 268.52,189.57 268.53,189.57 268.54,189.57 268.56,189.57 268.57,189.57 268.58,189.57 268.61,189.57 268.67,189.57 
	268.69,189.57 268.71,189.57 268.74,189.57 268.75,189.57 268.77,189.57 268.84,189.57 268.86,189.57 268.87,189.57 268.88,189.57 
	268.9,189.57 268.94,189.57 268.96,189.57 268.98,189.57 268.99,189.57 269,189.57 269.01,189.57 269.04,189.57 269.05,189.57 
	269.07,189.57 269.11,189.57 269.12,189.57 269.13,189.57 269.15,189.57 269.16,189.57 269.19,189.57 269.2,189.57 269.22,189.57 
	269.26,189.57 269.36,189.57 269.39,189.57 269.42,189.57 269.43,189.57 269.45,189.57 269.46,189.57 269.49,189.57 269.51,189.57 
	269.63,189.57 269.64,189.57 269.66,189.57 269.67,189.57 269.73,189.57 269.77,189.57 269.81,189.57 269.84,189.57 269.84,189.56 
	269.85,189.56 269.87,189.56 269.89,189.56 269.91,189.56 269.93,189.56 269.94,189.56 269.96,189.56 270,189.56 270.01,189.56 
	270.04,189.56 270.09,189.56 270.1,189.56 270.11,189.56 270.13,189.56 270.14,189.56 270.14,189.57 270.15,189.57 270.15,189.56 
	270.17,189.56 270.19,189.56 270.21,189.56 270.25,189.56 270.3,189.56 270.31,189.56 270.32,189.56 270.34,189.56 270.36,189.56 
	270.38,189.56 270.39,189.56 270.42,189.56 270.45,189.56 270.48,189.56 270.51,189.56 270.53,189.56 270.56,189.56 270.57,189.56 
	270.59,189.56 270.63,189.56 270.66,189.56 270.68,189.56 270.72,189.56 270.74,189.56 270.76,189.56 270.77,189.56 270.78,189.56 
	270.8,189.56 270.83,189.56 270.85,189.56 270.87,189.56 270.89,189.56 270.91,189.56 270.97,189.56 270.99,189.56 271,189.56 
	271.03,189.56 271.04,189.56 271.06,189.56 271.07,189.56 271.08,189.56 271.1,189.56 271.16,189.56 271.17,189.56 271.19,189.56 
	271.21,189.56 271.25,189.56 271.35,189.56 271.38,189.56 271.4,189.56 271.41,189.56 271.42,189.56 271.44,189.56 271.49,189.56 
	271.5,189.56 271.52,189.56 271.53,189.56 271.54,189.56 271.57,189.56 271.58,189.56 271.59,189.56 271.63,189.56 271.65,189.56 
	271.66,189.56 271.69,189.56 271.71,189.56 271.74,189.56 271.75,189.56 271.76,189.56 271.78,189.56 271.84,189.56 271.86,189.56 
	271.87,189.56 271.88,189.56 271.91,189.56 271.92,189.56 271.93,189.56 272.05,189.56 272.13,189.56 272.14,189.56 272.17,189.56 
	272.18,189.56 272.2,189.56 272.22,189.56 272.25,189.56 272.27,189.56 272.29,189.56 272.3,189.56 272.31,189.56 272.33,189.56 
	272.35,189.56 272.41,189.56 272.43,189.56 272.44,189.56 272.47,189.56 272.5,189.56 272.56,189.56 272.58,189.56 272.64,189.56 
	272.65,189.56 272.67,189.56 272.68,189.56 272.69,189.56 272.72,189.56 272.73,189.56 272.76,189.55 272.77,189.55 272.8,189.55 
	272.89,189.55 272.92,189.55 272.93,189.55 272.94,189.55 272.94,189.52 272.94,189.51 "/>
</svg>
