<?xml version="1.0" encoding="utf-8"?>
<!-- Generator: Adobe Illustrator 25.4.1, SVG Export Plug-In . SVG Version: 6.00 Build 0)  -->
<svg version="1.1" id="Layer_1" xmlns="http://www.w3.org/2000/svg" xmlns:xlink="http://www.w3.org/1999/xlink" x="0px" y="0px"
	 viewBox="0 0 733 546" style="enable-background:new 0 0 733 546;" xml:space="preserve">
<style type="text/css">
	.st0{fill:#F4F3EF;}
	.st1{display:none;fill:#F4F3EF;}
	.st2{fill:none;stroke:#FAB15F;stroke-width:2;}
	.st3{fill:#808080;}
	.st4{font-family:'Montserrat-Bold';}
	.st5{font-size:10px;}
	.st6{letter-spacing:3;}
	.st7{fill:none;}
	.st8{font-family:'Lora-Italic';}
	.st9{fill:none;stroke:#F2A76A;stroke-width:3;stroke-linecap:round;}
	
		.st10{opacity:0.7;fill:none;stroke:#80AA53;stroke-width:3;stroke-linecap:round;stroke-linejoin:round;stroke-miterlimit:10;enable-background:new    ;}
	
		.st11{opacity:0.79;fill:none;stroke:#64ACDF;stroke-width:6;stroke-linecap:round;stroke-linejoin:round;stroke-miterlimit:10;enable-background:new    ;}
	.st12{fill:none;stroke:#64ACDF;stroke-width:6;stroke-linecap:round;stroke-linejoin:round;stroke-miterlimit:10;}
	.st13{font-family:'Montserrat-Regular';}
	.st14{font-size:10.7133px;}
	.st15{font-size:7px;}
	.st16{display:none;fill:none;stroke:#52A7AB;stroke-width:3;stroke-linecap:round;stroke-linejoin:round;stroke-miterlimit:10;}
	.st17{font-family:'Lato-Light';}
	.st18{font-size:24px;}
	.st19{fill:none;stroke:#CCCCCC;stroke-width:2;stroke-miterlimit:10;}
	.st20{fill:none;stroke:#FCB416;stroke-width:4;stroke-linecap:round;stroke-linejoin:round;stroke-miterlimit:10;}
	.st21{fill:#999999;}
	.st22{letter-spacing:1;}
	.st23{opacity:0.7;}
	.st24{fill:none;stroke:#80AA53;stroke-linecap:round;stroke-linejoin:round;stroke-miterlimit:10;}
	
		.st25{opacity:0.7;fill:none;stroke:#80AA53;stroke-linecap:round;stroke-linejoin:round;stroke-miterlimit:10;enable-background:new    ;}
</style>
<rect class="st0" width="733" height="546"/>
<rect x="-27" y="-29.75" class="st1" width="838.99" height="504.54"/>
<g>
	<line class="st2" x1="520.85" y1="139.19" x2="607.25" y2="139.19"/>
	<text transform="matrix(1 0 0 1 520.8504 163.2784)" class="st3 st4 st5 st6">POPULATION TREND</text>
	<g>
		<rect x="520.85" y="178.15" class="st7" width="185.85" height="28.56"/>
		<text transform="matrix(1 0 0 1 520.8504 185.7016)" class="st3 st8 st5">The SENDD region shows a decline in </text>
		<text transform="matrix(1 0 0 1 520.8504 197.7016)" class="st3 st8 st5">population growth from 2010 to 2050</text>
	</g>
</g>
<line class="st2" x1="29.85" y1="10.19" x2="116.25" y2="10.19"/>
<text transform="matrix(1 0 0 1 29.8504 34.2784)" class="st3 st4 st5 st6">2019 AVERAGE MEDIAN AGE</text>
<polyline class="st9" points="31.92,270.85 115.04,306.75 198.16,335.2 281.28,363.36 364.4,389.05 447.52,404.79 530.65,411.69 
	613.77,407 696.89,402.03 "/>
<polyline class="st10" points="31.92,392.36 115.04,356.46 198.16,328.02 281.28,299.85 364.4,274.17 447.52,258.43 530.65,251.52 
	613.77,256.22 696.89,261.19 "/>
<polyline class="st11" points="49.02,190.42 126.89,206.71 204.77,223 282.64,242.06 360.51,265.25 438.39,290.93 516.26,321.59 
	594.14,358.59 672.01,399.18 "/>
<line class="st12" x1="110.4" y1="409.43" x2="144.53" y2="409.43"/>
<line class="st9" x1="110.4" y1="427.28" x2="144.53" y2="427.28"/>
<line class="st10" x1="110.4" y1="445.12" x2="144.53" y2="445.12"/>
<g>
	<text transform="matrix(1 0 0 1 109.8418 488.5381)" class="st3 st13 st14">2015</text>
</g>
<g>
	<text transform="matrix(1 0 0 1 25.4556 489.0557)" class="st3 st13 st14">2010</text>
</g>
<g>
	<text transform="matrix(1 0 0 1 440.9912 489.0557)" class="st3 st13 st14">2035</text>
</g>
<g>
	<text transform="matrix(1 0 0 1 524.0889 489.0557)" class="st3 st13 st14">2040</text>
</g>
<g>
	<text transform="matrix(1 0 0 1 617.2559 489.3604)" class="st3 st13 st14">2045</text>
</g>
<g>
	<text transform="matrix(1 0 0 1 691.0547 489.3604)" class="st3 st13 st14">2050</text>
</g>
<g>
	<text transform="matrix(1 0 0 1 199.4946 487.1768)" class="st3 st13 st14">2020</text>
</g>
<g>
	<text transform="matrix(1 0 0 1 277.377 487.1768)" class="st3 st13 st14">2025</text>
</g>
<g>
	<text transform="matrix(1 0 0 1 355.2407 487.1768)" class="st3 st13 st14">2030</text>
</g>
<g>
	<text transform="matrix(1 0 0 1 162.0864 413.0605)" class="st3 st13 st14">Total Population</text>
</g>
<g>
	<text transform="matrix(1 0 0 1 0.1548 193.9458)" class="st3 st13 st14">159,513</text>
</g>
<g>
	<text transform="matrix(1 0 0 1 675.5537 391.0576)" class="st3 st13 st14">133,290</text>
</g>
<g>
	<text transform="matrix(1 0 0 1 701.4385 265.7437)" class="st3 st13 st14">53%</text>
</g>
<g>
	<text transform="matrix(1 0 0 1 706.6025 405.3838)" class="st3 st13 st14">47%</text>
</g>
<g>
	<text transform="matrix(1 0 0 1 8.291 399.1846)" class="st3 st13 st14">47%</text>
</g>
<g>
	<text transform="matrix(1 0 0 1 4.2012 276.1055)" class="st3 st13 st14">53%</text>
</g>
<g>
	<text transform="matrix(1 0 0 1 162.0864 429.2236)" class="st3 st13 st14">% of Population under 45</text>
</g>
<g>
	<text transform="matrix(1 0 0 1 162.1357 446.0928)" class="st3 st13 st14">% of Population of 45 and Older</text>
</g>
<g>
	<rect x="108" y="523.9" class="st7" width="554" height="30.1"/>
	<text transform="matrix(1 0 0 1 108 529.0967)" class="st3 st13 st15">Source: December 2015 Nebraska County Projections, Center for Public Affairs Research, UNO, 2021 U.S Census</text>
	<text transform="matrix(1 0 0 1 108 537.4967)" class="st3 st13 st15">* Does not include Lancaster County</text>
</g>
<polyline class="st16" points="592.66,163.48 678.01,126.62 763.35,97.41 848.7,68.49 934.04,42.12 1019.39,25.96 1104.73,18.87 
	1190.08,23.69 1275.43,28.8 "/>
<g>
	<text transform="matrix(1 0 0 1 195.1563 97.2008)" class="st3 st17 st18">44.6</text>
</g>
<g>
	<circle class="st19" cx="218.87" cy="90.12" r="31.03"/>
</g>
<g>
	<path class="st20" d="M218.87,121.15c-17.14,0-31.03-13.89-31.03-31.03c0-15.62,11.55-28.55,26.57-30.71"/>
</g>
<g>
	<text transform="matrix(1 0 0 1 286.7982 97.2005)" class="st3 st17 st18">36.8</text>
</g>
<circle class="st19" cx="310.51" cy="90.12" r="31.03"/>
<path class="st20" d="M310.51,121.15c-17.14,0-31.03-13.89-31.03-31.03c0-4.95,1.16-9.62,3.22-13.77"/>
<g>
	<text transform="matrix(1 0 0 1 376.6671 97.2003)" class="st3 st17 st18">37.9</text>
</g>
<circle class="st19" cx="400.38" cy="90.12" r="31.03"/>
<path class="st20" d="M400.38,121.15c-17.14,0-31.03-13.89-31.03-31.03c0-8.33,3.28-15.9,8.63-21.47"/>
<text transform="matrix(1 0 0 1 198.9215 172.6935)" class="st21 st4 st15 st22">SENDD*</text>
<text transform="matrix(1 0 0 1 279.0905 172.6935)" class="st21 st4 st15 st22">NEBRASKA</text>
<text transform="matrix(1 0 0 1 390.4176 172.6935)" class="st21 st4 st15 st22">U.S</text>
<g class="st23">
	<g id="state_outline">
		<path id="Nebraska" class="st24" d="M289.75,132.41l0.16,0.01l0.41,0.02l0.53,0.03l0.11,0.01h0.09l0.18,0.01h0.04h0.04h0.09
			l0.3,0.01h0.06h0.03h0.02l0.3,0.01h0.09l0.12,0.01h0.04l0.15,0.01h0.02l0.38,0.01l0.27,0.01h0.09h0.09l0.27,0.01l0,0h0.18h0.09
			l0.2,0.01h0.1l0.26,0.01l0.25,0.01h0.01l0.41,0.01l0.55,0.02h0.01l1.33,0.03v0.02l0.36,0.01l0.24,0.01l1.4,0.04l0.39,0.01
			l0.17,0.01l1,0.03l0.35,0.01l2.11,0.04l2.24,0.03h0.37h1.31h0.92v-0.01h0.93h1.63h0.02l0.54-0.01h1.32l1.81-0.03l0.84-0.01
			l0.69-0.01h0.07h0.11h0.02l0.01,0.02l0.02,0.04l0.01,0.01l0.02,0.04l0.03,0.05l0.01,0.03l0.01,0.03l0.02,0.04l0.01,0.02l0.01,0.01
			l0.02,0.05l0.01,0.01l0.02,0.02l0,0l0.02,0.01v0.01l0.02,0.01l0.02,0.01h0.01l0.02,0.01h0.01l0.03,0.01h0.01h0.01h0.02l0.03,0.01
			h0.02h0.02l0.02,0.01l0.02,0.01l0.02,0.01l0.02,0.01l0.03,0.02l0.02,0.02l0.02,0.02l0.01,0.02l0.01,0.01l0.02,0.04l0.04,0.04
			l0.03,0.01l0.02,0.01l0.05,0.02l0.05,0.02l0.07,0.02l0,0l0.14,0.05h0.01l0.08,0.02h0.01l0.03,0.01h0.01l0.02,0.01l0.02,0.01
			l0.01,0.01l0.04,0.03l0.04,0.02l0.01,0.01l0.05,0.04l0.01,0.01l0.02,0.01l0.03,0.01l0,0l0.03,0.01l0.04,0.01l0.03,0.01h0.01
			l0.02,0.01l0,0h0.02h0.01h0.03h0.01h0.02h0.01l-0.01-0.02l0.1,0.13l0.07,0.04l0.09,0.09l0.13,0.09l0.05,0.09l0.1,0.04l0.1,0.01
			l0.1-0.02l0.01-0.01l0.09-0.02l0.07-0.03l0.06-0.03l0.04-0.02l0.03-0.03l0.05-0.04l0.02-0.03l0.09-0.14l0.02-0.04l0.03-0.04
			l0.02-0.06v-0.04l0.01-0.02v-0.02l-0.01-0.02v-0.03l0.02-0.02l0.07-0.04l0.08-0.02h0.04h0.01l0.04,0.03l0.04,0.04l0.09,0.11
			l0.02,0.01l0.03,0.01h0.04l0.03-0.01l0.03-0.01l0.03-0.02l0.03-0.03l0.04-0.05l0.03-0.04l0.02-0.01h0.03l0.04,0.01l0.02,0.01
			l0.04,0.03l0.02,0.02l0.01,0.02l0.01,0.03l0.02,0.03l0.03,0.03l0.02,0.01h0.02h0.02l0.02-0.01l0.03-0.02l0.02-0.02l0.03-0.05
			l0.01-0.02l0.04-0.07l0.02-0.02l0.03-0.02l0.05-0.01h0.03l0.01,0.01l0.01,0.02v0.02v0.03v0.02l0.01,0.02l0.01,0.01l0.02,0.01h0.02
			h0.03l0.1-0.01l0.1-0.02l0.02-0.01l0.04-0.03l0.03-0.04l0.02-0.01l0.13-0.04l0.03-0.01h0.02h0.01l0.01,0.02v0.04v0.02l0.01,0.01
			h0.04h0.02l0.02,0.01l0.02,0.02l0.02,0.01h0.03l0.03-0.01l0.05-0.03l0.02-0.03l0.03-0.03l0.03-0.02l0.03-0.01h0.03l0.03,0.01h0.07
			l0,0l0.03-0.01l0.01-0.02l0.01-0.02l0.01-0.01l0.06-0.01l0.04,0.01l0.05,0.02l0.04,0.01l0.05-0.01h0.01l0.03,0.02h0.02h0.02l0,0
			l0.06,0.05l0.11,0.02l0.09-0.02l0.14,0.05l0.01,0.02v0.1l0.04,0.12l0.05,0.02l0.13,0.01l0.06,0.02l0,0l0.03,0.01l0,0l0.02,0.01
			l0,0l0.01,0.01l0.01,0.02l0.01,0.01l0.01,0.05l0.01,0.02v0.01l0.01,0.01h0.02h0.02l0.03,0.01l0.02,0.01l0.03,0.01h0.01h0.02
			l0.04,0.01h0.01l0.06,0.01h0.05h0.01h0.02h0.03h0.03h0.03h0.05h0.02h0.01h0.03l0.03,0.01h0.01h0.02l0.01-0.01h0.01h0.02l0.02-0.01
			h0.02H323h0.01l0.04,0.02l0.02,0.02l0,0l0.02,0.03l0.01,0.02v0.02l0.01,0.01v0.02v0.01l-0.01,0.02l0,0v0.03v0.02v0.01l0.03,0.02
			l0.01,0.01h0.04l0.02-0.01l0.02-0.01l0.03-0.04l0.01-0.01l0.01-0.01l0.02-0.01l0.02-0.01l0,0h0.02h0.07h0.01h0.02l0.04,0.01
			l0.03,0.01h0.01l0.02,0.01l0.04,0.01l0.03,0.01l0.03,0.02l0.02,0.01l0.06,0.04l0.04,0.02h0.01h0.03h0.02l0.02,0.01l0.02,0.02
			l0.02,0.03v0.01v0.03l0,0v0.03v0.01v0.01v0.03v0.02l0.02,0.01l0,0l0.02,0.02l0.02,0.02l0.03,0.01l0.03,0.01H324h0.03h0.02l0,0
			l0.08-0.02h0.01h0.01l0.03-0.01h0.01h0.04h0.01h0.01h0.02h0.02h0.02l0.02,0.01l0.02,0.01l0.02,0.01l0.03,0.01l0.01,0.01l0.01,0.01
			l0.03,0.05l0,0l-0.04,0.07l-0.01,0.02l-0.01,0.01l-0.01,0.02l0,0l-0.01,0.02l-0.01,0.02l-0.01,0.02v0.01l-0.01,0.05v0.02
			l0.02,0.03l0.04,0.05l0.01,0.01l0.05,0.04l0.02,0.02h0.01l0.04,0.02l0.03,0.02l0.01,0.01l0.03,0.02l0.02,0.01l0.02,0.02l0.03,0.03
			l0.04,0.04l0.01,0.01l0.01,0.01l0.02,0.01l0.02,0.02l0.01,0.01l0.01,0.02l0,0l0.01,0.02l0.01,0.02v0.01l0.01,0.02v0.03v0.01v0.01
			v0.03l-0.01,0.02v0.01v0.01v0.01v0.02l0.03,0.03l0,0l0.03,0.01l0.02,0.01h0.02h0.01l0.01-0.01l0.02-0.01l0.02-0.01l0.01-0.01
			l0.03-0.03l0,0l0.03-0.02l0.03-0.02h0.01h0.01l0.02-0.01h0.01h0.02h0.01l0.04,0.01h0.01l0.02,0.01l0.02,0.02l0.02,0.02l0.03,0.04
			l0.01,0.01l0.01,0.02l0.02,0.03l0.02,0.03l0.01,0.01l0.01,0.01l0.02,0.02l0.02,0.01l0.02,0.01l0,0h0.05h0.01l0.03-0.01l0.02-0.01
			l0,0l0.02-0.01l0.03-0.01l0.03-0.01h0.01l0.07-0.01l0.06-0.01l0.05,0.01l0.04,0.01l0.04,0.02l0.03,0.03l0.02,0.04l0.01,0.05v0.07
			v0.05v0.04l-0.01,0.04l-0.02,0.03l-0.02,0.03l-0.01,0.01l-0.07,0.09v0.11l0.04,0.12l-0.04,0.07l-0.01,0.07l0.05,0.09l0.12,0.07
			l0.05,0.04v0.01l0.01,0.02l0.01,0.05l0.02,0.11l0.05,0.08l0.02,0.02l0.07,0.04l0.04,0.06l0.02,0.07v0.05l0.03,0.05l-0.06,0.1
			l-0.1,0.02l0,0v0.02v0.02l0.01,0.02l0.01,0.03l0.02,0.04v0.02v0.01v0.01v0.02v0.01v0.03v0.01l0.01,0.02l0.01,0.02l0,0l0.01,0.02
			l0.04,0.05l0.07,0.04l0.04,0.04l0.01,0.04l0.01,0.03l0.04,0.04l0.09,0.02l0.05,0.02l0.01,0.01l0.03,0.03l0.01,0.07l-0.01,0.07
			l-0.03,0.08l-0.01,0.08l0.01,0.06l0.02,0.05l0.01,0.02v0.01l0.01,0.02l0.06,0.03l0.09-0.02l0.02,0.02h0.01l0.04,0.02v0.02
			l0.01,0.02v0.02v0.01l-0.03,0.04l-0.04,0.03l-0.01,0.06v0.02l0.02,0.03l0.06,0.01l0.04-0.08l0.04-0.02h0.07l0.02,0.01h0.01v0.01
			v0.03v0.02v0.02v0.02l0.01,0.03l0.01,0.02l0.01,0.01l0.02,0.01h0.02h0.02l0.02-0.01h0.02h0.02l0.03,0.01h0.02l0.02,0.02l0.02,0.03
			v0.02l-0.01,0.03l-0.01,0.02l-0.01,0.02l-0.01,0.02v0.02v0.02l0.01,0.02l0.01,0.03l0.01,0.02l0.01,0.02v0.03l-0.01,0.03
			l-0.01,0.02l-0.01,0.01l-0.02,0.02l-0.02,0.01l-0.02,0.01l-0.01,0.01l-0.01,0.01v0.02v0.02l0.02,0.02l0.02,0.02l0.03,0.03
			l0.01,0.02l0.01,0.03v0.03l0.01,0.03l0.02,0.03l0.02,0.02l0.01,0.01l0.03,0.02l0.03,0.02l0.03,0.01l0.02,0.02l0.01,0.01l0.01,0.02
			l0.01,0.03v0.02v0.03v0.04v0.03l0.01,0.02l0.01,0.02l0.01,0.02l0.02,0.02l0.02,0.02l0.01,0.01h0.02l0.02,0.01h0.02l0.02,0.01
			l0.01,0.01l0.02,0.03l0.01,0.03v0.03l-0.01,0.04l-0.02,0.04l-0.04,0.07l-0.03,0.06l-0.02,0.04l-0.02,0.04l-0.02,0.03l-0.01,0.03
			v0.03v0.03l0.01,0.02l0.02,0.02l0.02,0.01l0.04,0.01l0.02,0.01l0.02,0.01l0.02,0.02l0.01,0.03v0.03v0.02l-0.01,0.01l-0.02,0.01
			l-0.03,0.01h-0.03l-0.03,0.01h-0.02h-0.02l-0.02,0.01l-0.02,0.01l-0.02,0.02v0.01v0.02v0.04v0.01l0.01,0.03l0.02,0.02l0.02,0.02
			l0.03,0.03l0.03,0.02l0.02,0.03l0.01,0.03l0.01,0.03v0.04l-0.01,0.03l-0.01,0.03l-0.01,0.03l-0.02,0.02l-0.02,0.03l-0.01,0.03
			l-0.01,0.03v0.02l0.01,0.02l0.01,0.02l0.03,0.03l0.02,0.01l0.05,0.03l0.05,0.02l0.02,0.02l0.01,0.03v0.01l-0.01,0.02l-0.01,0.01
			l-0.02,0.01l-0.01,0.01l-0.02,0.02l-0.01,0.02l-0.01,0.02v0.02v0.03v0.02l0.01,0.03l0.01,0.03l0.03,0.04l0.02,0.02l0.02,0.02
			l0.02,0.01h0.03h0.01l0,0l0.03,0.01h0.02h0.02l0.04-0.01l0.02-0.01l0.01-0.02l0.01-0.03v-0.02v-0.03l0.01-0.03l0.01-0.03
			l0.03-0.02l0.04-0.01l0.02,0.01l0.03,0.03l0.02,0.03l0.02,0.04l0.02,0.04l0.01,0.03l0.01,0.04l-0.01,0.03l-0.01,0.02l-0.02,0.02
			l-0.02,0.02l-0.02,0.01l-0.02,0.02l-0.01,0.01l-0.01,0.01l-0.01,0.02v0.02l0.01,0.03l0.01,0.02l0.02,0.01l0.02,0.01l0.03,0.01
			h0.03l0.03,0.01l0.02,0.01l0.02,0.01l0.02,0.02l0.02,0.01l0.03,0.02h0.03l0.02-0.01l0.02-0.01h0.02h0.03h0.02l0.02,0.01l0.02,0.01
			l0.01,0.02l0.02,0.02l0.01,0.03v0.03l-0.01,0.02l-0.01,0.01l-0.02,0.02l-0.01,0.02l-0.01,0.03v0.03l0.01,0.02l0.01,0.04l0.01,0.04
			v0.02l-0.01,0.02l-0.01,0.02l-0.01,0.02l-0.01,0.02v0.02l0.01,0.02l0.02,0.03l0.01,0.02l0.02,0.03v0.03l-0.01,0.02l-0.01,0.01
			l-0.02,0.02l-0.02,0.02l-0.02,0.01l-0.02,0.02l-0.02,0.01l-0.01,0.01l-0.01,0.02v0.02l0.01,0.03l0.01,0.02l0.03,0.02l0.01,0.01
			l0.04,0.03l0.04,0.02l0.05,0.01h0.03h0.03l0.03-0.01h0.03l0.03,0.01l0,0l0.02,0.01l0.03,0.03l0.01,0.03l0.01,0.02v0.06l-0.01,0.04
			l-0.02,0.03l-0.04,0.03l-0.09,0.05h-0.01l-0.01-0.01l-0.01-0.05l0.01-0.03l0.02-0.04v-0.03l-0.01-0.02l-0.02-0.01h-0.04
			l-0.04,0.02l-0.01,0.03v0.05l0.02,0.07l0.02,0.08l0.01,0.02l0.01,0.02l0.01,0.02l0.01,0.02l0.01,0.03l0.01,0.03v0.03v0.04v0.02
			l-0.02,0.03l-0.03,0.04l-0.02,0.04l-0.01,0.02v0.03v0.03l0.01,0.02l0.02,0.03l0,0l0.02,0.01l0.02,0.01h0.03h0.03l0.04-0.01h0.03
			h0.02h0.01h0.05h0.03l0.04,0.01l0.03,0.02l0.01,0.02l0.01,0.02l0.01,0.03l-0.01,0.02l-0.01,0.01l-0.02,0.01h-0.02l-0.02-0.01
			l-0.02-0.01h-0.03l0,0h-0.01l-0.01,0.01l-0.02,0.02l-0.01,0.02v0.01l-0.01,0.02v0.03l0.01,0.03l0.02,0.03l0.01,0.03l0.01,0.03
			l0.02,0.03l0.01,0.03v0.02v0.03v0.03l0.01,0.04l0.01,0.03l0.01,0.03l0.01,0.03v0.02l-0.01,0.03l-0.01,0.02l-0.02,0.03l-0.02,0.02
			l-0.01,0.02l-0.02,0.02l-0.01,0.02v0.02l0.02,0.04l0.03,0.03l0,0l0.06,0.06l0.01,0.04v0.05l-0.02,0.04l-0.02,0.07l0.01,0.03
			l0.01,0.03l0.01,0.01v0.01l0.02,0.01l0.02,0.01l0.02,0.01l0.03,0.01l0.03,0.01l0.01,0.01l0.02,0.02l0.01,0.02l0.01,0.03v0.03v0.03
			l-0.01,0.03l-0.01,0.02l-0.01,0.03l0.06,0.08v0.03v0.03l0.01,0.04l0.01,0.04l0.03,0.06l0.03,0.03l0.03,0.03l0.03,0.03l0.02,0.02
			l0.01,0.02v0.06l-0.01,0.04l-0.02,0.02l-0.01,0.02l-0.02,0.01h-0.03l-0.03,0.01l-0.02,0.01l-0.01,0.01l-0.01,0.02L329,146.1
			l-0.01,0.03l0.01,0.02l0.01,0.02l0.02,0.03l0.02,0.03v0.03l0.01,0.05l-0.01,0.03l-0.02,0.03v0.03v0.02l0.01,0.03l0.01,0.03
			l0.01,0.02l0.02,0.03l0.01,0.03l0.01,0.02v0.01l-0.02,0.06l-0.03,0.04l-0.13,0.08l-0.05,0.06l-0.03,0.1l0.01,0.07l0.02,0.05
			l0.12,0.05l0.04,0.03l0.05,0.16l0.1,0.06l0.13,0.02l0.1,0.09l0.02,0.05l0.02,0.12l0.09,0.07l0.01,0.03l-0.02,0.07l-0.06,0.05
			l-0.04,0.05v0.03l0.06,0.12v0.03l-0.02,0.08l0.01,0.03l0.03,0.02l0.05,0.01h0.06l0.05-0.01l0.02-0.01h0.04l0.02,0.02l0.01,0.01
			l0.05-0.05l0.01-0.18l0.03-0.02l0.07-0.02l0.05,0.08l0.03,0.02l0.02,0.05l-0.01,0.09l-0.03,0.04l-0.18,0.09l0.02,0.03l0.01,0.03
			v0.03v0.05v0.05l0.01,0.03l0.07,0.05l0.03,0.02l0.04,0.04l0.02,0.03l0.01,0.03l0.01,0.03v0.02v0.03l-0.01,0.02l-0.02,0.06
			l0.01,0.05l0.08,0.14l0.02,0.13l0.07,0.08l0.03,0.08l-0.01,0.04l-0.02,0.02l-0.11,0.06l-0.02,0.05v0.03l0.03,0.02l0.03,0.01
			l0.13-0.06h0.04l0.06,0.02l0.08,0.06l0.1,0.01l0.05,0.04l0.01,0.03l-0.02,0.1v0.03l0.01,0.02l0.01,0.01l0.05,0.02l0.11,0.05
			l0.16-0.01l0.07,0.04l0.03,0.05l0.01,0.04v0.07l-0.05,0.11v0.05l0.02,0.04l0.1,0.1l0.09,0.03l0.04,0.04l0.01,0.1l0.03,0.04
			l0.04,0.03h0.04h0.02h0.02l0.03,0.01l0.01,0.02l0.01,0.02l0.01,0.02v0.03v0.02l-0.01,0.02l-0.02,0.02l-0.03,0.02l-0.01,0.01
			l-0.01,0.02l-0.01,0.02v0.02l0.01,0.03l0.01,0.02v0.02l-0.01,0.02l-0.02,0.02l-0.02,0.02l-0.01,0.02l-0.01,0.03l0.01,0.04
			l0.01,0.03l0.02,0.04l0.02,0.03l0.04,0.03l0.04,0.01l0.03,0.01h0.04l0.05-0.02l0.04-0.02l0.07,0.01l0.07,0.06l0.11,0.04l0.03,0.03
			l0.01,0.04h-0.16l-0.49,0.02h-0.06l-0.47,0.02l-1.18,0.06l-1.05,0.05h-0.05l-1.12,0.05l-1.11,0.04h-0.02l-1.67,0.07l-0.55,0.02
			l-0.41,0.01l-1.64,0.05h-0.17h-0.01l-2.2,0.06h-0.02l-0.53,0.01l-0.31,0.01h-0.18l-1.21,0.02l-1.13,0.02l-0.96,0.02h-0.14
			l-1.33,0.02h-0.33h-0.55h-0.1h-0.41l-1.69,0.01h-0.01h-1.81h-0.9h-0.08l-2.42-0.02h-0.27h-0.08h-0.01l-1.19-0.01l-1.47-0.02h-0.12
			h-0.23h-0.2l-0.66-0.01l-0.38-0.01l-0.77-0.01l-0.41-0.01l-0.92-0.02l0.05-2.21l0.01-0.58l0.04-1.65l0.01-0.33l0.04-1.62
			l-2.76-0.08l-0.16-0.01l-1.61-0.05h-0.07l-1.87-0.07l-0.92-0.04l-2.32-0.09l0.01-0.14l0.11-2.38l0.05-1.09l0.04-0.85v-0.02
			l0.09-1.9v-0.03l0.03-0.55l0.16-3.36l0.1-2.05L289.75,132.41L289.75,132.41z"/>
	</g>
</g>
<g class="st23">
	<path class="st24" d="M419.87,131.35l-0.09-0.19v-0.11l-0.15,0.05l-0.17-0.06v-0.19l-0.47-1.01l-0.34-0.18l-0.38,0.32l-0.1-0.02
		l-0.09-0.16l-0.12,0.05l-0.17,0.86l0.06,0.28l0.05,0.57l-0.14,0.44l0.09,0.07l-0.11,0.21l-0.12-0.02l-0.01,0.01l0.68,1.59
		l-0.68-1.59l-0.06,0.07l-0.07-0.01l-0.04,0.31l0,0l-0.06,0.02l-0.26,0.09l-0.25,0.1l-0.58,0.21l-0.03,0.01l0.21,0.49l0.07,0.46
		l0.1,0.15l-0.1-0.15l-0.07-0.46l-0.21-0.49l-0.03,0.01l-0.98,0.33l-0.2,0.21l-0.22,0.42l0.01,0.09l-0.29,0.44l0.1,0.04l0.01-0.02
		v0.02l0.06,0.02l0.05,0.33l-0.21,0.27l-0.62,0.37l-0.12-0.05l-0.46,0.07l-0.42,0.26l0.02,0.14l0.06,0.05l-0.01-0.01l0.07,0.01l0,0
		l-0.01,0.05l0.04,0.03l-0.08,0.41l-0.34,0.39l0,0l-0.08,0.06l-0.13,0.09l-0.23,0.23l-0.03,0.02l-0.17,0.11l-0.36,0.28l-0.23,0.28
		l-0.18,0.03l-0.34,0.19l-0.19-0.11l-0.56-0.07v-0.01l0.15-0.3l-0.01-0.25l0.17-0.43l0.14,0.08l0.05-0.1l-0.01-0.37l-0.13-0.23
		l-0.19-0.49l-0.16-0.18l-0.08-0.02l-0.3,0.21l0.03,0.04l-0.16,0.3l-0.15-0.03l-0.05-0.31l0.07-0.02l0.14-0.31l0.01-0.55l-0.21-0.47
		l-0.47-0.08l-0.03-0.09l-0.43-0.13l-0.2,0.24l0.02,0.21l-0.15,0.19l0.03,0.29l-0.14,0.1v-0.36l-0.13,0.28l-0.15,0.24l-0.1,0.08
		l0.05,0.26l-0.07,0.27l0.04,0.33l-0.05,0.16l0.34,0.64l0.04,0.25l-0.04,0.46l-0.22,0.51l-0.03,0.02l-0.12,0.1l-0.18,0.08h-0.07
		l-0.08-0.04l-0.03-0.03l0.33,2.3l0,0l-0.33-2.3l-0.05-0.05l-0.12-0.28l-0.1-0.1l-0.04-0.27v-0.01l-0.02-0.07v-0.22l-0.13-0.23
		l-0.03-0.29l0.06-0.33l-0.03-0.25l0.11-0.31l-0.04-0.05l0.01-0.29l0.06-0.22l-0.07-0.07l-0.14,0.05l-0.07,0.2l-0.18,0.1l0.06-0.25
		l0.16-0.21l0.01-0.09l0,0l0,0l0.18-0.53l0.22-0.15l0.17-0.19l0.03,0.17l0.17-0.27l0.42-0.16l0.03-0.07l0.42,0.05l0.16,0.08
		l0.08-0.21l0.07,0.05l0.33-0.05l-0.08-0.13l-0.14-0.08l0.03-0.3l-0.28,0.16l-0.26-0.03l-0.08-0.2l0.03-0.07l-0.35,0.17l-0.23,0.01
		l-0.41,0.25l-0.05,0.09l-0.25-0.06l-0.16,0.07l-0.32-0.28l-0.51-0.15l-0.01,0.03l-0.05-0.05l-0.14-0.04l-0.01-0.08l-0.45,0.43
		l-0.26,0.07l-0.36,0.28l-0.01,0.01l-0.01,0.01l-0.24-0.03l-0.08,0.05l0.03-0.34l-0.38,0.2l-0.47,0.07v-0.01l0,0l0.36-0.38
		l0.42-0.53l0.16-0.11l0.28-0.14l0.29-0.22l-0.2,0.04l-0.12-0.09l-0.45,0.06l-0.07-0.08l-0.4,0.16l-0.32-0.14l-0.09-0.11l-0.26,0.02
		l-0.17-0.09l0.06-0.07l-0.22-0.07h-0.2l-0.31,0.14l-0.06-0.09l-0.49-0.07l-0.17-0.42l-0.02-0.13l-0.21-0.06l0.02,0.36l-0.57,0.04
		l-0.7,0.03h-0.05l0.09,0.33l0.2,1.2l0.09,0.48l0.03,0.42l0.11,0.25l0.02,0.21l0.02,0.07v0.01l-0.19,0.31l0.12,0.21l0.23,1.64
		l0.01,0.21l-0.01-0.21l-0.23-1.64l-0.12-0.21l0.19-0.31v-0.01l-0.02-0.07l-0.02-0.21l-0.11-0.25l-0.03-0.42l-0.09-0.48l-0.2-1.2
		l-0.09-0.33h-0.1l-1.41,0.03h-0.99l-0.85-0.02l-0.99-0.04h-0.05l0,0h-0.09l-1.55-0.1l-1.13-0.11l-1.12-0.13l-0.7-0.09l-1.11-0.17
		l-0.56-0.09l-1.24-0.24l-0.13-0.03l0,0l-0.42-0.08l-0.14-0.03l-0.06-0.01l-0.07-0.01l-1.09-0.26l-0.95-0.24l-1.08-0.3l-0.32-0.08
		l0.07,0.41l-0.07,0.13l-0.13-0.07l0.02,0.1h0.02l-0.02,0.02l0.09,0.44l-0.13,0.19l-0.06,0.17v0.18l-0.28,0.19l-0.03-0.02
		l-0.01,0.01v-0.02l-0.08-0.05l-0.11,0.06l0.11-0.14v-0.03l0.02,0.01l0.08-0.1l-0.05,0.18l0.12-0.13l0.09,0.02l-0.03-0.23l0.06,0.01
		l0.13-0.28l-0.04-0.04l-0.03,0.03v0.02l-0.02,0.01l-0.12,0.15h-0.11l0.12-0.13l0.11-0.03l0.02-0.02l-0.04-0.22l-0.13-0.03
		l-0.07-0.11l-0.08,0.04l-0.43-0.19l-0.38-0.29l-0.1,0.28l-0.01,0.12l0.08,0.21l-0.05,0.7l-0.04,0.11l0.21,0.02l-0.21,0.15
		l0.11,0.06l-0.09,0.3l-0.04-0.23l-0.08,0.27l0.11,0.13l0.12-0.01l0.14,0.08l0.07,0.14h0.08h-0.01l-0.03,0.02l-0.23-0.12l-0.14,0.04
		l-0.09-0.05l-0.1,0.4l-0.07,0.11l-0.29,0.7l-0.08,0.39h-0.05l-0.27,0.64l-0.18,0.28l-0.07,0.05l-0.17,0.33l-0.03,0.35l-0.1,0.31
		l0.06,0.28l0,0l0.74,0.22l-0.74-0.22v0.02l-0.04,0.46l-0.2,0.55l-0.33,0.41l-0.01,0.21l0.16,0.28l0.08,0.37l-0.11,0.3l0.02,0.3
		l-0.06,0.13l0.19,0.42l0.12,0.16l-0.01,0.45l0.29,0.28l0.17-0.28l0.13,0.1l0.12-0.02l-0.07,0.07l-0.05-0.04l-0.13,0.02v0.24
		l0.05,0.3l-0.14-0.14l-0.08-0.18l-0.02,0.25l0.07,0.5l0.26,0.32l-0.17,0.22l0.03,0.28l0.19,0.29l0.33,0.9l0.1,0.06l-0.03,0.62
		l0.05,0.07l0.7,0.25l0.21,0.23l0.07,0.15l0.21,0.12l0.22,0.04l0.09,0.26l0.19,0.09l0.28,0.33l0.26,0.43l-0.02,0.4l0.14,0.19
		l1.91,0.19l0.17-0.01l0.07-0.21l-0.07,0.21l-0.17,0.01l-0.1,0.18l0.34,0.21l0.63,0.35l1.96,1.04l1.66,0.21h0.02l0,0h0.02l0.64,0.06
		l0.06-0.33l0.12-0.09l1.31,0.12h0.01l0,0l0.5,0.5l0.29,0.34l0.38,0.28l0.27,0.49l0.1,0.52l0.22,0.14l0.17,0.19l0.25,0.09l0.36,0.23
		l0.16,0.06l0.22-0.22l0.07-0.24l0.12-0.23l0.36-0.14l0.14,0.07l0.41,0.03l0.37,0.23l0.25,0.05l-0.07,0.13l0.14,0.09l0.14,0.16
		l0.03,0.17l0.09,0.12l0.21,0.49l0.21,0.17l0.16,0.26l0.2,0.21l0.09,0.03l0.07,0.53l0.22,0.12l0.01,0.17l0.06-0.01l0.38,0.47
		l0.19,0.04l0.24,0.14h0.37l0.27,0.15l0.32-0.07l-0.14-0.14l-0.13-0.39l-0.05-0.34l-0.07-0.11l0.03-0.23l-0.1-0.01l-0.13-0.21
		l0.15,0.16l0.17-0.06l0.09-0.25l-0.19-0.25l0.28,0.03l0.13-0.2l-0.02-0.07l0.12-0.15l-0.03,0.14l0.13-0.1l-0.05-0.18l0.17,0.09
		l0.21-0.12l-0.21-0.22l0.13,0.05l0.24,0.01l0.32-0.07l0.35-0.24l0.21-0.18l0.03-0.13l0.13-0.14l-0.07-0.22l0.01-0.14l0.23-0.1
		l-0.02,0.25h0.14l-0.15,0.13l0.62-0.33h0.1l0.07-0.3h0.02l0.07-0.17l0.03-0.53l0.04-0.21l-0.04,0.21l-0.03,0.53l-0.07,0.17h0.01
		l0.01,0.12l-0.08,0.11l0.58-0.07l0.45,0.13l0.32,0.04l0.16-0.12l-0.09-0.12l0.3-0.09l-0.01,0.1l0.15-0.04l0.13,0.2l0.11-0.04
		l0.28,0.19l-0.17,0.06l0.4,0.12h0.15l0.09-0.11l0.19-0.1l0.14,0.2l0.09-0.18l-0.03-0.28l0.25,0.1l0.03,0.08l0.3,0.04l0.15,0.12
		l-0.02,0.1l0.21-0.2l-0.08-0.1l-0.35-0.09l-0.13-0.07v-0.14l0.14,0.02l0.11-0.23l-0.14-0.2l-0.08,0.19l-0.18-0.03l0.13-0.21
		l-0.08-0.02l-0.21,0.14l-0.29,0.02l-0.08-0.07l0.14-0.24h0.16l0.27,0.09l0.2,0.02l0,0l0,0l0,0l0,0l0,0l0.17-0.2l0.36-0.08
		l0.34,0.04l0.05-0.07l0,0l-0.2-1.23l0.2,1.23h0.02l0.21,0.04l0.06-0.42l0.09,0.23l0.16,0.14l0.29-0.17l-0.04,0.16l0.15-0.07
		l0.16-0.14l0.28-0.01l0.32-0.12l0.22,0.03l-0.05,0.08l0.4,0.14l0.35,0.17l0.08,0.19l0.26-0.06l0.61-0.49l0.22,0.01l0.92,0.69
		l0.19-0.04l0.2,0.26l0.04,0.42l-0.06,0.26l0.03,0.13l0.16,0.33l-0.07-0.26h0.21l0.02,0.19l-0.11,0.29l0.39,0.53h0.14l-0.12-0.16
		l0.15,0.02l0.09-0.06l-0.04,0.3l0.2,0.16l0.14,0.36l0.18,0.11l0.23,0.06l0.32,0.41h0.02h-0.01l0.11,0.06l0,0l0,0l0.05,0.02
		l-0.22,0.01l0.1,0.12l0.37-0.12l0.18-0.1l0.15-0.51l-0.01-0.01l0.01-0.02l0.01,0.01l0.02-0.06l-0.08-0.92l-0.02-0.09l-0.45-0.75
		l-0.38-0.54l-0.21-0.44l0.18,0.15l0.04-0.03l0.08,0.39l0.21,0.29l-0.2-0.39l0.01-0.19l-0.6-0.73l-0.14-0.23l-0.19-0.39l-0.13-0.33
		l-0.1-0.12l-0.02-0.15l0,0l0,0l-0.03-0.5l0.06-0.11l-0.03-0.2l0.07-0.19l0.1-0.11l-0.07-0.07l0.16-0.2l0,0l0.05-0.21l-0.15-0.2
		l0.2,0.15l0.11-0.09l-0.19-0.16l0.23-0.01l0.36-0.31l-0.04-0.08l0.22-0.17l-0.02-0.08l0.16-0.1l0.01-0.24l0.26-0.48l0.17-0.22
		l0.02-0.01l0.02-0.01l0.48-0.2v-0.17v-0.01v-0.01v-0.06l0.17-0.31l0.19-0.18l0.39-0.26l0.05-0.09l0.1,0.05l0.05-0.31l-0.06,0.11
		l-0.2,0.07h-0.19l0.23-0.17l-0.07-0.07l0.08-0.17l-0.44-0.07l-0.02-0.02l0.37-0.07l0.12,0.06l0.15-0.01l0.13-0.09l0.09-0.18
		l0.08-0.02l-0.01-0.26l-0.11-0.1l-0.11,0.1l0.02,0.25l-0.08-0.3l-0.06-0.01l-0.46,0.19l0.21-0.2l0.01-0.08l0.21-0.05l0.06-0.16
		l0.14,0.08l-0.15-0.23l-0.11-0.09l-1.87,0.53l-1.19,0.3l-1.2,0.22l0,0l1.2-0.22l1.19-0.3l1.87-0.53l-0.01-0.02v-0.01l0.03,0.03
		h0.01h0.08l-0.01-0.03h-0.01h0.01l-0.01-0.02l-0.02,0.03v0.01h-0.01l0,0l0,0l-0.03-0.16h0.02l0.07,0.14l0,0l0.26,0.43l0.2,0.2
		l-0.44-0.64h-0.01h0.01l-0.02-0.04l-0.19-0.29l-0.24,0.04l-0.11,0.09l-0.1-0.09l-0.35-0.12l-0.24-0.01l0.47-0.04l0.26,0.18
		l0.07-0.12l-0.21-0.27l0.15,0.01l-0.08-0.21l-0.19,0.01l-0.36-0.29l-0.14-0.07h0.06l0.09,0.07l0.48,0.24l-0.04-0.21l0.04-0.07
		l-0.32-0.12l-0.28-0.02l-0.14-0.12l-0.11,0.07l-0.03-0.21l0.27,0.18l0.29,0.01l0.19,0.09l-0.08-0.22l-0.25-0.08l-0.06-0.19
		l0.15,0.21l0.13,0.02l-0.11-0.11l-0.09-0.33l0.02-0.19l-0.1-0.21l0.1-0.08l0.07-0.27l-0.03,0.4l0.08,0.14l0.07-0.16l0.04,0.26
		l-0.08,0.19l0.23,0.08l-0.2,0.07l0.1,0.19l0.17,0.06l0.09-0.16l-0.01,0.23h0.16l0.1,0.12l0,0h0.01l-0.11,0.7l0.04,0.11l0.07-0.29
		l0.12-0.38l0.06-0.25l0,0v-0.01l0.12-0.36v-0.01l-0.02-0.09l0,0v-0.01h0.01h0.01l0.01,0.03v-0.03l-0.01-0.02l-0.11-0.3l-0.55-0.52
		l0.02-0.26l0.02,0.22l0.55,0.19v0.21l0.13-0.18l0.02-0.26l0.13-0.09l-0.05-0.19l0.1-0.23v-0.5l-0.03-0.16h-0.22l0.04-0.15
		l0.04-0.05l-0.04,0.05l0.02-0.07l0.03-0.35l0.03,0.15l0.09-0.02l0.05-0.21l0,0l0.27-0.26l0.14-0.2l0.03,0.06l0.68-0.3l0.01-0.01
		v-0.11l-0.03-0.1l-0.14-0.41l0.14,0.41l0.03,0.1v0.11l0.01-0.01l0.22-0.18l-0.04-0.32l0.09-0.02l0,0l0.03-0.02l0.01-0.07v0.11v0.03
		l0.03,0.08l0.04,0.07l0.03-0.06l0.22-0.27l0.18,0.06l0.04-0.09l0.3-0.16l-0.13-0.25l0.03,0.16l-0.15,0.12l-0.17,0.01l-0.35-0.37
		l-0.15-0.23l0.15-0.16l-0.16-0.01l-0.07-0.15v-0.01v-0.07l0.01-0.12l-0.03,0.01v-0.03l0,0l0.05-0.01l0.01-0.27l0.07-0.09l0.05-0.25
		l-0.04-0.04l0.08-0.24l0.19-0.09c0-0.02,0-0.06,0-0.06v0.03v-0.06l0.08-0.04l0.18-0.21l0.07-0.37l0.28-0.02l-0.02-0.1h-0.01v-0.03
		l0.01,0.01l-0.01-0.06l0.35-0.14l0.02-0.21l0.08,0.02l0.2-0.17v-0.01l0,0l0.02-0.02l0.1-0.25l-0.24-0.24L419.87,131.35z"/>
	<path class="st24" d="M387.31,154.11l-0.55-0.53l-0.3-0.22l-0.23,0.22h-0.14l-0.31-0.21l-0.31-0.01l-0.44-2.77l-0.07-0.13
		l-0.18-0.11l-0.27,0.05l-0.21-0.04l-0.26-0.1l-0.28,0.02l-0.07-0.13l-0.22-0.03l-0.04-0.08l-0.1,0.11l-0.03-0.21l-0.19,0.16
		l-0.12-0.03l-0.27,0.15l-0.05-0.03l-0.31,0.35l-0.31,0.07l0.03,0.17l0.14,0.19l0.26,0.25l-0.04,0.1l0.2,0.08l-0.1,0.02l-0.13-0.1
		l0.07,0.14l-0.08,0.05l-0.27-0.24l-0.21,0.04l-0.36,0.14l0.16,0.18l-0.02,0.11l0.11,0.13l0.35,0.14l0.26-0.13l0.04,0.1l-0.07,0.29
		h-0.21l-0.25,0.11l-0.01-0.08l-0.13,0.05l-0.06,0.14l-0.21,0.16v0.24l0.08,0.04l-0.07,0.2l0.28,0.24l0.18-0.07l-0.04,0.3l0.05,0.07
		l0.21,0.05l0.08,0.09l0.19,0.01l0.09,0.09l0.19-0.06l-0.09,0.12l-0.07,0.25l-0.57,0.37l-0.07,0.07l-0.11-0.04l-0.17,0.04
		l-0.25,0.16l0.39-0.11l0.06,0.08l0.5-0.16l0.01,0.07l0.2-0.2l0.41-0.28l0.03,0.02l0.36-0.28l-0.09-0.11l0.12-0.2l0.32-0.38
		l0.24-0.05l0.07,0.05l-0.29,0.08l-0.08,0.31l0.01,0.17l0.1-0.01l0.49-0.3l0.02-0.05l0,0v-0.01l0,0l0.02-0.05l-0.04-0.17l0.15,0.04
		l0.11-0.07l0.31,0.19l-0.02,0.05l0.7,0.09l0.16-0.05l0.05,0.07l0.61,0.29l0.1-0.06l0.01-0.35l0.08,0.16l0.39,0.28l0.03,0.12
		l0.34,0.19l0.09,0.25l0.08-0.19l0.17,0.34l0.12-0.19l-0.09-0.24L387.31,154.11z M381.83,152.36L381.83,152.36h0.02H381.83z
		 M382.28,154.47L382.28,154.47L382.28,154.47L382.28,154.47z M384.3,153.34l0.01,0.03L384.3,153.34L384.3,153.34z"/>
</g>
<polygon class="st25" points="233.93,153.73 233.9,153.68 233.89,153.65 233.85,153.61 233.82,153.59 233.79,153.59 233.75,153.58 
	233.69,153.56 233.65,153.54 233.63,153.52 233.6,153.5 233.56,153.46 233.54,153.42 233.5,153.38 233.48,153.35 233.46,153.34 
	233.42,153.33 233.39,153.31 233.35,153.3 233.33,153.3 233.29,153.3 233.27,153.31 233.25,153.31 233.21,153.33 233.17,153.34 
	233.16,153.34 233.13,153.35 233.12,153.35 233.1,153.37 233.08,153.37 233.07,153.37 233.05,153.38 233.04,153.38 233.03,153.38 
	233.01,153.38 233,153.38 232.99,153.38 232.96,153.38 232.93,153.38 232.92,153.38 232.88,153.37 232.86,153.35 232.83,153.34 
	232.8,153.33 232.78,153.3 232.75,153.29 232.72,153.26 232.71,153.25 232.69,153.22 232.67,153.2 232.66,153.17 232.65,153.16 
	232.63,153.13 232.61,153.06 232.61,153.04 232.59,153.01 232.59,152.97 232.58,152.95 232.58,152.92 232.58,152.89 232.58,152.88 
	232.58,152.84 232.58,152.82 232.59,152.79 232.61,152.76 232.63,152.72 232.67,152.69 232.71,152.65 232.71,152.63 232.72,152.62 
	232.72,152.59 232.74,152.54 232.72,152.49 232.71,152.45 232.71,152.41 232.7,152.37 232.71,152.32 232.72,152.27 232.75,152.24 
	232.78,152.2 232.83,152.17 232.84,152.16 232.87,152.14 232.89,152.1 232.91,152.04 232.91,152.02 232.92,152.02 232.91,151.99 
	232.91,151.97 232.91,151.94 232.91,151.91 232.89,151.89 232.88,151.85 232.87,151.83 232.84,151.81 232.83,151.79 232.79,151.77 
	232.78,151.76 232.76,151.76 232.74,151.74 232.7,151.74 232.65,151.74 232.59,151.73 232.54,151.72 232.53,151.7 232.5,151.68 
	232.48,151.65 232.45,151.6 232.44,151.57 232.44,151.55 232.42,151.52 232.42,151.49 232.42,151.43 232.42,151.39 232.41,151.34 
	232.38,151.3 232.36,151.26 232.33,151.23 232.31,151.22 232.27,151.19 232.24,151.18 232.17,151.17 232.12,151.14 232.06,151.1 
	231.99,151.02 231.98,151.01 231.95,150.98 231.93,150.94 231.91,150.93 231.89,150.89 231.87,150.87 231.86,150.84 231.85,150.83 
	231.85,150.8 231.83,150.79 231.83,150.76 231.83,150.72 231.83,150.68 231.83,150.64 231.83,150.63 231.85,150.59 231.86,150.55 
	231.89,150.5 231.91,150.46 231.94,150.42 231.95,150.39 231.97,150.37 231.98,150.33 231.98,150.32 231.98,150.3 231.98,150.28 
	231.98,150.24 231.98,150.2 231.98,150.17 231.98,150.15 231.97,150.09 231.95,150.07 231.91,150.01 231.9,149.99 231.87,149.95 
	231.85,149.92 231.8,149.88 231.76,149.87 231.7,149.86 231.64,149.86 231.59,149.86 231.53,149.87 231.43,149.86 231.36,149.84 
	231.34,149.83 231.21,149.74 231.1,149.67 231,149.66 230.98,149.66 230.97,149.63 230.96,149.62 230.94,149.57 230.94,149.52 
	230.96,149.46 230.98,149.4 231,149.36 231.01,149.31 231.01,149.28 231,149.24 230.98,149.2 230.96,149.16 230.92,149.12 
	230.88,149.1 230.85,149.08 230.84,149.08 230.8,149.07 230.77,149.07 230.72,149.07 230.67,149.06 230.66,149.06 230.64,149.06 
	230.6,149.05 230.58,149.03 230.54,149.01 230.51,148.98 230.5,148.97 230.49,148.95 230.46,148.93 230.45,148.91 230.43,148.9 
	230.41,148.89 230.38,148.88 230.36,148.86 230.33,148.85 230.3,148.84 230.29,148.84 230.26,148.84 230.24,148.84 230.21,148.84 
	230.2,148.85 230.17,148.85 230.15,148.86 230.12,148.88 230.07,148.9 229.99,148.94 229.91,148.97 229.88,148.97 229.84,148.97 
	229.81,148.95 229.77,148.94 229.75,148.91 229.74,148.89 229.73,148.86 229.73,148.85 229.73,148.81 229.74,148.76 229.77,148.73 
	229.78,148.71 229.81,148.68 229.84,148.65 229.88,148.64 229.94,148.63 229.96,148.61 230.01,148.6 230.04,148.59 230.07,148.56 
	230.09,148.55 230.12,148.5 230.12,148.51 230.13,148.48 230.13,148.47 230.15,148.46 230.15,148.42 230.15,148.39 230.15,148.35 
	230.13,148.33 230.13,148.3 230.12,148.27 230.12,148.26 230.11,148.25 230.11,148.23 230.09,148.23 230.09,148.22 230.08,148.21 
	230.07,148.18 230.05,148.17 230.05,148.16 230.04,148.16 230.03,148.14 230.03,148.13 230.01,148.12 230,148.12 229.99,148.1 
	229.98,148.09 229.96,148.06 229.95,148.05 229.94,148.02 229.92,148.01 229.91,147.96 229.91,147.95 229.91,147.93 229.91,147.92 
	229.91,147.89 229.91,147.87 229.91,147.85 229.91,147.83 229.91,147.82 229.91,147.76 229.9,147.68 229.86,147.61 229.86,147.59 
	229.84,147.57 229.82,147.54 229.79,147.49 229.78,147.46 229.77,147.42 229.71,147.33 229.69,147.28 229.67,147.23 229.69,147.21 
	229.69,147.17 229.7,147.13 229.7,147.12 229.71,147.1 229.71,147.08 229.74,147.04 229.74,147.03 229.74,147 229.75,146.98 
	229.75,146.96 229.75,146.94 229.75,146.91 229.74,146.89 229.74,146.87 229.74,146.86 229.73,146.83 229.73,146.82 229.71,146.79 
	229.7,146.77 229.69,146.74 229.66,146.72 229.64,146.68 229.62,146.65 229.61,146.62 229.6,146.61 229.58,146.61 229.58,146.6 
	229.56,146.57 229.54,146.56 229.52,146.55 229.49,146.52 229.45,146.49 229.4,146.47 229.37,146.44 229.36,146.44 229.33,146.4 
	229.29,146.38 229.28,146.34 229.26,146.27 229.26,146.24 229.26,146.22 229.26,146.18 229.27,146.17 229.27,146.15 229.27,146.14 
	229.27,146.13 229.27,146.11 229.27,146.1 229.28,146.07 229.28,146.05 229.28,146.02 229.28,146 229.28,145.97 229.28,145.96 
	229.27,145.93 229.27,145.89 229.26,145.88 229.26,145.86 229.24,145.86 229.24,145.85 229.23,145.84 229.22,145.81 229.22,145.8 
	229.23,145.8 229.24,145.8 229.24,145.79 229.27,145.79 229.28,145.77 229.29,145.77 229.31,145.76 229.32,145.76 229.33,145.75 
	229.35,145.75 229.36,145.73 229.37,145.73 229.39,145.73 229.4,145.72 229.41,145.72 229.43,145.72 229.43,145.71 229.44,145.71 
	229.45,145.71 229.48,145.69 229.5,145.68 229.54,145.67 229.56,145.67 229.56,145.66 229.57,145.66 229.58,145.66 229.6,145.66 
	229.6,145.64 229.62,145.64 229.67,145.62 229.69,145.59 229.7,145.56 229.71,145.55 229.74,145.52 229.74,145.51 229.74,145.5 
	229.75,145.46 229.75,145.45 229.77,145.41 229.77,145.39 229.77,145.38 229.77,145.35 229.77,145.34 229.78,145.33 229.78,145.28 
	229.78,145.26 229.78,145.25 229.78,145.24 229.77,145.24 229.77,145.22 229.77,145.21 229.75,145.2 229.74,145.17 229.74,145.14 
	229.71,145.13 229.69,145.11 229.66,145.09 229.65,145.04 229.64,145.03 229.62,144.99 229.61,144.96 229.6,144.95 229.54,144.9 
	229.52,144.9 229.5,144.9 229.46,144.9 229.44,144.9 229.44,144.91 229.41,144.91 229.39,144.92 229.37,144.92 229.33,144.95 
	229.31,144.96 229.29,144.97 229.28,144.99 229.28,145 229.28,145.03 229.28,145.08 229.27,145.13 229.26,145.17 229.26,145.18 
	229.26,145.2 229.24,145.22 229.24,145.24 229.24,145.25 229.24,145.26 229.24,145.28 229.24,145.29 229.26,145.3 229.26,145.31 
	229.27,145.35 229.27,145.37 229.27,145.38 229.27,145.39 229.26,145.42 229.24,145.43 229.24,145.45 229.23,145.45 229.23,145.46 
	229.22,145.46 229.2,145.47 229.19,145.48 229.18,145.48 229.18,145.5 229.16,145.5 229.16,145.51 229.15,145.51 229.14,145.52 
	229.12,145.54 229.11,145.54 229.11,145.52 229.1,145.51 229.09,145.5 229.06,145.47 229.05,145.46 229.03,145.45 229.01,145.45 
	228.98,145.45 228.94,145.45 228.93,145.45 228.92,145.45 228.9,145.46 228.89,145.46 228.88,145.47 228.85,145.48 228.82,145.5 
	228.8,145.5 228.78,145.51 228.77,145.51 228.76,145.51 228.72,145.51 228.69,145.51 228.67,145.51 228.64,145.5 228.63,145.5 
	228.61,145.5 228.59,145.5 228.56,145.48 228.54,145.47 228.47,145.43 228.42,145.39 228.39,145.35 228.39,145.3 228.4,145.25 
	228.42,145.21 228.44,145.16 228.46,145.12 228.46,145.08 228.46,145.05 228.46,145.04 228.44,144.99 228.43,144.97 228.42,144.95 
	228.4,144.92 228.39,144.91 228.37,144.86 228.37,144.84 228.34,144.79 228.34,144.78 228.34,144.76 228.33,144.73 228.34,144.65 
	228.35,144.62 228.39,144.57 228.43,144.54 228.44,144.53 228.51,144.48 228.55,144.44 228.57,144.41 228.6,144.37 228.61,144.36 
	228.61,144.35 228.63,144.32 228.63,144.31 228.63,144.28 228.63,144.24 228.63,144.22 228.61,144.19 228.61,144.18 228.6,144.16 
	228.59,144.14 228.57,144.14 228.55,144.11 228.52,144.08 228.48,144.06 228.44,144.03 228.42,144.01 228.39,143.97 228.38,143.94 
	228.38,143.91 228.38,143.9 228.38,143.89 228.38,143.86 228.38,143.85 228.38,143.84 228.38,143.82 228.38,143.8 228.38,143.74 
	228.37,143.73 228.37,143.7 228.37,143.69 228.37,143.68 228.37,143.67 228.34,143.63 228.33,143.6 228.33,143.59 228.3,143.55 
	228.27,143.51 228.26,143.5 228.26,143.48 228.23,143.46 228.21,143.43 228.18,143.4 228.18,143.39 228.17,143.38 228.14,143.36 
	228.1,143.32 228.08,143.31 228.05,143.3 228.04,143.3 228,143.29 227.97,143.27 227.96,143.27 227.95,143.27 227.92,143.27 
	227.88,143.26 227.87,143.26 227.85,143.26 227.83,143.26 227.82,143.26 227.8,143.26 227.78,143.25 227.76,143.25 227.75,143.23 
	227.72,143.23 227.72,143.22 227.71,143.22 227.68,143.19 227.66,143.19 227.66,143.18 227.63,143.17 227.61,143.15 227.59,143.14 
	227.59,143.13 227.58,143.13 227.57,143.12 227.55,143.1 227.53,143.09 227.51,143.08 227.5,143.05 227.49,143.04 227.49,143.02 
	227.48,143.01 227.48,143 227.48,142.98 227.46,142.96 227.46,142.95 227.46,142.93 227.46,142.92 227.46,142.91 227.46,142.89 
	227.46,142.87 227.46,142.85 227.45,142.84 227.45,142.83 227.45,142.81 227.44,142.78 227.44,142.76 227.42,142.75 227.42,142.72 
	227.41,142.71 227.4,142.68 227.37,142.64 227.34,142.62 227.33,142.6 227.32,142.59 227.3,142.58 227.29,142.58 227.28,142.57 
	227.27,142.57 227.24,142.54 227.21,142.53 227.19,142.53 227.19,142.51 227.16,142.51 227.15,142.51 227.12,142.49 227.11,142.49 
	227.06,142.46 227.03,142.43 227,142.38 226.99,142.33 226.98,142.3 226.96,142.21 226.96,142.19 226.96,142.15 226.99,142.04 
	227.03,141.96 227.04,141.92 227.04,141.91 227.08,141.87 227.11,141.85 227.12,141.83 227.13,141.82 227.15,141.81 227.16,141.79 
	227.17,141.78 227.19,141.77 227.2,141.77 227.21,141.75 227.24,141.74 227.25,141.73 227.27,141.73 227.28,141.71 227.3,141.71 
	227.32,141.7 227.34,141.69 227.36,141.69 227.38,141.68 227.41,141.66 227.42,141.66 227.44,141.65 227.45,141.64 227.46,141.62 
	227.49,141.61 227.5,141.6 227.51,141.58 227.53,141.57 227.54,141.54 227.55,141.53 227.57,141.52 227.58,141.51 227.59,141.48 
	227.59,141.45 227.61,141.44 227.61,141.41 227.61,141.4 227.61,141.39 227.59,141.39 227.4,141.39 227.38,141.39 227.37,141.39 
	227.32,141.39 227.24,141.39 227.23,141.39 227.17,141.39 227.15,141.39 227.12,141.39 227.11,141.39 227.03,141.39 227.02,141.39 
	227.02,141.37 226.99,141.37 226.98,141.37 226.96,141.37 226.95,141.37 226.93,141.37 226.93,141.39 226.91,141.39 226.81,141.39 
	226.77,141.39 226.76,141.39 226.73,141.39 226.69,141.37 226.64,141.39 226.62,141.39 226.6,141.37 226.58,141.39 226.57,141.39 
	226.56,141.39 226.55,141.39 226.52,141.39 226.47,141.39 226.44,141.39 226.41,141.39 226.39,141.39 226.38,141.39 226.35,141.39 
	226.34,141.39 226.32,141.39 226.31,141.39 226.28,141.39 226.24,141.39 226.15,141.39 226.13,141.39 226.1,141.39 226.05,141.39 
	226.01,141.39 225.97,141.39 225.94,141.39 225.92,141.39 225.89,141.39 225.86,141.39 225.84,141.39 225.83,141.39 225.81,141.39 
	225.8,141.39 225.79,141.39 225.76,141.39 225.73,141.39 225.72,141.39 225.71,141.39 225.68,141.39 225.67,141.39 225.66,141.39 
	225.64,141.39 225.58,141.39 225.56,141.39 225.55,141.39 225.54,141.39 225.52,141.39 225.51,141.39 225.5,141.39 225.47,141.39 
	225.46,141.39 225.45,141.39 225.41,141.39 225.39,141.39 225.38,141.39 225.29,141.39 225,141.39 224.94,141.39 224.87,141.39 
	224.86,141.39 224.84,141.39 224.8,141.39 224.79,141.39 224.78,141.39 224.77,141.39 224.75,141.39 224.74,141.39 224.71,141.39 
	224.7,141.39 224.66,141.39 224.65,141.39 224.63,141.39 224.61,141.39 224.6,141.39 224.57,141.39 224.56,141.39 224.54,141.39 
	224.53,141.39 224.5,141.39 224.49,141.39 224.48,141.39 224.45,141.39 224.44,141.39 224.4,141.39 224.39,141.39 224.37,141.39 
	224.35,141.39 224.33,141.39 224.32,141.39 224.31,141.39 224.29,141.39 224.28,141.39 224.27,141.39 224.25,141.39 224.24,141.39 
	224.23,141.39 224.22,141.39 224.2,141.39 223.98,141.39 223.97,141.39 223.93,141.39 223.91,141.39 223.88,141.39 223.84,141.39 
	223.8,141.39 223.77,141.39 223.76,141.39 223.74,141.39 223.72,141.39 223.7,141.39 223.69,141.39 223.57,141.39 223.56,141.39 
	223.52,141.39 223.51,141.39 223.48,141.39 223.47,141.39 223.46,141.39 223.44,141.39 223.43,141.39 223.42,141.39 223.36,141.39 
	223.34,141.39 223.33,141.39 223.3,141.39 223.29,141.39 223.26,141.39 223.25,141.39 223.23,141.39 223.22,141.39 223.21,141.39 
	223.18,141.39 223.16,141.39 223.13,141.39 223.12,141.39 223.1,141.39 223.09,141.39 223.08,141.39 223.05,141.39 223.01,141.39 
	223,141.39 222.98,141.39 222.96,141.39 222.92,141.39 222.85,141.39 222.84,141.39 222.83,141.39 222.81,141.39 222.79,141.39 
	222.74,141.39 222.72,141.39 222.67,141.39 222.66,141.39 222.62,141.39 222.53,141.39 222.51,141.39 222.38,141.39 222.33,141.39 
	222.3,141.39 222.28,141.39 222.24,141.39 222.23,141.39 222.19,141.39 222.17,141.39 222.16,141.39 222.08,141.39 222.07,141.39 
	222.04,141.39 221.94,141.39 221.91,141.39 221.86,141.39 221.85,141.39 221.83,141.39 221.82,141.39 221.7,141.39 221.69,141.39 
	221.68,141.39 221.66,141.39 221.65,141.39 221.64,141.39 221.57,141.39 221.54,141.39 221.53,141.37 221.52,141.37 221.49,141.37 
	221.44,141.37 221.41,141.37 221.4,141.37 221.39,141.37 221.36,141.37 221.34,141.37 221.32,141.37 221.31,141.37 221.3,141.37 
	221.27,141.37 221.23,141.37 221.22,141.37 221.2,141.37 221.19,141.37 221.18,141.37 221.17,141.37 221.14,141.37 221.13,141.37 
	221.11,141.37 221.1,141.37 221.09,141.37 221.07,141.37 221.06,141.37 221.05,141.37 221.03,141.37 221.02,141.37 221.01,141.37 
	221,141.37 220.98,141.37 220.97,141.37 220.96,141.37 220.93,141.37 220.92,141.37 220.9,141.37 220.88,141.37 220.86,141.37 
	220.84,141.37 220.82,141.37 220.81,141.37 220.77,141.37 220.76,141.37 220.75,141.37 220.73,141.37 220.71,141.37 220.69,141.37 
	220.68,141.37 220.67,141.37 220.65,141.37 220.64,141.37 220.62,141.37 220.6,141.37 220.59,141.37 220.55,141.37 220.54,141.37 
	220.52,141.37 220.51,141.37 220.5,141.37 220.47,141.37 220.46,141.37 220.45,141.37 220.43,141.37 220.42,141.37 220.41,141.37 
	220.39,141.37 220.38,141.37 220.35,141.37 220.34,141.37 220.3,141.37 220.29,141.37 220.28,141.37 220.26,141.37 220.25,141.37 
	220.24,141.37 220.22,141.37 220.14,141.37 220.14,141.35 220.14,141.34 220.14,141.32 220.14,141.26 220.14,141.24 220.14,141.22 
	220.14,141.2 220.14,141.19 220.14,141.16 220.14,141.15 220.14,141.14 220.14,141.13 220.14,141.11 220.14,141.09 220.14,140.92 
	220.14,140.9 220.14,140.85 220.14,140.84 220.14,140.8 220.14,140.76 220.14,140.75 220.14,140.71 220.14,140.68 220.14,140.56 
	220.14,140.44 220.14,140.41 220.14,140.39 220.14,140.38 220.14,140.34 220.14,140.33 220.14,140.31 220.14,140.22 220.14,140.21 
	220.14,140.17 220.14,140.05 220.14,140.04 220.14,140.03 220.14,140.01 220.14,139.99 220.14,139.97 220.14,139.92 220.14,139.91 
	220.14,139.88 220.14,139.87 220.14,139.76 220.14,139.75 220.14,139.65 220.14,139.63 220.14,139.62 220.14,139.59 220.14,139.58 
	220.14,139.57 220.14,139.53 220.14,139.52 220.14,139.48 220.14,139.45 220.14,139.42 220.14,139.41 220.16,139.37 220.16,139.36 
	220.16,139.33 220.16,139.31 220.16,139.29 220.16,139.27 220.16,139.25 220.16,139.24 220.16,139.2 220.16,139.19 220.16,139.18 
	220.16,139.08 220.16,139.07 220.16,139.04 220.16,139.03 220.16,138.95 220.16,138.9 220.16,138.85 220.16,138.83 220.16,138.82 
	220.16,138.81 220.16,138.8 220.16,138.78 220.16,138.73 220.16,138.65 220.16,138.64 220.16,138.61 220.16,138.59 220.16,138.57 
	220.16,138.49 220.16,138.46 220.16,138.43 220.16,138.42 220.16,138.39 220.16,138.36 220.16,138.35 220.16,138.32 220.16,138.3 
	220.16,138.23 220.16,138.18 220.16,138.14 220.16,138 220.16,137.98 220.16,137.97 220.16,137.93 220.16,137.92 220.16,137.76 
	220.16,137.71 220.16,137.7 220.16,137.68 220.18,137.68 220.25,137.68 220.28,137.68 220.3,137.68 220.33,137.7 220.39,137.7 
	220.45,137.7 220.46,137.7 220.52,137.7 220.54,137.7 220.55,137.7 220.62,137.7 220.63,137.7 220.68,137.7 220.84,137.7 
	220.93,137.7 220.94,137.7 221.05,137.71 221.06,137.71 221.07,137.71 221.18,137.71 221.19,137.71 221.2,137.71 221.23,137.71 
	221.24,137.71 221.26,137.71 221.27,137.71 221.28,137.71 221.37,137.71 221.44,137.71 221.45,137.71 221.51,137.71 221.51,137.68 
	221.51,137.67 221.51,137.62 221.51,137.59 221.51,137.58 221.51,137.56 221.51,137.55 221.51,137.51 221.51,137.5 221.51,137.49 
	221.52,137.47 221.52,137.37 221.52,137.36 221.52,137.33 221.52,137.32 221.52,137.3 221.52,137.26 221.52,137.24 221.53,137.24 
	221.56,137.24 221.65,137.24 221.66,137.24 221.7,137.24 221.72,137.24 221.79,137.24 221.82,137.24 221.83,137.24 221.85,137.24 
	221.87,137.24 221.86,137.21 221.86,137.2 221.85,137.19 221.83,137.16 221.83,137.13 221.82,137.11 221.82,137.09 221.82,137.07 
	221.81,137.05 221.81,137.04 221.81,137.03 221.81,137.02 221.79,137 221.79,136.99 221.79,136.98 221.78,136.98 221.78,136.96 
	221.78,136.95 221.77,136.94 221.75,136.91 221.75,136.9 221.74,136.88 221.74,136.87 221.73,136.86 221.73,136.84 221.72,136.83 
	221.7,136.81 221.69,136.79 221.69,136.78 221.68,136.77 221.66,136.74 221.65,136.73 221.65,136.71 221.64,136.69 221.64,136.67 
	221.64,136.65 221.62,136.64 221.62,136.62 221.64,136.61 221.64,136.6 221.64,136.58 221.64,136.57 221.64,136.56 221.64,136.54 
	221.64,136.53 221.64,136.52 221.64,136.5 221.64,136.49 221.65,136.48 221.65,136.47 221.66,136.45 221.66,136.44 221.68,136.43 
	221.68,136.41 221.69,136.4 221.69,136.39 221.72,136.36 221.73,136.35 221.74,136.35 221.74,136.33 221.75,136.33 221.77,136.32 
	221.78,136.31 221.79,136.3 221.81,136.28 221.82,136.27 221.85,136.27 221.85,136.26 221.86,136.26 221.87,136.24 221.89,136.23 
	221.9,136.23 221.91,136.22 221.91,136.2 221.92,136.19 221.94,136.18 221.95,136.16 221.95,136.15 221.96,136.15 221.96,136.14 
	221.96,136.12 221.98,136.12 221.96,136.11 221.96,136.1 221.95,136.1 221.95,136.09 221.95,136.07 221.95,136.06 221.95,136.05 
	221.94,136.03 221.94,136.02 221.92,136.01 221.92,135.99 221.91,135.99 221.91,135.98 221.91,135.97 221.91,135.95 221.9,135.95 
	221.9,135.94 221.89,135.93 221.89,135.92 221.87,135.9 221.87,135.89 221.87,135.88 221.87,135.86 221.86,135.85 221.87,135.85 
	221.87,135.84 221.87,135.82 221.87,135.81 221.87,135.8 221.87,135.78 221.87,135.77 221.87,135.76 221.89,135.76 221.89,135.75 
	221.9,135.73 221.9,135.72 221.9,135.71 221.91,135.69 221.91,135.68 221.91,135.67 221.91,135.65 221.91,135.64 221.91,135.63 
	221.91,135.61 221.91,135.6 221.91,135.59 221.91,135.58 221.9,135.58 221.9,135.56 221.9,135.55 221.9,135.54 221.89,135.54 
	221.89,135.52 221.89,135.51 221.89,135.5 221.89,135.48 221.87,135.48 221.87,135.47 221.87,135.46 221.87,135.44 221.87,135.43 
	221.86,135.4 221.86,135.38 221.85,135.3 221.85,135.29 221.85,135.27 221.85,135.25 221.85,135.23 221.85,135.22 221.85,135.21 
	221.85,135.18 221.85,135.17 221.85,135.16 221.85,135.14 221.85,135.13 221.83,135.1 221.83,135.09 221.83,135.08 221.83,135.05 
	221.82,135.04 221.82,135.03 221.82,135.01 221.82,135 221.81,135 221.78,134.93 221.77,134.92 221.75,134.91 221.75,134.89 
	221.74,134.87 221.73,134.86 221.72,134.84 221.72,134.83 221.69,134.83 221.69,134.82 221.68,134.8 221.66,134.8 221.65,134.79 
	221.64,134.79 221.61,134.78 221.6,134.76 221.58,134.76 221.57,134.75 221.56,134.75 221.54,134.74 221.53,134.72 221.52,134.71 
	221.51,134.71 221.49,134.7 221.48,134.68 221.48,134.67 221.47,134.67 221.47,134.66 221.45,134.65 221.44,134.61 221.44,134.59 
	221.44,134.58 221.43,134.57 221.43,134.55 221.41,134.53 221.4,134.53 221.4,134.51 221.39,134.49 221.39,134.48 221.39,134.46 
	221.37,134.46 221.37,134.45 221.37,134.44 221.37,134.42 221.37,134.41 221.36,134.38 221.36,134.37 221.36,134.36 221.36,134.33 
	221.35,134.31 221.35,134.29 221.35,134.28 221.34,134.27 221.34,134.24 221.34,134.23 221.34,134.21 221.34,134.2 221.35,134.19 
	221.35,134.17 221.35,134.16 221.36,134.16 221.36,134.15 221.37,134.12 221.39,134.1 221.39,134.08 221.4,134.08 221.41,134.06 
	221.41,134.04 221.41,134.03 221.43,133.99 221.47,133.95 221.49,133.91 221.49,133.9 221.51,133.89 221.52,133.86 221.52,133.85 
	221.52,133.83 221.52,133.81 221.52,133.79 221.52,133.78 221.52,133.77 221.51,133.74 221.45,133.61 221.44,133.59 221.41,133.55 
	221.4,133.49 221.36,133.44 221.35,133.41 221.34,133.4 221.32,133.38 221.32,133.36 221.31,133.35 221.3,133.34 221.28,133.32 
	221.27,133.31 221.26,133.3 221.26,133.28 221.24,133.28 221.24,133.27 221.23,133.26 221.22,133.26 221.22,133.24 221.19,133.21 
	221.18,133.21 221.17,133.19 221.15,133.19 221.15,133.18 221.14,133.18 221.13,133.17 221.11,133.17 221.1,133.17 221.1,133.15 
	221.09,133.15 221.07,133.15 221.06,133.15 221.06,133.14 221.05,133.14 221.02,133.11 221,133.09 220.98,133.07 220.97,133.06 
	220.96,133.05 220.94,133.04 220.93,133.04 220.9,133.01 220.89,133.01 220.88,133 220.86,132.97 220.84,132.96 220.84,132.94 
	220.82,132.93 220.82,132.92 220.82,132.9 220.82,132.89 220.82,132.88 220.81,132.87 220.82,132.87 220.82,132.85 220.84,132.85 
	220.84,132.84 220.84,132.83 220.84,132.81 220.85,132.79 220.85,132.77 220.85,132.75 220.85,132.73 220.85,132.72 220.85,132.71 
	220.85,132.68 220.85,132.64 220.85,132.62 220.85,132.6 220.84,132.58 220.84,132.56 220.84,132.55 220.84,132.54 220.82,132.52 
	220.81,132.49 220.81,132.47 220.8,132.45 220.8,132.43 220.8,132.42 220.79,132.42 220.79,132.41 220.79,132.39 220.79,132.38 
	220.79,132.37 220.77,132.34 220.77,132.33 220.76,132.32 220.76,132.29 220.75,132.29 220.75,132.28 220.75,132.26 220.73,132.26 
	220.73,132.24 220.72,132.22 220.71,132.2 220.69,132.18 220.69,132.17 220.68,132.17 220.68,132.16 220.67,132.15 220.65,132.15 
	220.65,132.13 220.64,132.13 220.63,132.13 220.62,132.12 220.59,132.12 220.58,132.11 220.56,132.11 220.55,132.09 220.52,132.09 
	220.5,132.08 220.48,132.08 220.47,132.07 220.45,132.05 220.43,132.04 220.41,132.03 220.41,132.01 220.39,132.01 220.37,132 
	220.35,131.99 220.34,131.99 220.33,131.97 220.31,131.96 220.3,131.95 220.29,131.95 220.29,131.94 220.28,131.94 220.26,131.92 
	220.25,131.92 220.24,131.91 220.24,131.9 220.22,131.88 220.22,131.87 220.21,131.87 220.21,131.86 220.2,131.84 220.18,131.84 
	220.18,131.83 220.18,131.82 220.17,131.8 220.16,131.79 220.16,131.78 220.14,131.77 220.13,131.74 220.12,131.74 220.12,131.73 
	220.12,131.71 220.1,131.7 220.09,131.7 220.08,131.7 220.07,131.7 220.04,131.7 220.03,131.7 220.01,131.7 219.99,131.7 
	219.96,131.7 219.95,131.7 219.93,131.7 219.92,131.7 219.91,131.7 219.9,131.7 219.9,131.69 219.88,131.69 219.88,131.67 
	219.87,131.67 219.87,131.66 219.87,131.65 219.86,131.63 219.84,131.65 219.84,131.66 219.83,131.67 219.82,131.69 219.8,131.69 
	219.78,131.67 219.76,131.66 219.75,131.66 219.74,131.65 219.73,131.65 219.71,131.65 219.7,131.63 219.69,131.61 219.69,131.6 
	219.67,131.6 219.67,131.58 219.67,131.57 219.66,131.56 219.66,131.54 219.66,131.53 219.65,131.53 219.65,131.52 219.63,131.52 
	219.63,131.5 219.61,131.49 219.59,131.49 219.58,131.49 219.57,131.48 219.56,131.48 219.54,131.46 219.53,131.46 219.52,131.45 
	219.52,131.44 219.5,131.44 219.49,131.43 219.48,131.41 219.46,131.41 219.45,131.4 219.44,131.39 219.42,131.37 219.41,131.37 
	219.41,131.36 219.4,131.36 219.4,131.35 219.38,131.35 219.38,131.33 219.37,131.33 219.36,131.32 219.33,131.31 219.31,131.29 
	219.29,131.28 219.28,131.27 219.25,131.24 219.24,131.24 219.24,131.23 219.23,131.23 219.21,131.23 219.2,131.23 219.2,131.22 
	219.19,131.22 219.18,131.22 219.18,131.2 219.12,131.16 219.11,131.15 219.1,131.14 219.08,131.14 219.07,131.12 219.07,131.11 
	219.06,131.11 219.04,131.11 219.04,131.1 219.03,131.1 219.02,131.1 219.01,131.08 218.97,131.07 218.95,131.06 218.94,131.06 
	218.93,131.06 218.91,131.06 218.9,131.06 218.87,131.05 218.86,131.05 218.85,131.05 218.84,131.05 218.82,131.05 218.81,131.05 
	218.8,131.05 218.78,131.05 218.74,131.05 218.73,131.05 218.72,131.05 218.69,131.05 218.68,131.05 218.66,131.05 218.65,131.05 
	218.64,131.05 218.63,131.05 218.61,131.03 218.6,131.05 218.59,131.05 218.57,131.05 218.56,131.03 218.55,131.03 218.53,131.03 
	218.53,131.05 218.52,131.05 218.52,131.06 218.51,131.06 218.49,131.06 218.48,131.06 218.47,131.06 218.46,131.06 218.46,131.05 
	218.44,131.05 218.43,131.05 218.4,131.03 218.38,131.03 218.3,131.03 218.22,131.03 218.21,131.03 218.19,131.03 218.18,131.03 
	218.18,131.02 218.17,131.02 218.17,131.01 218.15,131.01 218.14,131.01 218.13,131.01 218.12,131.01 218.1,131.01 218.09,131.02 
	218.08,131.02 218.06,131.02 218.05,131.02 218.05,131.03 218.04,131.03 218.04,131.05 218.02,131.05 218.01,131.05 218.01,131.06 
	218,131.06 217.98,131.06 217.98,131.07 217.97,131.07 217.97,131.08 217.96,131.08 217.96,131.1 217.94,131.1 217.93,131.1 
	217.93,131.11 217.92,131.11 217.92,131.12 217.91,131.12 217.89,131.12 217.88,131.12 217.87,131.12 217.87,131.14 217.85,131.14 
	217.84,131.14 217.83,131.14 217.81,131.14 217.81,131.15 217.8,131.15 217.79,131.15 217.77,131.15 217.76,131.15 217.76,131.16 
	217.75,131.16 217.74,131.16 217.72,131.16 217.71,131.16 217.7,131.16 217.68,131.16 217.67,131.16 217.64,131.16 217.63,131.16 
	217.62,131.16 217.6,131.16 217.59,131.16 217.58,131.16 217.57,131.16 217.55,131.16 217.54,131.16 217.53,131.16 217.51,131.16 
	217.51,131.18 217.5,131.18 217.5,131.16 217.49,131.16 217.47,131.16 217.46,131.16 217.46,131.15 217.45,131.15 217.45,131.14 
	217.43,131.14 217.42,131.14 217.42,131.12 217.41,131.12 217.41,131.11 217.4,131.11 217.38,131.11 217.38,131.1 217.37,131.1 
	217.37,131.11 217.36,131.11 217.34,131.11 217.33,131.11 217.33,131.1 217.32,131.1 217.3,131.1 217.29,131.08 217.28,131.07 
	217.26,131.07 217.26,131.06 217.25,131.06 217.25,131.05 217.24,131.05 217.24,131.03 217.22,131.03 217.22,131.02 217.21,131.02 
	217.21,131.01 217.2,131.01 217.2,130.99 217.19,130.99 217.19,130.98 217.17,130.98 217.16,130.98 217.16,130.97 217.15,130.97 
	217.15,130.95 217.13,130.95 217.12,130.94 217.11,130.93 217.09,130.91 217.08,130.9 217.07,130.89 217.07,130.88 217.05,130.88 
	217.05,130.86 217.04,130.86 217.03,130.85 217.02,130.85 217,130.85 217,130.84 216.99,130.84 216.98,130.84 216.98,130.82 
	216.96,130.82 216.95,130.82 216.94,130.82 216.94,130.81 216.92,130.81 216.91,130.81 216.9,130.8 216.88,130.8 216.87,130.8 
	216.87,130.78 216.86,130.78 216.85,130.78 216.83,130.78 216.82,130.78 216.81,130.78 216.79,130.78 216.78,130.78 216.77,130.78 
	216.75,130.78 216.74,130.78 216.73,130.78 216.71,130.78 216.7,130.78 216.69,130.78 216.68,130.78 216.66,130.78 216.65,130.78 
	216.64,130.78 216.62,130.78 216.61,130.78 216.6,130.78 216.58,130.78 216.57,130.78 216.57,130.77 216.56,130.77 216.54,130.77 
	216.54,130.78 216.53,130.78 216.52,130.78 216.5,130.8 216.49,130.8 216.48,130.8 216.47,130.8 216.47,130.81 216.45,130.81 
	216.44,130.81 216.44,130.82 216.43,130.82 216.41,130.84 216.4,130.84 216.39,130.84 216.39,130.85 216.37,130.85 216.37,130.86 
	216.36,130.86 216.35,130.86 216.33,130.86 216.32,130.86 216.31,130.86 216.31,130.88 216.3,130.88 216.3,130.86 216.28,130.86 
	216.27,130.86 216.26,130.86 216.24,130.88 216.23,130.88 216.22,130.89 216.2,130.89 216.19,130.9 216.18,130.9 216.16,130.91 
	216.15,130.91 216.13,130.93 216.11,130.93 216.1,130.94 216.09,130.94 216.07,130.94 216.06,130.94 216.05,130.94 216.03,130.93 
	216.02,130.93 216.01,130.93 215.99,130.93 215.99,130.91 215.98,130.91 215.97,130.91 215.96,130.9 215.94,130.9 215.93,130.89 
	215.92,130.89 215.92,130.88 215.9,130.88 215.89,130.88 215.88,130.88 215.88,130.86 215.86,130.86 215.85,130.86 215.85,130.85 
	215.85,130.84 215.84,130.84 215.82,130.84 215.81,130.84 215.8,130.84 215.78,130.84 215.77,130.84 215.77,130.85 215.76,130.85 
	215.75,130.85 215.73,130.85 215.72,130.85 215.71,130.84 215.69,130.84 215.69,130.85 215.68,130.85 215.67,130.85 215.65,130.85 
	215.61,130.85 215.6,130.84 215.59,130.84 215.59,130.82 215.58,130.81 215.56,130.8 215.55,130.8 215.54,130.78 215.52,130.78 
	215.51,130.78 215.5,130.78 215.5,130.77 215.48,130.77 215.46,130.77 215.44,130.77 215.43,130.77 215.42,130.77 215.39,130.77 
	215.37,130.76 215.35,130.76 215.34,130.74 215.33,130.74 215.31,130.74 215.3,130.74 215.29,130.74 215.29,130.73 215.27,130.73 
	215.26,130.73 215.26,130.72 215.25,130.72 215.24,130.72 215.22,130.72 215.21,130.72 215.2,130.72 215.2,130.71 215.18,130.71 
	215.18,130.72 215.17,130.72 215.16,130.72 215.14,130.72 215.13,130.72 215.12,130.72 215.1,130.72 215.1,130.71 215,130.71 
	215,130.69 215,130.68 215,130.67 214.99,130.67 214.97,130.67 214.92,130.67 214.91,130.67 214.83,130.67 214.82,130.67 
	214.79,130.67 214.75,130.68 214.74,130.69 214.72,130.71 214.69,130.72 214.65,130.73 214.59,130.76 214.58,130.77 214.55,130.78 
	214.54,130.8 214.53,130.81 214.49,130.82 214.42,130.86 214.34,130.89 214.32,130.89 214.31,130.89 214.27,130.91 214.25,130.93 
	214.21,130.95 214.2,130.95 214.16,130.99 214.15,131.01 214.12,131.02 214.11,131.03 214.1,131.05 214.08,131.06 214.06,131.07 
	214.03,131.1 214,131.11 213.98,131.12 213.98,131.15 213.95,131.16 213.95,131.19 213.94,131.19 213.91,131.22 213.9,131.23 
	213.83,131.25 213.82,131.28 213.77,131.29 213.73,131.31 213.72,131.32 213.7,131.32 213.69,131.32 213.66,131.33 213.64,131.33 
	213.61,131.33 213.59,131.33 213.56,131.33 213.53,131.33 213.51,131.33 213.47,131.33 213.45,131.33 213.43,131.33 213.36,131.35 
	213.22,131.33 213.19,131.36 213.18,131.36 213.17,131.37 213.14,131.39 213.11,131.4 213.09,131.41 213.08,131.43 213.08,131.44 
	213.06,131.44 213.04,131.45 213.01,131.46 212.98,131.49 212.94,131.52 212.93,131.53 212.92,131.53 212.89,131.58 212.88,131.58 
	212.85,131.6 212.84,131.61 212.84,131.62 212.83,131.62 212.81,131.63 212.81,131.65 212.79,131.65 212.76,131.66 212.75,131.66 
	212.73,131.67 212.72,131.67 212.7,131.69 212.68,131.7 212.67,131.7 212.64,131.71 212.63,131.73 212.58,131.73 212.56,131.73 
	212.56,131.71 212.54,131.71 212.53,131.71 212.51,131.71 212.49,131.71 212.46,131.73 212.42,131.73 212.39,131.74 212.36,131.75 
	212.34,131.75 212.3,131.78 212.26,131.79 212.24,131.79 212.24,131.8 212.21,131.8 212.2,131.8 212.17,131.8 212.15,131.8 
	212.12,131.8 212.07,131.8 212,131.82 211.99,131.82 211.98,131.83 211.81,131.88 211.78,131.88 211.75,131.87 211.73,131.87 
	211.71,131.86 211.69,131.86 211.61,131.79 211.56,131.75 211.53,131.74 211.49,131.74 211.46,131.74 211.45,131.74 211.36,131.75 
	211.35,131.75 211.27,131.77 211.22,131.78 211.18,131.78 211.11,131.78 211.05,131.77 210.94,131.77 210.91,131.77 210.9,131.77 
	210.89,131.75 210.88,131.75 210.85,131.74 210.82,131.74 210.81,131.73 210.8,131.73 210.78,131.71 210.77,131.7 210.77,131.69 
	210.74,131.67 210.72,131.65 210.69,131.62 210.68,131.61 210.67,131.6 210.67,131.58 210.65,131.57 210.63,131.56 210.61,131.54 
	210.59,131.53 210.57,131.52 210.55,131.52 210.54,131.5 210.51,131.5 210.5,131.49 210.48,131.49 210.46,131.49 210.44,131.49 
	210.38,131.49 210.33,131.49 210.3,131.49 210.29,131.49 210.26,131.49 210.23,131.5 210.21,131.5 210.19,131.5 210.19,131.52 
	210.17,131.53 210.13,131.54 210.12,131.54 210.06,131.56 210.06,131.57 210.04,131.57 210.02,131.58 210,131.6 209.99,131.6 
	209.99,131.61 209.97,131.61 209.96,131.61 209.95,131.61 209.92,131.62 209.92,131.63 209.91,131.63 209.89,131.63 209.88,131.63 
	209.87,131.63 209.85,131.63 209.84,131.63 209.83,131.62 209.82,131.62 209.8,131.62 209.79,131.61 209.78,131.61 209.76,131.6 
	209.75,131.6 209.74,131.6 209.72,131.58 209.71,131.57 209.7,131.57 209.68,131.57 209.67,131.56 209.66,131.56 209.65,131.56 
	209.63,131.56 209.63,131.54 209.62,131.54 209.59,131.53 209.58,131.53 209.57,131.53 209.55,131.53 209.55,131.54 209.54,131.54 
	209.54,131.56 209.53,131.56 209.51,131.57 209.5,131.57 209.49,131.57 209.46,131.57 209.45,131.57 209.45,131.58 209.41,131.58 
	209.38,131.6 209.36,131.6 209.34,131.6 209.34,131.61 209.33,131.62 209.33,131.63 209.32,131.65 209.3,131.65 209.29,131.67 
	209.27,131.69 209.25,131.7 209.24,131.71 209.21,131.73 209.2,131.73 209.19,131.73 209.17,131.74 209.15,131.74 209.13,131.74 
	209.12,131.75 209.11,131.75 209.08,131.77 209.06,131.77 209.02,131.78 208.98,131.79 208.96,131.79 208.95,131.79 208.95,131.8 
	208.93,131.8 208.9,131.82 208.89,131.82 208.87,131.83 208.87,131.84 208.85,131.86 208.82,131.86 208.81,131.86 208.78,131.86 
	208.75,131.87 208.74,131.87 208.73,131.88 208.7,131.9 208.69,131.91 208.66,131.92 208.65,131.92 208.65,131.94 208.62,131.95 
	208.61,131.95 208.61,131.96 208.58,131.97 208.56,131.97 208.53,131.99 208.52,131.99 208.48,131.99 208.47,131.99 208.45,131.99 
	208.44,131.99 208.43,132 208.41,132 208.4,132 208.39,132 208.35,132.01 208.34,132.01 208.32,132.01 208.3,132.01 208.28,132.03 
	208.27,132.03 208.26,132.03 208.24,132.01 208.22,132.03 208.21,132.03 208.18,132.03 208.15,132.03 208.13,132.03 208.1,132.01 
	208.09,132.01 208.06,132.01 208.05,132.01 208.02,132.01 208.01,132.01 207.98,132.03 207.97,132.03 207.94,132.03 207.89,132.04 
	207.88,132.04 207.86,132.04 207.84,132.04 207.83,132.04 207.8,132.05 207.79,132.07 207.77,132.07 207.75,132.07 207.73,132.07 
	207.72,132.07 207.71,132.08 207.69,132.08 207.68,132.09 207.67,132.12 207.66,132.12 207.66,132.13 207.63,132.13 207.6,132.16 
	207.59,132.17 207.58,132.17 207.58,132.18 207.54,132.2 207.52,132.21 207.5,132.22 207.49,132.22 207.47,132.24 207.45,132.26 
	207.43,132.28 207.42,132.28 207.39,132.29 207.38,132.3 207.37,132.32 207.33,132.34 207.31,132.35 207.29,132.37 207.26,132.38 
	207.25,132.39 207.24,132.39 207.21,132.42 207.18,132.43 207.16,132.45 207.13,132.46 207.11,132.46 207.09,132.47 207.08,132.47 
	207.04,132.49 207.03,132.49 207.01,132.49 207,132.5 206.99,132.5 206.97,132.5 206.96,132.5 206.95,132.5 206.94,132.5 
	206.92,132.5 206.91,132.5 206.88,132.5 206.87,132.5 206.86,132.5 206.84,132.5 206.83,132.5 206.83,132.51 206.83,132.54 
	206.83,132.56 206.83,132.58 206.83,132.59 206.83,132.67 206.83,132.76 206.82,132.77 206.8,132.77 206.79,132.79 206.78,132.8 
	206.77,132.8 206.75,132.81 206.74,132.83 206.73,132.83 206.71,132.83 206.7,132.83 206.69,132.81 206.67,132.81 206.66,132.81 
	206.66,132.83 206.65,132.84 206.59,132.85 206.57,132.87 206.48,132.9 206.46,132.9 206.44,132.92 206.4,132.93 206.37,132.93 
	206.36,132.93 206.35,132.93 206.33,132.93 206.32,132.93 206.31,132.93 206.31,132.92 206.31,132.89 206.29,132.88 206.27,132.89 
	206.22,132.9 206.2,132.9 206.18,132.92 206.16,132.93 206.15,132.93 206.14,132.93 206.11,132.94 206.11,132.96 206.12,132.98 
	206.14,133 206.11,133.01 206.08,133.05 206.03,133.1 206.02,133.07 206.01,133.07 206.01,133.06 205.99,133.06 205.99,133.05 
	205.98,133.06 205.97,133.07 205.94,133.09 205.93,133.1 205.91,133.11 205.9,133.11 205.89,133.13 205.87,133.13 205.86,133.14 
	205.85,133.15 205.84,133.15 205.82,133.17 205.82,133.18 205.81,133.18 205.81,133.19 205.8,133.21 205.78,133.21 205.78,133.22 
	205.76,133.23 205.74,133.24 205.73,133.26 205.72,133.27 205.69,133.3 205.68,133.31 205.67,133.32 205.65,133.34 205.64,133.36 
	205.63,133.38 205.6,133.39 205.57,133.41 205.56,133.43 205.55,133.45 205.52,133.48 205.51,133.49 205.48,133.52 205.47,133.53 
	205.46,133.55 205.44,133.56 205.43,133.57 205.42,133.57 205.42,133.59 205.4,133.6 205.35,133.64 205.34,133.65 205.31,133.66 
	205.3,133.68 205.29,133.68 205.27,133.69 205.26,133.7 205.25,133.72 205.23,133.72 205.22,133.73 205.21,133.73 205.21,133.74 
	205.18,133.76 205.17,133.76 205.17,133.77 205.15,133.78 205.14,133.78 205.13,133.79 205.12,133.81 205.1,133.81 205.08,133.81 
	205.06,133.81 205.05,133.82 205.04,133.82 205.01,133.85 205,133.87 204.98,133.89 204.98,133.9 204.95,133.93 204.93,133.94 
	204.88,133.98 204.85,134 204.85,134.02 204.83,134.03 204.8,134.07 204.8,134.08 204.75,134.13 204.75,134.16 204.74,134.17 
	204.72,134.19 204.71,134.2 204.7,134.23 204.68,134.25 204.67,134.28 204.66,134.29 204.64,134.32 204.63,134.32 204.63,134.33 
	204.62,134.34 204.62,134.36 204.58,134.41 204.57,134.42 204.55,134.44 204.55,134.45 204.54,134.46 204.53,134.49 204.47,134.53 
	204.45,134.55 204.42,134.57 204.41,134.58 204.4,134.59 204.37,134.62 204.36,134.62 204.36,134.63 204.37,134.65 204.38,134.66 
	204.38,134.67 204.41,134.68 204.4,134.7 204.38,134.7 204.38,134.71 204.37,134.71 204.36,134.71 204.36,134.72 204.34,134.74 
	204.33,134.75 204.32,134.76 204.3,134.79 204.29,134.79 204.29,134.8 204.28,134.8 204.28,134.82 204.21,134.86 204.17,134.89 
	204.16,134.89 204.15,134.91 204.13,134.92 204.13,134.93 204.12,134.93 204.11,134.93 204.07,134.96 204.07,134.99 204.07,135.01 
	204.07,135.03 204.07,135.08 204.07,135.17 204.07,135.2 204.07,135.21 204.07,135.25 204.07,135.29 204.07,135.3 204.07,135.35 
	204.07,135.39 204.07,135.4 204.06,135.56 204.06,135.63 204.06,135.64 204.06,135.65 204.06,135.67 204.06,135.68 204.06,135.81 
	204.06,135.85 204.06,135.86 204.06,135.88 204.06,135.89 204.06,136.03 204.06,136.07 204.06,136.09 204.06,136.1 204.06,136.15 
	204.06,136.23 204.06,136.26 204.06,136.32 204.06,136.37 204.06,136.39 204.04,136.4 204.04,136.41 204.04,136.43 204.04,136.45 
	204.04,136.47 204.04,136.49 204.04,136.5 204.04,136.52 204.04,136.53 204.04,136.54 204.04,136.56 204.04,136.58 204.04,136.64 
	204.04,136.66 204.04,136.69 204.04,136.71 204.04,136.78 204.04,136.81 204.04,136.82 204.04,136.86 204.04,136.87 204.04,136.88 
	204.04,136.9 204.04,136.95 204.04,136.99 204.04,137 204.06,137 204.06,137.03 204.06,137.07 204.06,137.11 204.06,137.15 
	204.06,137.21 204.06,137.24 204.06,137.25 204.06,137.26 204.06,137.28 204.06,137.29 204.06,137.3 204.06,137.32 204.06,137.34 
	204.06,137.39 204.06,137.43 204.04,137.47 204.04,137.49 204.04,137.58 204.04,137.62 204.04,137.7 204.04,137.72 204.04,137.75 
	204.04,137.8 204.04,137.81 204.04,137.85 204.04,137.88 204.04,137.93 204.04,137.98 204.04,138 204.04,138.02 204.04,138.06 
	204.04,138.09 204.03,138.17 204.03,138.23 204.03,138.27 204.03,138.31 204.03,138.34 204.03,138.35 204.03,138.39 204.03,138.42 
	204.03,138.46 204.03,138.48 204.03,138.49 204.03,138.53 204.03,138.56 204.03,138.6 204.03,138.63 204.03,138.64 204.03,138.68 
	204.03,138.7 204.03,138.72 204.03,138.85 204.02,138.93 204.02,139.02 204.02,139.04 204.02,139.06 204.02,139.07 204.02,139.08 
	204.02,139.16 204.02,139.19 204.02,139.2 204.02,139.23 204.02,139.27 204.02,139.31 204.02,139.33 204.02,139.37 204.02,139.45 
	204.02,139.48 204.02,139.52 204.02,139.54 204,139.58 204,139.59 204,139.62 204,139.63 204,139.66 204,139.7 204,139.74 
	204,139.78 204,139.84 204,139.86 204,139.9 204,139.97 204,140 204,140.01 204,140.05 204,140.09 204,140.12 204,140.13 
	204,140.24 204,140.26 204,140.29 204,140.33 204,140.34 204,140.35 204,140.37 204,140.38 203.99,140.44 203.99,140.46 
	203.99,140.47 203.99,140.54 203.99,140.55 203.99,140.56 203.99,140.58 203.99,140.59 203.99,140.6 203.99,140.64 203.99,140.68 
	203.99,140.69 203.99,140.71 203.99,140.72 203.99,140.79 203.99,140.8 203.99,140.81 203.99,140.85 203.99,140.89 203.99,140.92 
	203.99,140.93 203.99,140.96 203.99,141.05 203.99,141.09 203.98,141.13 203.98,141.15 203.98,141.2 203.98,141.22 203.98,141.24 
	203.98,141.28 203.98,141.31 203.98,141.34 203.98,141.39 203.98,141.41 203.98,141.45 203.98,141.49 203.98,141.51 203.98,141.57 
	203.98,141.61 203.98,141.65 203.98,141.66 203.98,141.68 203.98,141.69 203.98,141.73 203.96,141.79 203.96,141.81 203.96,141.82 
	203.96,141.85 203.96,141.87 203.96,141.91 203.96,141.95 203.96,141.99 203.96,142 203.96,142.02 203.96,142.03 203.96,142.04 
	203.96,142.06 203.96,142.07 203.96,142.08 203.96,142.15 203.96,142.19 203.96,142.23 203.96,142.24 203.96,142.29 203.96,142.3 
	203.96,142.34 203.96,142.38 203.96,142.46 203.96,142.47 203.96,142.51 203.95,142.53 203.96,142.53 203.96,142.54 203.96,142.57 
	203.96,142.6 203.96,142.62 203.96,142.63 203.96,142.64 203.96,142.66 203.96,142.72 203.96,142.74 203.96,142.75 203.96,142.76 
	203.96,142.78 203.96,142.81 203.96,142.88 203.96,142.91 203.96,142.92 203.96,142.96 203.96,142.98 203.96,143 203.96,143.01 
	203.96,143.05 203.96,143.08 203.96,143.14 203.96,143.15 203.96,143.17 203.95,143.19 203.95,143.22 203.95,143.23 203.95,143.25 
	203.95,143.27 203.95,143.29 203.95,143.3 203.95,143.35 203.95,143.36 203.95,143.39 203.95,143.4 203.95,143.42 203.95,143.43 
	203.95,143.44 203.95,143.46 203.95,143.47 203.95,143.48 203.95,143.5 203.95,143.51 203.95,143.52 203.95,143.53 203.95,143.55 
	203.95,143.56 203.95,143.6 203.95,143.64 203.95,143.68 203.95,143.69 203.95,143.72 203.95,143.73 203.95,143.74 203.95,143.76 
	203.95,143.81 203.95,143.82 203.95,143.84 203.95,143.86 203.95,143.87 203.95,143.91 203.94,143.95 203.94,143.97 203.94,143.99 
	203.94,144.02 203.94,144.03 203.94,144.04 203.94,144.06 203.94,144.1 203.94,144.11 203.94,144.14 203.94,144.16 203.94,144.18 
	203.94,144.22 203.94,144.23 203.94,144.27 203.94,144.28 203.94,144.32 203.94,144.35 203.94,144.36 203.94,144.37 203.94,144.39 
	203.94,144.4 203.94,144.41 203.94,144.44 203.94,144.45 203.94,144.48 203.94,144.49 203.94,144.5 203.94,144.53 203.94,144.56 
	203.94,144.57 203.94,144.59 203.94,144.61 203.94,144.62 203.92,144.71 203.92,144.74 203.92,144.78 203.92,144.79 203.92,144.82 
	203.92,144.83 203.92,144.86 203.92,144.88 203.92,144.9 203.92,144.95 203.92,144.96 203.92,144.97 203.92,145 203.92,145.05 
	203.92,145.07 203.92,145.08 203.92,145.09 203.92,145.12 203.92,145.13 203.92,145.16 203.92,145.18 203.92,145.2 203.92,145.22 
	203.92,145.24 203.92,145.26 203.92,145.29 203.92,145.33 203.91,145.41 203.91,145.45 203.91,145.48 203.91,145.51 203.91,145.52 
	203.91,145.56 203.91,145.6 203.91,145.62 203.91,145.63 203.91,145.67 203.91,145.68 203.91,145.75 203.91,145.76 203.91,145.79 
	203.91,145.8 203.91,145.81 203.91,145.84 203.91,145.88 203.91,145.9 203.91,145.94 203.91,145.98 203.9,146.1 203.9,146.11 
	203.9,146.15 203.9,146.17 203.9,146.19 203.9,146.2 203.9,146.22 203.9,146.23 203.9,146.26 203.9,146.27 203.9,146.28 
	203.9,146.31 203.9,146.38 203.9,146.43 203.9,146.44 203.9,146.45 203.9,146.52 203.9,146.53 203.9,146.55 203.9,146.56 
	203.9,146.6 203.9,146.61 203.9,146.64 203.9,146.68 203.9,146.7 203.9,146.74 203.9,146.78 203.9,146.79 203.9,146.81 
	203.9,146.85 203.9,146.86 203.89,146.9 203.89,146.91 203.89,146.92 203.89,146.96 203.89,146.99 203.89,147 203.89,147.04 
	203.89,147.07 203.89,147.11 203.89,147.12 203.89,147.13 203.89,147.15 203.89,147.17 203.89,147.24 203.89,147.28 203.89,147.29 
	203.89,147.3 203.89,147.32 203.89,147.36 203.89,147.37 203.89,147.4 203.89,147.42 203.89,147.44 203.89,147.46 203.89,147.49 
	203.89,147.5 203.89,147.53 203.89,147.55 203.89,147.59 203.87,147.59 203.87,147.63 203.87,147.66 203.87,147.68 203.87,147.74 
	203.87,147.78 203.87,147.83 203.87,147.84 203.87,147.85 203.87,147.87 203.87,147.88 203.87,147.91 203.87,147.95 203.87,147.96 
	203.87,148.01 203.87,148.05 203.89,148.05 203.9,148.05 203.91,148.06 203.91,148.08 203.91,148.1 203.91,148.12 203.91,148.13 
	203.91,148.14 203.91,148.16 203.91,148.19 203.91,148.21 203.91,148.22 203.91,148.26 203.91,148.27 203.91,148.3 203.91,148.31 
	203.91,148.33 203.91,148.34 203.9,148.36 203.9,148.4 203.9,148.44 203.9,148.48 203.9,148.51 203.9,148.55 203.9,148.56 
	203.9,148.59 203.9,148.6 203.9,148.61 203.9,148.63 203.9,148.64 203.9,148.68 203.9,148.71 203.9,148.72 203.9,148.74 
	203.9,148.78 203.9,148.82 203.9,148.85 203.9,148.88 203.9,148.9 203.9,148.97 203.9,148.98 203.9,149.01 203.9,149.02 
	203.9,149.03 203.89,149.11 203.89,149.12 203.89,149.15 203.89,149.2 203.89,149.26 203.89,149.27 203.89,149.28 203.89,149.29 
	203.89,149.32 203.89,149.33 203.89,149.36 203.89,149.37 203.89,149.44 203.89,149.45 203.89,149.48 203.89,149.5 203.89,149.54 
	203.89,149.58 203.89,149.6 203.89,149.62 203.89,149.66 203.89,149.67 203.89,149.71 203.87,149.74 203.87,149.77 203.87,149.8 
	203.87,149.82 203.87,149.83 203.87,149.84 203.87,149.87 203.87,149.92 203.87,149.94 203.87,149.95 203.87,149.96 203.87,149.99 
	203.87,150 203.87,150.01 203.87,150.03 203.87,150.05 203.87,150.07 203.87,150.09 203.87,150.12 203.87,150.15 203.87,150.17 
	203.87,150.21 203.87,150.22 203.87,150.25 203.87,150.28 203.87,150.3 203.87,150.33 203.87,150.37 203.87,150.39 203.86,150.42 
	203.86,150.43 203.86,150.45 203.86,150.49 203.86,150.51 203.86,150.54 203.86,150.56 203.86,150.59 203.86,150.63 203.86,150.66 
	203.86,150.68 203.86,150.71 203.86,150.75 203.86,150.77 203.86,150.79 203.86,150.81 203.86,150.83 203.86,150.9 203.86,150.92 
	203.86,150.93 203.86,150.94 203.86,150.97 203.86,151.01 203.86,151.02 203.85,151.05 203.85,151.07 203.85,151.11 203.85,151.13 
	203.85,151.15 203.85,151.17 203.85,151.22 203.85,151.23 203.85,151.28 203.85,151.31 203.85,151.34 203.85,151.35 203.85,151.38 
	203.85,151.4 203.85,151.43 203.85,151.45 203.85,151.48 203.85,151.52 203.85,151.53 203.85,151.59 203.85,151.61 203.85,151.62 
	203.85,151.66 203.85,151.7 203.83,151.73 203.83,151.74 203.83,151.76 203.83,151.78 203.83,151.81 203.83,151.82 203.83,151.83 
	203.83,151.85 203.83,151.87 203.83,151.89 203.83,151.93 203.83,151.95 203.83,151.97 203.83,151.98 203.83,151.99 203.83,152.1 
	203.83,152.11 203.83,152.12 203.83,152.14 203.83,152.15 203.83,152.17 203.83,152.2 203.83,152.21 203.83,152.24 203.83,152.28 
	203.83,152.31 203.82,152.32 203.82,152.33 203.82,152.37 203.82,152.44 203.82,152.49 203.82,152.51 203.82,152.53 203.82,152.54 
	203.82,152.55 203.82,152.57 203.82,152.58 203.82,152.61 203.82,152.62 203.82,152.65 203.82,152.66 203.82,152.67 203.82,152.69 
	203.82,152.72 203.82,152.74 203.82,152.75 203.82,152.78 203.82,152.79 203.82,152.8 203.82,152.83 203.82,152.84 203.82,152.86 
	203.82,152.88 203.82,152.89 203.82,152.92 203.82,152.93 203.81,152.93 203.81,152.95 203.81,152.97 203.81,152.99 203.81,153 
	203.81,153.01 203.81,153.03 203.81,153.04 203.81,153.09 203.81,153.12 203.81,153.13 203.81,153.14 203.81,153.17 203.81,153.18 
	203.81,153.2 203.81,153.23 203.81,153.29 203.81,153.3 203.81,153.33 203.81,153.34 203.81,153.37 203.81,153.38 203.81,153.39 
	203.79,153.41 203.79,153.43 203.79,153.44 203.79,153.48 203.79,153.5 203.79,153.51 203.79,153.59 203.82,153.59 203.87,153.59 
	203.9,153.59 203.95,153.59 203.98,153.59 204,153.6 204.02,153.6 204.04,153.6 204.16,153.6 204.25,153.6 204.26,153.6 
	204.3,153.6 204.32,153.6 204.34,153.6 204.36,153.6 204.37,153.6 204.38,153.6 204.4,153.6 204.41,153.6 204.42,153.6 
	204.43,153.6 204.45,153.6 204.47,153.6 204.49,153.6 204.5,153.6 204.57,153.6 204.62,153.6 204.66,153.6 204.68,153.6 
	204.7,153.6 204.71,153.6 204.72,153.6 204.74,153.6 204.76,153.61 204.79,153.61 204.8,153.61 204.83,153.61 204.88,153.61 
	204.89,153.61 204.93,153.61 204.95,153.61 205.01,153.61 205.15,153.61 205.17,153.61 205.25,153.61 205.33,153.61 205.34,153.61 
	205.38,153.61 205.4,153.61 205.44,153.61 205.46,153.61 205.51,153.63 205.52,153.63 205.57,153.63 205.6,153.63 205.63,153.63 
	205.69,153.63 205.73,153.63 205.76,153.63 205.8,153.63 205.84,153.63 205.85,153.63 205.86,153.63 205.89,153.63 205.9,153.63 
	205.91,153.63 205.94,153.63 206.01,153.63 206.06,153.63 206.07,153.63 206.08,153.63 206.11,153.63 206.16,153.63 206.18,153.63 
	206.19,153.64 206.22,153.64 206.23,153.64 206.24,153.64 206.28,153.64 206.29,153.64 206.31,153.64 206.32,153.64 206.36,153.64 
	206.37,153.64 206.41,153.64 206.42,153.64 206.49,153.64 206.5,153.64 206.53,153.64 206.54,153.64 206.56,153.64 206.57,153.64 
	206.58,153.64 206.62,153.64 206.63,153.64 206.71,153.64 206.73,153.64 206.74,153.64 206.75,153.64 206.79,153.64 206.84,153.64 
	206.86,153.64 206.9,153.64 206.94,153.65 206.96,153.65 206.97,153.65 206.99,153.65 207.01,153.65 207.04,153.65 207.07,153.65 
	207.08,153.65 207.18,153.65 207.2,153.65 207.29,153.65 207.31,153.65 207.42,153.65 207.45,153.65 207.46,153.65 207.49,153.65 
	207.5,153.65 207.51,153.65 207.52,153.65 207.54,153.65 207.55,153.65 207.56,153.65 207.58,153.65 207.59,153.65 207.6,153.65 
	207.64,153.65 207.66,153.65 207.67,153.65 207.69,153.67 207.76,153.67 207.8,153.67 207.86,153.67 207.88,153.67 207.9,153.67 
	207.98,153.67 208.09,153.67 208.1,153.67 208.11,153.67 208.15,153.67 208.18,153.67 208.19,153.67 208.21,153.67 208.22,153.67 
	208.24,153.67 208.27,153.67 208.3,153.67 208.31,153.67 208.39,153.67 208.4,153.67 208.41,153.67 208.43,153.67 208.55,153.67 
	208.57,153.68 208.62,153.68 208.64,153.68 208.65,153.68 208.66,153.68 208.68,153.68 208.7,153.68 208.73,153.68 208.77,153.68 
	208.81,153.68 208.82,153.68 208.85,153.68 208.86,153.68 208.89,153.68 208.9,153.68 208.99,153.68 209.03,153.68 209.06,153.68 
	209.08,153.68 209.11,153.68 209.12,153.68 209.19,153.68 209.2,153.68 209.21,153.68 209.23,153.68 209.29,153.68 209.3,153.68 
	209.33,153.68 209.44,153.69 209.44,153.68 209.45,153.68 209.46,153.68 209.49,153.68 209.5,153.69 209.51,153.69 209.54,153.69 
	209.58,153.69 209.61,153.69 209.63,153.69 209.66,153.69 209.67,153.69 209.72,153.69 209.74,153.69 209.75,153.69 209.76,153.69 
	209.8,153.69 209.84,153.69 209.85,153.69 209.88,153.69 209.91,153.69 209.92,153.69 209.95,153.69 209.97,153.69 209.99,153.69 
	210,153.69 210.02,153.69 210.05,153.69 210.08,153.69 210.09,153.69 210.12,153.69 210.13,153.69 210.14,153.69 210.16,153.69 
	210.18,153.69 210.19,153.69 210.22,153.69 210.27,153.69 210.3,153.69 210.33,153.69 210.34,153.69 210.35,153.69 210.38,153.71 
	210.42,153.71 210.43,153.71 210.44,153.71 210.46,153.71 210.51,153.71 210.52,153.71 210.55,153.71 210.57,153.71 210.64,153.71 
	210.71,153.71 210.8,153.72 210.85,153.72 210.94,153.72 210.99,153.72 211.05,153.72 211.2,153.72 211.22,153.71 211.22,153.72 
	211.23,153.72 211.24,153.72 211.26,153.72 211.27,153.72 211.31,153.72 211.35,153.72 211.4,153.72 211.41,153.72 211.43,153.72 
	211.44,153.72 211.46,153.72 211.54,153.72 211.58,153.72 211.66,153.72 211.67,153.72 211.71,153.72 211.81,153.72 211.9,153.72 
	211.92,153.72 211.94,153.73 211.95,153.73 211.95,153.72 211.98,153.72 211.99,153.72 212.04,153.72 212.05,153.72 212.13,153.72 
	212.15,153.72 212.16,153.72 212.17,153.72 212.22,153.73 212.36,153.73 212.38,153.73 212.39,153.73 212.45,153.73 212.46,153.73 
	212.47,153.73 212.55,153.73 212.59,153.73 212.6,153.73 212.66,153.73 212.67,153.73 212.93,153.75 213.05,153.75 213.06,153.75 
	213.08,153.75 213.17,153.75 213.18,153.75 213.22,153.75 213.27,153.75 213.28,153.75 213.3,153.75 213.4,153.75 213.42,153.75 
	213.47,153.75 213.49,153.75 213.51,153.75 213.52,153.75 213.53,153.75 213.57,153.75 213.59,153.75 213.61,153.75 213.64,153.75 
	213.65,153.75 213.66,153.75 213.69,153.75 213.72,153.75 213.73,153.75 213.76,153.75 213.77,153.75 213.81,153.75 213.83,153.75 
	213.85,153.75 213.9,153.75 213.91,153.75 213.95,153.75 213.97,153.75 213.99,153.75 214.03,153.75 214.07,153.75 214.08,153.75 
	214.1,153.75 214.11,153.75 214.12,153.75 214.14,153.75 214.16,153.75 214.17,153.75 214.2,153.75 214.29,153.76 214.31,153.76 
	214.37,153.76 214.4,153.76 214.41,153.76 214.42,153.76 214.44,153.76 214.45,153.76 214.48,153.76 214.5,153.76 214.53,153.76 
	214.55,153.76 214.57,153.76 214.61,153.76 214.62,153.76 214.63,153.76 214.65,153.76 214.66,153.76 214.69,153.76 214.7,153.76 
	214.75,153.76 214.78,153.76 214.82,153.76 214.84,153.76 214.86,153.76 214.88,153.76 214.89,153.76 215.05,153.76 215.08,153.76 
	215.1,153.76 215.12,153.76 215.13,153.76 215.14,153.76 215.16,153.76 215.17,153.76 215.18,153.76 215.2,153.76 215.21,153.76 
	215.24,153.76 215.26,153.76 215.29,153.76 215.3,153.76 215.31,153.76 215.33,153.76 215.34,153.76 215.35,153.76 215.38,153.76 
	215.44,153.76 215.5,153.76 215.52,153.76 215.54,153.76 215.55,153.76 215.56,153.76 215.59,153.76 215.75,153.77 215.78,153.77 
	215.81,153.77 215.84,153.77 215.89,153.77 215.9,153.77 215.93,153.77 215.96,153.77 215.97,153.77 215.98,153.77 216.01,153.77 
	216.03,153.77 216.05,153.77 216.09,153.77 216.11,153.77 216.13,153.77 216.15,153.77 216.16,153.77 216.18,153.77 216.19,153.77 
	216.2,153.77 216.23,153.77 216.43,153.77 216.45,153.77 216.47,153.77 216.53,153.77 216.54,153.77 216.56,153.77 216.57,153.77 
	216.58,153.77 216.6,153.77 216.64,153.77 216.65,153.77 216.66,153.77 216.68,153.77 216.69,153.77 216.7,153.77 216.74,153.77 
	216.78,153.77 216.83,153.77 216.86,153.77 216.87,153.77 216.88,153.77 216.9,153.77 216.91,153.77 216.92,153.77 216.94,153.77 
	216.95,153.77 216.96,153.77 216.98,153.77 217,153.77 217.02,153.77 217.03,153.77 217.07,153.77 217.08,153.77 217.09,153.77 
	217.12,153.77 217.13,153.77 217.16,153.77 217.16,153.78 217.17,153.78 217.22,153.78 217.26,153.78 217.3,153.78 217.32,153.78 
	217.33,153.78 217.36,153.78 217.37,153.78 217.4,153.78 217.45,153.78 217.46,153.78 217.47,153.78 217.5,153.78 217.51,153.78 
	217.53,153.78 217.55,153.78 217.58,153.78 217.59,153.78 217.62,153.78 217.66,153.78 217.68,153.78 217.7,153.78 217.71,153.78 
	217.72,153.78 217.76,153.78 217.79,153.78 217.81,153.78 217.83,153.78 217.84,153.78 217.87,153.78 217.88,153.78 217.91,153.78 
	217.93,153.78 217.98,153.78 218,153.78 218.04,153.78 218.05,153.78 218.08,153.78 218.1,153.78 218.12,153.78 218.14,153.78 
	218.17,153.78 218.18,153.78 218.19,153.78 218.19,153.8 218.21,153.8 218.22,153.8 218.23,153.8 218.26,153.8 218.27,153.8 
	218.29,153.8 218.31,153.8 218.32,153.8 218.32,153.78 218.34,153.78 218.36,153.78 218.39,153.78 218.39,153.8 218.43,153.8 
	218.48,153.8 218.49,153.8 218.52,153.8 218.57,153.8 218.59,153.8 218.61,153.8 218.66,153.8 218.68,153.8 218.7,153.8 
	218.72,153.8 218.73,153.8 218.8,153.8 218.81,153.8 218.87,153.8 218.93,153.8 218.94,153.8 218.95,153.8 218.99,153.8 
	219.02,153.8 219.06,153.8 219.1,153.8 219.11,153.8 219.12,153.8 219.14,153.8 219.16,153.8 219.18,153.8 219.21,153.8 
	219.25,153.8 219.27,153.8 219.28,153.8 219.29,153.8 219.32,153.8 219.33,153.8 219.35,153.8 219.4,153.8 219.41,153.8 
	219.45,153.8 219.46,153.8 219.49,153.8 219.5,153.8 219.53,153.8 219.56,153.8 219.57,153.8 219.58,153.8 219.62,153.8 
	219.63,153.8 219.65,153.8 219.67,153.8 219.69,153.8 219.7,153.8 219.76,153.8 219.78,153.8 219.79,153.8 219.8,153.8 
	219.82,153.8 219.84,153.8 219.86,153.8 219.87,153.8 219.92,153.8 219.95,153.8 219.96,153.8 219.97,153.8 220,153.8 220.01,153.8 
	220.03,153.8 220.04,153.8 220.05,153.8 220.08,153.8 220.1,153.8 220.12,153.8 220.13,153.8 220.21,153.8 220.24,153.8 
	220.25,153.8 220.26,153.81 220.29,153.81 220.3,153.81 220.31,153.81 220.35,153.81 220.38,153.81 220.42,153.81 220.45,153.81 
	220.46,153.81 220.5,153.81 220.52,153.81 220.54,153.81 220.55,153.81 220.56,153.81 220.58,153.81 220.59,153.81 220.6,153.81 
	220.62,153.81 220.64,153.81 220.65,153.81 220.68,153.81 220.69,153.81 220.71,153.81 220.72,153.81 220.75,153.81 220.76,153.81 
	220.77,153.81 220.79,153.81 220.82,153.81 220.85,153.81 220.86,153.81 220.88,153.81 220.89,153.81 220.98,153.81 221.02,153.81 
	221.03,153.81 221.05,153.81 221.1,153.81 221.13,153.81 221.14,153.81 221.17,153.81 221.18,153.81 221.2,153.81 221.22,153.81 
	221.31,153.81 221.32,153.81 221.36,153.81 221.37,153.81 221.39,153.81 221.4,153.81 221.41,153.81 221.43,153.81 221.44,153.81 
	221.47,153.81 221.49,153.81 221.51,153.81 221.53,153.81 221.54,153.81 221.56,153.81 221.57,153.81 221.58,153.81 221.64,153.81 
	221.65,153.81 221.66,153.81 221.68,153.81 221.69,153.81 221.7,153.81 221.72,153.81 221.77,153.81 221.78,153.81 221.79,153.81 
	221.85,153.81 221.86,153.81 221.87,153.81 221.9,153.81 221.91,153.81 221.92,153.81 221.94,153.81 221.96,153.81 221.98,153.81 
	221.99,153.81 222.02,153.82 222.02,153.81 222.03,153.81 222.04,153.81 222.06,153.81 222.07,153.81 222.08,153.81 222.09,153.81 
	222.16,153.81 222.2,153.81 222.28,153.81 222.3,153.81 222.32,153.81 222.33,153.81 222.34,153.81 222.36,153.81 222.37,153.81 
	222.4,153.81 222.41,153.81 222.47,153.81 222.5,153.81 222.51,153.81 222.53,153.81 222.54,153.81 222.55,153.81 222.57,153.81 
	222.61,153.81 222.62,153.81 222.66,153.81 222.68,153.81 222.68,153.82 222.7,153.82 222.71,153.82 222.72,153.82 222.72,153.81 
	222.74,153.81 222.75,153.81 222.78,153.81 222.79,153.81 222.8,153.81 222.81,153.81 222.83,153.81 222.84,153.81 222.85,153.81 
	222.88,153.81 222.91,153.81 222.96,153.81 223,153.81 223.01,153.81 223.02,153.81 223.04,153.81 223.05,153.81 223.06,153.81 
	223.08,153.81 223.1,153.81 223.22,153.81 223.25,153.81 223.3,153.81 223.33,153.82 223.35,153.82 223.36,153.82 223.38,153.82 
	223.39,153.82 223.42,153.82 223.43,153.82 223.46,153.82 223.48,153.82 223.5,153.82 223.51,153.82 223.52,153.82 223.53,153.82 
	223.55,153.82 223.57,153.82 223.6,153.82 223.61,153.82 223.64,153.82 223.65,153.82 223.67,153.82 223.68,153.82 223.69,153.82 
	223.7,153.82 223.72,153.82 223.74,153.82 223.76,153.82 223.77,153.82 223.78,153.82 223.8,153.82 223.88,153.82 224.12,153.82 
	224.14,153.82 224.16,153.82 224.19,153.82 224.22,153.82 224.31,153.82 224.32,153.82 224.33,153.82 224.39,153.82 224.41,153.82 
	224.45,153.82 224.49,153.82 224.57,153.82 224.61,153.82 224.63,153.82 224.65,153.82 224.66,153.82 224.79,153.82 224.91,153.82 
	224.92,153.82 224.95,153.82 225.03,153.82 225.04,153.82 225.05,153.82 225.12,153.82 225.16,153.82 225.17,153.82 225.2,153.82 
	225.34,153.82 225.35,153.82 225.37,153.82 225.41,153.82 225.45,153.82 225.47,153.82 225.51,153.82 225.54,153.82 225.55,153.82 
	225.56,153.82 225.62,153.82 225.66,153.82 225.68,153.82 225.69,153.82 225.75,153.82 225.85,153.82 225.92,153.82 225.93,153.82 
	225.94,153.82 225.97,153.82 225.98,153.82 226,153.82 226.01,153.82 226.04,153.82 226.05,153.82 226.06,153.82 226.07,153.82 
	226.11,153.82 226.13,153.82 226.14,153.82 226.15,153.82 226.19,153.82 226.21,153.82 226.26,153.82 226.28,153.82 226.32,153.82 
	226.34,153.82 226.35,153.82 226.36,153.82 226.39,153.82 226.41,153.82 226.44,153.82 226.45,153.82 226.48,153.82 226.49,153.82 
	226.51,153.82 226.73,153.82 226.82,153.82 226.87,153.82 226.99,153.82 227.03,153.82 227.04,153.82 227.06,153.82 227.13,153.82 
	227.23,153.82 227.32,153.82 227.37,153.82 227.5,153.82 227.51,153.82 227.54,153.82 227.55,153.82 227.58,153.82 227.59,153.82 
	227.61,153.82 227.62,153.82 227.63,153.82 227.65,153.82 227.66,153.82 227.67,153.82 227.68,153.82 227.7,153.82 227.71,153.82 
	227.72,153.82 227.74,153.82 227.78,153.82 227.79,153.82 227.82,153.82 227.83,153.82 227.87,153.82 227.89,153.82 227.91,153.82 
	227.92,153.82 227.96,153.82 227.97,153.82 227.99,153.82 228,153.82 228.01,153.82 228.04,153.82 228.06,153.82 228.08,153.82 
	228.09,153.82 228.12,153.82 228.14,153.82 228.18,153.82 228.22,153.82 228.23,153.82 228.25,153.82 228.31,153.82 228.34,153.82 
	228.37,153.82 228.38,153.82 228.42,153.82 228.44,153.82 228.47,153.82 228.51,153.82 228.56,153.82 228.64,153.82 228.65,153.82 
	228.68,153.82 228.72,153.82 228.73,153.82 228.82,153.82 228.84,153.82 228.85,153.82 228.86,153.82 228.88,153.82 228.89,153.82 
	228.9,153.82 228.92,153.82 228.93,153.82 228.94,153.82 228.97,153.82 228.99,153.82 229.01,153.82 229.05,153.82 229.06,153.82 
	229.07,153.82 229.09,153.82 229.11,153.82 229.12,153.82 229.14,153.82 229.2,153.82 229.22,153.82 229.23,153.82 229.32,153.82 
	229.33,153.82 229.36,153.82 229.37,153.82 229.43,153.82 229.45,153.82 229.46,153.82 229.48,153.82 229.49,153.82 229.5,153.82 
	229.52,153.82 229.53,153.82 229.54,153.82 229.56,153.82 229.57,153.82 229.58,153.82 229.61,153.82 229.67,153.82 229.69,153.82 
	229.71,153.82 229.74,153.82 229.75,153.82 229.77,153.82 229.84,153.82 229.86,153.82 229.87,153.82 229.88,153.82 229.9,153.82 
	229.94,153.82 229.96,153.82 229.98,153.82 229.99,153.82 230,153.82 230.01,153.82 230.04,153.82 230.05,153.82 230.07,153.82 
	230.11,153.82 230.12,153.82 230.13,153.82 230.15,153.82 230.16,153.82 230.19,153.82 230.2,153.82 230.22,153.82 230.26,153.82 
	230.36,153.82 230.39,153.82 230.42,153.82 230.43,153.82 230.45,153.82 230.46,153.82 230.49,153.82 230.51,153.82 230.63,153.82 
	230.64,153.82 230.66,153.82 230.67,153.82 230.73,153.82 230.77,153.82 230.81,153.82 230.84,153.82 230.84,153.81 230.85,153.81 
	230.87,153.81 230.89,153.81 230.91,153.81 230.93,153.81 230.94,153.81 230.96,153.81 231,153.81 231.01,153.81 231.04,153.81 
	231.09,153.81 231.1,153.81 231.11,153.81 231.13,153.81 231.14,153.81 231.14,153.82 231.15,153.82 231.15,153.81 231.17,153.81 
	231.19,153.81 231.21,153.81 231.25,153.81 231.3,153.81 231.31,153.81 231.32,153.81 231.34,153.81 231.36,153.81 231.38,153.81 
	231.39,153.81 231.42,153.81 231.45,153.81 231.48,153.81 231.51,153.81 231.53,153.81 231.56,153.81 231.57,153.81 231.59,153.81 
	231.63,153.81 231.66,153.81 231.68,153.81 231.72,153.81 231.74,153.81 231.76,153.81 231.77,153.81 231.78,153.81 231.8,153.81 
	231.83,153.81 231.85,153.81 231.87,153.81 231.89,153.81 231.91,153.81 231.97,153.81 231.99,153.81 232,153.81 232.03,153.81 
	232.04,153.81 232.06,153.81 232.07,153.81 232.08,153.81 232.1,153.81 232.16,153.81 232.17,153.81 232.19,153.81 232.21,153.81 
	232.25,153.81 232.35,153.81 232.38,153.81 232.4,153.81 232.41,153.81 232.42,153.81 232.44,153.81 232.49,153.81 232.5,153.81 
	232.52,153.81 232.53,153.81 232.54,153.81 232.57,153.81 232.58,153.81 232.59,153.81 232.63,153.81 232.65,153.81 232.66,153.81 
	232.69,153.81 232.71,153.81 232.74,153.81 232.75,153.81 232.76,153.81 232.78,153.81 232.84,153.81 232.86,153.81 232.87,153.81 
	232.88,153.81 232.91,153.81 232.92,153.81 232.93,153.81 233.05,153.81 233.13,153.81 233.14,153.81 233.17,153.81 233.18,153.81 
	233.2,153.81 233.22,153.81 233.25,153.81 233.27,153.81 233.29,153.81 233.3,153.81 233.31,153.81 233.33,153.81 233.35,153.81 
	233.41,153.81 233.43,153.81 233.44,153.81 233.47,153.81 233.5,153.81 233.56,153.81 233.58,153.81 233.64,153.81 233.65,153.81 
	233.67,153.81 233.68,153.81 233.69,153.81 233.72,153.81 233.73,153.81 233.76,153.8 233.77,153.8 233.8,153.8 233.89,153.8 
	233.92,153.8 233.93,153.8 233.94,153.8 233.94,153.77 233.94,153.76 "/>
</svg>
