<svg id="Layer_1" data-name="Layer 1" xmlns="http://www.w3.org/2000/svg" viewBox="0 0 455.62 220.74"><defs><style>.cls-1{fill:#fff;}</style></defs><path class="cls-1" d="M226.78,345.14V327.87a33.22,33.22,0,0,0,10.2,5.9,32.65,32.65,0,0,0,11.12,2,24.45,24.45,0,0,0,5.75-.59A13.66,13.66,0,0,0,258,333.5a7.24,7.24,0,0,0,2.45-2.48,6.22,6.22,0,0,0,.81-3.11,6.74,6.74,0,0,0-1.29-4.05,14.31,14.31,0,0,0-3.54-3.29,36.11,36.11,0,0,0-5.32-2.91q-3.07-1.41-6.64-2.86-9.08-3.78-13.52-9.24a20.13,20.13,0,0,1-4.46-13.17,21,21,0,0,1,2.43-10.4,20.59,20.59,0,0,1,6.62-7.15,29.48,29.48,0,0,1,9.69-4.13,49.89,49.89,0,0,1,11.66-1.33,69.63,69.63,0,0,1,10.72.74,41.71,41.71,0,0,1,8.61,2.24V288.5a25.9,25.9,0,0,0-4.24-2.37,34.07,34.07,0,0,0-4.72-1.71,36.51,36.51,0,0,0-4.84-1,35.14,35.14,0,0,0-4.56-.32,23.68,23.68,0,0,0-5.4.57,13.92,13.92,0,0,0-4.1,1.59,8,8,0,0,0-2.59,2.46,5.74,5.74,0,0,0-.92,3.21,6.06,6.06,0,0,0,1,3.48,11.65,11.65,0,0,0,2.91,2.92,30.6,30.6,0,0,0,4.59,2.7q2.7,1.32,6.1,2.72a68.22,68.22,0,0,1,8.34,4.14,29.64,29.64,0,0,1,6.35,4.93,19.44,19.44,0,0,1,4.05,6.3,22.31,22.31,0,0,1,1.4,8.23,22,22,0,0,1-2.46,10.88,20,20,0,0,1-6.67,7.13,28.76,28.76,0,0,1-9.79,3.91,56.81,56.81,0,0,1-11.8,1.19,66.4,66.4,0,0,1-12.12-1.08,36.41,36.41,0,0,1-10-3.24" transform="translate(-152 -204.2)"/><polygon class="cls-1" points="186.75 143.91 140.32 143.91 140.32 66.48 184.97 66.48 184.97 80.68 157.76 80.68 157.76 97.91 183.09 97.91 183.09 112.05 157.76 112.05 157.76 129.76 186.75 129.76 186.75 143.91"/><path class="cls-1" d="M420.82,348.11h-17.6l-31.91-48.65a71.3,71.3,0,0,1-3.89-6.43h-.21q.44,4.11.43,12.54v42.54H351.18V270.68H370l30.72,47.14c1.41,2.12,2.7,4.22,3.89,6.31h.21a84.89,84.89,0,0,1-.42-10.63V270.68h16.46Z" transform="translate(-152 -204.2)"/><path class="cls-1" d="M438.53,348.11V270.69H466q41.25,0,41.25,37.74,0,18.07-11.26,28.88t-30,10.8ZM456,284.88V334h8.64q11.34,0,17.79-6.8t6.45-18.52q0-11.07-6.4-17.41t-17.95-6.35Z" transform="translate(-152 -204.2)"/><path class="cls-1" d="M520.06,348.11V270.69h27.43q41.25,0,41.25,37.74,0,18.07-11.26,28.88t-30,10.8Zm17.44-63.23V334h8.64q11.34,0,17.79-6.8t6.45-18.52q0-11.07-6.4-17.41t-18-6.35Z" transform="translate(-152 -204.2)"/><path class="cls-1" d="M226,369l.39-.65a5.67,5.67,0,0,0,3.93,1.5c2.38,0,3.44-1,3.44-2.33,0-3.58-7.44-1.43-7.44-5.83,0-1.68,1.29-3.16,4.22-3.16a6.37,6.37,0,0,1,3.6,1.07l-.33.7a5.79,5.79,0,0,0-3.27-1c-2.31,0-3.35,1.07-3.35,2.39,0,3.57,7.44,1.46,7.44,5.79,0,1.68-1.35,3.15-4.29,3.15A6.11,6.11,0,0,1,226,369" transform="translate(-152 -204.2)"/><path class="cls-1" d="M236.34,366.11a4.45,4.45,0,1,1,4.45,4.51,4.34,4.34,0,0,1-4.45-4.51m8,0a3.58,3.58,0,1,0-3.57,3.74,3.52,3.52,0,0,0,3.57-3.74" transform="translate(-152 -204.2)"/><path class="cls-1" d="M255.68,361.66v8.89h-.81v-1.91a3.5,3.5,0,0,1-3.36,2,3.4,3.4,0,0,1-3.71-3.76v-5.2h.85v5.13c0,2,1.08,3.06,2.93,3.06a3.12,3.12,0,0,0,3.25-3.46v-4.73Z" transform="translate(-152 -204.2)"/><path class="cls-1" d="M263.72,370a2.72,2.72,0,0,1-1.82.63,2.21,2.21,0,0,1-2.42-2.42v-5.81h-1.63v-.73h1.63v-1.94h.85v1.94h2.83v.73h-2.83v5.73a1.55,1.55,0,0,0,1.66,1.77,2,2,0,0,0,1.37-.5Z" transform="translate(-152 -204.2)"/><path class="cls-1" d="M274,365.36v5.19h-.86v-5.13c0-2-1.07-3.06-2.87-3.06a3.17,3.17,0,0,0-3.37,3.46v4.73h-.86V357.92h.86v5.59a3.67,3.67,0,0,1,3.49-1.91c2.16,0,3.61,1.27,3.61,3.76" transform="translate(-152 -204.2)"/><path class="cls-1" d="M285,366.31h-7.65a3.81,3.81,0,0,0,6.61,2.3l.49.56a4.26,4.26,0,0,1-3.35,1.45,4.36,4.36,0,0,1-4.58-4.51,4.25,4.25,0,0,1,4.25-4.51,4.2,4.2,0,0,1,4.24,4.47c0,.07,0,.16,0,.24m-7.63-.66h6.81a3.41,3.41,0,0,0-6.81,0" transform="translate(-152 -204.2)"/><path class="cls-1" d="M294.05,364.91v5.64h-.82V369a3.41,3.41,0,0,1-3.2,1.65c-2,0-3.2-1-3.2-2.54,0-1.34.85-2.48,3.32-2.48h3v-.72a2.31,2.31,0,0,0-2.63-2.54,4.59,4.59,0,0,0-3.07,1.13l-.43-.61a5.42,5.42,0,0,1,3.57-1.26c2.19,0,3.42,1.12,3.42,3.31m-.86,3v-1.67h-3c-1.84,0-2.48.77-2.48,1.79s.9,1.87,2.47,1.87a3,3,0,0,0,3-2" transform="translate(-152 -204.2)"/><path class="cls-1" d="M296.26,369.48l.39-.69a5.1,5.1,0,0,0,3.2,1.08c1.87,0,2.62-.66,2.62-1.67,0-2.59-5.89-.68-5.89-4.17,0-1.34,1.13-2.44,3.37-2.44a5.52,5.52,0,0,1,3.05.87l-.39.68a4.61,4.61,0,0,0-2.67-.8c-1.74,0-2.5.72-2.5,1.67,0,2.67,5.88.79,5.88,4.17,0,1.45-1.24,2.44-3.5,2.44a5.64,5.64,0,0,1-3.56-1.14" transform="translate(-152 -204.2)"/><path class="cls-1" d="M310.12,370a2.72,2.72,0,0,1-1.82.63,2.21,2.21,0,0,1-2.42-2.42v-5.81h-1.63v-.73h1.63v-1.94h.85v1.94h2.83v.73h-2.83v5.73c0,1.13.56,1.77,1.66,1.77a2,2,0,0,0,1.37-.5Z" transform="translate(-152 -204.2)"/><polygon class="cls-1" points="174.87 154.43 174.87 166.35 174.16 166.35 166.03 156 166.03 166.35 165.17 166.35 165.17 154.43 165.9 154.43 174.01 164.78 174.01 154.43 174.87 154.43"/><path class="cls-1" d="M338.32,366.31h-7.65a3.81,3.81,0,0,0,6.61,2.3l.49.56a4.26,4.26,0,0,1-3.35,1.45,4.36,4.36,0,0,1-4.58-4.51,4.25,4.25,0,0,1,4.26-4.51,4.2,4.2,0,0,1,4.23,4.47c0,.07,0,.16,0,.24m-7.63-.66h6.81a3.41,3.41,0,0,0-6.81,0" transform="translate(-152 -204.2)"/><path class="cls-1" d="M349.81,366.11a4.31,4.31,0,0,1-4.4,4.51,4,4,0,0,1-3.64-2.16v2.09H341V357.92h.85v5.77a4,4,0,0,1,3.6-2.1,4.3,4.3,0,0,1,4.4,4.52m-.85,0a3.59,3.59,0,1,0-3.6,3.74,3.54,3.54,0,0,0,3.6-3.74" transform="translate(-152 -204.2)"/><path class="cls-1" d="M356.65,361.6v.83l-.2,0c-2,0-3.15,1.31-3.15,3.51v4.63h-.85v-8.89h.82v1.95a3.35,3.35,0,0,1,3.38-2" transform="translate(-152 -204.2)"/><path class="cls-1" d="M365.61,364.91v5.64h-.82V369a3.41,3.41,0,0,1-3.2,1.65c-2,0-3.2-1-3.2-2.54,0-1.34.85-2.48,3.32-2.48h3.05v-.72a2.32,2.32,0,0,0-2.64-2.54,4.56,4.56,0,0,0-3.06,1.13l-.43-.61a5.38,5.38,0,0,1,3.56-1.26c2.19,0,3.42,1.12,3.42,3.31m-.85,3v-1.67h-3c-1.84,0-2.49.77-2.49,1.79s.9,1.87,2.47,1.87a3.05,3.05,0,0,0,3.05-2" transform="translate(-152 -204.2)"/><path class="cls-1" d="M367.82,369.48l.39-.69a5.13,5.13,0,0,0,3.21,1.08c1.87,0,2.62-.66,2.62-1.67,0-2.59-5.89-.68-5.89-4.17,0-1.34,1.12-2.44,3.37-2.44a5.55,5.55,0,0,1,3.05.87l-.4.68a4.57,4.57,0,0,0-2.67-.8c-1.74,0-2.5.72-2.5,1.67,0,2.67,5.89.79,5.89,4.17,0,1.45-1.25,2.44-3.51,2.44a5.64,5.64,0,0,1-3.56-1.14" transform="translate(-152 -204.2)"/><polygon class="cls-1" points="228.44 161.6 226.12 163.71 226.12 166.34 225.27 166.34 225.27 153.72 226.12 153.72 226.12 162.65 231.81 157.47 232.9 157.47 229.07 161.05 233.28 166.34 232.22 166.34 228.44 161.6"/><path class="cls-1" d="M393.7,364.91v5.64h-.81V369a3.42,3.42,0,0,1-3.2,1.65c-2,0-3.21-1-3.21-2.54,0-1.34.86-2.48,3.32-2.48h3.05v-.72a2.31,2.31,0,0,0-2.63-2.54,4.59,4.59,0,0,0-3.07,1.13l-.43-.61a5.4,5.4,0,0,1,3.56-1.26c2.2,0,3.42,1.12,3.42,3.31m-.85,3v-1.67h-3c-1.84,0-2.48.77-2.48,1.79s.9,1.87,2.46,1.87a3.05,3.05,0,0,0,3.05-2" transform="translate(-152 -204.2)"/><path class="cls-1" d="M401.62,358.63h4.72c3.78,0,6.33,2.48,6.33,6s-2.55,6-6.33,6h-4.72Zm4.65,11.14c3.37,0,5.53-2.15,5.53-5.18s-2.16-5.18-5.53-5.18h-3.78v10.36Z" transform="translate(-152 -204.2)"/><path class="cls-1" d="M423,366.31h-7.64a3.8,3.8,0,0,0,6.6,2.3l.5.56a4.26,4.26,0,0,1-3.35,1.45,4.36,4.36,0,0,1-4.58-4.51,4.25,4.25,0,0,1,4.25-4.51,4.2,4.2,0,0,1,4.24,4.47c0,.07,0,.16,0,.24m-7.62-.66h6.81a3.41,3.41,0,0,0-6.81,0" transform="translate(-152 -204.2)"/><polygon class="cls-1" points="280.73 157.46 276.71 166.35 275.85 166.35 271.84 157.46 272.74 157.46 276.29 165.41 279.86 157.46 280.73 157.46"/><path class="cls-1" d="M442,366.31h-7.65a3.81,3.81,0,0,0,6.61,2.3l.49.56a4.26,4.26,0,0,1-3.35,1.45,4.36,4.36,0,0,1-4.58-4.51,4.25,4.25,0,0,1,4.25-4.51,4.2,4.2,0,0,1,4.24,4.47c0,.07,0,.16,0,.24m-7.63-.66h6.81a3.41,3.41,0,0,0-6.81,0" transform="translate(-152 -204.2)"/><rect class="cls-1" x="292.6" y="153.72" width="0.85" height="12.63"/><path class="cls-1" d="M448.1,366.11a4.45,4.45,0,1,1,4.45,4.51,4.34,4.34,0,0,1-4.45-4.51m8,0a3.58,3.58,0,1,0-3.58,3.74,3.53,3.53,0,0,0,3.58-3.74" transform="translate(-152 -204.2)"/><path class="cls-1" d="M468.51,366.11a4.29,4.29,0,0,1-4.39,4.51,4,4,0,0,1-3.6-2.1v5.34h-.85V361.67h.81v2.09a4,4,0,0,1,3.64-2.17,4.31,4.31,0,0,1,4.39,4.52m-.84,0a3.59,3.59,0,1,0-3.6,3.74,3.54,3.54,0,0,0,3.6-3.74" transform="translate(-152 -204.2)"/><path class="cls-1" d="M485.77,365.36v5.19h-.86v-5.13c0-2-1-3.06-2.77-3.06a3.13,3.13,0,0,0-3.25,3.46v4.73H478v-5.13c0-2-1-3.06-2.78-3.06a3.13,3.13,0,0,0-3.25,3.46v4.73h-.85v-8.88H472v1.9a3.51,3.51,0,0,1,3.4-2,3.14,3.14,0,0,1,3.25,2.14,3.74,3.74,0,0,1,3.6-2.14c2.14,0,3.54,1.27,3.54,3.76" transform="translate(-152 -204.2)"/><path class="cls-1" d="M496.75,366.31H489.1a3.81,3.81,0,0,0,6.61,2.3l.5.56a4.3,4.3,0,0,1-3.36,1.45,4.36,4.36,0,0,1-4.58-4.51,4.25,4.25,0,0,1,4.26-4.51,4.2,4.2,0,0,1,4.24,4.47c0,.07,0,.16,0,.24m-7.63-.66h6.81a3.41,3.41,0,0,0-6.81,0" transform="translate(-152 -204.2)"/><path class="cls-1" d="M507.34,365.36v5.19h-.85v-5.13c0-2-1.08-3.06-2.88-3.06a3.17,3.17,0,0,0-3.37,3.46v4.73h-.85v-8.88h.81v1.92a3.66,3.66,0,0,1,3.53-2c2.16,0,3.61,1.27,3.61,3.76" transform="translate(-152 -204.2)"/><path class="cls-1" d="M515.27,370a2.7,2.7,0,0,1-1.82.63A2.21,2.21,0,0,1,511,368.2v-5.81H509.4v-.73H511v-1.94h.86v1.94h2.82v.73h-2.82v5.73c0,1.13.56,1.77,1.65,1.77a2,2,0,0,0,1.38-.5Z" transform="translate(-152 -204.2)"/><path class="cls-1" d="M522.22,358.63h4.72c3.78,0,6.33,2.48,6.33,6s-2.55,6-6.33,6h-4.72Zm4.65,11.14c3.37,0,5.53-2.15,5.53-5.18s-2.16-5.18-5.53-5.18h-3.78v10.36Z" transform="translate(-152 -204.2)"/><path class="cls-1" d="M535.77,358.82a.71.71,0,0,1,.7-.7.69.69,0,1,1-.7.7m.28,2.85h.85v8.88h-.85Z" transform="translate(-152 -204.2)"/><path class="cls-1" d="M539.21,369.48l.4-.69a5.08,5.08,0,0,0,3.2,1.08c1.87,0,2.62-.66,2.62-1.67,0-2.59-5.89-.68-5.89-4.17,0-1.34,1.12-2.44,3.37-2.44a5.55,5.55,0,0,1,3.05.87l-.4.68a4.59,4.59,0,0,0-2.67-.8c-1.74,0-2.5.72-2.5,1.67,0,2.67,5.89.79,5.89,4.17,0,1.45-1.24,2.44-3.51,2.44a5.64,5.64,0,0,1-3.56-1.14" transform="translate(-152 -204.2)"/><path class="cls-1" d="M553.07,370a2.7,2.7,0,0,1-1.82.63,2.21,2.21,0,0,1-2.42-2.42v-5.81H547.2v-.73h1.63v-1.94h.86v1.94h2.82v.73h-2.82v5.73c0,1.13.56,1.77,1.65,1.77a2,2,0,0,0,1.38-.5Z" transform="translate(-152 -204.2)"/><path class="cls-1" d="M559.61,361.6v.83l-.2,0c-2,0-3.15,1.31-3.15,3.51v4.63h-.85v-8.89h.82v1.95a3.36,3.36,0,0,1,3.38-2" transform="translate(-152 -204.2)"/><path class="cls-1" d="M562,358.82a.7.7,0,0,1,.7-.7.69.69,0,1,1-.7.7m.27,2.85h.85v8.88h-.85Z" transform="translate(-152 -204.2)"/><path class="cls-1" d="M565.76,366.11a4.34,4.34,0,0,1,4.49-4.52,3.88,3.88,0,0,1,3.37,1.64l-.62.46a3.26,3.26,0,0,0-2.75-1.32,3.74,3.74,0,0,0,0,7.48,3.27,3.27,0,0,0,2.75-1.33l.62.46a3.93,3.93,0,0,1-3.37,1.64,4.34,4.34,0,0,1-4.49-4.51" transform="translate(-152 -204.2)"/><path class="cls-1" d="M580.59,370a2.73,2.73,0,0,1-1.83.63,2.2,2.2,0,0,1-2.41-2.42v-5.81h-1.63v-.73h1.63v-1.94h.85v1.94H580v.73H577.2v5.73c0,1.13.56,1.77,1.65,1.77a2,2,0,0,0,1.38-.5Z" transform="translate(-152 -204.2)"/><path class="cls-1" d="M305.68,424.94h0c-175.43-46.71-171.22-116.23-100.15-161.8-82.67,46-84.1,112.73,100.15,161.8" transform="translate(-152 -204.2)"/><path class="cls-1" d="M205.44,263.09l.05,0C289.41,217,455.21,192.2,596.31,228l11.31-6.74C459.83,183.77,285,212.79,205.44,263.09" transform="translate(-152 -204.2)"/></svg>