<?xml version="1.0" encoding="utf-8"?>
<!-- Generator: Adobe Illustrator 25.4.1, SVG Export Plug-In . SVG Version: 6.00 Build 0)  -->
<svg version="1.1" id="Layer_1" xmlns="http://www.w3.org/2000/svg" xmlns:xlink="http://www.w3.org/1999/xlink" x="0px" y="0px"
	 viewBox="0 0 695.34 525" style="enable-background:new 0 0 695.34 525;" xml:space="preserve">
<style type="text/css">
	.st0{fill:#F4F3EF;}
	.st1{fill:none;}
	.st2{fill:#888888;}
	.st3{font-family:'Lora-Italic';}
	.st4{font-size:10px;}
	.st5{fill:#3D3D3D;}
	.st6{font-family:'Montserrat-Bold';}
	.st7{font-size:9px;}
	.st8{letter-spacing:2;}
	.st9{fill:none;stroke:#64ACDF;stroke-width:2;}
	.st10{fill:#565656;}
	.st11{fill:#64ACDF;}
	.st12{fill:#FBB03B;}
	.st13{font-family:'Montserrat-Regular';}
	.st14{font-size:14.4443px;}
	.st15{fill:none;stroke:#999999;stroke-width:0.5;stroke-miterlimit:10;}
	.st16{fill:#80AA53;}
	.st17{fill:#FF6562;}
</style>
<rect class="st0" width="695.34" height="526"/>
<rect x="7.87" y="102.9" class="st1" width="162.47" height="335.1"/>
<text transform="matrix(1 0 0 1 7.8669 110.4485)" class="st2 st3 st4">Strong programs for housing OORs </text>
<text transform="matrix(1 0 0 1 7.8669 122.4485)" class="st2 st3 st4">and for community development </text>
<text transform="matrix(1 0 0 1 7.8669 134.4485)" class="st2 st3 st4">(public works and downtown </text>
<text transform="matrix(1 0 0 1 7.8669 146.4485)" class="st2 st3 st4">revitalization)</text>
<text transform="matrix(1 0 0 1 7.8669 170.4485)" class="st2 st3 st4">Presence of NIFA resources </text>
<text transform="matrix(1 0 0 1 7.8669 182.4485)" class="st2 st3 st4">Elected officials are deeply </text>
<text transform="matrix(1 0 0 1 7.8669 194.4485)" class="st2 st3 st4">connected to their towns or cities</text>
<text transform="matrix(1 0 0 1 7.8669 218.4485)" class="st2 st3 st4">Successful residential Tax </text>
<text transform="matrix(1 0 0 1 7.8669 230.4485)" class="st2 st3 st4">Increment Financing (TIF)</text>
<text transform="matrix(1 0 0 1 7.8669 254.4485)" class="st2 st3 st4">Generational wealth and </text>
<text transform="matrix(1 0 0 1 7.8669 266.4485)" class="st2 st3 st4">generational health</text>
<text transform="matrix(1 0 0 1 7.8669 290.4485)" class="st2 st3 st4">Economic developers in the region </text>
<text transform="matrix(1 0 0 1 7.8669 302.4485)" class="st2 st3 st4">are very engaged</text>
<text transform="matrix(1 0 0 1 7.8669 326.4485)" class="st2 st3 st4">Good hospitals and healthcare</text>
<text transform="matrix(1 0 0 1 7.8669 350.4485)" class="st2 st3 st4">Southeast Nebraskan’s passion and </text>
<text transform="matrix(1 0 0 1 7.8669 362.4485)" class="st2 st3 st4">dedication to their community</text>
<text transform="matrix(1 0 0 1 7.8669 386.4485)" class="st2 st3 st4">Connecting roads</text>
<text transform="matrix(1 0 0 1 7.8669 410.4485)" class="st2 st3 st4">Communities’ response to disasters</text>
<text transform="matrix(1 0 0 1 7.8669 422.4485)" class="st2 st3 st4">Partnerships with state and </text>
<text transform="matrix(1 0 0 1 7.8669 434.4485)" class="st2 st3 st4">regional utility companies</text>
<rect x="184.87" y="102.9" class="st1" width="157.47" height="335.1"/>
<text transform="matrix(1 0 0 1 184.8669 110.4485)" class="st2 st3 st4">Neglect of housing programs at </text>
<text transform="matrix(1 0 0 1 184.8669 122.4485)" class="st2 st3 st4">county level</text>
<text transform="matrix(1 0 0 1 184.8669 146.4485)" class="st2 st3 st4">Slow population growth or </text>
<text transform="matrix(1 0 0 1 184.8669 158.4485)" class="st2 st3 st4">difficulty recruiting workforce and </text>
<text transform="matrix(1 0 0 1 184.8669 170.4485)" class="st2 st3 st4">qualified leadership</text>
<text transform="matrix(1 0 0 1 184.8669 194.4485)" class="st2 st3 st4">Aging infrastructure (i.e. bridges, </text>
<text transform="matrix(1 0 0 1 184.8669 206.4485)" class="st2 st3 st4">streets, water treatment plants, </text>
<text transform="matrix(1 0 0 1 184.8669 218.4485)" class="st2 st3 st4">etc.)</text>
<text transform="matrix(1 0 0 1 184.8669 242.4485)" class="st2 st3 st4">Access to funding</text>
<text transform="matrix(1 0 0 1 184.8669 266.4485)" class="st2 st3 st4">Fluctuating utility costs</text>
<text transform="matrix(1 0 0 1 184.8669 290.4485)" class="st2 st3 st4">Lodging (lack of hotels throughout </text>
<text transform="matrix(1 0 0 1 184.8669 302.4485)" class="st2 st3 st4">the region to complement tourist </text>
<text transform="matrix(1 0 0 1 184.8669 314.4485)" class="st2 st3 st4">attractions)</text>
<text transform="matrix(1 0 0 1 184.8669 338.4485)" class="st2 st3 st4">Lack of direct collaboration </text>
<text transform="matrix(1 0 0 1 184.8669 350.4485)" class="st2 st3 st4">between local EDO agencies and </text>
<text transform="matrix(1 0 0 1 184.8669 362.4485)" class="st2 st3 st4">CVB agencies</text>
<rect x="350.87" y="102.9" class="st1" width="161.47" height="492.1"/>
<text transform="matrix(1 0 0 1 350.8668 110.4485)" class="st2 st3 st4">Stronger communication with </text>
<text transform="matrix(1 0 0 1 350.8668 122.4485)" class="st2 st3 st4">Education Service Units (ESU) to </text>
<text transform="matrix(1 0 0 1 350.8668 134.4485)" class="st2 st3 st4">promote workforce development </text>
<text transform="matrix(1 0 0 1 350.8668 146.4485)" class="st2 st3 st4">and include younger workforce in </text>
<text transform="matrix(1 0 0 1 350.8668 158.4485)" class="st2 st3 st4">BRE opportunities</text>
<text transform="matrix(1 0 0 1 350.8668 182.4485)" class="st2 st3 st4">Education to employers and </text>
<text transform="matrix(1 0 0 1 350.8668 194.4485)" class="st2 st3 st4">engagement as the “first line” of </text>
<text transform="matrix(1 0 0 1 350.8668 206.4485)" class="st2 st3 st4">interaction with potential </text>
<text transform="matrix(1 0 0 1 350.8668 218.4485)" class="st2 st3 st4">workforce about housing incentives </text>
<text transform="matrix(1 0 0 1 350.8668 230.4485)" class="st2 st3 st4">and BRE initiatives</text>
<text transform="matrix(1 0 0 1 350.8668 254.4485)" class="st2 st3 st4">Education/outreach to county </text>
<text transform="matrix(1 0 0 1 350.8668 266.4485)" class="st2 st3 st4">commissioners about the </text>
<text transform="matrix(1 0 0 1 350.8668 278.4485)" class="st2 st3 st4">importance of BRE, housing, and </text>
<text transform="matrix(1 0 0 1 350.8668 290.4485)" class="st2 st3 st4">workforce initiatives as regional </text>
<text transform="matrix(1 0 0 1 350.8668 302.4485)" class="st2 st3 st4">human infrastructure</text>
<text transform="matrix(1 0 0 1 350.8668 326.4485)" class="st2 st3 st4">Increase number of internships and </text>
<text transform="matrix(1 0 0 1 350.8668 338.4485)" class="st2 st3 st4">apprenticeships with local </text>
<text transform="matrix(1 0 0 1 350.8668 350.4485)" class="st2 st3 st4">employers</text>
<text transform="matrix(1 0 0 1 350.8668 374.4485)" class="st2 st3 st4">Extending highways to larger </text>
<text transform="matrix(1 0 0 1 350.8668 386.4485)" class="st2 st3 st4">corridors (interstates, larger </text>
<text transform="matrix(1 0 0 1 350.8668 398.4485)" class="st2 st3 st4">communities, out of state)</text>
<text transform="matrix(1 0 0 1 350.8668 422.4485)" class="st2 st3 st4">Subsidizing costs of raising utility </text>
<text transform="matrix(1 0 0 1 350.8668 434.4485)" class="st2 st3 st4">prices (incentives to keep costs </text>
<text transform="matrix(1 0 0 1 350.8668 446.4485)" class="st2 st3 st4">affordable)</text>
<text transform="matrix(1 0 0 1 350.8668 470.4485)" class="st2 st3 st4">Strengthening partnerships </text>
<text transform="matrix(1 0 0 1 350.8668 482.4485)" class="st2 st3 st4">between local EDO’s and CVB’s </text>
<text transform="matrix(1 0 0 1 350.8668 506.4485)" class="st2 st3 st4">Identify additional sites for wind </text>
<text transform="matrix(1 0 0 1 350.8668 518.4485)" class="st2 st3 st4">and solar farms</text>
<rect x="520.87" y="102.9" class="st1" width="162.47" height="335.1"/>
<text transform="matrix(1 0 0 1 520.8669 110.4485)" class="st2 st3 st4">Strong programs for housing OORs </text>
<text transform="matrix(1 0 0 1 520.8669 122.4485)" class="st2 st3 st4">and for community development </text>
<text transform="matrix(1 0 0 1 520.8669 134.4485)" class="st2 st3 st4">(public works and downtown </text>
<text transform="matrix(1 0 0 1 520.8669 146.4485)" class="st2 st3 st4">revitalization)</text>
<text transform="matrix(1 0 0 1 520.8669 170.4485)" class="st2 st3 st4">Presence of NIFA resources </text>
<text transform="matrix(1 0 0 1 520.8669 182.4485)" class="st2 st3 st4">Elected officials are deeply </text>
<text transform="matrix(1 0 0 1 520.8669 194.4485)" class="st2 st3 st4">connected to their towns or cities</text>
<text transform="matrix(1 0 0 1 520.8669 218.4485)" class="st2 st3 st4">Successful residential Tax </text>
<text transform="matrix(1 0 0 1 520.8669 230.4485)" class="st2 st3 st4">Increment Financing (TIF)</text>
<text transform="matrix(1 0 0 1 520.8669 254.4485)" class="st2 st3 st4">Generational wealth and </text>
<text transform="matrix(1 0 0 1 520.8669 266.4485)" class="st2 st3 st4">generational health</text>
<text transform="matrix(1 0 0 1 520.8669 290.4485)" class="st2 st3 st4">Economic developers in the region </text>
<text transform="matrix(1 0 0 1 520.8669 302.4485)" class="st2 st3 st4">are very engaged</text>
<text transform="matrix(1 0 0 1 520.8669 326.4485)" class="st2 st3 st4">Good hospitals and healthcare</text>
<text transform="matrix(1 0 0 1 520.8669 350.4485)" class="st2 st3 st4">Southeast Nebraskan’s passion and </text>
<text transform="matrix(1 0 0 1 520.8669 362.4485)" class="st2 st3 st4">dedication to their community</text>
<text transform="matrix(1 0 0 1 520.8669 386.4485)" class="st2 st3 st4">Connecting roads</text>
<text transform="matrix(1 0 0 1 520.8669 410.4485)" class="st2 st3 st4">Communities’ response to disasters</text>
<text transform="matrix(1 0 0 1 520.8669 422.4485)" class="st2 st3 st4">Partnerships with state and </text>
<text transform="matrix(1 0 0 1 520.8669 434.4485)" class="st2 st3 st4">regional utility companies</text>
<text transform="matrix(1 0 0 1 4.5602 30.56)" class="st5 st6 st7 st8">SWOT ANALYSIS</text>
<line class="st9" x1="4.56" y1="6.47" x2="90.96" y2="6.47"/>
<g>
	<rect x="4.91" y="48.14" class="st1" width="716.43" height="16.86"/>
	<text transform="matrix(1 0 0 1 4.911 55.6884)" class="st10 st3 st4">The Strengths, Weaknesses, Opportunities, and Threats (SWOT) analysis from the second CEDS focus group workshop is summarized in this table.</text>
</g>
<rect x="7.25" y="73" class="st11" width="169.98" height="21"/>
<rect x="177.62" y="72.84" class="st12" width="169.98" height="21"/>
<rect x="182.28" y="79.89" class="st1" width="154.06" height="14.11"/>
<text transform="matrix(0.9 0 0 1 182.2819 89.5352)" class="st0 st13 st14">Weaknesses </text>
<rect x="16.28" y="79.89" class="st1" width="154.06" height="14.11"/>
<text transform="matrix(0.9 0 0 1 16.2819 89.5352)" class="st0 st13 st14">Strengths</text>
<line class="st15" x1="177.84" y1="94" x2="177.84" y2="526"/>
<rect x="347.6" y="72.84" class="st16" width="169.98" height="21"/>
<rect x="516.88" y="72.84" class="st17" width="169.98" height="21"/>
<line class="st15" x1="516.84" y1="79" x2="516.84" y2="525"/>
<line class="st15" x1="347.84" y1="79" x2="347.84" y2="525"/>
<rect x="355.28" y="79.89" class="st1" width="154.06" height="14.11"/>
<text transform="matrix(0.9 0 0 1 355.2819 89.5352)" class="st0 st13 st14">Opportunities</text>
<rect x="528.28" y="79.89" class="st1" width="154.06" height="14.11"/>
<text transform="matrix(0.9 0 0 1 528.2819 89.5352)" class="st0 st13 st14">Threats</text>
</svg>
