<?xml version="1.0" encoding="utf-8"?>
<!-- Generator: Adobe Illustrator 25.4.1, SVG Export Plug-In . SVG Version: 6.00 Build 0)  -->
<svg version="1.1" id="Layer_1" xmlns="http://www.w3.org/2000/svg" xmlns:xlink="http://www.w3.org/1999/xlink" x="0px" y="0px"
	 viewBox="0 0 792.2 650" style="enable-background:new 0 0 792.2 650;" xml:space="preserve">
<style type="text/css">
	.st0{fill:#F4F3EF;}
	.st1{fill:none;}
	.st2{fill:#888888;}
	.st3{font-family:'Lora-Italic';}
	.st4{font-size:10px;}
	.st5{fill:#3D3D3D;}
	.st6{font-family:'Montserrat-Bold';}
	.st7{font-size:9px;}
	.st8{letter-spacing:3;}
	.st9{fill:none;stroke:#64ACDF;stroke-width:2;}
	.st10{fill:#565656;}
	.st11{fill:#64ACDF;}
	.st12{fill:#FBB03B;}
	.st13{font-family:'Montserrat-Regular';}
	.st14{font-size:13px;}
	.st15{fill:none;stroke:#999999;stroke-width:0.5;stroke-miterlimit:10;}
	.st16{fill:#80AA53;}
	.st17{fill:#FF6562;}
</style>
<rect x="46.43" y="45" class="st0" width="695.34" height="526"/>
<rect x="54.3" y="147.9" class="st1" width="162.47" height="335.1"/>
<text transform="matrix(1 0 0 1 54.2969 155.4485)"><tspan x="0" y="0" class="st2 st3 st4">Strong programs for housing OORs </tspan><tspan x="0" y="12" class="st2 st3 st4">and for community development </tspan><tspan x="0" y="24" class="st2 st3 st4">(public works and downtown </tspan><tspan x="0" y="36" class="st2 st3 st4">revitalization)</tspan><tspan x="0" y="60" class="st2 st3 st4">Presence of NIFA resources </tspan><tspan x="0" y="72" class="st2 st3 st4">Elected officials are deeply </tspan><tspan x="0" y="84" class="st2 st3 st4">connected to their towns or cities</tspan><tspan x="0" y="108" class="st2 st3 st4">Successful residential Tax </tspan><tspan x="0" y="120" class="st2 st3 st4">Increment Financing (TIF)</tspan><tspan x="0" y="144" class="st2 st3 st4">Generational wealth and </tspan><tspan x="0" y="156" class="st2 st3 st4">generational health</tspan><tspan x="0" y="180" class="st2 st3 st4">Economic developers in the region </tspan><tspan x="0" y="192" class="st2 st3 st4">are very engaged</tspan><tspan x="0" y="216" class="st2 st3 st4">Good hospitals and healthcare</tspan><tspan x="0" y="240" class="st2 st3 st4">Southeast Nebraskan’s passion and </tspan><tspan x="0" y="252" class="st2 st3 st4">dedication to their community</tspan><tspan x="0" y="276" class="st2 st3 st4">Connecting roads</tspan><tspan x="0" y="300" class="st2 st3 st4">Communities’ response to disasters</tspan><tspan x="0" y="312" class="st2 st3 st4">Partnerships with state and </tspan><tspan x="0" y="324" class="st2 st3 st4">regional utility companies</tspan></text>
<rect x="231.3" y="147.9" class="st1" width="157.47" height="335.1"/>
<text transform="matrix(1 0 0 1 231.2969 155.4485)"><tspan x="0" y="0" class="st2 st3 st4">Neglect of housing programs at </tspan><tspan x="0" y="12" class="st2 st3 st4">county level</tspan><tspan x="0" y="36" class="st2 st3 st4">Slow population growth or </tspan><tspan x="0" y="48" class="st2 st3 st4">difficulty recruiting workforce and </tspan><tspan x="0" y="60" class="st2 st3 st4">qualified leadership</tspan><tspan x="0" y="84" class="st2 st3 st4">Aging infrastructure (i.e. bridges, </tspan><tspan x="0" y="96" class="st2 st3 st4">streets, water treatment plants, </tspan><tspan x="0" y="108" class="st2 st3 st4">etc.)</tspan><tspan x="0" y="132" class="st2 st3 st4">Access to funding</tspan><tspan x="0" y="156" class="st2 st3 st4">Fluctuating utility costs</tspan><tspan x="0" y="180" class="st2 st3 st4">Lodging (lack of hotels throughout </tspan><tspan x="0" y="192" class="st2 st3 st4">the region to complement tourist </tspan><tspan x="0" y="204" class="st2 st3 st4">attractions)</tspan><tspan x="0" y="228" class="st2 st3 st4">Lack of direct collaboration </tspan><tspan x="0" y="240" class="st2 st3 st4">between local EDO agencies and </tspan><tspan x="0" y="252" class="st2 st3 st4">CVB agencies</tspan></text>
<rect x="397.3" y="147.9" class="st1" width="161.47" height="492.1"/>
<text transform="matrix(1 0 0 1 397.2968 155.4485)"><tspan x="0" y="0" class="st2 st3 st4">Stronger communication with </tspan><tspan x="0" y="12" class="st2 st3 st4">Education Service Units (ESU) to </tspan><tspan x="0" y="24" class="st2 st3 st4">promote workforce development </tspan><tspan x="0" y="36" class="st2 st3 st4">and include younger workforce in </tspan><tspan x="0" y="48" class="st2 st3 st4">BRE opportunities</tspan><tspan x="0" y="72" class="st2 st3 st4">Education to employers and </tspan><tspan x="0" y="84" class="st2 st3 st4">engagement as the “first line” of </tspan><tspan x="0" y="96" class="st2 st3 st4">interaction with potential </tspan><tspan x="0" y="108" class="st2 st3 st4">workforce about housing incentives </tspan><tspan x="0" y="120" class="st2 st3 st4">and BRE initiatives</tspan><tspan x="0" y="144" class="st2 st3 st4">Education/outreach to county </tspan><tspan x="0" y="156" class="st2 st3 st4">commissioners about the </tspan><tspan x="0" y="168" class="st2 st3 st4">importance of BRE, housing, and </tspan><tspan x="0" y="180" class="st2 st3 st4">workforce initiatives as regional </tspan><tspan x="0" y="192" class="st2 st3 st4">human infrastructure</tspan><tspan x="0" y="216" class="st2 st3 st4">Increase number of internships and </tspan><tspan x="0" y="228" class="st2 st3 st4">apprenticeships with local </tspan><tspan x="0" y="240" class="st2 st3 st4">employers</tspan><tspan x="0" y="264" class="st2 st3 st4">Extending highways to larger </tspan><tspan x="0" y="276" class="st2 st3 st4">corridors (interstates, larger </tspan><tspan x="0" y="288" class="st2 st3 st4">communities, out of state)</tspan><tspan x="0" y="312" class="st2 st3 st4">Subsidizing costs of raising utility </tspan><tspan x="0" y="324" class="st2 st3 st4">prices (incentives to keep costs </tspan><tspan x="0" y="336" class="st2 st3 st4">affordable)</tspan><tspan x="0" y="360" class="st2 st3 st4">Strengthening partnerships </tspan><tspan x="0" y="372" class="st2 st3 st4">between local EDO’s and CVB’s </tspan><tspan x="0" y="396" class="st2 st3 st4">Identify additional sites for wind </tspan><tspan x="0" y="408" class="st2 st3 st4">and solar farms</tspan></text>
<rect x="567.3" y="147.9" class="st1" width="162.47" height="335.1"/>
<text transform="matrix(1 0 0 1 567.2969 155.4485)"><tspan x="0" y="0" class="st2 st3 st4">Strong programs for housing OORs </tspan><tspan x="0" y="12" class="st2 st3 st4">and for community development </tspan><tspan x="0" y="24" class="st2 st3 st4">(public works and downtown </tspan><tspan x="0" y="36" class="st2 st3 st4">revitalization)</tspan><tspan x="0" y="60" class="st2 st3 st4">Presence of NIFA resources </tspan><tspan x="0" y="72" class="st2 st3 st4">Elected officials are deeply </tspan><tspan x="0" y="84" class="st2 st3 st4">connected to their towns or cities</tspan><tspan x="0" y="108" class="st2 st3 st4">Successful residential Tax </tspan><tspan x="0" y="120" class="st2 st3 st4">Increment Financing (TIF)</tspan><tspan x="0" y="144" class="st2 st3 st4">Generational wealth and </tspan><tspan x="0" y="156" class="st2 st3 st4">generational health</tspan><tspan x="0" y="180" class="st2 st3 st4">Economic developers in the region </tspan><tspan x="0" y="192" class="st2 st3 st4">are very engaged</tspan><tspan x="0" y="216" class="st2 st3 st4">Good hospitals and healthcare</tspan><tspan x="0" y="240" class="st2 st3 st4">Southeast Nebraskan’s passion and </tspan><tspan x="0" y="252" class="st2 st3 st4">dedication to their community</tspan><tspan x="0" y="276" class="st2 st3 st4">Connecting roads</tspan><tspan x="0" y="300" class="st2 st3 st4">Communities’ response to disasters</tspan><tspan x="0" y="312" class="st2 st3 st4">Partnerships with state and </tspan><tspan x="0" y="324" class="st2 st3 st4">regional utility companies</tspan></text>
<text transform="matrix(1 0 0 1 50.9902 75.56)" class="st5 st6 st7 st8">SWOT ANALYSIS</text>
<line class="st9" x1="50.99" y1="51.47" x2="137.39" y2="51.47"/>
<g>
	<rect x="51.34" y="93.14" class="st1" width="716.43" height="16.86"/>
	<text transform="matrix(1 0 0 1 51.341 100.6884)" class="st10 st3 st4">The Strengths, Weaknesses, Opportunities, and Threats (SWOT) analysis from the second CEDS focus group workshop is summarized in this table.</text>
</g>
<rect x="53.68" y="118" class="st11" width="169.98" height="21"/>
<rect x="224.05" y="117.84" class="st12" width="169.98" height="21"/>
<rect x="228.71" y="124.89" class="st1" width="154.06" height="14.11"/>
<text transform="matrix(1 0 0 1.1111 228.7119 134.5355)" class="st0 st13 st14">Weaknesses </text>
<rect x="62.71" y="124.89" class="st1" width="154.06" height="14.11"/>
<text transform="matrix(1 0 0 1.1111 62.7119 134.5355)" class="st0 st13 st14">Strengths</text>
<line class="st15" x1="224.27" y1="139" x2="224.27" y2="571"/>
<rect x="394.03" y="117.84" class="st16" width="169.98" height="21"/>
<rect x="563.31" y="117.84" class="st17" width="169.98" height="21"/>
<line class="st15" x1="563.27" y1="124" x2="563.27" y2="570"/>
<line class="st15" x1="394.27" y1="124" x2="394.27" y2="570"/>
<rect x="401.71" y="124.89" class="st1" width="154.06" height="14.11"/>
<text transform="matrix(1 0 0 1.1111 401.7119 134.5355)" class="st0 st13 st14">Opportunities</text>
<rect x="574.71" y="124.89" class="st1" width="154.06" height="14.11"/>
<text transform="matrix(1 0 0 1.1111 574.7119 134.5355)" class="st0 st13 st14">Threats</text>
</svg>
