<?xml version="1.0" encoding="utf-8"?>
<!-- Generator: Adobe Illustrator 25.4.1, SVG Export Plug-In . SVG Version: 6.00 Build 0)  -->
<svg version="1.1" id="Layer_1" xmlns="http://www.w3.org/2000/svg" xmlns:xlink="http://www.w3.org/1999/xlink" x="0px" y="0px"
	 viewBox="0 0 533.93 508.34" style="enable-background:new 0 0 533.93 508.34;" xml:space="preserve">
<style type="text/css">
	.st0{fill:#F4F3EF;}
	.st1{fill:none;}
	.st2{fill:#5592B7;}
	.st3{font-family:'Montserrat-SemiBold';}
	.st4{font-size:16px;}
	.st5{letter-spacing:1;}
	.st6{fill:none;stroke:#64ACDF;stroke-width:0.5;stroke-miterlimit:10;}
	.st7{fill:#64ACDF;}
	.st8{font-family:'Lora-Italic';}
	.st9{font-size:28px;}
</style>
<rect x="52.78" y="80.25" class="st0" width="428.38" height="319"/>
<g>
	<rect x="109.31" y="94.36" class="st1" width="308.82" height="26.35"/>
	<text transform="matrix(1 0 0 1 109.3083 106.2317)" class="st2 st3 st4 st5">Economic Vision for SENDD</text>
</g>
<line class="st6" x1="168.3" y1="166.79" x2="359.14" y2="166.79"/>
<line class="st6" x1="168.3" y1="383.97" x2="359.14" y2="383.97"/>
<g>
	<rect x="46.65" y="196.12" class="st1" width="434.15" height="219.52"/>
	<text transform="matrix(0.9998 0.0175 -0.0175 0.9998 67.7934 217.178)"><tspan x="0" y="0" class="st7 st8 st9">I</tspan><tspan x="9.78" y="-0.24" class="st7 st8 st9">n</tspan><tspan x="27.46" y="-0.51" class="st7 st8 st9">c</tspan><tspan x="41.16" y="-0.75" class="st7 st8 st9">r</tspan><tspan x="54.35" y="-0.98" class="st7 st8 st9">e</tspan><tspan x="68.17" y="-1.24" class="st7 st8 st9">a</tspan><tspan x="83.97" y="-1.49" class="st7 st8 st9">s</tspan><tspan x="96.41" y="-1.72" class="st7 st8 st9">e</tspan><tspan x="110.22" y="-1.91" class="st7 st8 st9"> </tspan><tspan x="118.04" y="-2.09" class="st7 st8 st9">r</tspan><tspan x="131.24" y="-2.33" class="st7 st8 st9">e</tspan><tspan x="145.05" y="-2.58" class="st7 st8 st9">g</tspan><tspan x="160.01" y="-2.79" class="st7 st8 st9">i</tspan><tspan x="169.54" y="-3.01" class="st7 st8 st9">o</tspan><tspan x="184.58" y="-3.29" class="st7 st8 st9">n</tspan><tspan x="202.26" y="-3.58" class="st7 st8 st9">a</tspan><tspan x="218.06" y="-3.79" class="st7 st8 st9">l</tspan><tspan x="226.44" y="-3.94" class="st7 st8 st9"> </tspan><tspan x="234.26" y="-4.13" class="st7 st8 st9">g</tspan><tspan x="249.22" y="-4.38" class="st7 st8 st9">r</tspan><tspan x="262.42" y="-4.63" class="st7 st8 st9">o</tspan><tspan x="277.46" y="-4.96" class="st7 st8 st9">w</tspan><tspan x="300.34" y="-5.25" class="st7 st8 st9">t</tspan><tspan x="310.99" y="-5.49" class="st7 st8 st9">h</tspan><tspan x="327.46" y="-5.7" class="st7 st8 st9"> </tspan><tspan x="335.28" y="-5.91" class="st7 st8 st9">a</tspan><tspan x="351.08" y="-6.2" class="st7 st8 st9">n</tspan><tspan x="368.76" y="-6.49" class="st7 st8 st9">d</tspan><tspan x="384.76" y="-6.69" class="st7 st8 st9">,</tspan><tspan x="391.85" y="-6.82" class="st7 st8 st9"> </tspan><tspan x="11.7" y="33.37" class="st7 st8 st9">r</tspan><tspan x="24.9" y="33.14" class="st7 st8 st9">e</tspan><tspan x="38.71" y="32.91" class="st7 st8 st9">s</tspan><tspan x="51.15" y="32.71" class="st7 st8 st9">i</tspan><tspan x="60.68" y="32.56" class="st7 st8 st9">l</tspan><tspan x="69.07" y="32.4" class="st7 st8 st9">i</tspan><tspan x="78.59" y="32.2" class="st7 st8 st9">e</tspan><tspan x="92.41" y="31.92" class="st7 st8 st9">n</tspan><tspan x="110.08" y="31.65" class="st7 st8 st9">c</tspan><tspan x="123.78" y="31.41" class="st7 st8 st9">e</tspan><tspan x="137.59" y="31.22" class="st7 st8 st9"> </tspan><tspan x="145.41" y="31.06" class="st7 st8 st9">t</tspan><tspan x="156.06" y="30.82" class="st7 st8 st9">h</tspan><tspan x="172.54" y="30.54" class="st7 st8 st9">a</tspan><tspan x="188.34" y="30.31" class="st7 st8 st9">t</tspan><tspan x="198.99" y="30.15" class="st7 st8 st9"> </tspan><tspan x="206.81" y="29.96" class="st7 st8 st9">e</tspan><tspan x="220.62" y="29.69" class="st7 st8 st9">n</tspan><tspan x="238.29" y="29.39" class="st7 st8 st9">h</tspan><tspan x="254.77" y="29.11" class="st7 st8 st9">a</tspan><tspan x="270.57" y="28.81" class="st7 st8 st9">n</tspan><tspan x="288.24" y="28.54" class="st7 st8 st9">c</tspan><tspan x="301.94" y="28.3" class="st7 st8 st9">e</tspan><tspan x="315.75" y="28.07" class="st7 st8 st9">s</tspan><tspan x="328.2" y="27.89" class="st7 st8 st9"> </tspan><tspan x="336.01" y="27.69" class="st7 st8 st9">o</tspan><tspan x="351.06" y="27.41" class="st7 st8 st9">u</tspan><tspan x="368.12" y="27.15" class="st7 st8 st9">r</tspan><tspan x="381.32" y="26.97" class="st7 st8 st9"> </tspan><tspan x="-3.72" y="67.21" class="st7 st8 st9">n</tspan><tspan x="13.96" y="66.91" class="st7 st8 st9">a</tspan><tspan x="29.76" y="66.68" class="st7 st8 st9">t</tspan><tspan x="40.41" y="66.44" class="st7 st8 st9">u</tspan><tspan x="57.47" y="66.18" class="st7 st8 st9">r</tspan><tspan x="70.66" y="65.92" class="st7 st8 st9">a</tspan><tspan x="86.46" y="65.71" class="st7 st8 st9">l</tspan><tspan x="94.84" y="65.58" class="st7 st8 st9">,</tspan><tspan x="101.94" y="65.45" class="st7 st8 st9"> </tspan><tspan x="109.76" y="65.25" class="st7 st8 st9">b</tspan><tspan x="124.52" y="64.97" class="st7 st8 st9">u</tspan><tspan x="141.58" y="64.74" class="st7 st8 st9">i</tspan><tspan x="151.11" y="64.58" class="st7 st8 st9">l</tspan><tspan x="159.49" y="64.42" class="st7 st8 st9">t</tspan><tspan x="170.15" y="64.26" class="st7 st8 st9">,</tspan><tspan x="177.24" y="64.13" class="st7 st8 st9"> </tspan><tspan x="185.06" y="63.93" class="st7 st8 st9">a</tspan><tspan x="200.86" y="63.64" class="st7 st8 st9">n</tspan><tspan x="218.53" y="63.34" class="st7 st8 st9">d</tspan><tspan x="234.53" y="63.14" class="st7 st8 st9">,</tspan><tspan x="241.63" y="63.01" class="st7 st8 st9"> </tspan><tspan x="249.45" y="62.82" class="st7 st8 st9">c</tspan><tspan x="263.15" y="62.57" class="st7 st8 st9">o</tspan><tspan x="278.19" y="62.22" class="st7 st8 st9">m</tspan><tspan x="303.17" y="61.79" class="st7 st8 st9">m</tspan><tspan x="328.15" y="61.42" class="st7 st8 st9">u</tspan><tspan x="345.21" y="61.12" class="st7 st8 st9">n</tspan><tspan x="362.89" y="60.88" class="st7 st8 st9">i</tspan><tspan x="372.42" y="60.7" class="st7 st8 st9">t</tspan><tspan x="383.06" y="60.48" class="st7 st8 st9">y</tspan><tspan x="397.91" y="60.28" class="st7 st8 st9"> </tspan><tspan x="45.29" y="100" class="st7 st8 st9">s</tspan><tspan x="57.73" y="99.76" class="st7 st8 st9">y</tspan><tspan x="72.57" y="99.53" class="st7 st8 st9">s</tspan><tspan x="85.01" y="99.32" class="st7 st8 st9">t</tspan><tspan x="95.67" y="99.11" class="st7 st8 st9">e</tspan><tspan x="109.48" y="98.77" class="st7 st8 st9">m</tspan><tspan x="134.46" y="98.45" class="st7 st8 st9">s</tspan><tspan x="146.9" y="98.27" class="st7 st8 st9"> </tspan><tspan x="154.72" y="98.11" class="st7 st8 st9">t</tspan><tspan x="165.37" y="97.87" class="st7 st8 st9">h</tspan><tspan x="181.84" y="97.61" class="st7 st8 st9">r</tspan><tspan x="195.04" y="97.37" class="st7 st8 st9">o</tspan><tspan x="210.08" y="97.09" class="st7 st8 st9">u</tspan><tspan x="227.14" y="96.81" class="st7 st8 st9">g</tspan><tspan x="242.1" y="96.53" class="st7 st8 st9">h</tspan><tspan x="258.57" y="96.26" class="st7 st8 st9">o</tspan><tspan x="273.62" y="95.98" class="st7 st8 st9">u</tspan><tspan x="290.68" y="95.73" class="st7 st8 st9">t</tspan><tspan x="301.33" y="95.57" class="st7 st8 st9"> </tspan><tspan x="309.15" y="95.41" class="st7 st8 st9">t</tspan><tspan x="319.8" y="95.17" class="st7 st8 st9">h</tspan><tspan x="336.27" y="94.91" class="st7 st8 st9">e</tspan><tspan x="350.08" y="94.72" class="st7 st8 st9"> </tspan><tspan x="21.37" y="134.02" class="st7 st8 st9">s</tspan><tspan x="33.81" y="133.78" class="st7 st8 st9">o</tspan><tspan x="48.85" y="133.5" class="st7 st8 st9">u</tspan><tspan x="65.91" y="133.26" class="st7 st8 st9">t</tspan><tspan x="76.56" y="133.03" class="st7 st8 st9">h</tspan><tspan x="93.04" y="132.76" class="st7 st8 st9">e</tspan><tspan x="106.85" y="132.5" class="st7 st8 st9">a</tspan><tspan x="122.65" y="132.26" class="st7 st8 st9">s</tspan><tspan x="135.09" y="132.05" class="st7 st8 st9">t</tspan><tspan x="145.74" y="131.89" class="st7 st8 st9"> </tspan><tspan x="153.56" y="131.64" class="st7 st8 st9">N</tspan><tspan x="175.35" y="131.32" class="st7 st8 st9">e</tspan><tspan x="189.16" y="131.08" class="st7 st8 st9">b</tspan><tspan x="203.92" y="130.83" class="st7 st8 st9">r</tspan><tspan x="217.12" y="130.58" class="st7 st8 st9">a</tspan><tspan x="232.92" y="130.33" class="st7 st8 st9">s</tspan><tspan x="245.36" y="130.09" class="st7 st8 st9">k</tspan><tspan x="260.38" y="129.82" class="st7 st8 st9">a</tspan><tspan x="276.18" y="129.62" class="st7 st8 st9"> </tspan><tspan x="284" y="129.43" class="st7 st8 st9">r</tspan><tspan x="297.19" y="129.2" class="st7 st8 st9">e</tspan><tspan x="311.01" y="128.95" class="st7 st8 st9">g</tspan><tspan x="325.97" y="128.73" class="st7 st8 st9">i</tspan><tspan x="335.49" y="128.52" class="st7 st8 st9">o</tspan><tspan x="350.54" y="128.23" class="st7 st8 st9">n</tspan><tspan x="368.22" y="128.02" class="st7 st8 st9">.</tspan></text>
</g>
</svg>
